{
	"patcher" : 	{
		"fileversion" : 1,
		"appversion" : 		{
			"major" : 5,
			"minor" : 1,
			"revision" : 9
		}
,
		"rect" : [ 130.0, 106.0, 769.0, 541.0 ],
		"bgcolor" : [ 0.623529, 0.929412, 1.0, 1.0 ],
		"bglocked" : 0,
		"defrect" : [ 130.0, 106.0, 769.0, 541.0 ],
		"openrect" : [ 0.0, 0.0, 0.0, 0.0 ],
		"openinpresentation" : 1,
		"default_fontsize" : 12.0,
		"default_fontface" : 0,
		"default_fontname" : "Arial",
		"gridonopen" : 0,
		"gridsize" : [ 5.0, 5.0 ],
		"gridsnaponopen" : 0,
		"toolbarvisible" : 1,
		"boxanimatetime" : 200,
		"imprint" : 0,
		"enablehscroll" : 1,
		"enablevscroll" : 1,
		"devicewidth" : 0.0,
		"boxes" : [ 			{
				"box" : 				{
					"maxclass" : "comment",
					"text" : "128",
					"fontname" : "Arial",
					"id" : "obj-56",
					"presentation_rect" : [ 31.0, 23.0, 25.0, 18.0 ],
					"fontsize" : 10.0,
					"patching_rect" : [ 134.0, 70.0, 25.0, 18.0 ],
					"presentation" : 1,
					"numinlets" : 1,
					"numoutlets" : 0
				}

			}
, 			{
				"box" : 				{
					"maxclass" : "newobj",
					"text" : "*~",
					"fontname" : "Arial",
					"outlettype" : [ "signal" ],
					"id" : "obj-55",
					"fontsize" : 12.0,
					"patching_rect" : [ 30.0, 282.0, 32.5, 20.0 ],
					"numinlets" : 2,
					"numoutlets" : 1
				}

			}
, 			{
				"box" : 				{
					"maxclass" : "newobj",
					"text" : "scale 0 128 0. 1. 1.071519",
					"fontname" : "Arial",
					"outlettype" : [ "" ],
					"id" : "obj-21",
					"fontsize" : 12.0,
					"patching_rect" : [ 44.0, 256.0, 152.0, 20.0 ],
					"numinlets" : 6,
					"numoutlets" : 1
				}

			}
, 			{
				"box" : 				{
					"maxclass" : "inlet",
					"outlettype" : [ "" ],
					"id" : "obj-8",
					"patching_rect" : [ 139.0, 116.0, 25.0, 25.0 ],
					"numinlets" : 0,
					"numoutlets" : 1,
					"comment" : "int: 0-157 master volume"
				}

			}
, 			{
				"box" : 				{
					"maxclass" : "inlet",
					"outlettype" : [ "" ],
					"id" : "obj-5",
					"patching_rect" : [ 82.0, 82.0, 25.0, 25.0 ],
					"numinlets" : 0,
					"numoutlets" : 1,
					"comment" : "int: 0-157 players volume"
				}

			}
, 			{
				"box" : 				{
					"maxclass" : "inlet",
					"outlettype" : [ "" ],
					"id" : "obj-1",
					"patching_rect" : [ 52.0, 82.0, 25.0, 25.0 ],
					"numinlets" : 0,
					"numoutlets" : 1,
					"comment" : "signal: audio"
				}

			}
, 			{
				"box" : 				{
					"maxclass" : "button",
					"bgcolor" : [ 0.913725, 0.913725, 0.913725, 0.0 ],
					"outlettype" : [ "bang" ],
					"id" : "obj-37",
					"presentation_rect" : [ 24.0, 26.0, 11.0, 11.0 ],
					"outlinecolor" : [ 0.333333, 0.333333, 0.333333, 1.0 ],
					"patching_rect" : [ 117.0, 70.0, 15.0, 15.0 ],
					"presentation" : 1,
					"numinlets" : 1,
					"numoutlets" : 1
				}

			}
, 			{
				"box" : 				{
					"maxclass" : "newobj",
					"text" : "scale 0 128 0. 1. 1.071519",
					"fontname" : "Arial",
					"outlettype" : [ "" ],
					"id" : "obj-62",
					"fontsize" : 12.0,
					"patching_rect" : [ 117.0, 158.0, 152.0, 20.0 ],
					"numinlets" : 6,
					"numoutlets" : 1
				}

			}
, 			{
				"box" : 				{
					"maxclass" : "newobj",
					"text" : "*~",
					"fontname" : "Arial",
					"outlettype" : [ "signal" ],
					"id" : "obj-36",
					"fontsize" : 12.0,
					"patching_rect" : [ 30.0, 322.0, 32.5, 20.0 ],
					"numinlets" : 2,
					"numoutlets" : 1
				}

			}
, 			{
				"box" : 				{
					"maxclass" : "outlet",
					"id" : "obj-7",
					"patching_rect" : [ 30.0, 382.0, 25.0, 25.0 ],
					"numinlets" : 1,
					"numoutlets" : 0,
					"comment" : "signal: scaled audio"
				}

			}
, 			{
				"box" : 				{
					"maxclass" : "inlet",
					"outlettype" : [ "" ],
					"id" : "obj-4",
					"patching_rect" : [ 30.0, 26.0, 25.0, 25.0 ],
					"numinlets" : 0,
					"numoutlets" : 1,
					"comment" : "toggle: Output OnOff"
				}

			}
, 			{
				"box" : 				{
					"maxclass" : "newobj",
					"text" : "gate~",
					"fontname" : "Arial",
					"outlettype" : [ "signal" ],
					"id" : "obj-271",
					"fontsize" : 12.0,
					"patching_rect" : [ 30.399902, 117.422424, 41.0, 20.0 ],
					"numinlets" : 2,
					"numoutlets" : 1
				}

			}
, 			{
				"box" : 				{
					"maxclass" : "newobj",
					"text" : "loadmess 1",
					"fontname" : "Arial",
					"outlettype" : [ "" ],
					"id" : "obj-236",
					"fontsize" : 12.0,
					"patching_rect" : [ 58.509216, 26.0, 72.0, 20.0 ],
					"numinlets" : 1,
					"hidden" : 1,
					"numoutlets" : 1
				}

			}
, 			{
				"box" : 				{
					"maxclass" : "toggle",
					"outlettype" : [ "int" ],
					"id" : "obj-226",
					"presentation_rect" : [ 6.0, 6.0, 14.0, 14.0 ],
					"patching_rect" : [ 31.399902, 64.0, 14.0, 14.0 ],
					"presentation" : 1,
					"numinlets" : 1,
					"numoutlets" : 1
				}

			}
, 			{
				"box" : 				{
					"maxclass" : "comment",
					"text" : "Output",
					"fontname" : "Arial",
					"id" : "obj-141",
					"presentation_rect" : [ 21.411072, 3.396759, 48.0, 20.0 ],
					"fontface" : 1,
					"fontsize" : 12.0,
					"patching_rect" : [ 172.571228, 20.086243, 50.0, 20.0 ],
					"presentation" : 1,
					"numinlets" : 1,
					"numoutlets" : 0
				}

			}
, 			{
				"box" : 				{
					"maxclass" : "newobj",
					"text" : "loadmess 128",
					"fontname" : "Arial",
					"outlettype" : [ "" ],
					"id" : "obj-216",
					"fontsize" : 12.0,
					"patching_rect" : [ 116.531494, 88.710571, 85.0, 20.0 ],
					"numinlets" : 1,
					"numoutlets" : 1
				}

			}
, 			{
				"box" : 				{
					"maxclass" : "slider",
					"bgcolor" : [ 1.0, 1.0, 1.0, 0.0 ],
					"outlettype" : [ "" ],
					"id" : "obj-61",
					"presentation_rect" : [ 6.0, 23.0, 14.0, 69.0 ],
					"size" : 157.0,
					"relative" : 1,
					"patching_rect" : [ 44.0, 150.0, 15.0, 100.0 ],
					"presentation" : 1,
					"numinlets" : 1,
					"numoutlets" : 1
				}

			}
, 			{
				"box" : 				{
					"maxclass" : "meter~",
					"prototypename" : "BenCello01",
					"bgcolor" : [ 0.0, 0.0, 1.0, 0.101961 ],
					"outlettype" : [ "float" ],
					"id" : "obj-168",
					"bordercolor" : [ 1.0, 1.0, 1.0, 0.0 ],
					"presentation_rect" : [ 7.0, 22.0, 12.0, 69.0 ],
					"patching_rect" : [ 68.0, 150.0, 15.0, 100.0 ],
					"presentation" : 1,
					"numinlets" : 1,
					"numoutlets" : 1
				}

			}
, 			{
				"box" : 				{
					"maxclass" : "panel",
					"bgcolor" : [ 1.0, 1.0, 1.0, 1.0 ],
					"border" : 1,
					"id" : "obj-123",
					"presentation_rect" : [ 2.0, 2.0, 69.0, 93.0 ],
					"patching_rect" : [ 15.346863, 10.730164, 263.039185, 349.163788 ],
					"presentation" : 1,
					"numinlets" : 1,
					"numoutlets" : 0
				}

			}
 ],
		"lines" : [ 			{
				"patchline" : 				{
					"source" : [ "obj-55", 0 ],
					"destination" : [ "obj-36", 0 ],
					"hidden" : 0,
					"midpoints" : [  ]
				}

			}
, 			{
				"patchline" : 				{
					"source" : [ "obj-36", 0 ],
					"destination" : [ "obj-7", 0 ],
					"hidden" : 0,
					"midpoints" : [  ]
				}

			}
, 			{
				"patchline" : 				{
					"source" : [ "obj-4", 0 ],
					"destination" : [ "obj-226", 0 ],
					"hidden" : 0,
					"midpoints" : [ 39.5, 59.5, 39.399902, 59.5 ]
				}

			}
, 			{
				"patchline" : 				{
					"source" : [ "obj-8", 0 ],
					"destination" : [ "obj-62", 0 ],
					"hidden" : 0,
					"midpoints" : [  ]
				}

			}
, 			{
				"patchline" : 				{
					"source" : [ "obj-62", 0 ],
					"destination" : [ "obj-36", 1 ],
					"hidden" : 0,
					"midpoints" : [ 126.5, 309.5, 53.0, 309.5 ]
				}

			}
, 			{
				"patchline" : 				{
					"source" : [ "obj-1", 0 ],
					"destination" : [ "obj-271", 1 ],
					"hidden" : 0,
					"midpoints" : [  ]
				}

			}
, 			{
				"patchline" : 				{
					"source" : [ "obj-226", 0 ],
					"destination" : [ "obj-271", 0 ],
					"hidden" : 0,
					"midpoints" : [  ]
				}

			}
, 			{
				"patchline" : 				{
					"source" : [ "obj-236", 0 ],
					"destination" : [ "obj-226", 0 ],
					"hidden" : 1,
					"midpoints" : [  ]
				}

			}
, 			{
				"patchline" : 				{
					"source" : [ "obj-1", 0 ],
					"destination" : [ "obj-168", 0 ],
					"hidden" : 0,
					"midpoints" : [  ]
				}

			}
, 			{
				"patchline" : 				{
					"source" : [ "obj-61", 0 ],
					"destination" : [ "obj-21", 0 ],
					"hidden" : 0,
					"midpoints" : [  ]
				}

			}
, 			{
				"patchline" : 				{
					"source" : [ "obj-21", 0 ],
					"destination" : [ "obj-55", 1 ],
					"hidden" : 0,
					"midpoints" : [  ]
				}

			}
, 			{
				"patchline" : 				{
					"source" : [ "obj-271", 0 ],
					"destination" : [ "obj-55", 0 ],
					"hidden" : 0,
					"midpoints" : [  ]
				}

			}
, 			{
				"patchline" : 				{
					"source" : [ "obj-5", 0 ],
					"destination" : [ "obj-61", 0 ],
					"hidden" : 0,
					"midpoints" : [  ]
				}

			}
, 			{
				"patchline" : 				{
					"source" : [ "obj-216", 0 ],
					"destination" : [ "obj-61", 0 ],
					"hidden" : 0,
					"midpoints" : [  ]
				}

			}
, 			{
				"patchline" : 				{
					"source" : [ "obj-37", 0 ],
					"destination" : [ "obj-216", 0 ],
					"hidden" : 0,
					"midpoints" : [  ]
				}

			}
, 			{
				"patchline" : 				{
					"source" : [ "obj-216", 0 ],
					"destination" : [ "obj-62", 0 ],
					"hidden" : 0,
					"midpoints" : [  ]
				}

			}
 ]
	}

}
