{
	"patcher" : 	{
		"fileversion" : 1,
		"rect" : [ 31.0, 63.0, 1156.0, 182.0 ],
		"bglocked" : 0,
		"defrect" : [ 31.0, 63.0, 1156.0, 182.0 ],
		"openrect" : [ 0.0, 0.0, 0.0, 0.0 ],
		"openinpresentation" : 1,
		"default_fontsize" : 12.0,
		"default_fontface" : 0,
		"default_fontname" : "Arial",
		"gridonopen" : 0,
		"gridsize" : [ 5.0, 5.0 ],
		"gridsnaponopen" : 0,
		"toolbarvisible" : 0,
		"boxanimatetime" : 200,
		"imprint" : 0,
		"enablehscroll" : 1,
		"enablevscroll" : 1,
		"devicewidth" : 0.0,
		"boxes" : [ 			{
				"box" : 				{
					"maxclass" : "message",
					"text" : "clearselection",
					"numinlets" : 2,
					"fontsize" : 12.0,
					"patching_rect" : [ 172.0, 308.0, 84.0, 18.0 ],
					"id" : "obj-15",
					"numoutlets" : 1,
					"outlettype" : [ "" ],
					"fontname" : "Arial"
				}

			}
, 			{
				"box" : 				{
					"maxclass" : "message",
					"text" : "select $1 $1 nil nil 1",
					"numinlets" : 2,
					"fontsize" : 12.0,
					"patching_rect" : [ 145.0, 353.0, 116.0, 18.0 ],
					"id" : "obj-12",
					"numoutlets" : 1,
					"outlettype" : [ "" ],
					"fontname" : "Arial"
				}

			}
, 			{
				"box" : 				{
					"maxclass" : "newobj",
					"text" : "t l l b",
					"numinlets" : 1,
					"fontsize" : 12.0,
					"patching_rect" : [ 145.0, 283.0, 46.0, 20.0 ],
					"id" : "obj-11",
					"numoutlets" : 3,
					"outlettype" : [ "", "", "bang" ],
					"fontname" : "Arial"
				}

			}
, 			{
				"box" : 				{
					"maxclass" : "newobj",
					"text" : "+ 500",
					"numinlets" : 2,
					"fontsize" : 12.0,
					"patching_rect" : [ 32.0, 313.0, 41.0, 20.0 ],
					"id" : "obj-6",
					"numoutlets" : 1,
					"outlettype" : [ "int" ],
					"fontname" : "Arial"
				}

			}
, 			{
				"box" : 				{
					"maxclass" : "newobj",
					"text" : "route int",
					"numinlets" : 1,
					"fontsize" : 12.0,
					"patching_rect" : [ 32.0, 61.0, 54.0, 20.0 ],
					"id" : "obj-5",
					"numoutlets" : 2,
					"outlettype" : [ "", "" ],
					"fontname" : "Arial"
				}

			}
, 			{
				"box" : 				{
					"maxclass" : "newobj",
					"text" : "cpuclock",
					"numinlets" : 1,
					"fontsize" : 12.0,
					"patching_rect" : [ 32.0, 256.0, 57.0, 20.0 ],
					"id" : "obj-35",
					"numoutlets" : 1,
					"outlettype" : [ "float" ],
					"fontname" : "Arial"
				}

			}
, 			{
				"box" : 				{
					"maxclass" : "newobj",
					"text" : "t i i",
					"numinlets" : 1,
					"fontsize" : 12.0,
					"patching_rect" : [ 32.0, 87.0, 32.5, 20.0 ],
					"id" : "obj-34",
					"numoutlets" : 2,
					"outlettype" : [ "int", "int" ],
					"fontname" : "Arial"
				}

			}
, 			{
				"box" : 				{
					"maxclass" : "newobj",
					"text" : "- 0",
					"numinlets" : 2,
					"fontsize" : 12.0,
					"patching_rect" : [ 32.0, 283.0, 32.5, 20.0 ],
					"id" : "obj-33",
					"numoutlets" : 1,
					"outlettype" : [ "int" ],
					"fontname" : "Arial"
				}

			}
, 			{
				"box" : 				{
					"maxclass" : "newobj",
					"text" : "qmetro 50",
					"numinlets" : 2,
					"fontsize" : 12.0,
					"patching_rect" : [ 32.0, 228.0, 65.0, 20.0 ],
					"id" : "obj-32",
					"numoutlets" : 1,
					"outlettype" : [ "bang" ],
					"fontname" : "Arial"
				}

			}
, 			{
				"box" : 				{
					"maxclass" : "newobj",
					"text" : "cpuclock",
					"numinlets" : 1,
					"fontsize" : 12.0,
					"patching_rect" : [ 107.0, 191.0, 57.0, 20.0 ],
					"id" : "obj-30",
					"numoutlets" : 1,
					"outlettype" : [ "float" ],
					"fontname" : "Arial"
				}

			}
, 			{
				"box" : 				{
					"maxclass" : "newobj",
					"text" : "* 100",
					"numinlets" : 2,
					"fontsize" : 12.0,
					"patching_rect" : [ 176.0, 215.0, 39.0, 20.0 ],
					"id" : "obj-29",
					"numoutlets" : 1,
					"outlettype" : [ "int" ],
					"fontname" : "Arial"
				}

			}
, 			{
				"box" : 				{
					"maxclass" : "newobj",
					"text" : "t b l",
					"numinlets" : 1,
					"fontsize" : 12.0,
					"patching_rect" : [ 162.0, 153.0, 32.5, 20.0 ],
					"id" : "obj-28",
					"numoutlets" : 2,
					"outlettype" : [ "bang", "" ],
					"fontname" : "Arial"
				}

			}
, 			{
				"box" : 				{
					"maxclass" : "newobj",
					"text" : "unpack",
					"numinlets" : 1,
					"fontsize" : 12.0,
					"patching_rect" : [ 176.0, 184.0, 49.0, 20.0 ],
					"id" : "obj-27",
					"numoutlets" : 2,
					"outlettype" : [ "int", "int" ],
					"fontname" : "Arial"
				}

			}
, 			{
				"box" : 				{
					"maxclass" : "newobj",
					"text" : "- 0",
					"numinlets" : 2,
					"fontsize" : 12.0,
					"patching_rect" : [ 107.0, 227.0, 32.5, 20.0 ],
					"id" : "obj-26",
					"numoutlets" : 1,
					"outlettype" : [ "int" ],
					"fontname" : "Arial"
				}

			}
, 			{
				"box" : 				{
					"maxclass" : "newobj",
					"text" : "togedge",
					"numinlets" : 1,
					"fontsize" : 12.0,
					"patching_rect" : [ 46.0, 118.0, 54.0, 20.0 ],
					"id" : "obj-24",
					"numoutlets" : 2,
					"outlettype" : [ "bang", "bang" ],
					"fontname" : "Arial"
				}

			}
, 			{
				"box" : 				{
					"maxclass" : "newobj",
					"text" : "onebang 1",
					"numinlets" : 2,
					"fontsize" : 12.0,
					"patching_rect" : [ 46.0, 147.0, 67.0, 20.0 ],
					"id" : "obj-23",
					"numoutlets" : 2,
					"outlettype" : [ "bang", "bang" ],
					"fontname" : "Arial"
				}

			}
, 			{
				"box" : 				{
					"maxclass" : "newobj",
					"text" : "cpuclock",
					"numinlets" : 1,
					"fontsize" : 12.0,
					"patching_rect" : [ 46.0, 174.0, 57.0, 20.0 ],
					"id" : "obj-22",
					"numoutlets" : 1,
					"outlettype" : [ "float" ],
					"fontname" : "Arial"
				}

			}
, 			{
				"box" : 				{
					"maxclass" : "inlet",
					"numinlets" : 0,
					"patching_rect" : [ 32.0, 27.0, 25.0, 25.0 ],
					"id" : "obj-21",
					"numoutlets" : 1,
					"outlettype" : [ "" ],
					"comment" : "toggle: enable"
				}

			}
, 			{
				"box" : 				{
					"maxclass" : "newobj",
					"text" : "pack 0 0 0 0",
					"numinlets" : 4,
					"fontsize" : 12.0,
					"patching_rect" : [ 145.0, 259.0, 111.0, 20.0 ],
					"id" : "obj-19",
					"numoutlets" : 1,
					"outlettype" : [ "" ],
					"fontname" : "Arial"
				}

			}
, 			{
				"box" : 				{
					"maxclass" : "newobj",
					"text" : "route /du /da /sp /ph",
					"numinlets" : 1,
					"fontsize" : 12.0,
					"patching_rect" : [ 162.0, 94.0, 117.0, 20.0 ],
					"id" : "obj-10",
					"numoutlets" : 5,
					"outlettype" : [ "", "", "", "", "" ],
					"fontname" : "Arial"
				}

			}
, 			{
				"box" : 				{
					"maxclass" : "message",
					"text" : "addchord 1 ( $1 ( $2 $4 $3 ) )",
					"numinlets" : 2,
					"fontsize" : 12.0,
					"patching_rect" : [ 159.0, 331.0, 167.0, 18.0 ],
					"id" : "obj-16",
					"numoutlets" : 1,
					"outlettype" : [ "" ],
					"fontname" : "Arial"
				}

			}
, 			{
				"box" : 				{
					"maxclass" : "newobj",
					"text" : "t b 0",
					"numinlets" : 1,
					"fontsize" : 12.0,
					"patching_rect" : [ 404.0, 141.0, 34.0, 20.0 ],
					"id" : "obj-13",
					"numoutlets" : 2,
					"outlettype" : [ "bang", "int" ],
					"fontname" : "Arial"
				}

			}
, 			{
				"box" : 				{
					"maxclass" : "inlet",
					"numinlets" : 0,
					"patching_rect" : [ 404.0, 22.0, 25.0, 25.0 ],
					"id" : "obj-3",
					"numoutlets" : 1,
					"outlettype" : [ "" ],
					"comment" : "reset"
				}

			}
, 			{
				"box" : 				{
					"maxclass" : "inlet",
					"numinlets" : 0,
					"patching_rect" : [ 162.0, 27.0, 25.0, 25.0 ],
					"id" : "obj-18",
					"numoutlets" : 1,
					"outlettype" : [ "" ],
					"comment" : "notes: date, pitch, duration, velocity"
				}

			}
, 			{
				"box" : 				{
					"maxclass" : "comment",
					"text" : "< MIDI to MIDIcents",
					"numinlets" : 1,
					"fontsize" : 12.0,
					"patching_rect" : [ 217.0, 215.0, 150.0, 20.0 ],
					"id" : "obj-17",
					"numoutlets" : 0,
					"fontname" : "Arial"
				}

			}
, 			{
				"box" : 				{
					"maxclass" : "bach.roll",
					"velocityhandling" : 3,
					"allowundo" : 0,
					"numinlets" : 6,
					"zoom" : 98.242188,
					"patching_rect" : [ 145.0, 392.0, 1134.0, 161.0 ],
					"vzoom" : 112.58741,
					"presentation" : 1,
					"id" : "obj-2",
					"numoutlets" : 8,
					"showauxiliarystems" : 0,
					"voicespacing" : [ 0.0, 17.0 ],
					"savedatawithpatcher" : 0,
					"outlettype" : [ "llll.connect", "llll.connect", "llll.connect", "llll.connect", "llll.connect", "llll.connect", "llll.connect", "bang" ],
					"keepselectioniflostfocus" : 0,
					"showdurations" : 0,
					"clefs" : [ "FG" ],
					"legend" : 0,
					"snappitchtogridondrag" : 0,
					"showstems" : 0,
					"presentation_rect" : [ 10.0, 9.0, 1134.0, 161.0 ],
					"allowglissandi" : 0
				}

			}
, 			{
				"box" : 				{
					"maxclass" : "message",
					"text" : "clear",
					"numinlets" : 2,
					"fontsize" : 12.0,
					"patching_rect" : [ 445.0, 141.0, 37.0, 18.0 ],
					"id" : "obj-1",
					"numoutlets" : 1,
					"outlettype" : [ "" ],
					"fontname" : "Arial"
				}

			}
, 			{
				"box" : 				{
					"maxclass" : "message",
					"text" : "inscreen $1",
					"numinlets" : 2,
					"fontsize" : 12.0,
					"patching_rect" : [ 32.0, 347.0, 71.0, 18.0 ],
					"id" : "obj-20",
					"numoutlets" : 1,
					"outlettype" : [ "" ],
					"fontname" : "Arial"
				}

			}
 ],
		"lines" : [ 			{
				"patchline" : 				{
					"source" : [ "obj-6", 0 ],
					"destination" : [ "obj-20", 0 ],
					"hidden" : 0,
					"midpoints" : [  ]
				}

			}
, 			{
				"patchline" : 				{
					"source" : [ "obj-33", 0 ],
					"destination" : [ "obj-6", 0 ],
					"hidden" : 0,
					"midpoints" : [  ]
				}

			}
, 			{
				"patchline" : 				{
					"source" : [ "obj-35", 0 ],
					"destination" : [ "obj-33", 0 ],
					"hidden" : 0,
					"midpoints" : [  ]
				}

			}
, 			{
				"patchline" : 				{
					"source" : [ "obj-32", 0 ],
					"destination" : [ "obj-35", 0 ],
					"hidden" : 0,
					"midpoints" : [  ]
				}

			}
, 			{
				"patchline" : 				{
					"source" : [ "obj-22", 0 ],
					"destination" : [ "obj-33", 1 ],
					"hidden" : 0,
					"midpoints" : [  ]
				}

			}
, 			{
				"patchline" : 				{
					"source" : [ "obj-34", 0 ],
					"destination" : [ "obj-32", 0 ],
					"hidden" : 0,
					"midpoints" : [  ]
				}

			}
, 			{
				"patchline" : 				{
					"source" : [ "obj-34", 1 ],
					"destination" : [ "obj-24", 0 ],
					"hidden" : 0,
					"midpoints" : [  ]
				}

			}
, 			{
				"patchline" : 				{
					"source" : [ "obj-16", 0 ],
					"destination" : [ "obj-2", 0 ],
					"hidden" : 0,
					"midpoints" : [  ]
				}

			}
, 			{
				"patchline" : 				{
					"source" : [ "obj-13", 0 ],
					"destination" : [ "obj-23", 1 ],
					"hidden" : 0,
					"midpoints" : [  ]
				}

			}
, 			{
				"patchline" : 				{
					"source" : [ "obj-13", 1 ],
					"destination" : [ "obj-20", 0 ],
					"hidden" : 0,
					"midpoints" : [  ]
				}

			}
, 			{
				"patchline" : 				{
					"source" : [ "obj-3", 0 ],
					"destination" : [ "obj-13", 0 ],
					"hidden" : 0,
					"midpoints" : [  ]
				}

			}
, 			{
				"patchline" : 				{
					"source" : [ "obj-26", 0 ],
					"destination" : [ "obj-19", 0 ],
					"hidden" : 0,
					"midpoints" : [  ]
				}

			}
, 			{
				"patchline" : 				{
					"source" : [ "obj-30", 0 ],
					"destination" : [ "obj-26", 0 ],
					"hidden" : 0,
					"midpoints" : [  ]
				}

			}
, 			{
				"patchline" : 				{
					"source" : [ "obj-28", 0 ],
					"destination" : [ "obj-30", 0 ],
					"hidden" : 0,
					"midpoints" : [  ]
				}

			}
, 			{
				"patchline" : 				{
					"source" : [ "obj-29", 0 ],
					"destination" : [ "obj-19", 1 ],
					"hidden" : 0,
					"midpoints" : [  ]
				}

			}
, 			{
				"patchline" : 				{
					"source" : [ "obj-27", 0 ],
					"destination" : [ "obj-29", 0 ],
					"hidden" : 0,
					"midpoints" : [  ]
				}

			}
, 			{
				"patchline" : 				{
					"source" : [ "obj-27", 1 ],
					"destination" : [ "obj-19", 2 ],
					"hidden" : 0,
					"midpoints" : [  ]
				}

			}
, 			{
				"patchline" : 				{
					"source" : [ "obj-28", 1 ],
					"destination" : [ "obj-27", 0 ],
					"hidden" : 0,
					"midpoints" : [  ]
				}

			}
, 			{
				"patchline" : 				{
					"source" : [ "obj-22", 0 ],
					"destination" : [ "obj-26", 1 ],
					"hidden" : 0,
					"midpoints" : [  ]
				}

			}
, 			{
				"patchline" : 				{
					"source" : [ "obj-23", 0 ],
					"destination" : [ "obj-22", 0 ],
					"hidden" : 0,
					"midpoints" : [  ]
				}

			}
, 			{
				"patchline" : 				{
					"source" : [ "obj-24", 0 ],
					"destination" : [ "obj-23", 0 ],
					"hidden" : 0,
					"midpoints" : [  ]
				}

			}
, 			{
				"patchline" : 				{
					"source" : [ "obj-20", 0 ],
					"destination" : [ "obj-2", 0 ],
					"hidden" : 0,
					"midpoints" : [  ]
				}

			}
, 			{
				"patchline" : 				{
					"source" : [ "obj-1", 0 ],
					"destination" : [ "obj-2", 0 ],
					"hidden" : 0,
					"midpoints" : [  ]
				}

			}
, 			{
				"patchline" : 				{
					"source" : [ "obj-3", 0 ],
					"destination" : [ "obj-1", 0 ],
					"hidden" : 0,
					"midpoints" : [  ]
				}

			}
, 			{
				"patchline" : 				{
					"source" : [ "obj-10", 0 ],
					"destination" : [ "obj-19", 3 ],
					"hidden" : 0,
					"midpoints" : [ 171.5, 131.5, 246.5, 131.5 ]
				}

			}
, 			{
				"patchline" : 				{
					"source" : [ "obj-18", 0 ],
					"destination" : [ "obj-10", 0 ],
					"hidden" : 0,
					"midpoints" : [  ]
				}

			}
, 			{
				"patchline" : 				{
					"source" : [ "obj-10", 4 ],
					"destination" : [ "obj-28", 0 ],
					"hidden" : 0,
					"midpoints" : [  ]
				}

			}
, 			{
				"patchline" : 				{
					"source" : [ "obj-21", 0 ],
					"destination" : [ "obj-5", 0 ],
					"hidden" : 0,
					"midpoints" : [  ]
				}

			}
, 			{
				"patchline" : 				{
					"source" : [ "obj-5", 0 ],
					"destination" : [ "obj-34", 0 ],
					"hidden" : 0,
					"midpoints" : [  ]
				}

			}
, 			{
				"patchline" : 				{
					"source" : [ "obj-12", 0 ],
					"destination" : [ "obj-2", 0 ],
					"hidden" : 0,
					"midpoints" : [  ]
				}

			}
, 			{
				"patchline" : 				{
					"source" : [ "obj-11", 0 ],
					"destination" : [ "obj-12", 0 ],
					"hidden" : 0,
					"midpoints" : [  ]
				}

			}
, 			{
				"patchline" : 				{
					"source" : [ "obj-11", 1 ],
					"destination" : [ "obj-16", 0 ],
					"hidden" : 0,
					"midpoints" : [  ]
				}

			}
, 			{
				"patchline" : 				{
					"source" : [ "obj-19", 0 ],
					"destination" : [ "obj-11", 0 ],
					"hidden" : 0,
					"midpoints" : [  ]
				}

			}
, 			{
				"patchline" : 				{
					"source" : [ "obj-11", 2 ],
					"destination" : [ "obj-15", 0 ],
					"hidden" : 0,
					"midpoints" : [  ]
				}

			}
, 			{
				"patchline" : 				{
					"source" : [ "obj-15", 0 ],
					"destination" : [ "obj-2", 0 ],
					"hidden" : 0,
					"midpoints" : [  ]
				}

			}
 ]
	}

}
