{
	"patcher" : 	{
		"fileversion" : 1,
		"rect" : [ -28.0, -856.0, 562.0, 557.0 ],
		"bgcolor" : [ 0.619608, 1.0, 0.929412, 1.0 ],
		"bglocked" : 0,
		"defrect" : [ -28.0, -856.0, 562.0, 557.0 ],
		"openrect" : [ 0.0, 0.0, 0.0, 0.0 ],
		"openinpresentation" : 1,
		"default_fontsize" : 12.0,
		"default_fontface" : 0,
		"default_fontname" : "Arial",
		"gridonopen" : 0,
		"gridsize" : [ 5.0, 5.0 ],
		"gridsnaponopen" : 0,
		"toolbarvisible" : 1,
		"boxanimatetime" : 200,
		"imprint" : 0,
		"enablehscroll" : 1,
		"enablevscroll" : 1,
		"devicewidth" : 0.0,
		"boxes" : [ 			{
				"box" : 				{
					"maxclass" : "outlet",
					"numoutlets" : 0,
					"patching_rect" : [ 359.0, 508.0, 25.0, 25.0 ],
					"id" : "obj-106",
					"numinlets" : 1,
					"comment" : "int: Player1 states for SVP sync"
				}

			}
, 			{
				"box" : 				{
					"maxclass" : "message",
					"text" : "set #2",
					"numoutlets" : 1,
					"patching_rect" : [ 448.0, 155.0, 43.0, 18.0 ],
					"outlettype" : [ "" ],
					"id" : "obj-20",
					"fontsize" : 12.0,
					"numinlets" : 2,
					"fontname" : "Arial"
				}

			}
, 			{
				"box" : 				{
					"maxclass" : "newobj",
					"text" : "js bc.autoname Players",
					"numoutlets" : 1,
					"patching_rect" : [ 65.0, 491.0, 135.0, 20.0 ],
					"outlettype" : [ "" ],
					"id" : "obj-17",
					"fontsize" : 12.0,
					"numinlets" : 1,
					"fontname" : "Arial"
				}

			}
, 			{
				"box" : 				{
					"maxclass" : "newobj",
					"text" : "gate",
					"numoutlets" : 1,
					"patching_rect" : [ 341.0, 418.0, 34.0, 20.0 ],
					"outlettype" : [ "" ],
					"id" : "obj-36",
					"fontsize" : 12.0,
					"numinlets" : 2,
					"fontname" : "Arial"
				}

			}
, 			{
				"box" : 				{
					"maxclass" : "newobj",
					"text" : "t s s",
					"numoutlets" : 2,
					"patching_rect" : [ 426.0, 340.0, 33.0, 20.0 ],
					"outlettype" : [ "", "" ],
					"id" : "obj-35",
					"fontsize" : 12.0,
					"numinlets" : 1,
					"fontname" : "Arial"
				}

			}
, 			{
				"box" : 				{
					"maxclass" : "newobj",
					"text" : "t l 0",
					"numoutlets" : 2,
					"patching_rect" : [ 356.0, 262.0, 32.5, 20.0 ],
					"outlettype" : [ "", "int" ],
					"id" : "obj-34",
					"fontsize" : 12.0,
					"numinlets" : 1,
					"fontname" : "Arial"
				}

			}
, 			{
				"box" : 				{
					"maxclass" : "newobj",
					"text" : "t 1",
					"numoutlets" : 1,
					"patching_rect" : [ 467.0, 389.0, 24.0, 20.0 ],
					"outlettype" : [ "int" ],
					"id" : "obj-33",
					"fontsize" : 12.0,
					"numinlets" : 1,
					"fontname" : "Arial"
				}

			}
, 			{
				"box" : 				{
					"maxclass" : "newobj",
					"text" : "gate",
					"numoutlets" : 1,
					"patching_rect" : [ 411.0, 418.0, 34.0, 20.0 ],
					"outlettype" : [ "" ],
					"id" : "obj-16",
					"fontsize" : 12.0,
					"numinlets" : 2,
					"fontname" : "Arial"
				}

			}
, 			{
				"box" : 				{
					"maxclass" : "newobj",
					"text" : "regexp ::",
					"numoutlets" : 5,
					"patching_rect" : [ 440.0, 365.0, 73.0, 20.0 ],
					"outlettype" : [ "", "", "", "", "" ],
					"id" : "obj-15",
					"fontsize" : 12.0,
					"numinlets" : 1,
					"fontname" : "Arial"
				}

			}
, 			{
				"box" : 				{
					"maxclass" : "newobj",
					"text" : "zl rev",
					"numoutlets" : 2,
					"patching_rect" : [ 356.0, 289.0, 39.0, 20.0 ],
					"outlettype" : [ "", "" ],
					"id" : "obj-30",
					"fontsize" : 12.0,
					"numinlets" : 2,
					"fontname" : "Arial"
				}

			}
, 			{
				"box" : 				{
					"maxclass" : "newobj",
					"text" : "unpack 0. path",
					"numoutlets" : 2,
					"patching_rect" : [ 356.0, 314.0, 89.0, 20.0 ],
					"outlettype" : [ "float", "" ],
					"id" : "obj-28",
					"fontsize" : 12.0,
					"numinlets" : 1,
					"fontname" : "Arial"
				}

			}
, 			{
				"box" : 				{
					"maxclass" : "newobj",
					"text" : "prepend send",
					"numoutlets" : 1,
					"patching_rect" : [ 411.0, 444.0, 84.0, 20.0 ],
					"outlettype" : [ "" ],
					"id" : "obj-24",
					"fontsize" : 12.0,
					"numinlets" : 1,
					"fontname" : "Arial"
				}

			}
, 			{
				"box" : 				{
					"maxclass" : "newobj",
					"text" : "pattrforward",
					"numoutlets" : 1,
					"patching_rect" : [ 380.0, 477.0, 75.0, 20.0 ],
					"outlettype" : [ "" ],
					"id" : "obj-5",
					"fontsize" : 12.0,
					"numinlets" : 1,
					"fontname" : "Arial"
				}

			}
, 			{
				"box" : 				{
					"maxclass" : "inlet",
					"numoutlets" : 1,
					"patching_rect" : [ 288.0, 225.0, 25.0, 25.0 ],
					"outlettype" : [ "" ],
					"id" : "obj-14",
					"numinlets" : 0,
					"comment" : "pattrhub"
				}

			}
, 			{
				"box" : 				{
					"maxclass" : "newobj",
					"text" : "prepend set",
					"numoutlets" : 1,
					"patching_rect" : [ 33.0, 115.0, 74.0, 20.0 ],
					"outlettype" : [ "" ],
					"id" : "obj-12",
					"fontsize" : 12.0,
					"numinlets" : 1,
					"fontname" : "Arial"
				}

			}
, 			{
				"box" : 				{
					"maxclass" : "newobj",
					"text" : "t b b s b",
					"numoutlets" : 4,
					"patching_rect" : [ 226.0, 33.0, 59.5, 20.0 ],
					"outlettype" : [ "bang", "bang", "", "bang" ],
					"id" : "obj-11",
					"fontsize" : 12.0,
					"numinlets" : 1,
					"fontname" : "Arial"
				}

			}
, 			{
				"box" : 				{
					"maxclass" : "newobj",
					"text" : "sprintf send %s-Query",
					"numoutlets" : 1,
					"patching_rect" : [ 128.0, 120.0, 129.0, 20.0 ],
					"outlettype" : [ "" ],
					"id" : "obj-99",
					"fontsize" : 12.0,
					"numinlets" : 1,
					"fontname" : "Arial"
				}

			}
, 			{
				"box" : 				{
					"maxclass" : "newobj",
					"text" : "forward",
					"numoutlets" : 0,
					"patching_rect" : [ 128.0, 148.0, 51.0, 20.0 ],
					"id" : "obj-97",
					"fontsize" : 12.0,
					"color" : [ 0.8, 0.403922, 1.0, 1.0 ],
					"numinlets" : 1,
					"fontname" : "Arial"
				}

			}
, 			{
				"box" : 				{
					"maxclass" : "newobj",
					"text" : "sprintf set %s-Oracle",
					"numoutlets" : 1,
					"patching_rect" : [ 317.0, 82.0, 122.0, 20.0 ],
					"outlettype" : [ "" ],
					"id" : "obj-19",
					"fontsize" : 12.0,
					"numinlets" : 1,
					"fontname" : "Arial"
				}

			}
, 			{
				"box" : 				{
					"maxclass" : "newobj",
					"text" : "receive",
					"numoutlets" : 1,
					"patching_rect" : [ 317.0, 108.0, 49.0, 20.0 ],
					"outlettype" : [ "" ],
					"id" : "obj-23",
					"fontsize" : 12.0,
					"color" : [ 0.8, 0.403922, 1.0, 1.0 ],
					"numinlets" : 1,
					"fontname" : "Arial"
				}

			}
, 			{
				"box" : 				{
					"maxclass" : "outlet",
					"numoutlets" : 0,
					"patching_rect" : [ 59.0, 424.0, 25.0, 25.0 ],
					"id" : "obj-10",
					"numinlets" : 1,
					"comment" : "bang to get next state computed"
				}

			}
, 			{
				"box" : 				{
					"maxclass" : "inlet",
					"numoutlets" : 1,
					"patching_rect" : [ 205.0, 205.0, 25.0, 25.0 ],
					"outlettype" : [ "" ],
					"id" : "obj-9",
					"numinlets" : 0,
					"comment" : "toggle: Play/Stop Player 2 bang: Look for an end and Stop there"
				}

			}
, 			{
				"box" : 				{
					"maxclass" : "inlet",
					"numoutlets" : 1,
					"patching_rect" : [ 59.0, 205.0, 25.0, 25.0 ],
					"outlettype" : [ "" ],
					"id" : "obj-8",
					"numinlets" : 0,
					"comment" : "toggle: Play/Stop Player 1 bang: Look for an end and Stop there"
				}

			}
, 			{
				"box" : 				{
					"maxclass" : "outlet",
					"numoutlets" : 0,
					"patching_rect" : [ 226.0, 426.0, 25.0, 25.0 ],
					"id" : "obj-7",
					"numinlets" : 1,
					"comment" : "list: MIDI player 2"
				}

			}
, 			{
				"box" : 				{
					"maxclass" : "outlet",
					"numoutlets" : 0,
					"patching_rect" : [ 93.0, 424.0, 25.0, 25.0 ],
					"id" : "obj-6",
					"numinlets" : 1,
					"comment" : "list: MIDI player 1"
				}

			}
, 			{
				"box" : 				{
					"maxclass" : "outlet",
					"numoutlets" : 0,
					"patching_rect" : [ 288.0, 403.0, 25.0, 25.0 ],
					"id" : "obj-4",
					"numinlets" : 1,
					"comment" : "signal: audio player 2"
				}

			}
, 			{
				"box" : 				{
					"maxclass" : "outlet",
					"numoutlets" : 0,
					"patching_rect" : [ 126.0, 424.0, 25.0, 25.0 ],
					"id" : "obj-3",
					"numinlets" : 1,
					"comment" : "signal: audio player 1"
				}

			}
, 			{
				"box" : 				{
					"maxclass" : "comment",
					"text" : "Oracle",
					"numoutlets" : 0,
					"patching_rect" : [ 369.571228, 104.086243, 52.0, 20.0 ],
					"fontface" : 1,
					"id" : "obj-29",
					"fontsize" : 12.0,
					"numinlets" : 1,
					"fontname" : "Arial"
				}

			}
, 			{
				"box" : 				{
					"maxclass" : "comment",
					"text" : "#2",
					"numoutlets" : 0,
					"patching_rect" : [ 317.0, 183.0, 101.0, 20.0 ],
					"presentation" : 1,
					"id" : "obj-25",
					"fontsize" : 12.0,
					"numinlets" : 1,
					"presentation_rect" : [ -0.428772, 22.208122, 79.0, 20.0 ],
					"fontname" : "Arial"
				}

			}
, 			{
				"box" : 				{
					"maxclass" : "newobj",
					"text" : "prepend set",
					"numoutlets" : 1,
					"patching_rect" : [ 317.0, 136.0, 74.0, 20.0 ],
					"outlettype" : [ "" ],
					"id" : "obj-22",
					"fontsize" : 12.0,
					"numinlets" : 1,
					"fontname" : "Arial"
				}

			}
, 			{
				"box" : 				{
					"maxclass" : "inlet",
					"numoutlets" : 1,
					"patching_rect" : [ 226.0, 2.0, 25.0, 25.0 ],
					"outlettype" : [ "" ],
					"id" : "obj-21",
					"numinlets" : 0,
					"comment" : "symbol: Impro Name"
				}

			}
, 			{
				"box" : 				{
					"maxclass" : "newobj",
					"text" : "loadmess #1",
					"numoutlets" : 1,
					"patching_rect" : [ 33.0, 10.0, 79.0, 20.0 ],
					"outlettype" : [ "" ],
					"id" : "obj-2",
					"fontsize" : 12.0,
					"numinlets" : 1,
					"fontname" : "Arial"
				}

			}
, 			{
				"box" : 				{
					"maxclass" : "comment",
					"text" : "#1",
					"numoutlets" : 0,
					"patching_rect" : [ 17.571228, 142.086243, 95.0, 20.0 ],
					"fontface" : 1,
					"presentation" : 1,
					"id" : "obj-1",
					"fontsize" : 12.0,
					"numinlets" : 1,
					"presentation_rect" : [ 8.571228, 3.086243, 60.484207, 20.0 ],
					"fontname" : "Arial"
				}

			}
, 			{
				"box" : 				{
					"maxclass" : "panel",
					"numoutlets" : 0,
					"patching_rect" : [ 284.45459, 100.636353, 142.272736, 112.545471 ],
					"border" : 1,
					"id" : "obj-27",
					"numinlets" : 1,
					"bgcolor" : [ 1.0, 1.0, 1.0, 1.0 ]
				}

			}
, 			{
				"box" : 				{
					"maxclass" : "bpatcher",
					"varname" : "PlayerA[1]",
					"numoutlets" : 4,
					"patching_rect" : [ 59.0, 272.0, 121.0, 85.0 ],
					"outlettype" : [ "", "", "signal", "" ],
					"presentation" : 1,
					"id" : "obj-32",
					"name" : "ImproPlayer1.maxpat",
					"args" : [ "#1", "#2" ],
					"numinlets" : 4,
					"presentation_rect" : [ 1.0, 42.0, 73.565796, 82.310562 ],
					"frozen_box_attributes" : [ "args" ]
				}

			}
, 			{
				"box" : 				{
					"maxclass" : "bpatcher",
					"varname" : "PlayerB",
					"numoutlets" : 3,
					"patching_rect" : [ 205.0, 272.0, 77.0, 131.0 ],
					"outlettype" : [ "", "", "signal" ],
					"presentation" : 1,
					"id" : "obj-13",
					"name" : "ImproPlayer2.maxpat",
					"args" : [ "#1", "#2" ],
					"numinlets" : 4,
					"presentation_rect" : [ 179.0, 78.0, 73.565796, 132.026321 ],
					"frozen_box_attributes" : [ "args" ]
				}

			}
 ],
		"lines" : [ 			{
				"patchline" : 				{
					"source" : [ "obj-14", 0 ],
					"destination" : [ "obj-13", 3 ],
					"hidden" : 0,
					"midpoints" : [  ]
				}

			}
, 			{
				"patchline" : 				{
					"source" : [ "obj-11", 2 ],
					"destination" : [ "obj-13", 2 ],
					"hidden" : 0,
					"midpoints" : [  ]
				}

			}
, 			{
				"patchline" : 				{
					"source" : [ "obj-11", 0 ],
					"destination" : [ "obj-13", 1 ],
					"hidden" : 0,
					"midpoints" : [  ]
				}

			}
, 			{
				"patchline" : 				{
					"source" : [ "obj-13", 0 ],
					"destination" : [ "obj-10", 0 ],
					"hidden" : 0,
					"midpoints" : [  ]
				}

			}
, 			{
				"patchline" : 				{
					"source" : [ "obj-13", 1 ],
					"destination" : [ "obj-7", 0 ],
					"hidden" : 0,
					"midpoints" : [  ]
				}

			}
, 			{
				"patchline" : 				{
					"source" : [ "obj-13", 2 ],
					"destination" : [ "obj-4", 0 ],
					"hidden" : 0,
					"midpoints" : [  ]
				}

			}
, 			{
				"patchline" : 				{
					"source" : [ "obj-9", 0 ],
					"destination" : [ "obj-13", 0 ],
					"hidden" : 0,
					"midpoints" : [  ]
				}

			}
, 			{
				"patchline" : 				{
					"source" : [ "obj-32", 3 ],
					"destination" : [ "obj-106", 0 ],
					"hidden" : 0,
					"midpoints" : [ 170.5, 478.0, 368.5, 478.0 ]
				}

			}
, 			{
				"patchline" : 				{
					"source" : [ "obj-11", 0 ],
					"destination" : [ "obj-32", 1 ],
					"hidden" : 0,
					"midpoints" : [  ]
				}

			}
, 			{
				"patchline" : 				{
					"source" : [ "obj-11", 2 ],
					"destination" : [ "obj-32", 2 ],
					"hidden" : 0,
					"midpoints" : [  ]
				}

			}
, 			{
				"patchline" : 				{
					"source" : [ "obj-8", 0 ],
					"destination" : [ "obj-32", 0 ],
					"hidden" : 0,
					"midpoints" : [  ]
				}

			}
, 			{
				"patchline" : 				{
					"source" : [ "obj-32", 2 ],
					"destination" : [ "obj-3", 0 ],
					"hidden" : 0,
					"midpoints" : [  ]
				}

			}
, 			{
				"patchline" : 				{
					"source" : [ "obj-32", 1 ],
					"destination" : [ "obj-6", 0 ],
					"hidden" : 0,
					"midpoints" : [  ]
				}

			}
, 			{
				"patchline" : 				{
					"source" : [ "obj-32", 0 ],
					"destination" : [ "obj-10", 0 ],
					"hidden" : 0,
					"midpoints" : [  ]
				}

			}
, 			{
				"patchline" : 				{
					"source" : [ "obj-14", 0 ],
					"destination" : [ "obj-32", 3 ],
					"hidden" : 0,
					"midpoints" : [  ]
				}

			}
, 			{
				"patchline" : 				{
					"source" : [ "obj-30", 0 ],
					"destination" : [ "obj-28", 0 ],
					"hidden" : 0,
					"midpoints" : [  ]
				}

			}
, 			{
				"patchline" : 				{
					"source" : [ "obj-24", 0 ],
					"destination" : [ "obj-5", 0 ],
					"hidden" : 0,
					"midpoints" : [  ]
				}

			}
, 			{
				"patchline" : 				{
					"source" : [ "obj-22", 0 ],
					"destination" : [ "obj-25", 0 ],
					"hidden" : 0,
					"midpoints" : [  ]
				}

			}
, 			{
				"patchline" : 				{
					"source" : [ "obj-19", 0 ],
					"destination" : [ "obj-23", 0 ],
					"hidden" : 0,
					"midpoints" : [  ]
				}

			}
, 			{
				"patchline" : 				{
					"source" : [ "obj-99", 0 ],
					"destination" : [ "obj-97", 0 ],
					"hidden" : 0,
					"midpoints" : [  ]
				}

			}
, 			{
				"patchline" : 				{
					"source" : [ "obj-23", 0 ],
					"destination" : [ "obj-22", 0 ],
					"hidden" : 0,
					"midpoints" : [  ]
				}

			}
, 			{
				"patchline" : 				{
					"source" : [ "obj-12", 0 ],
					"destination" : [ "obj-1", 0 ],
					"hidden" : 0,
					"midpoints" : [  ]
				}

			}
, 			{
				"patchline" : 				{
					"source" : [ "obj-33", 0 ],
					"destination" : [ "obj-16", 0 ],
					"hidden" : 0,
					"midpoints" : [  ]
				}

			}
, 			{
				"patchline" : 				{
					"source" : [ "obj-15", 2 ],
					"destination" : [ "obj-33", 0 ],
					"hidden" : 0,
					"midpoints" : [  ]
				}

			}
, 			{
				"patchline" : 				{
					"source" : [ "obj-14", 0 ],
					"destination" : [ "obj-34", 0 ],
					"hidden" : 0,
					"midpoints" : [  ]
				}

			}
, 			{
				"patchline" : 				{
					"source" : [ "obj-34", 1 ],
					"destination" : [ "obj-16", 0 ],
					"hidden" : 0,
					"midpoints" : [ 379.0, 392.5, 420.5, 392.5 ]
				}

			}
, 			{
				"patchline" : 				{
					"source" : [ "obj-34", 0 ],
					"destination" : [ "obj-30", 0 ],
					"hidden" : 0,
					"midpoints" : [  ]
				}

			}
, 			{
				"patchline" : 				{
					"source" : [ "obj-28", 1 ],
					"destination" : [ "obj-35", 0 ],
					"hidden" : 0,
					"midpoints" : [  ]
				}

			}
, 			{
				"patchline" : 				{
					"source" : [ "obj-35", 1 ],
					"destination" : [ "obj-15", 0 ],
					"hidden" : 0,
					"midpoints" : [  ]
				}

			}
, 			{
				"patchline" : 				{
					"source" : [ "obj-35", 0 ],
					"destination" : [ "obj-16", 1 ],
					"hidden" : 0,
					"midpoints" : [  ]
				}

			}
, 			{
				"patchline" : 				{
					"source" : [ "obj-33", 0 ],
					"destination" : [ "obj-36", 0 ],
					"hidden" : 0,
					"midpoints" : [  ]
				}

			}
, 			{
				"patchline" : 				{
					"source" : [ "obj-28", 0 ],
					"destination" : [ "obj-36", 1 ],
					"hidden" : 0,
					"midpoints" : [  ]
				}

			}
, 			{
				"patchline" : 				{
					"source" : [ "obj-36", 0 ],
					"destination" : [ "obj-5", 0 ],
					"hidden" : 0,
					"midpoints" : [  ]
				}

			}
, 			{
				"patchline" : 				{
					"source" : [ "obj-34", 1 ],
					"destination" : [ "obj-36", 0 ],
					"hidden" : 0,
					"midpoints" : [ 379.0, 392.5, 350.5, 392.5 ]
				}

			}
, 			{
				"patchline" : 				{
					"source" : [ "obj-16", 0 ],
					"destination" : [ "obj-24", 0 ],
					"hidden" : 0,
					"midpoints" : [  ]
				}

			}
, 			{
				"patchline" : 				{
					"source" : [ "obj-2", 0 ],
					"destination" : [ "obj-12", 0 ],
					"hidden" : 0,
					"midpoints" : [  ]
				}

			}
, 			{
				"patchline" : 				{
					"source" : [ "obj-2", 0 ],
					"destination" : [ "obj-11", 0 ],
					"hidden" : 0,
					"midpoints" : [  ]
				}

			}
, 			{
				"patchline" : 				{
					"source" : [ "obj-21", 0 ],
					"destination" : [ "obj-11", 0 ],
					"hidden" : 0,
					"midpoints" : [  ]
				}

			}
, 			{
				"patchline" : 				{
					"source" : [ "obj-11", 2 ],
					"destination" : [ "obj-19", 0 ],
					"hidden" : 0,
					"midpoints" : [  ]
				}

			}
, 			{
				"patchline" : 				{
					"source" : [ "obj-11", 2 ],
					"destination" : [ "obj-12", 0 ],
					"hidden" : 0,
					"midpoints" : [  ]
				}

			}
, 			{
				"patchline" : 				{
					"source" : [ "obj-11", 2 ],
					"destination" : [ "obj-99", 0 ],
					"hidden" : 0,
					"midpoints" : [  ]
				}

			}
, 			{
				"patchline" : 				{
					"source" : [ "obj-11", 1 ],
					"destination" : [ "obj-97", 0 ],
					"hidden" : 0,
					"midpoints" : [  ]
				}

			}
, 			{
				"patchline" : 				{
					"source" : [ "obj-11", 3 ],
					"destination" : [ "obj-20", 0 ],
					"hidden" : 0,
					"midpoints" : [ 276.0, 66.0, 457.5, 66.0 ]
				}

			}
, 			{
				"patchline" : 				{
					"source" : [ "obj-20", 0 ],
					"destination" : [ "obj-25", 0 ],
					"hidden" : 0,
					"midpoints" : [  ]
				}

			}
 ],
		"parameters" : 		{

		}

	}

}
