{
	"patcher" : 	{
		"fileversion" : 1,
		"rect" : [ 10.0, 46.0, 1227.0, 338.0 ],
		"bglocked" : 0,
		"defrect" : [ 10.0, 46.0, 1227.0, 338.0 ],
		"openrect" : [ 0.0, 0.0, 0.0, 0.0 ],
		"openinpresentation" : 0,
		"default_fontsize" : 12.0,
		"default_fontface" : 0,
		"default_fontname" : "Arial",
		"gridonopen" : 0,
		"gridsize" : [ 5.0, 5.0 ],
		"gridsnaponopen" : 0,
		"toolbarvisible" : 1,
		"boxanimatetime" : 200,
		"imprint" : 0,
		"enablehscroll" : 1,
		"enablevscroll" : 1,
		"devicewidth" : 0.0,
		"boxes" : [ 			{
				"box" : 				{
					"maxclass" : "newobj",
					"text" : "t 0",
					"numinlets" : 1,
					"patching_rect" : [ 21.0, 708.0, 24.0, 20.0 ],
					"fontname" : "Arial",
					"id" : "obj-105",
					"numoutlets" : 1,
					"outlettype" : [ "int" ],
					"fontsize" : 12.0
				}

			}
, 			{
				"box" : 				{
					"maxclass" : "newobj",
					"text" : "togedge",
					"numinlets" : 1,
					"patching_rect" : [ 21.0, 682.0, 54.0, 20.0 ],
					"fontname" : "Arial",
					"id" : "obj-106",
					"numoutlets" : 2,
					"outlettype" : [ "bang", "bang" ],
					"fontsize" : 12.0
				}

			}
, 			{
				"box" : 				{
					"maxclass" : "newobj",
					"text" : "t 0",
					"numinlets" : 1,
					"patching_rect" : [ 21.0, 612.0, 24.0, 20.0 ],
					"fontname" : "Arial",
					"id" : "obj-103",
					"numoutlets" : 1,
					"outlettype" : [ "int" ],
					"fontsize" : 12.0
				}

			}
, 			{
				"box" : 				{
					"maxclass" : "newobj",
					"text" : "togedge",
					"numinlets" : 1,
					"patching_rect" : [ 21.0, 586.0, 54.0, 20.0 ],
					"fontname" : "Arial",
					"id" : "obj-104",
					"numoutlets" : 2,
					"outlettype" : [ "bang", "bang" ],
					"fontsize" : 12.0
				}

			}
, 			{
				"box" : 				{
					"maxclass" : "newobj",
					"text" : "t 0",
					"numinlets" : 1,
					"patching_rect" : [ 21.0, 492.0, 24.0, 20.0 ],
					"fontname" : "Arial",
					"id" : "obj-102",
					"numoutlets" : 1,
					"outlettype" : [ "int" ],
					"fontsize" : 12.0
				}

			}
, 			{
				"box" : 				{
					"maxclass" : "newobj",
					"text" : "togedge",
					"numinlets" : 1,
					"patching_rect" : [ 21.0, 466.0, 54.0, 20.0 ],
					"fontname" : "Arial",
					"id" : "obj-99",
					"numoutlets" : 2,
					"outlettype" : [ "bang", "bang" ],
					"fontsize" : 12.0
				}

			}
, 			{
				"box" : 				{
					"maxclass" : "newobj",
					"text" : "r #0-VizuOmni",
					"numinlets" : 0,
					"patching_rect" : [ 767.0, 731.0, 87.0, 20.0 ],
					"fontname" : "Arial",
					"id" : "obj-90",
					"numoutlets" : 1,
					"outlettype" : [ "" ],
					"fontsize" : 12.0
				}

			}
, 			{
				"box" : 				{
					"maxclass" : "message",
					"text" : "Impro7",
					"numinlets" : 2,
					"patching_rect" : [ 923.0, 17.0, 48.0, 18.0 ],
					"fontname" : "Arial",
					"id" : "obj-98",
					"numoutlets" : 1,
					"outlettype" : [ "" ],
					"fontsize" : 12.0
				}

			}
, 			{
				"box" : 				{
					"maxclass" : "newobj",
					"text" : "thru",
					"numinlets" : 1,
					"patching_rect" : [ 762.0, 52.0, 31.0, 20.0 ],
					"fontname" : "Arial",
					"id" : "obj-97",
					"numoutlets" : 1,
					"outlettype" : [ "" ],
					"fontsize" : 12.0
				}

			}
, 			{
				"box" : 				{
					"maxclass" : "message",
					"text" : "Impro6",
					"numinlets" : 2,
					"patching_rect" : [ 867.0, 17.0, 48.0, 18.0 ],
					"fontname" : "Arial",
					"id" : "obj-96",
					"numoutlets" : 1,
					"outlettype" : [ "" ],
					"fontsize" : 12.0
				}

			}
, 			{
				"box" : 				{
					"maxclass" : "message",
					"text" : "Impro5",
					"numinlets" : 2,
					"patching_rect" : [ 811.0, 17.0, 48.0, 18.0 ],
					"fontname" : "Arial",
					"id" : "obj-95",
					"numoutlets" : 1,
					"outlettype" : [ "" ],
					"fontsize" : 12.0
				}

			}
, 			{
				"box" : 				{
					"maxclass" : "message",
					"text" : "Impro4",
					"numinlets" : 2,
					"patching_rect" : [ 755.0, 17.0, 48.0, 18.0 ],
					"fontname" : "Arial",
					"id" : "obj-94",
					"numoutlets" : 1,
					"outlettype" : [ "" ],
					"fontsize" : 12.0
				}

			}
, 			{
				"box" : 				{
					"maxclass" : "message",
					"text" : "Impro3",
					"numinlets" : 2,
					"patching_rect" : [ 699.0, 17.0, 48.0, 18.0 ],
					"fontname" : "Arial",
					"id" : "obj-93",
					"numoutlets" : 1,
					"outlettype" : [ "" ],
					"fontsize" : 12.0
				}

			}
, 			{
				"box" : 				{
					"maxclass" : "message",
					"text" : "Impro2",
					"numinlets" : 2,
					"patching_rect" : [ 644.0, 17.0, 48.0, 18.0 ],
					"fontname" : "Arial",
					"id" : "obj-92",
					"numoutlets" : 1,
					"outlettype" : [ "" ],
					"fontsize" : 12.0
				}

			}
, 			{
				"box" : 				{
					"maxclass" : "message",
					"text" : "Impro1",
					"numinlets" : 2,
					"patching_rect" : [ 588.0, 17.0, 48.0, 18.0 ],
					"fontname" : "Arial",
					"id" : "obj-91",
					"numoutlets" : 1,
					"outlettype" : [ "" ],
					"fontsize" : 12.0
				}

			}
, 			{
				"box" : 				{
					"maxclass" : "newobj",
					"text" : "r Omni_SP-selection2",
					"numinlets" : 0,
					"patching_rect" : [ 615.0, 661.0, 127.0, 20.0 ],
					"fontname" : "Arial",
					"id" : "obj-88",
					"numoutlets" : 1,
					"outlettype" : [ "" ],
					"fontsize" : 12.0
				}

			}
, 			{
				"box" : 				{
					"maxclass" : "newobj",
					"text" : "r Omni_SP-selection1",
					"numinlets" : 0,
					"patching_rect" : [ 566.0, 571.0, 127.0, 20.0 ],
					"fontname" : "Arial",
					"id" : "obj-89",
					"numoutlets" : 1,
					"outlettype" : [ "" ],
					"fontsize" : 12.0
				}

			}
, 			{
				"box" : 				{
					"maxclass" : "toggle",
					"numinlets" : 1,
					"patching_rect" : [ 709.0, 690.0, 20.0, 20.0 ],
					"id" : "obj-83",
					"numoutlets" : 1,
					"outlettype" : [ "int" ]
				}

			}
, 			{
				"box" : 				{
					"maxclass" : "newobj",
					"text" : "VIsu-Impro Impro5 Vizu",
					"numinlets" : 3,
					"patching_rect" : [ 503.0, 719.0, 225.0, 20.0 ],
					"fontname" : "Arial",
					"id" : "obj-84",
					"numoutlets" : 0,
					"fontsize" : 12.0
				}

			}
, 			{
				"box" : 				{
					"maxclass" : "button",
					"numinlets" : 1,
					"patching_rect" : [ 549.0, 662.0, 20.0, 20.0 ],
					"presentation" : 1,
					"id" : "obj-85",
					"numoutlets" : 1,
					"bgcolor" : [ 0.913725, 0.913725, 0.913725, 0.0 ],
					"outlettype" : [ "bang" ],
					"presentation_rect" : [ 980.0, 115.0, 20.0, 20.0 ]
				}

			}
, 			{
				"box" : 				{
					"maxclass" : "button",
					"numinlets" : 1,
					"patching_rect" : [ 518.0, 662.0, 20.0, 20.0 ],
					"id" : "obj-86",
					"numoutlets" : 1,
					"outlettype" : [ "bang" ]
				}

			}
, 			{
				"box" : 				{
					"maxclass" : "newobj",
					"varname" : "Impro5",
					"text" : "ImproSpectral-new2 Impro5 Omni_SP",
					"numinlets" : 5,
					"patching_rect" : [ 503.0, 690.0, 213.0, 20.0 ],
					"fontname" : "Arial",
					"presentation" : 1,
					"id" : "obj-87",
					"numoutlets" : 2,
					"outlettype" : [ "int", "" ],
					"fontsize" : 12.0,
					"presentation_rect" : [ 1004.0, 115.0, 213.0, 20.0 ]
				}

			}
, 			{
				"box" : 				{
					"maxclass" : "toggle",
					"numinlets" : 1,
					"patching_rect" : [ 675.0, 601.0, 20.0, 20.0 ],
					"id" : "obj-78",
					"numoutlets" : 1,
					"outlettype" : [ "int" ]
				}

			}
, 			{
				"box" : 				{
					"maxclass" : "newobj",
					"text" : "VIsu-Impro Impro4 Vizu",
					"numinlets" : 3,
					"patching_rect" : [ 469.0, 630.0, 225.0, 20.0 ],
					"fontname" : "Arial",
					"id" : "obj-79",
					"numoutlets" : 0,
					"fontsize" : 12.0
				}

			}
, 			{
				"box" : 				{
					"maxclass" : "button",
					"numinlets" : 1,
					"patching_rect" : [ 515.0, 573.0, 20.0, 20.0 ],
					"presentation" : 1,
					"id" : "obj-80",
					"numoutlets" : 1,
					"bgcolor" : [ 0.913725, 0.913725, 0.913725, 0.0 ],
					"outlettype" : [ "bang" ],
					"presentation_rect" : [ 980.0, 90.0, 20.0, 20.0 ]
				}

			}
, 			{
				"box" : 				{
					"maxclass" : "button",
					"numinlets" : 1,
					"patching_rect" : [ 484.0, 573.0, 20.0, 20.0 ],
					"id" : "obj-81",
					"numoutlets" : 1,
					"outlettype" : [ "bang" ]
				}

			}
, 			{
				"box" : 				{
					"maxclass" : "newobj",
					"varname" : "Impro4",
					"text" : "ImproSpectral-new2 Impro4 Omni_SP",
					"numinlets" : 5,
					"patching_rect" : [ 469.0, 601.0, 213.0, 20.0 ],
					"fontname" : "Arial",
					"presentation" : 1,
					"id" : "obj-82",
					"numoutlets" : 2,
					"outlettype" : [ "int", "" ],
					"fontsize" : 12.0,
					"presentation_rect" : [ 1004.0, 91.0, 213.0, 20.0 ]
				}

			}
, 			{
				"box" : 				{
					"maxclass" : "newobj",
					"text" : "t 0",
					"numinlets" : 1,
					"patching_rect" : [ 225.0, 729.0, 24.0, 20.0 ],
					"fontname" : "Arial",
					"id" : "obj-66",
					"numoutlets" : 1,
					"outlettype" : [ "int" ],
					"fontsize" : 12.0
				}

			}
, 			{
				"box" : 				{
					"maxclass" : "newobj",
					"text" : "sel 0",
					"numinlets" : 2,
					"patching_rect" : [ 225.0, 704.0, 36.0, 20.0 ],
					"fontname" : "Arial",
					"id" : "obj-69",
					"numoutlets" : 2,
					"outlettype" : [ "bang", "" ],
					"fontsize" : 12.0
				}

			}
, 			{
				"box" : 				{
					"maxclass" : "newobj",
					"text" : "Visu-Explorer Omni_SP Vizu",
					"numinlets" : 3,
					"patching_rect" : [ 225.0, 754.0, 163.0, 20.0 ],
					"fontname" : "Arial",
					"id" : "obj-73",
					"numoutlets" : 0,
					"fontsize" : 12.0
				}

			}
, 			{
				"box" : 				{
					"maxclass" : "newobj",
					"text" : "s #0-VizuOmni",
					"numinlets" : 1,
					"patching_rect" : [ 125.0, 704.0, 89.0, 20.0 ],
					"fontname" : "Arial",
					"id" : "obj-74",
					"numoutlets" : 0,
					"fontsize" : 12.0
				}

			}
, 			{
				"box" : 				{
					"maxclass" : "button",
					"numinlets" : 1,
					"patching_rect" : [ 178.0, 648.0, 20.0, 20.0 ],
					"id" : "obj-75",
					"numoutlets" : 1,
					"outlettype" : [ "bang" ]
				}

			}
, 			{
				"box" : 				{
					"maxclass" : "toggle",
					"numinlets" : 1,
					"patching_rect" : [ 154.0, 648.0, 20.0, 20.0 ],
					"presentation" : 1,
					"id" : "obj-76",
					"numoutlets" : 1,
					"outlettype" : [ "int" ],
					"presentation_rect" : [ 998.0, 247.0, 20.0, 20.0 ]
				}

			}
, 			{
				"box" : 				{
					"maxclass" : "newobj",
					"varname" : "Omni_SP_Graph",
					"text" : "Visu-Graph Omni_SP Vizu 1",
					"numinlets" : 2,
					"patching_rect" : [ 154.0, 677.0, 162.0, 20.0 ],
					"fontname" : "Arial",
					"presentation" : 1,
					"id" : "obj-77",
					"numoutlets" : 2,
					"outlettype" : [ "int", "int" ],
					"fontsize" : 12.0,
					"presentation_rect" : [ 1023.0, 247.0, 162.0, 20.0 ]
				}

			}
, 			{
				"box" : 				{
					"maxclass" : "bpatcher",
					"numinlets" : 3,
					"args" : [  ],
					"patching_rect" : [ 284.0, 16.0, 78.0, 166.0 ],
					"presentation" : 1,
					"id" : "obj-65",
					"bgmode" : 1,
					"numoutlets" : 2,
					"name" : "Audio-Input.maxpat",
					"outlettype" : [ "signal", "signal" ],
					"presentation_rect" : [ 4.0, 168.0, 78.0, 166.0 ]
				}

			}
, 			{
				"box" : 				{
					"maxclass" : "bpatcher",
					"varname" : "Omni",
					"numinlets" : 5,
					"args" : [ "Omni" ],
					"patching_rect" : [ 259.0, 198.0, 163.0, 166.82692 ],
					"presentation" : 1,
					"id" : "obj-64",
					"bgmode" : 1,
					"numoutlets" : 2,
					"name" : "Input-Seg&Oracles.maxpat",
					"outlettype" : [ "bang", "" ],
					"presentation_rect" : [ 82.0, 169.0, 369.0, 165.0 ]
				}

			}
, 			{
				"box" : 				{
					"maxclass" : "newobj",
					"text" : "t 0",
					"numinlets" : 1,
					"patching_rect" : [ 158.0, 585.0, 24.0, 20.0 ],
					"fontname" : "Arial",
					"id" : "obj-70",
					"numoutlets" : 1,
					"outlettype" : [ "int" ],
					"fontsize" : 12.0
				}

			}
, 			{
				"box" : 				{
					"maxclass" : "newobj",
					"text" : "sel 0",
					"numinlets" : 2,
					"patching_rect" : [ 158.0, 560.0, 36.0, 20.0 ],
					"fontname" : "Arial",
					"id" : "obj-71",
					"numoutlets" : 2,
					"outlettype" : [ "bang", "" ],
					"fontsize" : 12.0
				}

			}
, 			{
				"box" : 				{
					"maxclass" : "newobj",
					"text" : "Visu-Explorer JiB_MIDI Vizu",
					"numinlets" : 3,
					"patching_rect" : [ 158.0, 610.0, 161.0, 20.0 ],
					"fontname" : "Arial",
					"id" : "obj-72",
					"numoutlets" : 0,
					"fontsize" : 12.0
				}

			}
, 			{
				"box" : 				{
					"maxclass" : "newobj",
					"text" : "t 0",
					"numinlets" : 1,
					"patching_rect" : [ 168.0, 472.0, 24.0, 20.0 ],
					"fontname" : "Arial",
					"id" : "obj-68",
					"numoutlets" : 1,
					"outlettype" : [ "int" ],
					"fontsize" : 12.0
				}

			}
, 			{
				"box" : 				{
					"maxclass" : "newobj",
					"text" : "sel 0",
					"numinlets" : 2,
					"patching_rect" : [ 168.0, 448.0, 36.0, 20.0 ],
					"fontname" : "Arial",
					"id" : "obj-67",
					"numoutlets" : 2,
					"outlettype" : [ "bang", "" ],
					"fontsize" : 12.0
				}

			}
, 			{
				"box" : 				{
					"maxclass" : "newobj",
					"text" : "Visu-Explorer JiB_SP Vizu",
					"numinlets" : 3,
					"patching_rect" : [ 168.0, 497.0, 151.0, 20.0 ],
					"fontname" : "Arial",
					"id" : "obj-63",
					"numoutlets" : 0,
					"fontsize" : 12.0
				}

			}
, 			{
				"box" : 				{
					"maxclass" : "newobj",
					"text" : "r JiB_MIDI-selection2",
					"numinlets" : 0,
					"patching_rect" : [ 966.0, 595.0, 125.0, 20.0 ],
					"fontname" : "Arial",
					"id" : "obj-3",
					"numoutlets" : 1,
					"outlettype" : [ "" ],
					"fontsize" : 12.0
				}

			}
, 			{
				"box" : 				{
					"maxclass" : "newobj",
					"text" : "r JiB_MIDI-selection1",
					"numinlets" : 0,
					"patching_rect" : [ 959.0, 571.0, 125.0, 20.0 ],
					"fontname" : "Arial",
					"id" : "obj-15",
					"numoutlets" : 1,
					"outlettype" : [ "" ],
					"fontsize" : 12.0
				}

			}
, 			{
				"box" : 				{
					"maxclass" : "comment",
					"text" : "Stop!",
					"numinlets" : 1,
					"patching_rect" : [ 494.0, 22.0, 38.0, 18.0 ],
					"fontname" : "Arial Bold",
					"presentation" : 1,
					"id" : "obj-60",
					"numoutlets" : 0,
					"fontsize" : 10.0,
					"presentation_rect" : [ 891.0, 234.0, 37.0, 18.0 ]
				}

			}
, 			{
				"box" : 				{
					"maxclass" : "button",
					"numinlets" : 1,
					"patching_rect" : [ 467.0, 21.0, 20.0, 20.0 ],
					"fgcolor" : [ 1.0, 0.0, 0.0, 1.0 ],
					"presentation" : 1,
					"id" : "obj-61",
					"numoutlets" : 1,
					"bgcolor" : [ 0.913725, 0.913725, 0.913725, 0.0 ],
					"outlettype" : [ "bang" ],
					"blinkcolor" : [ 1.0, 1.0, 0.0, 1.0 ],
					"presentation_rect" : [ 884.0, 219.0, 48.0, 48.0 ]
				}

			}
, 			{
				"box" : 				{
					"maxclass" : "newobj",
					"text" : "t 0",
					"numinlets" : 1,
					"patching_rect" : [ 467.0, 48.0, 24.0, 20.0 ],
					"fontname" : "Arial",
					"id" : "obj-62",
					"numoutlets" : 1,
					"outlettype" : [ "int" ],
					"fontsize" : 12.0
				}

			}
, 			{
				"box" : 				{
					"maxclass" : "newobj",
					"text" : "r #0-VizuMIDI",
					"numinlets" : 0,
					"patching_rect" : [ 1004.0, 625.0, 84.0, 20.0 ],
					"fontname" : "Arial",
					"id" : "obj-59",
					"numoutlets" : 1,
					"outlettype" : [ "" ],
					"fontsize" : 12.0
				}

			}
, 			{
				"box" : 				{
					"maxclass" : "newobj",
					"text" : "s #0-VizuMIDI",
					"numinlets" : 1,
					"patching_rect" : [ 60.0, 560.0, 86.0, 20.0 ],
					"fontname" : "Arial",
					"id" : "obj-58",
					"numoutlets" : 0,
					"fontsize" : 12.0
				}

			}
, 			{
				"box" : 				{
					"maxclass" : "newobj",
					"text" : "r #0-VizuSP",
					"numinlets" : 0,
					"patching_rect" : [ 829.0, 452.0, 74.0, 20.0 ],
					"fontname" : "Arial",
					"id" : "obj-50",
					"numoutlets" : 1,
					"outlettype" : [ "" ],
					"fontsize" : 12.0
				}

			}
, 			{
				"box" : 				{
					"maxclass" : "newobj",
					"text" : "s #0-VizuSP",
					"numinlets" : 1,
					"patching_rect" : [ 84.0, 448.0, 76.0, 20.0 ],
					"fontname" : "Arial",
					"id" : "obj-49",
					"numoutlets" : 0,
					"fontsize" : 12.0
				}

			}
, 			{
				"box" : 				{
					"maxclass" : "meter~",
					"varname" : "vumetre",
					"warmcolor" : [ 0.85098, 0.85098, 0.0, 1.0 ],
					"tepidcolor" : [ 0.6, 0.729412, 0.0, 1.0 ],
					"numinlets" : 1,
					"patching_rect" : [ 1052.127197, 485.0, 133.0, 21.0 ],
					"presentation" : 1,
					"id" : "obj-168",
					"numoutlets" : 1,
					"interval" : 100,
					"bgcolor" : [ 0.403922, 0.403922, 0.403922, 1.0 ],
					"coldcolor" : [ 0.0, 0.658824, 0.0, 1.0 ],
					"outlettype" : [ "float" ],
					"presentation_rect" : [ 908.727661, 90.944618, 20.0, 109.852867 ]
				}

			}
, 			{
				"box" : 				{
					"maxclass" : "button",
					"numinlets" : 1,
					"patching_rect" : [ 1071.0, 38.0, 20.0, 20.0 ],
					"presentation" : 1,
					"id" : "obj-41",
					"numoutlets" : 1,
					"bgcolor" : [ 0.913725, 0.913725, 0.913725, 0.0 ],
					"outlettype" : [ "bang" ],
					"presentation_rect" : [ 889.0, 87.0, 13.0, 13.0 ]
				}

			}
, 			{
				"box" : 				{
					"maxclass" : "slider",
					"numinlets" : 1,
					"patching_rect" : [ 1071.0, 89.0, 20.0, 120.0 ],
					"presentation" : 1,
					"id" : "obj-46",
					"numoutlets" : 1,
					"outlettype" : [ "" ],
					"size" : 157.0,
					"presentation_rect" : [ 885.0, 101.0, 20.0, 100.0 ]
				}

			}
, 			{
				"box" : 				{
					"maxclass" : "newobj",
					"text" : "loadmess 127",
					"hidden" : 1,
					"numinlets" : 1,
					"patching_rect" : [ 1071.0, 63.0, 85.0, 20.0 ],
					"fontname" : "Arial",
					"id" : "obj-48",
					"numoutlets" : 1,
					"outlettype" : [ "" ],
					"fontsize" : 12.0
				}

			}
, 			{
				"box" : 				{
					"maxclass" : "toggle",
					"numinlets" : 1,
					"patching_rect" : [ 1004.0, 654.0, 20.0, 20.0 ],
					"id" : "obj-32",
					"numoutlets" : 1,
					"outlettype" : [ "int" ]
				}

			}
, 			{
				"box" : 				{
					"maxclass" : "newobj",
					"text" : "VIsu-Impro Impro3 Vizu",
					"numinlets" : 3,
					"patching_rect" : [ 798.0, 683.0, 225.0, 20.0 ],
					"fontname" : "Arial",
					"id" : "obj-35",
					"numoutlets" : 0,
					"fontsize" : 12.0
				}

			}
, 			{
				"box" : 				{
					"maxclass" : "toggle",
					"numinlets" : 1,
					"patching_rect" : [ 916.0, 569.0, 20.0, 20.0 ],
					"id" : "obj-23",
					"numoutlets" : 1,
					"outlettype" : [ "int" ]
				}

			}
, 			{
				"box" : 				{
					"maxclass" : "newobj",
					"text" : "VIsu-Impro Impro7 Vizu",
					"numinlets" : 3,
					"patching_rect" : [ 710.0, 598.0, 225.0, 20.0 ],
					"fontname" : "Arial",
					"id" : "obj-25",
					"numoutlets" : 0,
					"fontsize" : 12.0
				}

			}
, 			{
				"box" : 				{
					"maxclass" : "toggle",
					"numinlets" : 1,
					"patching_rect" : [ 829.0, 484.0, 20.0, 20.0 ],
					"id" : "obj-16",
					"numoutlets" : 1,
					"outlettype" : [ "int" ]
				}

			}
, 			{
				"box" : 				{
					"maxclass" : "newobj",
					"text" : "VIsu-Impro Impro6 Vizu",
					"numinlets" : 3,
					"patching_rect" : [ 623.0, 513.0, 225.0, 20.0 ],
					"fontname" : "Arial",
					"id" : "obj-21",
					"numoutlets" : 0,
					"fontsize" : 12.0
				}

			}
, 			{
				"box" : 				{
					"maxclass" : "toggle",
					"numinlets" : 1,
					"patching_rect" : [ 742.0, 401.0, 20.0, 20.0 ],
					"id" : "obj-13",
					"numoutlets" : 1,
					"outlettype" : [ "int" ]
				}

			}
, 			{
				"box" : 				{
					"maxclass" : "newobj",
					"text" : "VIsu-Impro Impro2 Vizu",
					"numinlets" : 3,
					"patching_rect" : [ 536.0, 432.0, 225.0, 20.0 ],
					"fontname" : "Arial",
					"id" : "obj-14",
					"numoutlets" : 0,
					"fontsize" : 12.0
				}

			}
, 			{
				"box" : 				{
					"maxclass" : "toggle",
					"numinlets" : 1,
					"patching_rect" : [ 655.0, 314.0, 20.0, 20.0 ],
					"id" : "obj-12",
					"numoutlets" : 1,
					"outlettype" : [ "int" ]
				}

			}
, 			{
				"box" : 				{
					"maxclass" : "newobj",
					"text" : "VIsu-Impro Impro1 Vizu",
					"numinlets" : 3,
					"patching_rect" : [ 449.0, 346.0, 225.0, 20.0 ],
					"fontname" : "Arial",
					"id" : "obj-1",
					"numoutlets" : 0,
					"fontsize" : 12.0
				}

			}
, 			{
				"box" : 				{
					"maxclass" : "newobj",
					"text" : "r JiB_SP-selection2",
					"numinlets" : 0,
					"patching_rect" : [ 446.0, 516.0, 115.0, 20.0 ],
					"fontname" : "Arial",
					"id" : "obj-57",
					"numoutlets" : 1,
					"outlettype" : [ "" ],
					"fontsize" : 12.0
				}

			}
, 			{
				"box" : 				{
					"maxclass" : "newobj",
					"text" : "r JiB_SP-selection1",
					"numinlets" : 0,
					"patching_rect" : [ 446.0, 468.0, 115.0, 20.0 ],
					"fontname" : "Arial",
					"id" : "obj-56",
					"numoutlets" : 1,
					"outlettype" : [ "" ],
					"fontsize" : 12.0
				}

			}
, 			{
				"box" : 				{
					"maxclass" : "bpatcher",
					"numinlets" : 5,
					"args" : [ "Impro5" ],
					"patching_rect" : [ 1262.0, 340.0, 71.0, 97.0 ],
					"presentation" : 1,
					"id" : "obj-55",
					"bgmode" : 1,
					"numoutlets" : 2,
					"name" : "Audio-Output.maxpat",
					"outlettype" : [ "signal", "signal" ],
					"presentation_rect" : [ 797.0, 182.0, 71.0, 97.0 ]
				}

			}
, 			{
				"box" : 				{
					"maxclass" : "bpatcher",
					"numinlets" : 5,
					"args" : [ "Impro4" ],
					"patching_rect" : [ 1164.0, 340.0, 71.0, 97.0 ],
					"presentation" : 1,
					"id" : "obj-54",
					"bgmode" : 1,
					"numoutlets" : 2,
					"name" : "Audio-Output.maxpat",
					"outlettype" : [ "signal", "signal" ],
					"presentation_rect" : [ 725.0, 182.0, 71.0, 97.0 ]
				}

			}
, 			{
				"box" : 				{
					"maxclass" : "bpatcher",
					"numinlets" : 5,
					"args" : [ "Impro3" ],
					"patching_rect" : [ 1077.0, 340.0, 71.0, 97.0 ],
					"presentation" : 1,
					"id" : "obj-53",
					"bgmode" : 1,
					"numoutlets" : 2,
					"name" : "Audio-Output.maxpat",
					"outlettype" : [ "signal", "signal" ],
					"presentation_rect" : [ 653.0, 182.0, 71.0, 97.0 ]
				}

			}
, 			{
				"box" : 				{
					"maxclass" : "bpatcher",
					"numinlets" : 5,
					"args" : [ "Impro2" ],
					"patching_rect" : [ 990.0, 340.0, 71.0, 97.0 ],
					"presentation" : 1,
					"id" : "obj-52",
					"bgmode" : 1,
					"numoutlets" : 2,
					"name" : "Audio-Output.maxpat",
					"outlettype" : [ "signal", "signal" ],
					"presentation_rect" : [ 581.0, 182.0, 71.0, 97.0 ]
				}

			}
, 			{
				"box" : 				{
					"maxclass" : "bpatcher",
					"numinlets" : 5,
					"args" : [ "Impro1" ],
					"patching_rect" : [ 903.0, 340.0, 71.0, 97.0 ],
					"presentation" : 1,
					"id" : "obj-51",
					"bgmode" : 1,
					"numoutlets" : 2,
					"name" : "Audio-Output.maxpat",
					"outlettype" : [ "signal", "signal" ],
					"presentation_rect" : [ 509.0, 182.0, 71.0, 97.0 ]
				}

			}
, 			{
				"box" : 				{
					"maxclass" : "ezdac~",
					"numinlets" : 2,
					"patching_rect" : [ 955.0, 117.0, 45.0, 45.0 ],
					"presentation" : 1,
					"id" : "obj-47",
					"numoutlets" : 0,
					"ongradcolor1" : [ 0.0, 1.0, 0.8, 1.0 ],
					"bgcolor" : [ 0.0, 0.0, 0.0, 0.0 ],
					"ongradcolor2" : [ 0.0, 0.85098, 1.0, 1.0 ],
					"presentation_rect" : [ 884.0, 13.0, 45.0, 45.0 ]
				}

			}
, 			{
				"box" : 				{
					"maxclass" : "newobj",
					"text" : "loadmess 1",
					"numinlets" : 1,
					"patching_rect" : [ 287.0, 411.0, 72.0, 20.0 ],
					"fontname" : "Arial",
					"id" : "obj-45",
					"numoutlets" : 1,
					"outlettype" : [ "" ],
					"fontsize" : 12.0
				}

			}
, 			{
				"box" : 				{
					"maxclass" : "button",
					"numinlets" : 1,
					"patching_rect" : [ 113.0, 504.0, 20.0, 20.0 ],
					"id" : "obj-42",
					"numoutlets" : 1,
					"outlettype" : [ "bang" ]
				}

			}
, 			{
				"box" : 				{
					"maxclass" : "toggle",
					"numinlets" : 1,
					"patching_rect" : [ 89.0, 504.0, 20.0, 20.0 ],
					"presentation" : 1,
					"id" : "obj-43",
					"numoutlets" : 1,
					"outlettype" : [ "int" ],
					"presentation_rect" : [ 998.0, 221.0, 20.0, 20.0 ]
				}

			}
, 			{
				"box" : 				{
					"maxclass" : "newobj",
					"varname" : "JiB_MIDI_Graph",
					"text" : "Visu-Graph JiB_MIDI Vizu 1",
					"numinlets" : 2,
					"patching_rect" : [ 89.0, 533.0, 159.0, 20.0 ],
					"fontname" : "Arial",
					"presentation" : 1,
					"id" : "obj-44",
					"numoutlets" : 2,
					"outlettype" : [ "int", "int" ],
					"fontsize" : 12.0,
					"presentation_rect" : [ 1023.0, 221.0, 159.0, 20.0 ]
				}

			}
, 			{
				"box" : 				{
					"maxclass" : "button",
					"numinlets" : 1,
					"patching_rect" : [ 840.0, 627.0, 20.0, 20.0 ],
					"presentation" : 1,
					"id" : "obj-40",
					"numoutlets" : 1,
					"bgcolor" : [ 0.913725, 0.913725, 0.913725, 0.0 ],
					"outlettype" : [ "bang" ],
					"presentation_rect" : [ 980.0, 67.0, 20.0, 20.0 ]
				}

			}
, 			{
				"box" : 				{
					"maxclass" : "button",
					"numinlets" : 1,
					"patching_rect" : [ 756.0, 541.0, 20.0, 20.0 ],
					"presentation" : 1,
					"id" : "obj-39",
					"numoutlets" : 1,
					"bgcolor" : [ 0.913725, 0.913725, 0.913725, 0.0 ],
					"outlettype" : [ "bang" ],
					"presentation_rect" : [ 980.0, 173.0, 20.0, 20.0 ]
				}

			}
, 			{
				"box" : 				{
					"maxclass" : "button",
					"numinlets" : 1,
					"patching_rect" : [ 669.0, 458.0, 20.0, 20.0 ],
					"presentation" : 1,
					"id" : "obj-38",
					"numoutlets" : 1,
					"bgcolor" : [ 0.913725, 0.913725, 0.913725, 0.0 ],
					"outlettype" : [ "bang" ],
					"presentation_rect" : [ 980.0, 150.0, 20.0, 20.0 ]
				}

			}
, 			{
				"box" : 				{
					"maxclass" : "button",
					"numinlets" : 1,
					"patching_rect" : [ 582.0, 374.0, 20.0, 20.0 ],
					"presentation" : 1,
					"id" : "obj-37",
					"numoutlets" : 1,
					"bgcolor" : [ 0.913725, 0.913725, 0.913725, 0.0 ],
					"outlettype" : [ "bang" ],
					"presentation_rect" : [ 980.0, 44.0, 20.0, 20.0 ]
				}

			}
, 			{
				"box" : 				{
					"maxclass" : "button",
					"numinlets" : 1,
					"patching_rect" : [ 495.0, 284.0, 20.0, 20.0 ],
					"presentation" : 1,
					"id" : "obj-36",
					"numoutlets" : 1,
					"bgcolor" : [ 0.913725, 0.913725, 0.913725, 0.0 ],
					"outlettype" : [ "bang" ],
					"presentation_rect" : [ 980.0, 21.0, 20.0, 20.0 ]
				}

			}
, 			{
				"box" : 				{
					"maxclass" : "button",
					"numinlets" : 1,
					"patching_rect" : [ 137.0, 394.0, 20.0, 20.0 ],
					"id" : "obj-34",
					"numoutlets" : 1,
					"outlettype" : [ "bang" ]
				}

			}
, 			{
				"box" : 				{
					"maxclass" : "toggle",
					"numinlets" : 1,
					"patching_rect" : [ 113.0, 394.0, 20.0, 20.0 ],
					"presentation" : 1,
					"id" : "obj-33",
					"numoutlets" : 1,
					"outlettype" : [ "int" ],
					"presentation_rect" : [ 998.0, 280.0, 20.0, 20.0 ]
				}

			}
, 			{
				"box" : 				{
					"maxclass" : "newobj",
					"varname" : "JiB_SP_Graph",
					"text" : "Visu-Graph JiB_SP Vizu",
					"numinlets" : 2,
					"patching_rect" : [ 113.0, 423.0, 140.0, 20.0 ],
					"fontname" : "Arial",
					"presentation" : 1,
					"id" : "obj-31",
					"numoutlets" : 2,
					"outlettype" : [ "int", "int" ],
					"fontsize" : 12.0,
					"presentation_rect" : [ 1023.0, 280.0, 140.0, 20.0 ]
				}

			}
, 			{
				"box" : 				{
					"maxclass" : "button",
					"numinlets" : 1,
					"patching_rect" : [ 814.0, 627.0, 20.0, 20.0 ],
					"id" : "obj-30",
					"numoutlets" : 1,
					"outlettype" : [ "bang" ]
				}

			}
, 			{
				"box" : 				{
					"maxclass" : "button",
					"numinlets" : 1,
					"patching_rect" : [ 725.0, 541.0, 20.0, 20.0 ],
					"id" : "obj-29",
					"numoutlets" : 1,
					"outlettype" : [ "bang" ]
				}

			}
, 			{
				"box" : 				{
					"maxclass" : "button",
					"numinlets" : 1,
					"patching_rect" : [ 638.0, 458.0, 20.0, 20.0 ],
					"id" : "obj-28",
					"numoutlets" : 1,
					"outlettype" : [ "bang" ]
				}

			}
, 			{
				"box" : 				{
					"maxclass" : "button",
					"numinlets" : 1,
					"patching_rect" : [ 550.0, 374.0, 20.0, 20.0 ],
					"id" : "obj-27",
					"numoutlets" : 1,
					"outlettype" : [ "bang" ]
				}

			}
, 			{
				"box" : 				{
					"maxclass" : "button",
					"numinlets" : 1,
					"patching_rect" : [ 466.0, 283.0, 20.0, 20.0 ],
					"id" : "obj-26",
					"numoutlets" : 1,
					"outlettype" : [ "bang" ]
				}

			}
, 			{
				"box" : 				{
					"maxclass" : "button",
					"numinlets" : 1,
					"patching_rect" : [ 311.0, 439.0, 20.0, 20.0 ],
					"id" : "obj-24",
					"numoutlets" : 1,
					"outlettype" : [ "bang" ]
				}

			}
, 			{
				"box" : 				{
					"maxclass" : "toggle",
					"numinlets" : 1,
					"patching_rect" : [ 287.0, 439.0, 20.0, 20.0 ],
					"id" : "obj-22",
					"numoutlets" : 1,
					"outlettype" : [ "int" ]
				}

			}
, 			{
				"box" : 				{
					"maxclass" : "newobj",
					"varname" : "Vizu_Graph",
					"text" : "Visu-Display Vizu",
					"numinlets" : 3,
					"patching_rect" : [ 287.0, 468.0, 103.0, 20.0 ],
					"fontname" : "Arial",
					"id" : "obj-20",
					"numoutlets" : 4,
					"outlettype" : [ "", "bang", "bang", "float" ],
					"fontsize" : 12.0
				}

			}
, 			{
				"box" : 				{
					"maxclass" : "bpatcher",
					"varname" : "Players[4]",
					"numinlets" : 4,
					"args" : [ "Impro4" ],
					"patching_rect" : [ 710.0, 91.0, 72.0, 178.0 ],
					"presentation" : 1,
					"id" : "obj-19",
					"bgmode" : 1,
					"numoutlets" : 6,
					"name" : "Impro-Players.maxpat",
					"outlettype" : [ "", "", "signal", "", "signal", "" ],
					"presentation_rect" : [ 725.0, 4.0, 72.0, 178.0 ]
				}

			}
, 			{
				"box" : 				{
					"maxclass" : "bpatcher",
					"varname" : "Players[3]",
					"numinlets" : 4,
					"args" : [ "Impro5" ],
					"patching_rect" : [ 798.0, 92.0, 72.0, 178.0 ],
					"presentation" : 1,
					"id" : "obj-18",
					"bgmode" : 1,
					"numoutlets" : 6,
					"name" : "Impro-Players.maxpat",
					"outlettype" : [ "", "", "signal", "", "signal", "" ],
					"enablehscroll" : 1,
					"presentation_rect" : [ 797.0, 4.0, 72.0, 178.0 ]
				}

			}
, 			{
				"box" : 				{
					"maxclass" : "bpatcher",
					"varname" : "Players[2]",
					"numinlets" : 4,
					"args" : [ "Impro3" ],
					"patching_rect" : [ 623.0, 91.0, 72.0, 178.0 ],
					"presentation" : 1,
					"id" : "obj-17",
					"bgmode" : 1,
					"numoutlets" : 6,
					"name" : "Impro-Players.maxpat",
					"outlettype" : [ "", "", "signal", "", "signal", "" ],
					"presentation_rect" : [ 653.0, 4.0, 72.0, 178.0 ]
				}

			}
, 			{
				"box" : 				{
					"maxclass" : "bpatcher",
					"varname" : "Players[1]",
					"numinlets" : 4,
					"args" : [ "Impro2" ],
					"patching_rect" : [ 536.0, 92.0, 72.0, 178.0 ],
					"presentation" : 1,
					"id" : "obj-11",
					"bgmode" : 1,
					"numoutlets" : 6,
					"name" : "Impro-Players.maxpat",
					"outlettype" : [ "", "", "signal", "", "signal", "" ],
					"presentation_rect" : [ 581.0, 4.0, 72.0, 178.0 ]
				}

			}
, 			{
				"box" : 				{
					"maxclass" : "bpatcher",
					"varname" : "Players",
					"numinlets" : 4,
					"args" : [ "Impro1" ],
					"patching_rect" : [ 449.0, 92.0, 72.0, 178.0 ],
					"presentation" : 1,
					"id" : "obj-10",
					"bgmode" : 1,
					"numoutlets" : 6,
					"name" : "Impro-Players.maxpat",
					"outlettype" : [ "", "", "signal", "", "signal", "" ],
					"presentation_rect" : [ 509.0, 4.0, 72.0, 178.0 ]
				}

			}
, 			{
				"box" : 				{
					"maxclass" : "newobj",
					"varname" : "Impro3",
					"text" : "ImproMIDI-new Impro3 JiB_MIDI",
					"numinlets" : 5,
					"patching_rect" : [ 798.0, 654.0, 185.0, 20.0 ],
					"fontname" : "Arial",
					"presentation" : 1,
					"id" : "obj-9",
					"numoutlets" : 2,
					"outlettype" : [ "int", "" ],
					"fontsize" : 12.0,
					"presentation_rect" : [ 1004.0, 67.0, 185.0, 20.0 ]
				}

			}
, 			{
				"box" : 				{
					"maxclass" : "newobj",
					"varname" : "Impro7",
					"text" : "ImproSpectral-new2 Impro7 JiB_SP",
					"numinlets" : 5,
					"patching_rect" : [ 710.0, 569.0, 201.0, 20.0 ],
					"fontname" : "Arial",
					"presentation" : 1,
					"id" : "obj-8",
					"numoutlets" : 2,
					"outlettype" : [ "int", "" ],
					"fontsize" : 12.0,
					"presentation_rect" : [ 1004.0, 173.0, 201.0, 20.0 ]
				}

			}
, 			{
				"box" : 				{
					"maxclass" : "newobj",
					"varname" : "Impro6",
					"text" : "ImproSpectral-new2 Impro6 JiB_SP",
					"numinlets" : 5,
					"patching_rect" : [ 623.0, 484.0, 201.0, 20.0 ],
					"fontname" : "Arial",
					"presentation" : 1,
					"id" : "obj-7",
					"numoutlets" : 2,
					"outlettype" : [ "int", "" ],
					"fontsize" : 12.0,
					"presentation_rect" : [ 1004.0, 150.0, 201.0, 20.0 ]
				}

			}
, 			{
				"box" : 				{
					"maxclass" : "newobj",
					"varname" : "Impro2",
					"text" : "ImproSpectral-new2 Impro2 JiB_SP",
					"numinlets" : 5,
					"patching_rect" : [ 536.0, 401.0, 201.0, 20.0 ],
					"fontname" : "Arial",
					"presentation" : 1,
					"id" : "obj-6",
					"numoutlets" : 2,
					"outlettype" : [ "int", "" ],
					"fontsize" : 12.0,
					"presentation_rect" : [ 1004.0, 44.0, 201.0, 20.0 ]
				}

			}
, 			{
				"box" : 				{
					"maxclass" : "newobj",
					"varname" : "Impro1",
					"text" : "ImproSpectral-new2 Impro1 JiB_SP",
					"numinlets" : 5,
					"patching_rect" : [ 449.0, 314.0, 201.0, 20.0 ],
					"fontname" : "Arial",
					"presentation" : 1,
					"id" : "obj-5",
					"numoutlets" : 2,
					"outlettype" : [ "int", "" ],
					"fontsize" : 12.0,
					"presentation_rect" : [ 1004.0, 21.0, 201.0, 20.0 ]
				}

			}
, 			{
				"box" : 				{
					"maxclass" : "bpatcher",
					"numinlets" : 3,
					"args" : [  ],
					"patching_rect" : [ 56.0, 16.0, 78.0, 166.0 ],
					"presentation" : 1,
					"id" : "obj-4",
					"bgmode" : 1,
					"numoutlets" : 2,
					"name" : "Audio-Input.maxpat",
					"outlettype" : [ "signal", "signal" ],
					"presentation_rect" : [ 4.0, 4.0, 78.0, 166.0 ]
				}

			}
, 			{
				"box" : 				{
					"maxclass" : "bpatcher",
					"varname" : "JiB",
					"numinlets" : 5,
					"args" : [ "JiB" ],
					"patching_rect" : [ 29.0, 198.0, 163.0, 165.82692 ],
					"presentation" : 1,
					"id" : "obj-2",
					"bgmode" : 1,
					"numoutlets" : 2,
					"name" : "Input-Seg&Oracles.maxpat",
					"outlettype" : [ "bang", "" ],
					"presentation_rect" : [ 82.0, 4.0, 369.0, 165.0 ]
				}

			}
 ],
		"lines" : [ 			{
				"patchline" : 				{
					"source" : [ "obj-9", 0 ],
					"destination" : [ "obj-35", 0 ],
					"hidden" : 0,
					"midpoints" : [  ]
				}

			}
, 			{
				"patchline" : 				{
					"source" : [ "obj-9", 1 ],
					"destination" : [ "obj-35", 1 ],
					"hidden" : 0,
					"midpoints" : [  ]
				}

			}
, 			{
				"patchline" : 				{
					"source" : [ "obj-32", 0 ],
					"destination" : [ "obj-35", 2 ],
					"hidden" : 0,
					"midpoints" : [  ]
				}

			}
, 			{
				"patchline" : 				{
					"source" : [ "obj-7", 1 ],
					"destination" : [ "obj-21", 1 ],
					"hidden" : 0,
					"midpoints" : [  ]
				}

			}
, 			{
				"patchline" : 				{
					"source" : [ "obj-7", 0 ],
					"destination" : [ "obj-21", 0 ],
					"hidden" : 0,
					"midpoints" : [  ]
				}

			}
, 			{
				"patchline" : 				{
					"source" : [ "obj-16", 0 ],
					"destination" : [ "obj-21", 2 ],
					"hidden" : 0,
					"midpoints" : [  ]
				}

			}
, 			{
				"patchline" : 				{
					"source" : [ "obj-8", 1 ],
					"destination" : [ "obj-25", 1 ],
					"hidden" : 0,
					"midpoints" : [  ]
				}

			}
, 			{
				"patchline" : 				{
					"source" : [ "obj-8", 0 ],
					"destination" : [ "obj-25", 0 ],
					"hidden" : 0,
					"midpoints" : [  ]
				}

			}
, 			{
				"patchline" : 				{
					"source" : [ "obj-23", 0 ],
					"destination" : [ "obj-25", 2 ],
					"hidden" : 0,
					"midpoints" : [  ]
				}

			}
, 			{
				"patchline" : 				{
					"source" : [ "obj-87", 1 ],
					"destination" : [ "obj-84", 1 ],
					"hidden" : 0,
					"midpoints" : [  ]
				}

			}
, 			{
				"patchline" : 				{
					"source" : [ "obj-87", 0 ],
					"destination" : [ "obj-84", 0 ],
					"hidden" : 0,
					"midpoints" : [  ]
				}

			}
, 			{
				"patchline" : 				{
					"source" : [ "obj-83", 0 ],
					"destination" : [ "obj-84", 2 ],
					"hidden" : 0,
					"midpoints" : [  ]
				}

			}
, 			{
				"patchline" : 				{
					"source" : [ "obj-82", 1 ],
					"destination" : [ "obj-79", 1 ],
					"hidden" : 0,
					"midpoints" : [  ]
				}

			}
, 			{
				"patchline" : 				{
					"source" : [ "obj-82", 0 ],
					"destination" : [ "obj-79", 0 ],
					"hidden" : 0,
					"midpoints" : [  ]
				}

			}
, 			{
				"patchline" : 				{
					"source" : [ "obj-78", 0 ],
					"destination" : [ "obj-79", 2 ],
					"hidden" : 0,
					"midpoints" : [  ]
				}

			}
, 			{
				"patchline" : 				{
					"source" : [ "obj-18", 0 ],
					"destination" : [ "obj-87", 0 ],
					"hidden" : 0,
					"midpoints" : [  ]
				}

			}
, 			{
				"patchline" : 				{
					"source" : [ "obj-18", 4 ],
					"destination" : [ "obj-55", 3 ],
					"hidden" : 0,
					"midpoints" : [  ]
				}

			}
, 			{
				"patchline" : 				{
					"source" : [ "obj-18", 2 ],
					"destination" : [ "obj-55", 2 ],
					"hidden" : 0,
					"midpoints" : [  ]
				}

			}
, 			{
				"patchline" : 				{
					"source" : [ "obj-62", 0 ],
					"destination" : [ "obj-18", 0 ],
					"hidden" : 0,
					"midpoints" : [  ]
				}

			}
, 			{
				"patchline" : 				{
					"source" : [ "obj-62", 0 ],
					"destination" : [ "obj-18", 1 ],
					"hidden" : 0,
					"midpoints" : [  ]
				}

			}
, 			{
				"patchline" : 				{
					"source" : [ "obj-19", 2 ],
					"destination" : [ "obj-54", 2 ],
					"hidden" : 0,
					"midpoints" : [  ]
				}

			}
, 			{
				"patchline" : 				{
					"source" : [ "obj-19", 4 ],
					"destination" : [ "obj-54", 3 ],
					"hidden" : 0,
					"midpoints" : [  ]
				}

			}
, 			{
				"patchline" : 				{
					"source" : [ "obj-19", 0 ],
					"destination" : [ "obj-82", 0 ],
					"hidden" : 0,
					"midpoints" : [  ]
				}

			}
, 			{
				"patchline" : 				{
					"source" : [ "obj-62", 0 ],
					"destination" : [ "obj-19", 1 ],
					"hidden" : 0,
					"midpoints" : [  ]
				}

			}
, 			{
				"patchline" : 				{
					"source" : [ "obj-62", 0 ],
					"destination" : [ "obj-19", 0 ],
					"hidden" : 0,
					"midpoints" : [  ]
				}

			}
, 			{
				"patchline" : 				{
					"source" : [ "obj-17", 2 ],
					"destination" : [ "obj-53", 2 ],
					"hidden" : 0,
					"midpoints" : [  ]
				}

			}
, 			{
				"patchline" : 				{
					"source" : [ "obj-17", 4 ],
					"destination" : [ "obj-53", 3 ],
					"hidden" : 0,
					"midpoints" : [  ]
				}

			}
, 			{
				"patchline" : 				{
					"source" : [ "obj-17", 0 ],
					"destination" : [ "obj-9", 0 ],
					"hidden" : 0,
					"midpoints" : [  ]
				}

			}
, 			{
				"patchline" : 				{
					"source" : [ "obj-62", 0 ],
					"destination" : [ "obj-17", 1 ],
					"hidden" : 0,
					"midpoints" : [  ]
				}

			}
, 			{
				"patchline" : 				{
					"source" : [ "obj-62", 0 ],
					"destination" : [ "obj-17", 0 ],
					"hidden" : 0,
					"midpoints" : [  ]
				}

			}
, 			{
				"patchline" : 				{
					"source" : [ "obj-105", 0 ],
					"destination" : [ "obj-33", 0 ],
					"hidden" : 0,
					"midpoints" : [  ]
				}

			}
, 			{
				"patchline" : 				{
					"source" : [ "obj-105", 0 ],
					"destination" : [ "obj-43", 0 ],
					"hidden" : 0,
					"midpoints" : [  ]
				}

			}
, 			{
				"patchline" : 				{
					"source" : [ "obj-76", 0 ],
					"destination" : [ "obj-106", 0 ],
					"hidden" : 0,
					"midpoints" : [  ]
				}

			}
, 			{
				"patchline" : 				{
					"source" : [ "obj-106", 0 ],
					"destination" : [ "obj-105", 0 ],
					"hidden" : 0,
					"midpoints" : [  ]
				}

			}
, 			{
				"patchline" : 				{
					"source" : [ "obj-103", 0 ],
					"destination" : [ "obj-76", 0 ],
					"hidden" : 0,
					"midpoints" : [  ]
				}

			}
, 			{
				"patchline" : 				{
					"source" : [ "obj-103", 0 ],
					"destination" : [ "obj-33", 0 ],
					"hidden" : 0,
					"midpoints" : [  ]
				}

			}
, 			{
				"patchline" : 				{
					"source" : [ "obj-43", 0 ],
					"destination" : [ "obj-104", 0 ],
					"hidden" : 0,
					"midpoints" : [  ]
				}

			}
, 			{
				"patchline" : 				{
					"source" : [ "obj-104", 0 ],
					"destination" : [ "obj-103", 0 ],
					"hidden" : 0,
					"midpoints" : [  ]
				}

			}
, 			{
				"patchline" : 				{
					"source" : [ "obj-102", 0 ],
					"destination" : [ "obj-76", 0 ],
					"hidden" : 0,
					"midpoints" : [  ]
				}

			}
, 			{
				"patchline" : 				{
					"source" : [ "obj-102", 0 ],
					"destination" : [ "obj-43", 0 ],
					"hidden" : 0,
					"midpoints" : [  ]
				}

			}
, 			{
				"patchline" : 				{
					"source" : [ "obj-33", 0 ],
					"destination" : [ "obj-99", 0 ],
					"hidden" : 0,
					"midpoints" : [  ]
				}

			}
, 			{
				"patchline" : 				{
					"source" : [ "obj-99", 0 ],
					"destination" : [ "obj-102", 0 ],
					"hidden" : 0,
					"midpoints" : [  ]
				}

			}
, 			{
				"patchline" : 				{
					"source" : [ "obj-90", 0 ],
					"destination" : [ "obj-78", 0 ],
					"hidden" : 0,
					"midpoints" : [  ]
				}

			}
, 			{
				"patchline" : 				{
					"source" : [ "obj-90", 0 ],
					"destination" : [ "obj-83", 0 ],
					"hidden" : 0,
					"midpoints" : [  ]
				}

			}
, 			{
				"patchline" : 				{
					"source" : [ "obj-44", 1 ],
					"destination" : [ "obj-72", 1 ],
					"hidden" : 0,
					"midpoints" : [  ]
				}

			}
, 			{
				"patchline" : 				{
					"source" : [ "obj-20", 1 ],
					"destination" : [ "obj-72", 2 ],
					"hidden" : 0,
					"midpoints" : [  ]
				}

			}
, 			{
				"patchline" : 				{
					"source" : [ "obj-43", 0 ],
					"destination" : [ "obj-71", 0 ],
					"hidden" : 0,
					"midpoints" : [  ]
				}

			}
, 			{
				"patchline" : 				{
					"source" : [ "obj-70", 0 ],
					"destination" : [ "obj-72", 0 ],
					"hidden" : 0,
					"midpoints" : [  ]
				}

			}
, 			{
				"patchline" : 				{
					"source" : [ "obj-71", 0 ],
					"destination" : [ "obj-70", 0 ],
					"hidden" : 0,
					"midpoints" : [  ]
				}

			}
, 			{
				"patchline" : 				{
					"source" : [ "obj-2", 1 ],
					"destination" : [ "obj-4", 2 ],
					"hidden" : 0,
					"midpoints" : [ 182.5, 371.826904, 216.0, 371.826904, 216.0, 6.0, 124.5, 6.0 ]
				}

			}
, 			{
				"patchline" : 				{
					"source" : [ "obj-42", 0 ],
					"destination" : [ "obj-44", 0 ],
					"hidden" : 0,
					"midpoints" : [  ]
				}

			}
, 			{
				"patchline" : 				{
					"source" : [ "obj-43", 0 ],
					"destination" : [ "obj-44", 0 ],
					"hidden" : 0,
					"midpoints" : [  ]
				}

			}
, 			{
				"patchline" : 				{
					"source" : [ "obj-57", 0 ],
					"destination" : [ "obj-5", 3 ],
					"hidden" : 0,
					"midpoints" : [  ]
				}

			}
, 			{
				"patchline" : 				{
					"source" : [ "obj-56", 0 ],
					"destination" : [ "obj-5", 2 ],
					"hidden" : 0,
					"midpoints" : [  ]
				}

			}
, 			{
				"patchline" : 				{
					"source" : [ "obj-36", 0 ],
					"destination" : [ "obj-5", 1 ],
					"hidden" : 0,
					"midpoints" : [  ]
				}

			}
, 			{
				"patchline" : 				{
					"source" : [ "obj-26", 0 ],
					"destination" : [ "obj-5", 0 ],
					"hidden" : 0,
					"midpoints" : [  ]
				}

			}
, 			{
				"patchline" : 				{
					"source" : [ "obj-10", 0 ],
					"destination" : [ "obj-5", 0 ],
					"hidden" : 0,
					"midpoints" : [  ]
				}

			}
, 			{
				"patchline" : 				{
					"source" : [ "obj-5", 0 ],
					"destination" : [ "obj-1", 0 ],
					"hidden" : 0,
					"midpoints" : [  ]
				}

			}
, 			{
				"patchline" : 				{
					"source" : [ "obj-5", 1 ],
					"destination" : [ "obj-1", 1 ],
					"hidden" : 0,
					"midpoints" : [  ]
				}

			}
, 			{
				"patchline" : 				{
					"source" : [ "obj-57", 0 ],
					"destination" : [ "obj-6", 3 ],
					"hidden" : 0,
					"midpoints" : [  ]
				}

			}
, 			{
				"patchline" : 				{
					"source" : [ "obj-56", 0 ],
					"destination" : [ "obj-6", 2 ],
					"hidden" : 0,
					"midpoints" : [  ]
				}

			}
, 			{
				"patchline" : 				{
					"source" : [ "obj-37", 0 ],
					"destination" : [ "obj-6", 1 ],
					"hidden" : 0,
					"midpoints" : [  ]
				}

			}
, 			{
				"patchline" : 				{
					"source" : [ "obj-27", 0 ],
					"destination" : [ "obj-6", 0 ],
					"hidden" : 0,
					"midpoints" : [  ]
				}

			}
, 			{
				"patchline" : 				{
					"source" : [ "obj-11", 0 ],
					"destination" : [ "obj-6", 0 ],
					"hidden" : 0,
					"midpoints" : [  ]
				}

			}
, 			{
				"patchline" : 				{
					"source" : [ "obj-6", 0 ],
					"destination" : [ "obj-14", 0 ],
					"hidden" : 0,
					"midpoints" : [  ]
				}

			}
, 			{
				"patchline" : 				{
					"source" : [ "obj-6", 1 ],
					"destination" : [ "obj-14", 1 ],
					"hidden" : 0,
					"midpoints" : [  ]
				}

			}
, 			{
				"patchline" : 				{
					"source" : [ "obj-11", 4 ],
					"destination" : [ "obj-52", 3 ],
					"hidden" : 0,
					"midpoints" : [  ]
				}

			}
, 			{
				"patchline" : 				{
					"source" : [ "obj-11", 2 ],
					"destination" : [ "obj-52", 2 ],
					"hidden" : 0,
					"midpoints" : [  ]
				}

			}
, 			{
				"patchline" : 				{
					"source" : [ "obj-10", 4 ],
					"destination" : [ "obj-51", 3 ],
					"hidden" : 0,
					"midpoints" : [  ]
				}

			}
, 			{
				"patchline" : 				{
					"source" : [ "obj-10", 2 ],
					"destination" : [ "obj-51", 2 ],
					"hidden" : 0,
					"midpoints" : [  ]
				}

			}
, 			{
				"patchline" : 				{
					"source" : [ "obj-45", 0 ],
					"destination" : [ "obj-22", 0 ],
					"hidden" : 0,
					"midpoints" : [  ]
				}

			}
, 			{
				"patchline" : 				{
					"source" : [ "obj-34", 0 ],
					"destination" : [ "obj-31", 0 ],
					"hidden" : 0,
					"midpoints" : [  ]
				}

			}
, 			{
				"patchline" : 				{
					"source" : [ "obj-33", 0 ],
					"destination" : [ "obj-31", 0 ],
					"hidden" : 0,
					"midpoints" : [  ]
				}

			}
, 			{
				"patchline" : 				{
					"source" : [ "obj-22", 0 ],
					"destination" : [ "obj-20", 0 ],
					"hidden" : 0,
					"midpoints" : [  ]
				}

			}
, 			{
				"patchline" : 				{
					"source" : [ "obj-24", 0 ],
					"destination" : [ "obj-20", 0 ],
					"hidden" : 0,
					"midpoints" : [  ]
				}

			}
, 			{
				"patchline" : 				{
					"source" : [ "obj-4", 1 ],
					"destination" : [ "obj-2", 2 ],
					"hidden" : 0,
					"midpoints" : [  ]
				}

			}
, 			{
				"patchline" : 				{
					"source" : [ "obj-4", 0 ],
					"destination" : [ "obj-2", 1 ],
					"hidden" : 0,
					"midpoints" : [  ]
				}

			}
, 			{
				"patchline" : 				{
					"source" : [ "obj-12", 0 ],
					"destination" : [ "obj-1", 2 ],
					"hidden" : 0,
					"midpoints" : [  ]
				}

			}
, 			{
				"patchline" : 				{
					"source" : [ "obj-13", 0 ],
					"destination" : [ "obj-14", 2 ],
					"hidden" : 0,
					"midpoints" : [  ]
				}

			}
, 			{
				"patchline" : 				{
					"source" : [ "obj-41", 0 ],
					"destination" : [ "obj-48", 0 ],
					"hidden" : 1,
					"midpoints" : [  ]
				}

			}
, 			{
				"patchline" : 				{
					"source" : [ "obj-48", 0 ],
					"destination" : [ "obj-46", 0 ],
					"hidden" : 1,
					"midpoints" : [  ]
				}

			}
, 			{
				"patchline" : 				{
					"source" : [ "obj-46", 0 ],
					"destination" : [ "obj-51", 4 ],
					"hidden" : 0,
					"midpoints" : [  ]
				}

			}
, 			{
				"patchline" : 				{
					"source" : [ "obj-46", 0 ],
					"destination" : [ "obj-52", 4 ],
					"hidden" : 0,
					"midpoints" : [  ]
				}

			}
, 			{
				"patchline" : 				{
					"source" : [ "obj-46", 0 ],
					"destination" : [ "obj-55", 4 ],
					"hidden" : 0,
					"midpoints" : [  ]
				}

			}
, 			{
				"patchline" : 				{
					"source" : [ "obj-51", 0 ],
					"destination" : [ "obj-168", 0 ],
					"hidden" : 0,
					"midpoints" : [  ]
				}

			}
, 			{
				"patchline" : 				{
					"source" : [ "obj-51", 1 ],
					"destination" : [ "obj-168", 0 ],
					"hidden" : 0,
					"midpoints" : [  ]
				}

			}
, 			{
				"patchline" : 				{
					"source" : [ "obj-52", 0 ],
					"destination" : [ "obj-168", 0 ],
					"hidden" : 0,
					"midpoints" : [  ]
				}

			}
, 			{
				"patchline" : 				{
					"source" : [ "obj-52", 1 ],
					"destination" : [ "obj-168", 0 ],
					"hidden" : 0,
					"midpoints" : [  ]
				}

			}
, 			{
				"patchline" : 				{
					"source" : [ "obj-55", 0 ],
					"destination" : [ "obj-168", 0 ],
					"hidden" : 0,
					"midpoints" : [  ]
				}

			}
, 			{
				"patchline" : 				{
					"source" : [ "obj-55", 1 ],
					"destination" : [ "obj-168", 0 ],
					"hidden" : 0,
					"midpoints" : [  ]
				}

			}
, 			{
				"patchline" : 				{
					"source" : [ "obj-33", 0 ],
					"destination" : [ "obj-49", 0 ],
					"hidden" : 0,
					"midpoints" : [  ]
				}

			}
, 			{
				"patchline" : 				{
					"source" : [ "obj-50", 0 ],
					"destination" : [ "obj-12", 0 ],
					"hidden" : 0,
					"midpoints" : [  ]
				}

			}
, 			{
				"patchline" : 				{
					"source" : [ "obj-50", 0 ],
					"destination" : [ "obj-13", 0 ],
					"hidden" : 0,
					"midpoints" : [  ]
				}

			}
, 			{
				"patchline" : 				{
					"source" : [ "obj-50", 0 ],
					"destination" : [ "obj-16", 0 ],
					"hidden" : 0,
					"midpoints" : [  ]
				}

			}
, 			{
				"patchline" : 				{
					"source" : [ "obj-50", 0 ],
					"destination" : [ "obj-23", 0 ],
					"hidden" : 0,
					"midpoints" : [  ]
				}

			}
, 			{
				"patchline" : 				{
					"source" : [ "obj-43", 0 ],
					"destination" : [ "obj-58", 0 ],
					"hidden" : 0,
					"midpoints" : [  ]
				}

			}
, 			{
				"patchline" : 				{
					"source" : [ "obj-59", 0 ],
					"destination" : [ "obj-32", 0 ],
					"hidden" : 0,
					"midpoints" : [  ]
				}

			}
, 			{
				"patchline" : 				{
					"source" : [ "obj-61", 0 ],
					"destination" : [ "obj-62", 0 ],
					"hidden" : 0,
					"midpoints" : [  ]
				}

			}
, 			{
				"patchline" : 				{
					"source" : [ "obj-62", 0 ],
					"destination" : [ "obj-10", 0 ],
					"hidden" : 0,
					"midpoints" : [  ]
				}

			}
, 			{
				"patchline" : 				{
					"source" : [ "obj-62", 0 ],
					"destination" : [ "obj-10", 1 ],
					"hidden" : 0,
					"midpoints" : [  ]
				}

			}
, 			{
				"patchline" : 				{
					"source" : [ "obj-62", 0 ],
					"destination" : [ "obj-11", 0 ],
					"hidden" : 0,
					"midpoints" : [  ]
				}

			}
, 			{
				"patchline" : 				{
					"source" : [ "obj-62", 0 ],
					"destination" : [ "obj-11", 1 ],
					"hidden" : 0,
					"midpoints" : [  ]
				}

			}
, 			{
				"patchline" : 				{
					"source" : [ "obj-20", 1 ],
					"destination" : [ "obj-63", 2 ],
					"hidden" : 0,
					"midpoints" : [  ]
				}

			}
, 			{
				"patchline" : 				{
					"source" : [ "obj-31", 1 ],
					"destination" : [ "obj-63", 1 ],
					"hidden" : 0,
					"midpoints" : [  ]
				}

			}
, 			{
				"patchline" : 				{
					"source" : [ "obj-33", 0 ],
					"destination" : [ "obj-67", 0 ],
					"hidden" : 0,
					"midpoints" : [  ]
				}

			}
, 			{
				"patchline" : 				{
					"source" : [ "obj-67", 0 ],
					"destination" : [ "obj-68", 0 ],
					"hidden" : 0,
					"midpoints" : [  ]
				}

			}
, 			{
				"patchline" : 				{
					"source" : [ "obj-68", 0 ],
					"destination" : [ "obj-63", 0 ],
					"hidden" : 0,
					"midpoints" : [  ]
				}

			}
, 			{
				"patchline" : 				{
					"source" : [ "obj-65", 0 ],
					"destination" : [ "obj-64", 1 ],
					"hidden" : 0,
					"midpoints" : [  ]
				}

			}
, 			{
				"patchline" : 				{
					"source" : [ "obj-65", 1 ],
					"destination" : [ "obj-64", 2 ],
					"hidden" : 0,
					"midpoints" : [  ]
				}

			}
, 			{
				"patchline" : 				{
					"source" : [ "obj-69", 0 ],
					"destination" : [ "obj-66", 0 ],
					"hidden" : 0,
					"midpoints" : [  ]
				}

			}
, 			{
				"patchline" : 				{
					"source" : [ "obj-76", 0 ],
					"destination" : [ "obj-69", 0 ],
					"hidden" : 0,
					"midpoints" : [  ]
				}

			}
, 			{
				"patchline" : 				{
					"source" : [ "obj-76", 0 ],
					"destination" : [ "obj-74", 0 ],
					"hidden" : 0,
					"midpoints" : [  ]
				}

			}
, 			{
				"patchline" : 				{
					"source" : [ "obj-66", 0 ],
					"destination" : [ "obj-73", 0 ],
					"hidden" : 0,
					"midpoints" : [  ]
				}

			}
, 			{
				"patchline" : 				{
					"source" : [ "obj-20", 1 ],
					"destination" : [ "obj-73", 2 ],
					"hidden" : 0,
					"midpoints" : [  ]
				}

			}
, 			{
				"patchline" : 				{
					"source" : [ "obj-96", 0 ],
					"destination" : [ "obj-97", 0 ],
					"hidden" : 0,
					"midpoints" : [  ]
				}

			}
, 			{
				"patchline" : 				{
					"source" : [ "obj-95", 0 ],
					"destination" : [ "obj-97", 0 ],
					"hidden" : 0,
					"midpoints" : [  ]
				}

			}
, 			{
				"patchline" : 				{
					"source" : [ "obj-94", 0 ],
					"destination" : [ "obj-97", 0 ],
					"hidden" : 0,
					"midpoints" : [  ]
				}

			}
, 			{
				"patchline" : 				{
					"source" : [ "obj-93", 0 ],
					"destination" : [ "obj-97", 0 ],
					"hidden" : 0,
					"midpoints" : [  ]
				}

			}
, 			{
				"patchline" : 				{
					"source" : [ "obj-92", 0 ],
					"destination" : [ "obj-97", 0 ],
					"hidden" : 0,
					"midpoints" : [  ]
				}

			}
, 			{
				"patchline" : 				{
					"source" : [ "obj-91", 0 ],
					"destination" : [ "obj-97", 0 ],
					"hidden" : 0,
					"midpoints" : [  ]
				}

			}
, 			{
				"patchline" : 				{
					"source" : [ "obj-98", 0 ],
					"destination" : [ "obj-97", 0 ],
					"hidden" : 0,
					"midpoints" : [  ]
				}

			}
, 			{
				"patchline" : 				{
					"source" : [ "obj-75", 0 ],
					"destination" : [ "obj-77", 0 ],
					"hidden" : 0,
					"midpoints" : [  ]
				}

			}
, 			{
				"patchline" : 				{
					"source" : [ "obj-76", 0 ],
					"destination" : [ "obj-77", 0 ],
					"hidden" : 0,
					"midpoints" : [  ]
				}

			}
, 			{
				"patchline" : 				{
					"source" : [ "obj-77", 1 ],
					"destination" : [ "obj-73", 1 ],
					"hidden" : 0,
					"midpoints" : [  ]
				}

			}
, 			{
				"patchline" : 				{
					"source" : [ "obj-30", 0 ],
					"destination" : [ "obj-9", 0 ],
					"hidden" : 0,
					"midpoints" : [  ]
				}

			}
, 			{
				"patchline" : 				{
					"source" : [ "obj-40", 0 ],
					"destination" : [ "obj-9", 1 ],
					"hidden" : 0,
					"midpoints" : [  ]
				}

			}
, 			{
				"patchline" : 				{
					"source" : [ "obj-3", 0 ],
					"destination" : [ "obj-9", 3 ],
					"hidden" : 0,
					"midpoints" : [  ]
				}

			}
, 			{
				"patchline" : 				{
					"source" : [ "obj-15", 0 ],
					"destination" : [ "obj-9", 2 ],
					"hidden" : 0,
					"midpoints" : [  ]
				}

			}
, 			{
				"patchline" : 				{
					"source" : [ "obj-81", 0 ],
					"destination" : [ "obj-82", 0 ],
					"hidden" : 0,
					"midpoints" : [  ]
				}

			}
, 			{
				"patchline" : 				{
					"source" : [ "obj-80", 0 ],
					"destination" : [ "obj-82", 1 ],
					"hidden" : 0,
					"midpoints" : [  ]
				}

			}
, 			{
				"patchline" : 				{
					"source" : [ "obj-88", 0 ],
					"destination" : [ "obj-82", 3 ],
					"hidden" : 0,
					"midpoints" : [  ]
				}

			}
, 			{
				"patchline" : 				{
					"source" : [ "obj-89", 0 ],
					"destination" : [ "obj-82", 2 ],
					"hidden" : 0,
					"midpoints" : [  ]
				}

			}
, 			{
				"patchline" : 				{
					"source" : [ "obj-86", 0 ],
					"destination" : [ "obj-87", 0 ],
					"hidden" : 0,
					"midpoints" : [  ]
				}

			}
, 			{
				"patchline" : 				{
					"source" : [ "obj-85", 0 ],
					"destination" : [ "obj-87", 1 ],
					"hidden" : 0,
					"midpoints" : [  ]
				}

			}
, 			{
				"patchline" : 				{
					"source" : [ "obj-88", 0 ],
					"destination" : [ "obj-87", 3 ],
					"hidden" : 0,
					"midpoints" : [  ]
				}

			}
, 			{
				"patchline" : 				{
					"source" : [ "obj-89", 0 ],
					"destination" : [ "obj-87", 2 ],
					"hidden" : 0,
					"midpoints" : [  ]
				}

			}
, 			{
				"patchline" : 				{
					"source" : [ "obj-57", 0 ],
					"destination" : [ "obj-7", 3 ],
					"hidden" : 0,
					"midpoints" : [  ]
				}

			}
, 			{
				"patchline" : 				{
					"source" : [ "obj-56", 0 ],
					"destination" : [ "obj-7", 2 ],
					"hidden" : 0,
					"midpoints" : [  ]
				}

			}
, 			{
				"patchline" : 				{
					"source" : [ "obj-38", 0 ],
					"destination" : [ "obj-7", 1 ],
					"hidden" : 0,
					"midpoints" : [  ]
				}

			}
, 			{
				"patchline" : 				{
					"source" : [ "obj-28", 0 ],
					"destination" : [ "obj-7", 0 ],
					"hidden" : 0,
					"midpoints" : [  ]
				}

			}
, 			{
				"patchline" : 				{
					"source" : [ "obj-57", 0 ],
					"destination" : [ "obj-8", 3 ],
					"hidden" : 0,
					"midpoints" : [  ]
				}

			}
, 			{
				"patchline" : 				{
					"source" : [ "obj-56", 0 ],
					"destination" : [ "obj-8", 2 ],
					"hidden" : 0,
					"midpoints" : [  ]
				}

			}
, 			{
				"patchline" : 				{
					"source" : [ "obj-39", 0 ],
					"destination" : [ "obj-8", 1 ],
					"hidden" : 0,
					"midpoints" : [  ]
				}

			}
, 			{
				"patchline" : 				{
					"source" : [ "obj-29", 0 ],
					"destination" : [ "obj-8", 0 ],
					"hidden" : 0,
					"midpoints" : [  ]
				}

			}
, 			{
				"patchline" : 				{
					"source" : [ "obj-46", 0 ],
					"destination" : [ "obj-53", 4 ],
					"hidden" : 0,
					"midpoints" : [  ]
				}

			}
, 			{
				"patchline" : 				{
					"source" : [ "obj-53", 0 ],
					"destination" : [ "obj-168", 0 ],
					"hidden" : 0,
					"midpoints" : [  ]
				}

			}
, 			{
				"patchline" : 				{
					"source" : [ "obj-53", 1 ],
					"destination" : [ "obj-168", 0 ],
					"hidden" : 0,
					"midpoints" : [  ]
				}

			}
, 			{
				"patchline" : 				{
					"source" : [ "obj-46", 0 ],
					"destination" : [ "obj-54", 4 ],
					"hidden" : 0,
					"midpoints" : [  ]
				}

			}
, 			{
				"patchline" : 				{
					"source" : [ "obj-54", 0 ],
					"destination" : [ "obj-168", 0 ],
					"hidden" : 0,
					"midpoints" : [  ]
				}

			}
, 			{
				"patchline" : 				{
					"source" : [ "obj-54", 1 ],
					"destination" : [ "obj-168", 0 ],
					"hidden" : 0,
					"midpoints" : [  ]
				}

			}
 ],
		"parameters" : 		{

		}

	}

}
