{
	"patcher" : 	{
		"fileversion" : 1,
		"rect" : [ 479.0, -969.0, 770.0, 650.0 ],
		"bgcolor" : [ 0.623529, 1.0, 0.92549, 1.0 ],
		"bglocked" : 0,
		"defrect" : [ 479.0, -969.0, 770.0, 650.0 ],
		"openrect" : [ 0.0, 0.0, 0.0, 0.0 ],
		"openinpresentation" : 1,
		"default_fontsize" : 12.0,
		"default_fontface" : 0,
		"default_fontname" : "Arial",
		"gridonopen" : 0,
		"gridsize" : [ 5.0, 5.0 ],
		"gridsnaponopen" : 0,
		"toolbarvisible" : 1,
		"boxanimatetime" : 200,
		"imprint" : 0,
		"enablehscroll" : 1,
		"enablevscroll" : 1,
		"devicewidth" : 0.0,
		"boxes" : [ 			{
				"box" : 				{
					"maxclass" : "comment",
					"text" : "add pitch velocity phrase section date duration",
					"numoutlets" : 0,
					"fontname" : "Arial",
					"patching_rect" : [ 481.0, 344.0, 220.0, 18.0 ],
					"id" : "obj-69",
					"fontsize" : 10.0,
					"numinlets" : 1,
					"presentation_rect" : [ 499.0, 341.0, 0.0, 0.0 ]
				}

			}
, 			{
				"box" : 				{
					"maxclass" : "comment",
					"text" : "/mo pitch velocity channel phrase date",
					"numoutlets" : 0,
					"fontname" : "Arial",
					"patching_rect" : [ 456.0, 63.0, 215.0, 20.0 ],
					"id" : "obj-62",
					"fontsize" : 12.0,
					"numinlets" : 1
				}

			}
, 			{
				"box" : 				{
					"maxclass" : "newobj",
					"text" : "t b s b",
					"numoutlets" : 3,
					"fontname" : "Arial",
					"patching_rect" : [ 12.0, 195.0, 46.0, 20.0 ],
					"id" : "obj-60",
					"outlettype" : [ "bang", "", "bang" ],
					"fontsize" : 12.0,
					"numinlets" : 1
				}

			}
, 			{
				"box" : 				{
					"maxclass" : "newobj",
					"text" : "uzi",
					"numoutlets" : 3,
					"fontname" : "Arial",
					"patching_rect" : [ 12.0, 413.0, 46.0, 20.0 ],
					"id" : "obj-58",
					"outlettype" : [ "bang", "bang", "int" ],
					"fontsize" : 12.0,
					"numinlets" : 2
				}

			}
, 			{
				"box" : 				{
					"maxclass" : "newobj",
					"text" : "regexp .+_MIDI",
					"numoutlets" : 5,
					"fontname" : "Arial",
					"patching_rect" : [ 627.0, 199.0, 93.0, 20.0 ],
					"id" : "obj-57",
					"outlettype" : [ "", "", "", "", "" ],
					"fontsize" : 12.0,
					"numinlets" : 1
				}

			}
, 			{
				"box" : 				{
					"maxclass" : "newobj",
					"text" : "sprintf read %s.json",
					"numoutlets" : 1,
					"fontname" : "Arial",
					"patching_rect" : [ 276.0, 283.0, 116.0, 20.0 ],
					"id" : "obj-52",
					"outlettype" : [ "" ],
					"fontsize" : 12.0,
					"numinlets" : 1
				}

			}
, 			{
				"box" : 				{
					"maxclass" : "newobj",
					"text" : "r #0-read",
					"numoutlets" : 1,
					"fontname" : "Arial",
					"patching_rect" : [ 276.0, 253.0, 59.0, 20.0 ],
					"id" : "obj-56",
					"outlettype" : [ "" ],
					"fontsize" : 12.0,
					"numinlets" : 0
				}

			}
, 			{
				"box" : 				{
					"maxclass" : "newobj",
					"text" : "sprintf read %s.dot",
					"numoutlets" : 1,
					"fontname" : "Arial",
					"patching_rect" : [ 26.0, 226.0, 111.0, 20.0 ],
					"id" : "obj-25",
					"outlettype" : [ "" ],
					"fontsize" : 12.0,
					"numinlets" : 1
				}

			}
, 			{
				"box" : 				{
					"maxclass" : "newobj",
					"text" : "r #0-read",
					"numoutlets" : 1,
					"fontname" : "Arial",
					"patching_rect" : [ 12.0, 167.0, 59.0, 20.0 ],
					"id" : "obj-51",
					"outlettype" : [ "" ],
					"fontsize" : 12.0,
					"numinlets" : 0
				}

			}
, 			{
				"box" : 				{
					"maxclass" : "newobj",
					"text" : "s #0-read",
					"numoutlets" : 0,
					"fontname" : "Arial",
					"patching_rect" : [ 664.0, 226.0, 61.0, 20.0 ],
					"id" : "obj-18",
					"fontsize" : 12.0,
					"numinlets" : 1
				}

			}
, 			{
				"box" : 				{
					"maxclass" : "newobj",
					"text" : "sprintf write %s_MIDI.json",
					"numoutlets" : 1,
					"fontname" : "Arial",
					"patching_rect" : [ 211.0, 310.0, 149.0, 20.0 ],
					"id" : "obj-53",
					"outlettype" : [ "" ],
					"fontsize" : 12.0,
					"numinlets" : 1
				}

			}
, 			{
				"box" : 				{
					"maxclass" : "newobj",
					"text" : "r #0-write",
					"numoutlets" : 1,
					"fontname" : "Arial",
					"patching_rect" : [ 211.0, 285.0, 61.0, 20.0 ],
					"id" : "obj-54",
					"outlettype" : [ "" ],
					"fontsize" : 12.0,
					"numinlets" : 0
				}

			}
, 			{
				"box" : 				{
					"maxclass" : "newobj",
					"text" : "route write read writeMIDI",
					"numoutlets" : 4,
					"fontname" : "Arial",
					"patching_rect" : [ 584.0, 143.0, 148.0, 20.0 ],
					"id" : "obj-49",
					"outlettype" : [ "", "", "", "" ],
					"fontsize" : 12.0,
					"numinlets" : 1
				}

			}
, 			{
				"box" : 				{
					"maxclass" : "newobj",
					"text" : "sprintf write %s_MIDI.dot",
					"numoutlets" : 1,
					"fontname" : "Arial",
					"patching_rect" : [ 49.0, 276.0, 144.0, 20.0 ],
					"id" : "obj-48",
					"outlettype" : [ "" ],
					"fontsize" : 12.0,
					"numinlets" : 1
				}

			}
, 			{
				"box" : 				{
					"maxclass" : "newobj",
					"text" : "r #0-write",
					"numoutlets" : 1,
					"fontname" : "Arial",
					"patching_rect" : [ 49.0, 251.0, 61.0, 20.0 ],
					"id" : "obj-47",
					"outlettype" : [ "" ],
					"fontsize" : 12.0,
					"numinlets" : 0
				}

			}
, 			{
				"box" : 				{
					"maxclass" : "newobj",
					"text" : "s #0-write",
					"numoutlets" : 0,
					"fontname" : "Arial",
					"patching_rect" : [ 584.0, 171.0, 63.0, 20.0 ],
					"id" : "obj-46",
					"fontsize" : 12.0,
					"numinlets" : 1
				}

			}
, 			{
				"box" : 				{
					"maxclass" : "inlet",
					"numoutlets" : 1,
					"patching_rect" : [ 584.0, 112.0, 25.0, 25.0 ],
					"id" : "obj-43",
					"outlettype" : [ "" ],
					"numinlets" : 0,
					"comment" : "write/read + symbol"
				}

			}
, 			{
				"box" : 				{
					"maxclass" : "newobj",
					"text" : "p writeMIDIfile",
					"numoutlets" : 0,
					"fontname" : "Arial",
					"patching_rect" : [ 670.0, 171.0, 87.0, 20.0 ],
					"id" : "obj-39",
					"fontsize" : 12.0,
					"numinlets" : 1,
					"patcher" : 					{
						"fileversion" : 1,
						"rect" : [ 671.0, 44.0, 645.0, 541.0 ],
						"bglocked" : 0,
						"defrect" : [ 671.0, 44.0, 645.0, 541.0 ],
						"openrect" : [ 0.0, 0.0, 0.0, 0.0 ],
						"openinpresentation" : 0,
						"default_fontsize" : 12.0,
						"default_fontface" : 0,
						"default_fontname" : "Arial",
						"gridonopen" : 0,
						"gridsize" : [ 5.0, 5.0 ],
						"gridsnaponopen" : 0,
						"toolbarvisible" : 1,
						"boxanimatetime" : 200,
						"imprint" : 0,
						"enablehscroll" : 1,
						"enablevscroll" : 1,
						"devicewidth" : 0.0,
						"boxes" : [ 							{
								"box" : 								{
									"maxclass" : "inlet",
									"numoutlets" : 1,
									"patching_rect" : [ 86.0, 51.0, 25.0, 25.0 ],
									"id" : "obj-1",
									"outlettype" : [ "" ],
									"numinlets" : 0,
									"comment" : ""
								}

							}
, 							{
								"box" : 								{
									"maxclass" : "button",
									"numoutlets" : 1,
									"patching_rect" : [ 25.0, 40.0, 39.0, 39.0 ],
									"id" : "obj-21",
									"outlettype" : [ "bang" ],
									"numinlets" : 1
								}

							}
, 							{
								"box" : 								{
									"maxclass" : "comment",
									"text" : "< custom data structure",
									"numoutlets" : 0,
									"fontname" : "Arial",
									"patching_rect" : [ 455.0, 253.0, 150.0, 20.0 ],
									"id" : "obj-19",
									"fontsize" : 12.0,
									"numinlets" : 1
								}

							}
, 							{
								"box" : 								{
									"maxclass" : "comment",
									"text" : "< number of events",
									"numoutlets" : 0,
									"fontname" : "Arial",
									"patching_rect" : [ 419.0, 174.0, 150.0, 20.0 ],
									"id" : "obj-14",
									"fontsize" : 12.0,
									"numinlets" : 1
								}

							}
, 							{
								"box" : 								{
									"maxclass" : "comment",
									"text" : "< get all the events as fast as possible",
									"linecount" : 2,
									"numoutlets" : 0,
									"fontname" : "Arial",
									"patching_rect" : [ 339.0, 206.0, 113.0, 34.0 ],
									"id" : "obj-11",
									"fontsize" : 12.0,
									"numinlets" : 1
								}

							}
, 							{
								"box" : 								{
									"maxclass" : "comment",
									"text" : "< get delta instead of dates",
									"linecount" : 2,
									"numoutlets" : 0,
									"fontname" : "Arial",
									"patching_rect" : [ 450.0, 334.0, 96.0, 34.0 ],
									"id" : "obj-9",
									"fontsize" : 12.0,
									"numinlets" : 1
								}

							}
, 							{
								"box" : 								{
									"maxclass" : "newobj",
									"text" : "t i i",
									"numoutlets" : 2,
									"fontname" : "Arial",
									"patching_rect" : [ 401.0, 311.0, 32.5, 20.0 ],
									"id" : "obj-5",
									"outlettype" : [ "int", "int" ],
									"fontsize" : 12.0,
									"numinlets" : 1
								}

							}
, 							{
								"box" : 								{
									"maxclass" : "newobj",
									"text" : "- 0",
									"numoutlets" : 1,
									"fontname" : "Arial",
									"patching_rect" : [ 387.0, 348.0, 32.5, 20.0 ],
									"id" : "obj-2",
									"outlettype" : [ "int" ],
									"fontsize" : 12.0,
									"numinlets" : 2
								}

							}
, 							{
								"box" : 								{
									"maxclass" : "newobj",
									"text" : "t s stop b b record clear",
									"numoutlets" : 6,
									"fontname" : "Arial",
									"patching_rect" : [ 86.0, 103.0, 243.0, 20.0 ],
									"id" : "obj-28",
									"outlettype" : [ "", "stop", "bang", "bang", "record", "clear" ],
									"fontsize" : 12.0,
									"numinlets" : 1
								}

							}
, 							{
								"box" : 								{
									"maxclass" : "newobj",
									"text" : "uzi",
									"numoutlets" : 3,
									"fontname" : "Arial",
									"patching_rect" : [ 286.0, 206.0, 46.0, 20.0 ],
									"id" : "obj-27",
									"outlettype" : [ "bang", "bang", "int" ],
									"fontsize" : 12.0,
									"numinlets" : 2
								}

							}
, 							{
								"box" : 								{
									"maxclass" : "newobj",
									"text" : "unpack",
									"numoutlets" : 2,
									"fontname" : "Arial",
									"patching_rect" : [ 342.0, 280.0, 49.0, 20.0 ],
									"id" : "obj-26",
									"outlettype" : [ "int", "int" ],
									"fontsize" : 12.0,
									"numinlets" : 1
								}

							}
, 							{
								"box" : 								{
									"maxclass" : "newobj",
									"text" : "prepend set",
									"numoutlets" : 1,
									"fontname" : "Arial",
									"patching_rect" : [ 387.0, 376.0, 74.0, 20.0 ],
									"id" : "obj-25",
									"outlettype" : [ "" ],
									"fontsize" : 12.0,
									"numinlets" : 1
								}

							}
, 							{
								"box" : 								{
									"maxclass" : "newobj",
									"text" : "unpack",
									"numoutlets" : 2,
									"fontname" : "Arial",
									"patching_rect" : [ 401.0, 280.0, 49.0, 20.0 ],
									"id" : "obj-24",
									"outlettype" : [ "int", "int" ],
									"fontsize" : 12.0,
									"numinlets" : 1
								}

							}
, 							{
								"box" : 								{
									"maxclass" : "newobj",
									"text" : "pack 0 0 0 0",
									"numoutlets" : 1,
									"fontname" : "Arial",
									"patching_rect" : [ 313.0, 425.0, 107.0, 20.0 ],
									"id" : "obj-23",
									"outlettype" : [ "" ],
									"fontsize" : 12.0,
									"numinlets" : 4
								}

							}
, 							{
								"box" : 								{
									"maxclass" : "newobj",
									"text" : "v #1_MIDI-size",
									"numoutlets" : 1,
									"fontname" : "Arial",
									"patching_rect" : [ 313.0, 174.0, 91.0, 20.0 ],
									"id" : "obj-15",
									"outlettype" : [ "" ],
									"fontsize" : 12.0,
									"color" : [ 0.0, 0.85098, 1.0, 1.0 ],
									"numinlets" : 1
								}

							}
, 							{
								"box" : 								{
									"maxclass" : "newobj",
									"text" : "OMax.render #1_MIDI",
									"numoutlets" : 5,
									"fontname" : "Arial",
									"patching_rect" : [ 313.0, 253.0, 129.0, 20.0 ],
									"id" : "obj-13",
									"outlettype" : [ "bang", "", "list", "list", "int" ],
									"fontsize" : 12.0,
									"color" : [ 0.3, 1.0, 0.15, 1.0 ],
									"numinlets" : 1
								}

							}
, 							{
								"box" : 								{
									"maxclass" : "newobj",
									"text" : "detonate",
									"numoutlets" : 8,
									"fontname" : "Arial",
									"patching_rect" : [ 131.0, 482.0, 113.5, 20.0 ],
									"id" : "obj-6",
									"outlettype" : [ "int", "int", "int", "int", "int", "int", "int", "int" ],
									"fontsize" : 12.0,
									"numinlets" : 8,
									"save" : [ "#N", "detonate", "", ";", "#X", "setparam", 0, "Time", 0, 0, 999999, 0, 1000, 200, 0, ";", "#X", "setparam", 1, "Pitch", 0, 0, 127, 60, 12, 4, 0, ";", "#X", "setparam", 2, "Vel", 0, 0, 127, 64, 12, 4, 0, ";", "#X", "setparam", 3, "Dur", 0, 1, 99999, 200, 800, 200, 0, ";", "#X", "setparam", 4, "Chan", 0, 1, 16, 1, 8, 1, 0, ";", "#X", "setparam", 5, "Track", 0, 1, 32, 1, 8, 1, 0, ";", "#X", "setparam", 6, "X1", 0, 0, 999, 0, 80, 20, 0, ";", "#X", "setparam", 7, "X2", 0, 0, 999, 0, 80, 20, 0, ";", "#X", "restore", ";", "#X", 0, 63, 57, 1174, 1, 1, 0, 0, ";", "#X", 1174, 67, 63, 233, 1, 1, 0, 0, ";", "#X", 233, 69, 53, 1039, 1, 1, 0, 0, ";", "#X", 1103, 60, 49, 261, 1, 1, 0, 0, ";", "#X", 261, 61, 54, 1198, 1, 1, 0, 0, ";", "#X", 1198, 64, 60, 303, 1, 1, 0, 0, ";", "#X", 303, 66, 59, 1146, 1, 1, 0, 0, ";", "#X", 1196, 63, 54, 1278, 1, 1, 0, 0, ";", "#X", 1326, 67, 60, 224, 1, 1, 0, 0, ";", "#X", 224, 69, 47, 1032, 1, 1, 0, 0, ";", "#X", 1032, 70, 22, 59, 1, 1, 0, 0, ";", "#X", 97, 60, 54, 296, 1, 1, 0, 0, ";", "#X", 296, 61, 56, 1100, 1, 1, 0, 0, ";", "#X", 1100, 64, 60, 258, 1, 1, 0, 0, ";", "#X", 258, 66, 54, 232, 1, 1, 0, 0, ";", "#X", 232, 63, 57, 912, 1, 1, 0, 0, ";", "#X", 967, 67, 66, 985, 1, 1, 0, 0, ";", "#X", 985, 63, 52, 190, 1, 1, 0, 0, ";", "#X", 275, 69, 60, 973, 1, 1, 0, 0, ";", "#X", 973, 66, 55, 458, 1, 1, 0, 0, ";", "#X", 1141, 67, 70, 881, 1, 1, 0, 0, ";", "#X", 881, 70, 67, 1306, 1, 1, 0, 0, ";", "#X", 1306, 72, 61, 235, 1, 1, 0, 0, ";", "#X", 235, 67, 64, 153, 1, 1, 0, 0, ";", "#X", 153, 63, 58, 90, 1, 1, 0, 0, ";", "#X", "stop", ";" ]
								}

							}
, 							{
								"box" : 								{
									"maxclass" : "message",
									"text" : "write $1.mid",
									"numoutlets" : 1,
									"fontname" : "Arial",
									"patching_rect" : [ 86.0, 364.0, 75.0, 18.0 ],
									"id" : "obj-7",
									"outlettype" : [ "" ],
									"fontsize" : 12.0,
									"numinlets" : 2
								}

							}
 ],
						"lines" : [ 							{
								"patchline" : 								{
									"source" : [ "obj-13", 0 ],
									"destination" : [ "obj-23", 0 ],
									"hidden" : 0,
									"midpoints" : [  ]
								}

							}
, 							{
								"patchline" : 								{
									"source" : [ "obj-13", 1 ],
									"destination" : [ "obj-26", 0 ],
									"hidden" : 0,
									"midpoints" : [  ]
								}

							}
, 							{
								"patchline" : 								{
									"source" : [ "obj-13", 3 ],
									"destination" : [ "obj-24", 0 ],
									"hidden" : 0,
									"midpoints" : [  ]
								}

							}
, 							{
								"patchline" : 								{
									"source" : [ "obj-27", 2 ],
									"destination" : [ "obj-13", 0 ],
									"hidden" : 0,
									"midpoints" : [  ]
								}

							}
, 							{
								"patchline" : 								{
									"source" : [ "obj-15", 0 ],
									"destination" : [ "obj-27", 1 ],
									"hidden" : 0,
									"midpoints" : [  ]
								}

							}
, 							{
								"patchline" : 								{
									"source" : [ "obj-5", 1 ],
									"destination" : [ "obj-2", 0 ],
									"hidden" : 0,
									"midpoints" : [  ]
								}

							}
, 							{
								"patchline" : 								{
									"source" : [ "obj-5", 0 ],
									"destination" : [ "obj-2", 1 ],
									"hidden" : 0,
									"midpoints" : [  ]
								}

							}
, 							{
								"patchline" : 								{
									"source" : [ "obj-2", 0 ],
									"destination" : [ "obj-25", 0 ],
									"hidden" : 0,
									"midpoints" : [  ]
								}

							}
, 							{
								"patchline" : 								{
									"source" : [ "obj-24", 0 ],
									"destination" : [ "obj-5", 0 ],
									"hidden" : 0,
									"midpoints" : [  ]
								}

							}
, 							{
								"patchline" : 								{
									"source" : [ "obj-7", 0 ],
									"destination" : [ "obj-6", 0 ],
									"hidden" : 0,
									"midpoints" : [  ]
								}

							}
, 							{
								"patchline" : 								{
									"source" : [ "obj-25", 0 ],
									"destination" : [ "obj-23", 0 ],
									"hidden" : 0,
									"midpoints" : [  ]
								}

							}
, 							{
								"patchline" : 								{
									"source" : [ "obj-26", 1 ],
									"destination" : [ "obj-23", 2 ],
									"hidden" : 0,
									"midpoints" : [  ]
								}

							}
, 							{
								"patchline" : 								{
									"source" : [ "obj-26", 0 ],
									"destination" : [ "obj-23", 1 ],
									"hidden" : 0,
									"midpoints" : [  ]
								}

							}
, 							{
								"patchline" : 								{
									"source" : [ "obj-23", 0 ],
									"destination" : [ "obj-6", 0 ],
									"hidden" : 0,
									"midpoints" : [  ]
								}

							}
, 							{
								"patchline" : 								{
									"source" : [ "obj-24", 1 ],
									"destination" : [ "obj-23", 3 ],
									"hidden" : 0,
									"midpoints" : [ 440.5, 415.0, 410.5, 415.0 ]
								}

							}
, 							{
								"patchline" : 								{
									"source" : [ "obj-28", 5 ],
									"destination" : [ "obj-6", 0 ],
									"hidden" : 0,
									"midpoints" : [  ]
								}

							}
, 							{
								"patchline" : 								{
									"source" : [ "obj-28", 0 ],
									"destination" : [ "obj-7", 0 ],
									"hidden" : 0,
									"midpoints" : [  ]
								}

							}
, 							{
								"patchline" : 								{
									"source" : [ "obj-28", 4 ],
									"destination" : [ "obj-6", 0 ],
									"hidden" : 0,
									"midpoints" : [  ]
								}

							}
, 							{
								"patchline" : 								{
									"source" : [ "obj-28", 2 ],
									"destination" : [ "obj-27", 0 ],
									"hidden" : 0,
									"midpoints" : [  ]
								}

							}
, 							{
								"patchline" : 								{
									"source" : [ "obj-28", 1 ],
									"destination" : [ "obj-6", 0 ],
									"hidden" : 0,
									"midpoints" : [  ]
								}

							}
, 							{
								"patchline" : 								{
									"source" : [ "obj-21", 0 ],
									"destination" : [ "obj-28", 0 ],
									"hidden" : 0,
									"midpoints" : [  ]
								}

							}
, 							{
								"patchline" : 								{
									"source" : [ "obj-1", 0 ],
									"destination" : [ "obj-28", 0 ],
									"hidden" : 0,
									"midpoints" : [  ]
								}

							}
, 							{
								"patchline" : 								{
									"source" : [ "obj-28", 3 ],
									"destination" : [ "obj-15", 0 ],
									"hidden" : 0,
									"midpoints" : [  ]
								}

							}
 ]
					}
,
					"saved_object_attributes" : 					{
						"fontname" : "Arial",
						"default_fontname" : "Arial",
						"default_fontsize" : 12.0,
						"fontface" : 0,
						"globalpatchername" : "",
						"fontsize" : 12.0,
						"default_fontface" : 0
					}

				}

			}
, 			{
				"box" : 				{
					"maxclass" : "comment",
					"text" : "oracle: ",
					"numoutlets" : 0,
					"fontname" : "Arial",
					"patching_rect" : [ 46.0, 120.0, 78.0, 20.0 ],
					"id" : "obj-41",
					"presentation" : 1,
					"fontface" : 1,
					"fontsize" : 12.0,
					"numinlets" : 1,
					"presentation_rect" : [ 105.0, 4.0, 99.0, 20.0 ]
				}

			}
, 			{
				"box" : 				{
					"maxclass" : "comment",
					"text" : "Oracle MIDI",
					"numoutlets" : 0,
					"fontname" : "Arial",
					"patching_rect" : [ 50.0, 18.0, 78.0, 20.0 ],
					"id" : "obj-38",
					"presentation" : 1,
					"fontface" : 1,
					"fontsize" : 12.0,
					"numinlets" : 1,
					"presentation_rect" : [ 21.0, 4.0, 79.0, 20.0 ]
				}

			}
, 			{
				"box" : 				{
					"maxclass" : "inlet",
					"numoutlets" : 1,
					"patching_rect" : [ 321.0, 9.0, 25.0, 25.0 ],
					"id" : "obj-40",
					"outlettype" : [ "" ],
					"numinlets" : 0,
					"comment" : "toggle: Enable"
				}

			}
, 			{
				"box" : 				{
					"maxclass" : "toggle",
					"varname" : "Pitch",
					"numoutlets" : 1,
					"patching_rect" : [ 322.678772, 39.868984, 14.272728, 14.272728 ],
					"id" : "obj-50",
					"outlettype" : [ "int" ],
					"presentation" : 1,
					"numinlets" : 1,
					"ignoreclick" : 1,
					"presentation_rect" : [ 6.0, 6.0, 13.0, 13.0 ],
					"bgcolor" : [ 0.8, 0.8, 0.8, 1.0 ]
				}

			}
, 			{
				"box" : 				{
					"maxclass" : "newobj",
					"text" : "gate",
					"numoutlets" : 1,
					"fontname" : "Arial",
					"patching_rect" : [ 321.0, 62.0, 34.0, 20.0 ],
					"id" : "obj-32",
					"outlettype" : [ "" ],
					"fontsize" : 12.0,
					"numinlets" : 2
				}

			}
, 			{
				"box" : 				{
					"maxclass" : "newobj",
					"text" : "loadmess set  #1_MIDI",
					"numoutlets" : 1,
					"fontname" : "Arial",
					"patching_rect" : [ 46.0, 63.0, 133.0, 20.0 ],
					"id" : "obj-44",
					"outlettype" : [ "" ],
					"fontsize" : 12.0,
					"numinlets" : 1
				}

			}
, 			{
				"box" : 				{
					"maxclass" : "button",
					"numoutlets" : 1,
					"patching_rect" : [ 339.0, 477.0, 20.0, 20.0 ],
					"id" : "obj-4",
					"outlettype" : [ "bang" ],
					"numinlets" : 1
				}

			}
, 			{
				"box" : 				{
					"maxclass" : "newobj",
					"text" : "r #1_MIDI-query",
					"numoutlets" : 1,
					"fontname" : "Arial",
					"patching_rect" : [ 339.0, 449.0, 97.0, 20.0 ],
					"id" : "obj-2",
					"outlettype" : [ "" ],
					"fontsize" : 12.0,
					"color" : [ 0.0, 0.85098, 1.0, 1.0 ],
					"numinlets" : 0
				}

			}
, 			{
				"box" : 				{
					"maxclass" : "newobj",
					"text" : "v #1_MIDI-HiCtxt",
					"numoutlets" : 1,
					"fontname" : "Arial",
					"patching_rect" : [ 156.0, 598.0, 102.0, 20.0 ],
					"id" : "obj-34",
					"outlettype" : [ "" ],
					"fontsize" : 12.0,
					"color" : [ 0.0, 0.85098, 1.0, 1.0 ],
					"numinlets" : 1
				}

			}
, 			{
				"box" : 				{
					"maxclass" : "newobj",
					"text" : "v #1_MIDI-size",
					"numoutlets" : 1,
					"fontname" : "Arial",
					"patching_rect" : [ 503.0, 559.0, 91.0, 20.0 ],
					"id" : "obj-29",
					"outlettype" : [ "" ],
					"fontsize" : 12.0,
					"color" : [ 0.0, 0.85098, 1.0, 1.0 ],
					"numinlets" : 1
				}

			}
, 			{
				"box" : 				{
					"maxclass" : "comment",
					"text" : "<< Wait until sound is written in the buffer !",
					"numoutlets" : 0,
					"fontname" : "Arial",
					"patching_rect" : [ 462.0, 399.0, 238.0, 20.0 ],
					"id" : "obj-27",
					"fontsize" : 12.0,
					"numinlets" : 1
				}

			}
, 			{
				"box" : 				{
					"maxclass" : "newobj",
					"text" : "pipe 400",
					"numoutlets" : 1,
					"fontname" : "Arial",
					"patching_rect" : [ 401.0, 399.0, 57.0, 20.0 ],
					"id" : "obj-24",
					"outlettype" : [ "" ],
					"fontsize" : 12.0,
					"numinlets" : 2
				}

			}
, 			{
				"box" : 				{
					"maxclass" : "inlet",
					"numoutlets" : 1,
					"patching_rect" : [ 450.0, 9.0, 25.0, 25.0 ],
					"id" : "obj-22",
					"outlettype" : [ "" ],
					"numinlets" : 0,
					"comment" : "reset"
				}

			}
, 			{
				"box" : 				{
					"maxclass" : "newobj",
					"text" : "s #1_MIDI-sections",
					"numoutlets" : 0,
					"fontname" : "Arial",
					"patching_rect" : [ 240.0, 122.0, 113.0, 20.0 ],
					"id" : "obj-7",
					"fontsize" : 12.0,
					"color" : [ 0.0, 0.85098, 1.0, 1.0 ],
					"numinlets" : 1
				}

			}
, 			{
				"box" : 				{
					"maxclass" : "message",
					"text" : "0",
					"numoutlets" : 1,
					"fontname" : "Arial",
					"patching_rect" : [ 329.0, 174.0, 18.0, 18.0 ],
					"id" : "obj-11",
					"outlettype" : [ "" ],
					"fontsize" : 12.0,
					"numinlets" : 2
				}

			}
, 			{
				"box" : 				{
					"maxclass" : "button",
					"numoutlets" : 1,
					"patching_rect" : [ 348.0, 174.0, 20.0, 20.0 ],
					"id" : "obj-23",
					"outlettype" : [ "bang" ],
					"numinlets" : 1
				}

			}
, 			{
				"box" : 				{
					"maxclass" : "newobj",
					"text" : "+ 1",
					"numoutlets" : 1,
					"fontname" : "Arial",
					"patching_rect" : [ 348.0, 227.0, 32.5, 20.0 ],
					"id" : "obj-15",
					"outlettype" : [ "int" ],
					"fontsize" : 12.0,
					"numinlets" : 2
				}

			}
, 			{
				"box" : 				{
					"maxclass" : "newobj",
					"text" : "i 1",
					"numoutlets" : 1,
					"fontname" : "Arial",
					"patching_rect" : [ 348.0, 201.0, 32.5, 20.0 ],
					"id" : "obj-13",
					"outlettype" : [ "int" ],
					"fontsize" : 12.0,
					"numinlets" : 2
				}

			}
, 			{
				"box" : 				{
					"maxclass" : "newobj",
					"text" : "gate 2",
					"numoutlets" : 2,
					"fontname" : "Arial",
					"patching_rect" : [ 560.0, 260.0, 44.0, 20.0 ],
					"id" : "obj-20",
					"outlettype" : [ "", "" ],
					"fontsize" : 12.0,
					"numinlets" : 2
				}

			}
, 			{
				"box" : 				{
					"maxclass" : "outlet",
					"numoutlets" : 0,
					"patching_rect" : [ 273.0, 540.0, 25.0, 25.0 ],
					"id" : "obj-10",
					"numinlets" : 1,
					"comment" : "Highest Ctxt"
				}

			}
, 			{
				"box" : 				{
					"maxclass" : "outlet",
					"annotation" : "",
					"numoutlets" : 0,
					"patching_rect" : [ 474.0, 606.0, 25.0, 25.0 ],
					"id" : "obj-5",
					"numinlets" : 1,
					"comment" : "Size"
				}

			}
, 			{
				"box" : 				{
					"maxclass" : "inlet",
					"numoutlets" : 1,
					"patching_rect" : [ 201.0, 9.0, 25.0, 25.0 ],
					"id" : "obj-1",
					"outlettype" : [ "" ],
					"numinlets" : 0,
					"comment" : "Data from segmentation"
				}

			}
, 			{
				"box" : 				{
					"maxclass" : "button",
					"numoutlets" : 1,
					"patching_rect" : [ 185.0, 178.0, 20.0, 20.0 ],
					"id" : "obj-33",
					"outlettype" : [ "bang" ],
					"numinlets" : 1
				}

			}
, 			{
				"box" : 				{
					"maxclass" : "newobj",
					"text" : "r #1-LearningReset",
					"numoutlets" : 1,
					"fontname" : "Arial",
					"patching_rect" : [ 185.0, 152.0, 113.0, 20.0 ],
					"id" : "obj-31",
					"outlettype" : [ "" ],
					"fontsize" : 12.0,
					"color" : [ 0.0, 0.85098, 1.0, 1.0 ],
					"numinlets" : 0
				}

			}
, 			{
				"box" : 				{
					"maxclass" : "comment",
					"text" : "#1_MIDI",
					"numoutlets" : 0,
					"fontname" : "Arial",
					"patching_rect" : [ 46.0, 91.0, 116.0, 20.0 ],
					"id" : "obj-14",
					"presentation" : 1,
					"fontsize" : 12.0,
					"numinlets" : 1,
					"presentation_rect" : [ 105.0, 23.0, 99.0, 20.0 ]
				}

			}
, 			{
				"box" : 				{
					"maxclass" : "newobj",
					"text" : "s #1_MIDI-HiCtxt",
					"numoutlets" : 0,
					"fontname" : "Arial",
					"patching_rect" : [ 201.0, 575.0, 102.0, 20.0 ],
					"id" : "obj-12",
					"fontsize" : 12.0,
					"color" : [ 0.0, 0.85098, 1.0, 1.0 ],
					"numinlets" : 1
				}

			}
, 			{
				"box" : 				{
					"maxclass" : "newobj",
					"text" : "i 0",
					"numoutlets" : 1,
					"fontname" : "Arial",
					"patching_rect" : [ 474.0, 527.0, 32.5, 20.0 ],
					"id" : "obj-3",
					"outlettype" : [ "int" ],
					"fontsize" : 12.0,
					"numinlets" : 2
				}

			}
, 			{
				"box" : 				{
					"maxclass" : "newobj",
					"text" : "s #1_MIDI-size",
					"numoutlets" : 0,
					"fontname" : "Arial",
					"patching_rect" : [ 489.0, 583.0, 91.0, 20.0 ],
					"id" : "obj-28",
					"fontsize" : 12.0,
					"color" : [ 0.0, 0.85098, 1.0, 1.0 ],
					"numinlets" : 1
				}

			}
, 			{
				"box" : 				{
					"maxclass" : "newobj",
					"text" : "s #1_MIDI-reset",
					"numoutlets" : 0,
					"fontname" : "Arial",
					"patching_rect" : [ 205.0, 230.0, 96.0, 20.0 ],
					"id" : "obj-93",
					"fontsize" : 12.0,
					"color" : [ 0.0, 0.85098, 1.0, 1.0 ],
					"numinlets" : 1
				}

			}
, 			{
				"box" : 				{
					"maxclass" : "comment",
					"text" : "Receive Messages from Segmentation",
					"linecount" : 2,
					"numoutlets" : 0,
					"fontname" : "Arial",
					"patching_rect" : [ 201.0, 63.0, 114.0, 34.0 ],
					"id" : "obj-35",
					"fontsize" : 12.0,
					"numinlets" : 1
				}

			}
, 			{
				"box" : 				{
					"maxclass" : "newobj",
					"text" : "prepend add",
					"numoutlets" : 1,
					"fontname" : "Arial",
					"patching_rect" : [ 401.0, 344.0, 78.0, 20.0 ],
					"id" : "obj-92",
					"outlettype" : [ "" ],
					"fontsize" : 12.0,
					"numinlets" : 1
				}

			}
, 			{
				"box" : 				{
					"maxclass" : "newobj",
					"text" : "loadmess 2",
					"hidden" : 1,
					"numoutlets" : 1,
					"fontname" : "Arial",
					"patching_rect" : [ 487.0, 260.0, 72.0, 20.0 ],
					"id" : "obj-90",
					"outlettype" : [ "" ],
					"fontsize" : 12.0,
					"numinlets" : 1
				}

			}
, 			{
				"box" : 				{
					"maxclass" : "message",
					"text" : "2",
					"numoutlets" : 1,
					"fontname" : "Arial",
					"patching_rect" : [ 540.0, 223.0, 18.0, 18.0 ],
					"id" : "obj-45",
					"outlettype" : [ "" ],
					"fontsize" : 12.0,
					"numinlets" : 2
				}

			}
, 			{
				"box" : 				{
					"maxclass" : "message",
					"text" : "1",
					"numoutlets" : 1,
					"fontname" : "Arial",
					"patching_rect" : [ 560.0, 223.0, 18.0, 18.0 ],
					"id" : "obj-42",
					"outlettype" : [ "" ],
					"fontsize" : 12.0,
					"numinlets" : 2
				}

			}
, 			{
				"box" : 				{
					"maxclass" : "newobj",
					"text" : "- 0",
					"numoutlets" : 1,
					"fontname" : "Arial",
					"patching_rect" : [ 560.0, 291.0, 43.5, 20.0 ],
					"id" : "obj-37",
					"outlettype" : [ "int" ],
					"fontsize" : 12.0,
					"numinlets" : 2
				}

			}
, 			{
				"box" : 				{
					"maxclass" : "newobj",
					"text" : "sel 0",
					"numoutlets" : 2,
					"fontname" : "Arial",
					"patching_rect" : [ 432.0, 175.0, 36.0, 20.0 ],
					"id" : "obj-30",
					"outlettype" : [ "bang", "" ],
					"fontsize" : 12.0,
					"numinlets" : 2
				}

			}
, 			{
				"box" : 				{
					"maxclass" : "newobj",
					"text" : "prepend set",
					"numoutlets" : 1,
					"fontname" : "Arial",
					"patching_rect" : [ 401.0, 240.0, 74.0, 20.0 ],
					"id" : "obj-21",
					"outlettype" : [ "" ],
					"fontsize" : 12.0,
					"numinlets" : 1
				}

			}
, 			{
				"box" : 				{
					"maxclass" : "newobj",
					"text" : "pack 0 0 1 0 0 0",
					"numoutlets" : 1,
					"fontname" : "Arial",
					"patching_rect" : [ 401.0, 318.0, 178.0, 20.0 ],
					"id" : "obj-19",
					"outlettype" : [ "" ],
					"fontsize" : 12.0,
					"numinlets" : 6
				}

			}
, 			{
				"box" : 				{
					"maxclass" : "newobj",
					"text" : "unpack 0 0 0 0 0",
					"numoutlets" : 5,
					"fontname" : "Arial",
					"patching_rect" : [ 401.0, 147.0, 144.0, 20.0 ],
					"id" : "obj-17",
					"outlettype" : [ "int", "int", "int", "int", "int" ],
					"fontsize" : 12.0,
					"numinlets" : 1
				}

			}
, 			{
				"box" : 				{
					"maxclass" : "newobj",
					"text" : "s #1_MIDI-phrases",
					"numoutlets" : 0,
					"fontname" : "Arial",
					"patching_rect" : [ 374.0, 117.0, 112.0, 20.0 ],
					"id" : "obj-8",
					"fontsize" : 12.0,
					"color" : [ 0.0, 0.85098, 1.0, 1.0 ],
					"numinlets" : 1
				}

			}
, 			{
				"box" : 				{
					"maxclass" : "newobj",
					"text" : "route /lisp /sp /ph /mo",
					"numoutlets" : 5,
					"fontname" : "Arial",
					"patching_rect" : [ 321.0, 88.0, 125.0, 20.0 ],
					"id" : "obj-9",
					"outlettype" : [ "", "", "", "", "" ],
					"fontsize" : 12.0,
					"numinlets" : 1
				}

			}
, 			{
				"box" : 				{
					"maxclass" : "message",
					"text" : "0",
					"numoutlets" : 1,
					"fontname" : "Arial",
					"patching_rect" : [ 382.0, 399.0, 18.0, 18.0 ],
					"id" : "obj-91",
					"outlettype" : [ "" ],
					"fontsize" : 12.0,
					"numinlets" : 2
				}

			}
, 			{
				"box" : 				{
					"maxclass" : "comment",
					"text" : "Hi Ctxt",
					"numoutlets" : 0,
					"fontname" : "Arial",
					"patching_rect" : [ 142.0, 540.0, 53.0, 18.0 ],
					"id" : "obj-82",
					"presentation" : 1,
					"fontsize" : 10.0,
					"numinlets" : 1,
					"presentation_rect" : [ 30.0, 45.0, 39.0, 18.0 ]
				}

			}
, 			{
				"box" : 				{
					"maxclass" : "number",
					"numoutlets" : 2,
					"fontname" : "Arial",
					"patching_rect" : [ 201.0, 540.0, 28.0, 18.0 ],
					"id" : "obj-75",
					"outlettype" : [ "int", "bang" ],
					"triangle" : 0,
					"presentation" : 1,
					"fontsize" : 10.0,
					"numinlets" : 1,
					"presentation_rect" : [ 6.0, 45.0, 25.0, 18.0 ]
				}

			}
, 			{
				"box" : 				{
					"maxclass" : "newobj",
					"text" : "peak",
					"numoutlets" : 3,
					"fontname" : "Arial",
					"patching_rect" : [ 201.0, 507.0, 46.0, 20.0 ],
					"id" : "obj-73",
					"outlettype" : [ "int", "int", "int" ],
					"fontsize" : 12.0,
					"numinlets" : 2
				}

			}
, 			{
				"box" : 				{
					"maxclass" : "newobj",
					"text" : "unpack 0 0",
					"numoutlets" : 2,
					"fontname" : "Arial",
					"patching_rect" : [ 151.0, 481.0, 69.0, 20.0 ],
					"id" : "obj-72",
					"outlettype" : [ "int", "int" ],
					"fontsize" : 12.0,
					"numinlets" : 1
				}

			}
, 			{
				"box" : 				{
					"maxclass" : "newobj",
					"text" : "OMax.read #1_MIDI",
					"numoutlets" : 5,
					"fontname" : "Arial",
					"patching_rect" : [ 101.0, 452.0, 119.0, 20.0 ],
					"id" : "obj-63",
					"outlettype" : [ "bang", "list", "list", "list", "int" ],
					"fontsize" : 12.0,
					"color" : [ 0.3, 1.0, 0.15, 1.0 ],
					"numinlets" : 1
				}

			}
, 			{
				"box" : 				{
					"maxclass" : "comment",
					"text" : "Size",
					"numoutlets" : 0,
					"fontname" : "Arial",
					"patching_rect" : [ 402.0, 562.0, 30.0, 18.0 ],
					"id" : "obj-26",
					"presentation" : 1,
					"fontsize" : 10.0,
					"numinlets" : 1,
					"presentation_rect" : [ 48.0, 25.0, 28.0, 18.0 ]
				}

			}
, 			{
				"box" : 				{
					"maxclass" : "number",
					"numoutlets" : 2,
					"fontname" : "Arial",
					"patching_rect" : [ 401.0, 540.0, 47.0, 18.0 ],
					"id" : "obj-6",
					"outlettype" : [ "int", "bang" ],
					"triangle" : 0,
					"presentation" : 1,
					"fontsize" : 10.0,
					"numinlets" : 1,
					"presentation_rect" : [ 6.0, 25.0, 42.0, 18.0 ]
				}

			}
, 			{
				"box" : 				{
					"maxclass" : "newobj",
					"text" : "OMax.learn #1_MIDI",
					"numoutlets" : 1,
					"fontname" : "Arial",
					"patching_rect" : [ 401.0, 370.0, 121.0, 20.0 ],
					"id" : "obj-36",
					"outlettype" : [ "int" ],
					"fontsize" : 12.0,
					"color" : [ 0.3, 1.0, 0.15, 1.0 ],
					"numinlets" : 1,
					"saved_object_attributes" : 					{
						"modulo" : 0
					}

				}

			}
, 			{
				"box" : 				{
					"maxclass" : "message",
					"text" : "reset",
					"numoutlets" : 1,
					"fontname" : "Arial",
					"patching_rect" : [ 185.0, 201.0, 43.0, 21.0 ],
					"id" : "obj-16",
					"outlettype" : [ "" ],
					"fontsize" : 14.0,
					"numinlets" : 2
				}

			}
, 			{
				"box" : 				{
					"maxclass" : "newobj",
					"text" : "print #1_MIDI",
					"numoutlets" : 0,
					"fontname" : "Arial",
					"patching_rect" : [ 64.0, 396.0, 83.0, 20.0 ],
					"id" : "obj-55",
					"fontsize" : 12.0,
					"numinlets" : 1
				}

			}
, 			{
				"box" : 				{
					"maxclass" : "message",
					"text" : "size",
					"numoutlets" : 1,
					"fontname" : "Arial",
					"patching_rect" : [ 133.0, 309.0, 32.5, 18.0 ],
					"id" : "obj-61",
					"outlettype" : [ "" ],
					"fontsize" : 12.0,
					"numinlets" : 2
				}

			}
, 			{
				"box" : 				{
					"maxclass" : "newobj",
					"text" : "print #1_MIDI_MONO",
					"numoutlets" : 0,
					"fontname" : "Arial",
					"patching_rect" : [ 185.0, 396.0, 127.0, 20.0 ],
					"id" : "obj-65",
					"fontsize" : 12.0,
					"numinlets" : 1
				}

			}
, 			{
				"box" : 				{
					"maxclass" : "newobj",
					"text" : "OMax.oracle #1_MIDI",
					"numoutlets" : 1,
					"fontname" : "Arial",
					"patching_rect" : [ 49.0, 350.0, 127.0, 20.0 ],
					"id" : "obj-67",
					"outlettype" : [ "" ],
					"fontsize" : 12.0,
					"color" : [ 0.3, 1.0, 0.15, 1.0 ],
					"numinlets" : 1
				}

			}
, 			{
				"box" : 				{
					"maxclass" : "newobj",
					"text" : "OMax.data #1_MIDI MIDI_MONO",
					"numoutlets" : 1,
					"fontname" : "Arial",
					"patching_rect" : [ 185.0, 350.0, 191.0, 20.0 ],
					"id" : "obj-70",
					"outlettype" : [ "" ],
					"fontsize" : 12.0,
					"color" : [ 0.3, 1.0, 0.15, 1.0 ],
					"numinlets" : 1
				}

			}
, 			{
				"box" : 				{
					"maxclass" : "panel",
					"numoutlets" : 0,
					"patching_rect" : [ 42.45459, 339.636353, 341.272736, 40.545471 ],
					"id" : "obj-100",
					"border" : 1,
					"presentation" : 1,
					"bordercolor" : [ 0.301961, 1.0, 0.14902, 1.0 ],
					"numinlets" : 1,
					"presentation_rect" : [ 2.0, 2.0, 100.0, 65.0 ],
					"bgcolor" : [ 1.0, 1.0, 1.0, 1.0 ]
				}

			}
 ],
		"lines" : [ 			{
				"patchline" : 				{
					"source" : [ "obj-47", 0 ],
					"destination" : [ "obj-48", 0 ],
					"hidden" : 0,
					"midpoints" : [  ]
				}

			}
, 			{
				"patchline" : 				{
					"source" : [ "obj-48", 0 ],
					"destination" : [ "obj-67", 0 ],
					"hidden" : 0,
					"midpoints" : [  ]
				}

			}
, 			{
				"patchline" : 				{
					"source" : [ "obj-60", 2 ],
					"destination" : [ "obj-33", 0 ],
					"hidden" : 0,
					"midpoints" : [  ]
				}

			}
, 			{
				"patchline" : 				{
					"source" : [ "obj-60", 0 ],
					"destination" : [ "obj-58", 0 ],
					"hidden" : 0,
					"midpoints" : [  ]
				}

			}
, 			{
				"patchline" : 				{
					"source" : [ "obj-60", 1 ],
					"destination" : [ "obj-25", 0 ],
					"hidden" : 0,
					"midpoints" : [  ]
				}

			}
, 			{
				"patchline" : 				{
					"source" : [ "obj-51", 0 ],
					"destination" : [ "obj-60", 0 ],
					"hidden" : 0,
					"midpoints" : [  ]
				}

			}
, 			{
				"patchline" : 				{
					"source" : [ "obj-24", 0 ],
					"destination" : [ "obj-3", 0 ],
					"hidden" : 0,
					"midpoints" : [  ]
				}

			}
, 			{
				"patchline" : 				{
					"source" : [ "obj-25", 0 ],
					"destination" : [ "obj-67", 0 ],
					"hidden" : 0,
					"midpoints" : [  ]
				}

			}
, 			{
				"patchline" : 				{
					"source" : [ "obj-56", 0 ],
					"destination" : [ "obj-52", 0 ],
					"hidden" : 0,
					"midpoints" : [  ]
				}

			}
, 			{
				"patchline" : 				{
					"source" : [ "obj-52", 0 ],
					"destination" : [ "obj-70", 0 ],
					"hidden" : 0,
					"midpoints" : [  ]
				}

			}
, 			{
				"patchline" : 				{
					"source" : [ "obj-49", 2 ],
					"destination" : [ "obj-39", 0 ],
					"hidden" : 0,
					"midpoints" : [  ]
				}

			}
, 			{
				"patchline" : 				{
					"source" : [ "obj-49", 0 ],
					"destination" : [ "obj-46", 0 ],
					"hidden" : 0,
					"midpoints" : [  ]
				}

			}
, 			{
				"patchline" : 				{
					"source" : [ "obj-43", 0 ],
					"destination" : [ "obj-49", 0 ],
					"hidden" : 0,
					"midpoints" : [  ]
				}

			}
, 			{
				"patchline" : 				{
					"source" : [ "obj-40", 0 ],
					"destination" : [ "obj-50", 0 ],
					"hidden" : 0,
					"midpoints" : [  ]
				}

			}
, 			{
				"patchline" : 				{
					"source" : [ "obj-32", 0 ],
					"destination" : [ "obj-9", 0 ],
					"hidden" : 0,
					"midpoints" : [  ]
				}

			}
, 			{
				"patchline" : 				{
					"source" : [ "obj-1", 0 ],
					"destination" : [ "obj-32", 1 ],
					"hidden" : 0,
					"midpoints" : [ 210.5, 55.5, 345.5, 55.5 ]
				}

			}
, 			{
				"patchline" : 				{
					"source" : [ "obj-50", 0 ],
					"destination" : [ "obj-32", 0 ],
					"hidden" : 0,
					"midpoints" : [  ]
				}

			}
, 			{
				"patchline" : 				{
					"source" : [ "obj-44", 0 ],
					"destination" : [ "obj-14", 0 ],
					"hidden" : 0,
					"midpoints" : [  ]
				}

			}
, 			{
				"patchline" : 				{
					"source" : [ "obj-3", 0 ],
					"destination" : [ "obj-5", 0 ],
					"hidden" : 0,
					"midpoints" : [  ]
				}

			}
, 			{
				"patchline" : 				{
					"source" : [ "obj-3", 0 ],
					"destination" : [ "obj-29", 0 ],
					"hidden" : 0,
					"midpoints" : [  ]
				}

			}
, 			{
				"patchline" : 				{
					"source" : [ "obj-4", 0 ],
					"destination" : [ "obj-75", 0 ],
					"hidden" : 0,
					"midpoints" : [  ]
				}

			}
, 			{
				"patchline" : 				{
					"source" : [ "obj-4", 0 ],
					"destination" : [ "obj-3", 0 ],
					"hidden" : 0,
					"midpoints" : [  ]
				}

			}
, 			{
				"patchline" : 				{
					"source" : [ "obj-2", 0 ],
					"destination" : [ "obj-4", 0 ],
					"hidden" : 0,
					"midpoints" : [  ]
				}

			}
, 			{
				"patchline" : 				{
					"source" : [ "obj-9", 1 ],
					"destination" : [ "obj-7", 0 ],
					"hidden" : 0,
					"midpoints" : [  ]
				}

			}
, 			{
				"patchline" : 				{
					"source" : [ "obj-11", 0 ],
					"destination" : [ "obj-13", 0 ],
					"hidden" : 0,
					"midpoints" : [  ]
				}

			}
, 			{
				"patchline" : 				{
					"source" : [ "obj-33", 0 ],
					"destination" : [ "obj-11", 0 ],
					"hidden" : 0,
					"midpoints" : [  ]
				}

			}
, 			{
				"patchline" : 				{
					"source" : [ "obj-15", 0 ],
					"destination" : [ "obj-19", 3 ],
					"hidden" : 0,
					"midpoints" : [  ]
				}

			}
, 			{
				"patchline" : 				{
					"source" : [ "obj-17", 3 ],
					"destination" : [ "obj-19", 2 ],
					"hidden" : 0,
					"midpoints" : [  ]
				}

			}
, 			{
				"patchline" : 				{
					"source" : [ "obj-21", 0 ],
					"destination" : [ "obj-19", 0 ],
					"hidden" : 0,
					"midpoints" : [  ]
				}

			}
, 			{
				"patchline" : 				{
					"source" : [ "obj-30", 1 ],
					"destination" : [ "obj-19", 1 ],
					"hidden" : 0,
					"midpoints" : [ 458.5, 310.0, 442.299988, 310.0 ]
				}

			}
, 			{
				"patchline" : 				{
					"source" : [ "obj-37", 0 ],
					"destination" : [ "obj-19", 5 ],
					"hidden" : 0,
					"midpoints" : [  ]
				}

			}
, 			{
				"patchline" : 				{
					"source" : [ "obj-30", 0 ],
					"destination" : [ "obj-19", 0 ],
					"hidden" : 0,
					"midpoints" : [ 441.5, 308.0, 410.5, 308.0 ]
				}

			}
, 			{
				"patchline" : 				{
					"source" : [ "obj-19", 0 ],
					"destination" : [ "obj-92", 0 ],
					"hidden" : 0,
					"midpoints" : [  ]
				}

			}
, 			{
				"patchline" : 				{
					"source" : [ "obj-20", 1 ],
					"destination" : [ "obj-19", 4 ],
					"hidden" : 0,
					"midpoints" : [ 594.5, 285.5, 537.700012, 285.5 ]
				}

			}
, 			{
				"patchline" : 				{
					"source" : [ "obj-9", 1 ],
					"destination" : [ "obj-23", 0 ],
					"hidden" : 0,
					"midpoints" : [  ]
				}

			}
, 			{
				"patchline" : 				{
					"source" : [ "obj-17", 4 ],
					"destination" : [ "obj-20", 1 ],
					"hidden" : 0,
					"midpoints" : [ 535.5, 196.0, 594.5, 196.0 ]
				}

			}
, 			{
				"patchline" : 				{
					"source" : [ "obj-90", 0 ],
					"destination" : [ "obj-20", 0 ],
					"hidden" : 1,
					"midpoints" : [  ]
				}

			}
, 			{
				"patchline" : 				{
					"source" : [ "obj-20", 1 ],
					"destination" : [ "obj-37", 1 ],
					"hidden" : 0,
					"midpoints" : [  ]
				}

			}
, 			{
				"patchline" : 				{
					"source" : [ "obj-20", 0 ],
					"destination" : [ "obj-37", 0 ],
					"hidden" : 0,
					"midpoints" : [  ]
				}

			}
, 			{
				"patchline" : 				{
					"source" : [ "obj-42", 0 ],
					"destination" : [ "obj-20", 0 ],
					"hidden" : 0,
					"midpoints" : [  ]
				}

			}
, 			{
				"patchline" : 				{
					"source" : [ "obj-45", 0 ],
					"destination" : [ "obj-20", 0 ],
					"hidden" : 0,
					"midpoints" : [  ]
				}

			}
, 			{
				"patchline" : 				{
					"source" : [ "obj-16", 0 ],
					"destination" : [ "obj-67", 0 ],
					"hidden" : 0,
					"midpoints" : [  ]
				}

			}
, 			{
				"patchline" : 				{
					"source" : [ "obj-61", 0 ],
					"destination" : [ "obj-67", 0 ],
					"hidden" : 0,
					"midpoints" : [  ]
				}

			}
, 			{
				"patchline" : 				{
					"source" : [ "obj-9", 2 ],
					"destination" : [ "obj-8", 0 ],
					"hidden" : 0,
					"midpoints" : [ 383.5, 112.0, 383.5, 112.0 ]
				}

			}
, 			{
				"patchline" : 				{
					"source" : [ "obj-75", 0 ],
					"destination" : [ "obj-12", 0 ],
					"hidden" : 0,
					"midpoints" : [  ]
				}

			}
, 			{
				"patchline" : 				{
					"source" : [ "obj-3", 0 ],
					"destination" : [ "obj-28", 0 ],
					"hidden" : 0,
					"midpoints" : [  ]
				}

			}
, 			{
				"patchline" : 				{
					"source" : [ "obj-92", 0 ],
					"destination" : [ "obj-36", 0 ],
					"hidden" : 0,
					"midpoints" : [  ]
				}

			}
, 			{
				"patchline" : 				{
					"source" : [ "obj-63", 2 ],
					"destination" : [ "obj-72", 0 ],
					"hidden" : 0,
					"midpoints" : [  ]
				}

			}
, 			{
				"patchline" : 				{
					"source" : [ "obj-61", 0 ],
					"destination" : [ "obj-70", 0 ],
					"hidden" : 0,
					"midpoints" : [  ]
				}

			}
, 			{
				"patchline" : 				{
					"source" : [ "obj-16", 0 ],
					"destination" : [ "obj-70", 0 ],
					"hidden" : 0,
					"midpoints" : [  ]
				}

			}
, 			{
				"patchline" : 				{
					"source" : [ "obj-33", 0 ],
					"destination" : [ "obj-16", 0 ],
					"hidden" : 0,
					"midpoints" : [  ]
				}

			}
, 			{
				"patchline" : 				{
					"source" : [ "obj-91", 0 ],
					"destination" : [ "obj-73", 1 ],
					"hidden" : 0,
					"midpoints" : [  ]
				}

			}
, 			{
				"patchline" : 				{
					"source" : [ "obj-30", 0 ],
					"destination" : [ "obj-45", 0 ],
					"hidden" : 0,
					"midpoints" : [ 441.5, 205.5, 547.0, 205.5 ]
				}

			}
, 			{
				"patchline" : 				{
					"source" : [ "obj-30", 1 ],
					"destination" : [ "obj-42", 0 ],
					"hidden" : 0,
					"midpoints" : [ 458.5, 200.5, 567.0, 200.5 ]
				}

			}
, 			{
				"patchline" : 				{
					"source" : [ "obj-17", 1 ],
					"destination" : [ "obj-30", 0 ],
					"hidden" : 0,
					"midpoints" : [  ]
				}

			}
, 			{
				"patchline" : 				{
					"source" : [ "obj-17", 0 ],
					"destination" : [ "obj-21", 0 ],
					"hidden" : 0,
					"midpoints" : [  ]
				}

			}
, 			{
				"patchline" : 				{
					"source" : [ "obj-91", 0 ],
					"destination" : [ "obj-6", 0 ],
					"hidden" : 0,
					"midpoints" : [ 391.5, 432.0, 410.5, 432.0 ]
				}

			}
, 			{
				"patchline" : 				{
					"source" : [ "obj-73", 0 ],
					"destination" : [ "obj-75", 0 ],
					"hidden" : 0,
					"midpoints" : [  ]
				}

			}
, 			{
				"patchline" : 				{
					"source" : [ "obj-72", 1 ],
					"destination" : [ "obj-73", 0 ],
					"hidden" : 0,
					"midpoints" : [  ]
				}

			}
, 			{
				"patchline" : 				{
					"source" : [ "obj-91", 0 ],
					"destination" : [ "obj-3", 0 ],
					"hidden" : 0,
					"midpoints" : [ 391.5, 432.0, 483.5, 432.0 ]
				}

			}
, 			{
				"patchline" : 				{
					"source" : [ "obj-9", 3 ],
					"destination" : [ "obj-17", 0 ],
					"hidden" : 0,
					"midpoints" : [  ]
				}

			}
, 			{
				"patchline" : 				{
					"source" : [ "obj-73", 0 ],
					"destination" : [ "obj-10", 0 ],
					"hidden" : 0,
					"midpoints" : [ 210.5, 531.0, 282.5, 531.0 ]
				}

			}
, 			{
				"patchline" : 				{
					"source" : [ "obj-31", 0 ],
					"destination" : [ "obj-33", 0 ],
					"hidden" : 0,
					"midpoints" : [  ]
				}

			}
, 			{
				"patchline" : 				{
					"source" : [ "obj-67", 0 ],
					"destination" : [ "obj-55", 0 ],
					"hidden" : 0,
					"midpoints" : [  ]
				}

			}
, 			{
				"patchline" : 				{
					"source" : [ "obj-70", 0 ],
					"destination" : [ "obj-65", 0 ],
					"hidden" : 0,
					"midpoints" : [  ]
				}

			}
, 			{
				"patchline" : 				{
					"source" : [ "obj-15", 0 ],
					"destination" : [ "obj-13", 1 ],
					"hidden" : 0,
					"midpoints" : [ 357.5, 251.0, 387.25, 251.0, 387.25, 196.0, 371.0, 196.0 ]
				}

			}
, 			{
				"patchline" : 				{
					"source" : [ "obj-23", 0 ],
					"destination" : [ "obj-13", 0 ],
					"hidden" : 0,
					"midpoints" : [  ]
				}

			}
, 			{
				"patchline" : 				{
					"source" : [ "obj-13", 0 ],
					"destination" : [ "obj-15", 0 ],
					"hidden" : 0,
					"midpoints" : [  ]
				}

			}
, 			{
				"patchline" : 				{
					"source" : [ "obj-22", 0 ],
					"destination" : [ "obj-33", 0 ],
					"hidden" : 1,
					"midpoints" : [  ]
				}

			}
, 			{
				"patchline" : 				{
					"source" : [ "obj-36", 0 ],
					"destination" : [ "obj-24", 0 ],
					"hidden" : 0,
					"midpoints" : [  ]
				}

			}
, 			{
				"patchline" : 				{
					"source" : [ "obj-24", 0 ],
					"destination" : [ "obj-63", 0 ],
					"hidden" : 0,
					"midpoints" : [ 410.5, 423.0, 110.5, 423.0 ]
				}

			}
, 			{
				"patchline" : 				{
					"source" : [ "obj-24", 0 ],
					"destination" : [ "obj-6", 0 ],
					"hidden" : 0,
					"midpoints" : [ 410.5, 446.5, 410.5, 446.5 ]
				}

			}
, 			{
				"patchline" : 				{
					"source" : [ "obj-75", 0 ],
					"destination" : [ "obj-34", 0 ],
					"hidden" : 0,
					"midpoints" : [  ]
				}

			}
, 			{
				"patchline" : 				{
					"source" : [ "obj-54", 0 ],
					"destination" : [ "obj-53", 0 ],
					"hidden" : 0,
					"midpoints" : [  ]
				}

			}
, 			{
				"patchline" : 				{
					"source" : [ "obj-53", 0 ],
					"destination" : [ "obj-70", 0 ],
					"hidden" : 0,
					"midpoints" : [  ]
				}

			}
, 			{
				"patchline" : 				{
					"source" : [ "obj-67", 0 ],
					"destination" : [ "obj-24", 0 ],
					"hidden" : 0,
					"midpoints" : [  ]
				}

			}
, 			{
				"patchline" : 				{
					"source" : [ "obj-70", 0 ],
					"destination" : [ "obj-24", 0 ],
					"hidden" : 0,
					"midpoints" : [  ]
				}

			}
, 			{
				"patchline" : 				{
					"source" : [ "obj-49", 1 ],
					"destination" : [ "obj-57", 0 ],
					"hidden" : 0,
					"midpoints" : [  ]
				}

			}
, 			{
				"patchline" : 				{
					"source" : [ "obj-57", 2 ],
					"destination" : [ "obj-18", 0 ],
					"hidden" : 0,
					"midpoints" : [  ]
				}

			}
, 			{
				"patchline" : 				{
					"source" : [ "obj-67", 0 ],
					"destination" : [ "obj-58", 1 ],
					"hidden" : 0,
					"midpoints" : [  ]
				}

			}
, 			{
				"patchline" : 				{
					"source" : [ "obj-58", 2 ],
					"destination" : [ "obj-63", 0 ],
					"hidden" : 0,
					"midpoints" : [  ]
				}

			}
, 			{
				"patchline" : 				{
					"source" : [ "obj-16", 0 ],
					"destination" : [ "obj-93", 0 ],
					"hidden" : 0,
					"midpoints" : [  ]
				}

			}
, 			{
				"patchline" : 				{
					"source" : [ "obj-16", 0 ],
					"destination" : [ "obj-91", 0 ],
					"hidden" : 0,
					"midpoints" : [ 194.5, 277.0, 389.0, 277.0 ]
				}

			}
 ]
	}

}
