{
	"patcher" : 	{
		"fileversion" : 1,
		"rect" : [ -66.0, -1015.0, 803.0, 771.0 ],
		"bglocked" : 0,
		"defrect" : [ -66.0, -1015.0, 803.0, 771.0 ],
		"openrect" : [ 0.0, 0.0, 0.0, 0.0 ],
		"openinpresentation" : 0,
		"default_fontsize" : 12.0,
		"default_fontface" : 0,
		"default_fontname" : "Arial",
		"gridonopen" : 0,
		"gridsize" : [ 5.0, 5.0 ],
		"gridsnaponopen" : 0,
		"toolbarvisible" : 1,
		"boxanimatetime" : 200,
		"imprint" : 0,
		"enablehscroll" : 1,
		"enablevscroll" : 1,
		"devicewidth" : 0.0,
		"boxes" : [ 			{
				"box" : 				{
					"maxclass" : "message",
					"text" : "1. 0. 0. 1.",
					"numinlets" : 2,
					"id" : "obj-132",
					"fontname" : "Arial",
					"numoutlets" : 1,
					"outlettype" : [ "" ],
					"patching_rect" : [ 480.0, 590.0, 61.0, 18.0 ],
					"fontsize" : 12.0
				}

			}
, 			{
				"box" : 				{
					"maxclass" : "flonum",
					"numinlets" : 1,
					"id" : "obj-130",
					"fontname" : "Arial",
					"numoutlets" : 2,
					"outlettype" : [ "float", "bang" ],
					"patching_rect" : [ 303.0, 525.0, 50.0, 20.0 ],
					"fontsize" : 12.0
				}

			}
, 			{
				"box" : 				{
					"maxclass" : "button",
					"numinlets" : 1,
					"id" : "obj-128",
					"numoutlets" : 1,
					"outlettype" : [ "bang" ],
					"patching_rect" : [ 558.0, 592.0, 20.0, 20.0 ]
				}

			}
, 			{
				"box" : 				{
					"maxclass" : "toggle",
					"numinlets" : 1,
					"id" : "obj-126",
					"numoutlets" : 1,
					"outlettype" : [ "int" ],
					"patching_rect" : [ 591.0, 592.0, 20.0, 20.0 ]
				}

			}
, 			{
				"box" : 				{
					"maxclass" : "button",
					"numinlets" : 1,
					"id" : "obj-124",
					"numoutlets" : 1,
					"outlettype" : [ "bang" ],
					"patching_rect" : [ 435.0, 519.0, 20.0, 20.0 ]
				}

			}
, 			{
				"box" : 				{
					"maxclass" : "newobj",
					"text" : "VisuImpro-Dots raclette Viz",
					"numinlets" : 3,
					"id" : "obj-122",
					"fontname" : "Arial",
					"numoutlets" : 0,
					"patching_rect" : [ 428.0, 623.0, 155.0, 20.0 ],
					"fontsize" : 12.0
				}

			}
, 			{
				"box" : 				{
					"maxclass" : "newobj",
					"text" : "* 100.",
					"numinlets" : 2,
					"id" : "obj-119",
					"fontname" : "Arial",
					"numoutlets" : 1,
					"outlettype" : [ "float" ],
					"patching_rect" : [ 257.0, 577.0, 42.0, 20.0 ],
					"fontsize" : 12.0
				}

			}
, 			{
				"box" : 				{
					"maxclass" : "newobj",
					"text" : "unpack 0. 0. 0.",
					"numinlets" : 1,
					"id" : "obj-117",
					"fontname" : "Arial",
					"numoutlets" : 3,
					"outlettype" : [ "float", "float", "float" ],
					"patching_rect" : [ 257.0, 552.0, 89.0, 20.0 ],
					"fontsize" : 12.0
				}

			}
, 			{
				"box" : 				{
					"maxclass" : "number",
					"numinlets" : 1,
					"id" : "obj-99",
					"fontname" : "Arial",
					"numoutlets" : 2,
					"outlettype" : [ "int", "bang" ],
					"patching_rect" : [ 257.0, 604.0, 50.0, 20.0 ],
					"fontsize" : 12.0
				}

			}
, 			{
				"box" : 				{
					"maxclass" : "newobj",
					"text" : "p IR",
					"numinlets" : 2,
					"id" : "obj-87",
					"fontname" : "Arial",
					"numoutlets" : 1,
					"outlettype" : [ "int" ],
					"patching_rect" : [ 407.0, 550.0, 33.0, 20.0 ],
					"fontsize" : 12.0,
					"patcher" : 					{
						"fileversion" : 1,
						"rect" : [ 99.0, 73.0, 809.0, 788.0 ],
						"bglocked" : 0,
						"defrect" : [ 99.0, 73.0, 809.0, 788.0 ],
						"openrect" : [ 0.0, 0.0, 0.0, 0.0 ],
						"openinpresentation" : 0,
						"default_fontsize" : 12.0,
						"default_fontface" : 0,
						"default_fontname" : "Arial",
						"gridonopen" : 0,
						"gridsize" : [ 5.0, 5.0 ],
						"gridsnaponopen" : 0,
						"toolbarvisible" : 1,
						"boxanimatetime" : 200,
						"imprint" : 0,
						"enablehscroll" : 1,
						"enablevscroll" : 1,
						"devicewidth" : 0.0,
						"visible" : 1,
						"boxes" : [ 							{
								"box" : 								{
									"maxclass" : "newobj",
									"text" : "p IR",
									"numinlets" : 0,
									"id" : "obj-7",
									"fontname" : "Arial",
									"numoutlets" : 0,
									"patching_rect" : [ 237.0, 441.0, 33.0, 20.0 ],
									"fontsize" : 12.0,
									"patcher" : 									{
										"fileversion" : 1,
										"rect" : [ 352.0, 61.0, 952.0, 786.0 ],
										"bglocked" : 0,
										"defrect" : [ 352.0, 61.0, 952.0, 786.0 ],
										"openrect" : [ 0.0, 0.0, 0.0, 0.0 ],
										"openinpresentation" : 0,
										"default_fontsize" : 12.0,
										"default_fontface" : 0,
										"default_fontname" : "Arial",
										"gridonopen" : 0,
										"gridsize" : [ 5.0, 5.0 ],
										"gridsnaponopen" : 0,
										"toolbarvisible" : 1,
										"boxanimatetime" : 200,
										"imprint" : 0,
										"enablehscroll" : 1,
										"enablevscroll" : 1,
										"devicewidth" : 0.0,
										"visible" : 1,
										"boxes" : [ 											{
												"box" : 												{
													"maxclass" : "newobj",
													"text" : "print",
													"numinlets" : 1,
													"id" : "obj-63",
													"fontname" : "Arial",
													"numoutlets" : 0,
													"patching_rect" : [ 470.0, 564.0, 34.0, 20.0 ],
													"fontsize" : 12.0
												}

											}
, 											{
												"box" : 												{
													"maxclass" : "message",
													"text" : "13.508042",
													"numinlets" : 2,
													"id" : "obj-62",
													"fontname" : "Arial",
													"numoutlets" : 1,
													"outlettype" : [ "" ],
													"patching_rect" : [ 548.0, 398.0, 81.0, 18.0 ],
													"fontsize" : 12.0
												}

											}
, 											{
												"box" : 												{
													"maxclass" : "newobj",
													"text" : "s raclette-query",
													"numinlets" : 1,
													"id" : "obj-2",
													"fontname" : "Arial",
													"numoutlets" : 0,
													"patching_rect" : [ 111.0, 58.0, 93.0, 20.0 ],
													"fontsize" : 12.0
												}

											}
, 											{
												"box" : 												{
													"maxclass" : "button",
													"numinlets" : 1,
													"id" : "obj-58",
													"numoutlets" : 1,
													"outlettype" : [ "bang" ],
													"patching_rect" : [ 368.0, 54.0, 41.0, 41.0 ]
												}

											}
, 											{
												"box" : 												{
													"maxclass" : "newobj",
													"text" : "!/ 1.",
													"numinlets" : 2,
													"id" : "obj-56",
													"fontname" : "Arial",
													"numoutlets" : 1,
													"outlettype" : [ "float" ],
													"patching_rect" : [ 304.0, 549.0, 32.5, 20.0 ],
													"fontsize" : 12.0
												}

											}
, 											{
												"box" : 												{
													"maxclass" : "newobj",
													"text" : "t b b b",
													"numinlets" : 1,
													"id" : "obj-55",
													"fontname" : "Arial",
													"numoutlets" : 3,
													"outlettype" : [ "bang", "bang", "bang" ],
													"patching_rect" : [ 70.0, 31.0, 46.0, 20.0 ],
													"fontsize" : 12.0
												}

											}
, 											{
												"box" : 												{
													"maxclass" : "newobj",
													"text" : "coll IR",
													"numinlets" : 1,
													"id" : "obj-50",
													"fontname" : "Arial",
													"numoutlets" : 4,
													"outlettype" : [ "", "", "", "" ],
													"patching_rect" : [ 223.0, 713.0, 59.5, 20.0 ],
													"fontsize" : 12.0,
													"saved_object_attributes" : 													{
														"embed" : 0
													}

												}

											}
, 											{
												"box" : 												{
													"maxclass" : "newobj",
													"text" : "pack 0 0.",
													"numinlets" : 2,
													"id" : "obj-49",
													"fontname" : "Arial",
													"numoutlets" : 1,
													"outlettype" : [ "" ],
													"patching_rect" : [ 223.0, 688.0, 59.0, 20.0 ],
													"fontsize" : 12.0
												}

											}
, 											{
												"box" : 												{
													"maxclass" : "newobj",
													"text" : "t i i",
													"numinlets" : 1,
													"id" : "obj-47",
													"fontname" : "Arial",
													"numoutlets" : 2,
													"outlettype" : [ "int", "int" ],
													"patching_rect" : [ 223.0, 382.0, 32.5, 20.0 ],
													"fontsize" : 12.0
												}

											}
, 											{
												"box" : 												{
													"maxclass" : "comment",
													"text" : "< L = K(i+1)-K(i)",
													"numinlets" : 1,
													"id" : "obj-45",
													"fontname" : "Arial",
													"numoutlets" : 0,
													"patching_rect" : [ 301.0, 475.0, 94.0, 20.0 ],
													"fontsize" : 12.0
												}

											}
, 											{
												"box" : 												{
													"maxclass" : "newobj",
													"text" : "r raclette-size",
													"numinlets" : 0,
													"id" : "obj-42",
													"fontname" : "Arial",
													"numoutlets" : 1,
													"outlettype" : [ "" ],
													"patching_rect" : [ 223.0, 326.0, 83.0, 20.0 ],
													"fontsize" : 12.0
												}

											}
, 											{
												"box" : 												{
													"maxclass" : "newobj",
													"text" : "uzi",
													"numinlets" : 2,
													"id" : "obj-41",
													"fontname" : "Arial",
													"numoutlets" : 3,
													"outlettype" : [ "bang", "bang", "int" ],
													"patching_rect" : [ 196.0, 354.0, 46.0, 20.0 ],
													"fontsize" : 12.0
												}

											}
, 											{
												"box" : 												{
													"maxclass" : "newobj",
													"text" : "t i i",
													"numinlets" : 1,
													"id" : "obj-40",
													"fontname" : "Arial",
													"numoutlets" : 2,
													"outlettype" : [ "int", "int" ],
													"patching_rect" : [ 251.0, 439.0, 32.5, 20.0 ],
													"fontsize" : 12.0
												}

											}
, 											{
												"box" : 												{
													"maxclass" : "newobj",
													"text" : "- 0",
													"numinlets" : 2,
													"id" : "obj-39",
													"fontname" : "Arial",
													"numoutlets" : 1,
													"outlettype" : [ "int" ],
													"patching_rect" : [ 265.0, 474.0, 32.5, 20.0 ],
													"fontsize" : 12.0
												}

											}
, 											{
												"box" : 												{
													"maxclass" : "message",
													"text" : "2330",
													"numinlets" : 2,
													"id" : "obj-37",
													"fontname" : "Arial",
													"numoutlets" : 1,
													"outlettype" : [ "" ],
													"patching_rect" : [ 601.0, 229.0, 72.0, 18.0 ],
													"fontsize" : 12.0
												}

											}
, 											{
												"box" : 												{
													"maxclass" : "message",
													"text" : "5",
													"numinlets" : 2,
													"id" : "obj-38",
													"fontname" : "Arial",
													"numoutlets" : 1,
													"outlettype" : [ "" ],
													"patching_rect" : [ 296.0, 229.0, 72.0, 18.0 ],
													"fontsize" : 12.0
												}

											}
, 											{
												"box" : 												{
													"maxclass" : "message",
													"text" : "12",
													"numinlets" : 2,
													"id" : "obj-36",
													"fontname" : "Arial",
													"numoutlets" : 1,
													"outlettype" : [ "" ],
													"patching_rect" : [ 126.0, 143.0, 24.0, 18.0 ],
													"fontsize" : 12.0
												}

											}
, 											{
												"box" : 												{
													"maxclass" : "message",
													"text" : "11.186114",
													"numinlets" : 2,
													"id" : "obj-35",
													"fontname" : "Arial",
													"numoutlets" : 1,
													"outlettype" : [ "" ],
													"patching_rect" : [ 641.0, 287.0, 72.0, 18.0 ],
													"fontsize" : 12.0
												}

											}
, 											{
												"box" : 												{
													"maxclass" : "message",
													"text" : "2.321928",
													"numinlets" : 2,
													"id" : "obj-34",
													"fontname" : "Arial",
													"numoutlets" : 1,
													"outlettype" : [ "" ],
													"patching_rect" : [ 312.0, 287.0, 72.0, 18.0 ],
													"fontsize" : 12.0
												}

											}
, 											{
												"box" : 												{
													"maxclass" : "newobj",
													"text" : "!- 0.",
													"numinlets" : 2,
													"id" : "obj-32",
													"fontname" : "Arial",
													"numoutlets" : 1,
													"outlettype" : [ "float" ],
													"patching_rect" : [ 304.0, 585.0, 32.5, 20.0 ],
													"fontsize" : 12.0
												}

											}
, 											{
												"box" : 												{
													"maxclass" : "newobj",
													"text" : "maximum 0.",
													"numinlets" : 2,
													"id" : "obj-31",
													"fontname" : "Arial",
													"numoutlets" : 2,
													"outlettype" : [ "float", "int" ],
													"patching_rect" : [ 304.0, 613.0, 76.0, 20.0 ],
													"fontsize" : 12.0
												}

											}
, 											{
												"box" : 												{
													"maxclass" : "newobj",
													"text" : "coll K",
													"numinlets" : 1,
													"id" : "obj-30",
													"fontname" : "Arial",
													"numoutlets" : 4,
													"outlettype" : [ "", "", "", "" ],
													"patching_rect" : [ 237.0, 409.0, 59.5, 20.0 ],
													"fontsize" : 12.0,
													"saved_object_attributes" : 													{
														"embed" : 0
													}

												}

											}
, 											{
												"box" : 												{
													"maxclass" : "newobj",
													"text" : "t b f",
													"numinlets" : 1,
													"id" : "obj-29",
													"fontname" : "Arial",
													"numoutlets" : 2,
													"outlettype" : [ "bang", "float" ],
													"patching_rect" : [ 545.0, 306.0, 32.5, 20.0 ],
													"fontsize" : 12.0
												}

											}
, 											{
												"box" : 												{
													"maxclass" : "newobj",
													"text" : "+ 0.",
													"numinlets" : 2,
													"id" : "obj-28",
													"fontname" : "Arial",
													"numoutlets" : 1,
													"outlettype" : [ "float" ],
													"patching_rect" : [ 545.0, 336.0, 32.5, 20.0 ],
													"fontsize" : 12.0
												}

											}
, 											{
												"box" : 												{
													"maxclass" : "newobj",
													"text" : "expr log($f1)/log(2)",
													"numinlets" : 1,
													"id" : "obj-27",
													"fontname" : "Arial",
													"numoutlets" : 1,
													"outlettype" : [ "" ],
													"patching_rect" : [ 672.0, 256.0, 112.0, 20.0 ],
													"fontsize" : 12.0
												}

											}
, 											{
												"box" : 												{
													"maxclass" : "comment",
													"text" : "< N = sequence length",
													"numinlets" : 1,
													"id" : "obj-26",
													"fontname" : "Arial",
													"numoutlets" : 0,
													"patching_rect" : [ 759.0, 201.0, 131.0, 20.0 ],
													"fontsize" : 12.0
												}

											}
, 											{
												"box" : 												{
													"maxclass" : "newobj",
													"text" : "r raclette-size",
													"numinlets" : 0,
													"id" : "obj-24",
													"fontname" : "Arial",
													"numoutlets" : 1,
													"outlettype" : [ "" ],
													"patching_rect" : [ 672.0, 201.0, 83.0, 20.0 ],
													"fontsize" : 12.0
												}

											}
, 											{
												"box" : 												{
													"maxclass" : "comment",
													"text" : "<  M = max(LRS)",
													"numinlets" : 1,
													"id" : "obj-23",
													"fontname" : "Arial",
													"numoutlets" : 0,
													"patching_rect" : [ 477.0, 201.0, 102.0, 20.0 ],
													"fontsize" : 12.0
												}

											}
, 											{
												"box" : 												{
													"maxclass" : "newobj",
													"text" : "expr log($f1)/log(2)",
													"numinlets" : 1,
													"id" : "obj-21",
													"fontname" : "Arial",
													"numoutlets" : 1,
													"outlettype" : [ "" ],
													"patching_rect" : [ 365.0, 256.0, 112.0, 20.0 ],
													"fontsize" : 12.0
												}

											}
, 											{
												"box" : 												{
													"maxclass" : "comment",
													"text" : "<  C = log2(|d(0,:)|)",
													"numinlets" : 1,
													"id" : "obj-20",
													"fontname" : "Arial",
													"numoutlets" : 0,
													"patching_rect" : [ 180.0, 201.0, 114.0, 20.0 ],
													"fontsize" : 12.0
												}

											}
, 											{
												"box" : 												{
													"maxclass" : "newobj",
													"text" : "r raclette-ctxt-max",
													"numinlets" : 0,
													"id" : "obj-5",
													"fontname" : "Arial",
													"numoutlets" : 1,
													"outlettype" : [ "" ],
													"patching_rect" : [ 365.0, 201.0, 107.0, 20.0 ],
													"fontsize" : 12.0
												}

											}
, 											{
												"box" : 												{
													"maxclass" : "message",
													"text" : "3.584963",
													"numinlets" : 2,
													"id" : "obj-14",
													"fontname" : "Arial",
													"numoutlets" : 1,
													"outlettype" : [ "" ],
													"patching_rect" : [ 91.0, 201.0, 68.0, 18.0 ],
													"fontsize" : 12.0
												}

											}
, 											{
												"box" : 												{
													"maxclass" : "newobj",
													"text" : "zl len",
													"numinlets" : 2,
													"id" : "obj-12",
													"fontname" : "Arial",
													"numoutlets" : 2,
													"outlettype" : [ "", "" ],
													"patching_rect" : [ 157.0, 114.0, 39.0, 20.0 ],
													"fontsize" : 12.0
												}

											}
, 											{
												"box" : 												{
													"maxclass" : "message",
													"text" : "0",
													"numinlets" : 2,
													"id" : "obj-11",
													"fontname" : "Arial",
													"numoutlets" : 1,
													"outlettype" : [ "" ],
													"patching_rect" : [ 86.0, 58.0, 18.0, 18.0 ],
													"fontsize" : 12.0
												}

											}
, 											{
												"box" : 												{
													"maxclass" : "newobj",
													"text" : "OMax.read raclette",
													"color" : [ 0.3, 1.0, 0.15, 1.0 ],
													"numinlets" : 1,
													"id" : "obj-8",
													"fontname" : "Arial",
													"numoutlets" : 5,
													"outlettype" : [ "bang", "list", "list", "list", "int" ],
													"patching_rect" : [ 86.0, 83.0, 113.0, 20.0 ],
													"fontsize" : 12.0
												}

											}
, 											{
												"box" : 												{
													"maxclass" : "newobj",
													"text" : "expr log($f1)/log(2)",
													"numinlets" : 1,
													"id" : "obj-4",
													"fontname" : "Arial",
													"numoutlets" : 1,
													"outlettype" : [ "" ],
													"patching_rect" : [ 157.0, 170.0, 112.0, 20.0 ],
													"fontsize" : 12.0
												}

											}
 ],
										"lines" : [ 											{
												"patchline" : 												{
													"source" : [ "obj-11", 0 ],
													"destination" : [ "obj-8", 0 ],
													"hidden" : 0,
													"midpoints" : [  ]
												}

											}
, 											{
												"patchline" : 												{
													"source" : [ "obj-8", 3 ],
													"destination" : [ "obj-12", 0 ],
													"hidden" : 0,
													"midpoints" : [  ]
												}

											}
, 											{
												"patchline" : 												{
													"source" : [ "obj-12", 0 ],
													"destination" : [ "obj-4", 0 ],
													"hidden" : 0,
													"midpoints" : [  ]
												}

											}
, 											{
												"patchline" : 												{
													"source" : [ "obj-4", 0 ],
													"destination" : [ "obj-14", 1 ],
													"hidden" : 0,
													"midpoints" : [  ]
												}

											}
, 											{
												"patchline" : 												{
													"source" : [ "obj-5", 0 ],
													"destination" : [ "obj-21", 0 ],
													"hidden" : 0,
													"midpoints" : [  ]
												}

											}
, 											{
												"patchline" : 												{
													"source" : [ "obj-24", 0 ],
													"destination" : [ "obj-27", 0 ],
													"hidden" : 0,
													"midpoints" : [  ]
												}

											}
, 											{
												"patchline" : 												{
													"source" : [ "obj-21", 0 ],
													"destination" : [ "obj-28", 0 ],
													"hidden" : 0,
													"midpoints" : [  ]
												}

											}
, 											{
												"patchline" : 												{
													"source" : [ "obj-29", 0 ],
													"destination" : [ "obj-28", 0 ],
													"hidden" : 0,
													"midpoints" : [  ]
												}

											}
, 											{
												"patchline" : 												{
													"source" : [ "obj-29", 1 ],
													"destination" : [ "obj-28", 1 ],
													"hidden" : 0,
													"midpoints" : [  ]
												}

											}
, 											{
												"patchline" : 												{
													"source" : [ "obj-27", 0 ],
													"destination" : [ "obj-29", 0 ],
													"hidden" : 0,
													"midpoints" : [  ]
												}

											}
, 											{
												"patchline" : 												{
													"source" : [ "obj-21", 0 ],
													"destination" : [ "obj-34", 1 ],
													"hidden" : 0,
													"midpoints" : [  ]
												}

											}
, 											{
												"patchline" : 												{
													"source" : [ "obj-27", 0 ],
													"destination" : [ "obj-35", 1 ],
													"hidden" : 0,
													"midpoints" : [  ]
												}

											}
, 											{
												"patchline" : 												{
													"source" : [ "obj-12", 0 ],
													"destination" : [ "obj-36", 1 ],
													"hidden" : 0,
													"midpoints" : [  ]
												}

											}
, 											{
												"patchline" : 												{
													"source" : [ "obj-5", 0 ],
													"destination" : [ "obj-38", 1 ],
													"hidden" : 0,
													"midpoints" : [  ]
												}

											}
, 											{
												"patchline" : 												{
													"source" : [ "obj-24", 0 ],
													"destination" : [ "obj-37", 1 ],
													"hidden" : 0,
													"midpoints" : [  ]
												}

											}
, 											{
												"patchline" : 												{
													"source" : [ "obj-42", 0 ],
													"destination" : [ "obj-41", 1 ],
													"hidden" : 0,
													"midpoints" : [  ]
												}

											}
, 											{
												"patchline" : 												{
													"source" : [ "obj-41", 2 ],
													"destination" : [ "obj-47", 0 ],
													"hidden" : 0,
													"midpoints" : [  ]
												}

											}
, 											{
												"patchline" : 												{
													"source" : [ "obj-47", 1 ],
													"destination" : [ "obj-30", 0 ],
													"hidden" : 0,
													"midpoints" : [  ]
												}

											}
, 											{
												"patchline" : 												{
													"source" : [ "obj-30", 1 ],
													"destination" : [ "obj-40", 0 ],
													"hidden" : 0,
													"midpoints" : [  ]
												}

											}
, 											{
												"patchline" : 												{
													"source" : [ "obj-40", 0 ],
													"destination" : [ "obj-39", 1 ],
													"hidden" : 0,
													"midpoints" : [  ]
												}

											}
, 											{
												"patchline" : 												{
													"source" : [ "obj-40", 1 ],
													"destination" : [ "obj-39", 0 ],
													"hidden" : 0,
													"midpoints" : [  ]
												}

											}
, 											{
												"patchline" : 												{
													"source" : [ "obj-28", 0 ],
													"destination" : [ "obj-56", 1 ],
													"hidden" : 0,
													"midpoints" : [  ]
												}

											}
, 											{
												"patchline" : 												{
													"source" : [ "obj-39", 0 ],
													"destination" : [ "obj-56", 0 ],
													"hidden" : 0,
													"midpoints" : [  ]
												}

											}
, 											{
												"patchline" : 												{
													"source" : [ "obj-58", 0 ],
													"destination" : [ "obj-55", 0 ],
													"hidden" : 0,
													"midpoints" : [  ]
												}

											}
, 											{
												"patchline" : 												{
													"source" : [ "obj-55", 1 ],
													"destination" : [ "obj-11", 0 ],
													"hidden" : 0,
													"midpoints" : [  ]
												}

											}
, 											{
												"patchline" : 												{
													"source" : [ "obj-55", 2 ],
													"destination" : [ "obj-2", 0 ],
													"hidden" : 0,
													"midpoints" : [  ]
												}

											}
, 											{
												"patchline" : 												{
													"source" : [ "obj-28", 0 ],
													"destination" : [ "obj-62", 1 ],
													"hidden" : 0,
													"midpoints" : [  ]
												}

											}
, 											{
												"patchline" : 												{
													"source" : [ "obj-31", 0 ],
													"destination" : [ "obj-49", 1 ],
													"hidden" : 0,
													"midpoints" : [  ]
												}

											}
, 											{
												"patchline" : 												{
													"source" : [ "obj-49", 0 ],
													"destination" : [ "obj-50", 0 ],
													"hidden" : 0,
													"midpoints" : [  ]
												}

											}
, 											{
												"patchline" : 												{
													"source" : [ "obj-47", 0 ],
													"destination" : [ "obj-49", 0 ],
													"hidden" : 0,
													"midpoints" : [  ]
												}

											}
, 											{
												"patchline" : 												{
													"source" : [ "obj-55", 0 ],
													"destination" : [ "obj-41", 0 ],
													"hidden" : 0,
													"midpoints" : [ 79.5, 340.0, 205.5, 340.0 ]
												}

											}
, 											{
												"patchline" : 												{
													"source" : [ "obj-32", 0 ],
													"destination" : [ "obj-31", 0 ],
													"hidden" : 0,
													"midpoints" : [  ]
												}

											}
, 											{
												"patchline" : 												{
													"source" : [ "obj-56", 0 ],
													"destination" : [ "obj-32", 0 ],
													"hidden" : 0,
													"midpoints" : [  ]
												}

											}
, 											{
												"patchline" : 												{
													"source" : [ "obj-4", 0 ],
													"destination" : [ "obj-32", 1 ],
													"hidden" : 0,
													"midpoints" : [ 166.5, 578.0, 327.0, 578.0 ]
												}

											}
 ]
									}
,
									"saved_object_attributes" : 									{
										"default_fontface" : 0,
										"fontname" : "Arial",
										"default_fontname" : "Arial",
										"globalpatchername" : "",
										"default_fontsize" : 12.0,
										"fontface" : 0,
										"fontsize" : 12.0
									}

								}

							}
, 							{
								"box" : 								{
									"maxclass" : "inlet",
									"numinlets" : 0,
									"id" : "obj-36",
									"numoutlets" : 1,
									"outlettype" : [ "bang" ],
									"patching_rect" : [ 313.0, 58.0, 25.0, 25.0 ],
									"comment" : ""
								}

							}
, 							{
								"box" : 								{
									"maxclass" : "outlet",
									"numinlets" : 1,
									"id" : "obj-34",
									"numoutlets" : 0,
									"patching_rect" : [ 13.0, 437.0, 25.0, 25.0 ],
									"comment" : ""
								}

							}
, 							{
								"box" : 								{
									"maxclass" : "message",
									"text" : "1",
									"numinlets" : 2,
									"id" : "obj-32",
									"fontname" : "Arial",
									"numoutlets" : 1,
									"outlettype" : [ "" ],
									"patching_rect" : [ 197.0, 92.0, 32.5, 18.0 ],
									"fontsize" : 12.0
								}

							}
, 							{
								"box" : 								{
									"maxclass" : "message",
									"text" : "clear",
									"numinlets" : 2,
									"id" : "obj-31",
									"fontname" : "Arial",
									"numoutlets" : 1,
									"outlettype" : [ "" ],
									"patching_rect" : [ 313.0, 332.0, 37.0, 18.0 ],
									"fontsize" : 12.0
								}

							}
, 							{
								"box" : 								{
									"maxclass" : "message",
									"text" : "0",
									"numinlets" : 2,
									"id" : "obj-29",
									"fontname" : "Arial",
									"numoutlets" : 1,
									"outlettype" : [ "" ],
									"patching_rect" : [ 195.0, 40.0, 32.5, 18.0 ],
									"fontsize" : 12.0
								}

							}
, 							{
								"box" : 								{
									"maxclass" : "newobj",
									"text" : "i 0",
									"numinlets" : 2,
									"id" : "obj-21",
									"fontname" : "Arial",
									"numoutlets" : 1,
									"outlettype" : [ "int" ],
									"patching_rect" : [ 117.0, 31.0, 32.5, 20.0 ],
									"fontsize" : 12.0
								}

							}
, 							{
								"box" : 								{
									"maxclass" : "newobj",
									"text" : "+ 1",
									"numinlets" : 2,
									"id" : "obj-20",
									"fontname" : "Arial",
									"numoutlets" : 1,
									"outlettype" : [ "int" ],
									"patching_rect" : [ 117.0, 83.0, 32.5, 20.0 ],
									"fontsize" : 12.0
								}

							}
, 							{
								"box" : 								{
									"maxclass" : "button",
									"numinlets" : 1,
									"id" : "obj-19",
									"numoutlets" : 1,
									"outlettype" : [ "bang" ],
									"patching_rect" : [ 117.0, 3.0, 20.0, 20.0 ]
								}

							}
, 							{
								"box" : 								{
									"maxclass" : "number",
									"numinlets" : 1,
									"id" : "obj-17",
									"fontname" : "Arial",
									"numoutlets" : 2,
									"outlettype" : [ "int", "bang" ],
									"patching_rect" : [ 117.0, 56.0, 50.0, 20.0 ],
									"fontsize" : 12.0
								}

							}
, 							{
								"box" : 								{
									"maxclass" : "newobj",
									"text" : "pack 0 1",
									"numinlets" : 2,
									"id" : "obj-14",
									"fontname" : "Arial",
									"numoutlets" : 1,
									"outlettype" : [ "" ],
									"patching_rect" : [ 47.0, 377.0, 56.0, 20.0 ],
									"fontsize" : 12.0
								}

							}
, 							{
								"box" : 								{
									"maxclass" : "newobj",
									"text" : "i 1",
									"numinlets" : 2,
									"id" : "obj-13",
									"fontname" : "Arial",
									"numoutlets" : 1,
									"outlettype" : [ "int" ],
									"patching_rect" : [ 47.0, 339.0, 32.5, 20.0 ],
									"fontsize" : 12.0
								}

							}
, 							{
								"box" : 								{
									"maxclass" : "newobj",
									"text" : "sel 0 1",
									"numinlets" : 1,
									"id" : "obj-12",
									"fontname" : "Arial",
									"numoutlets" : 3,
									"outlettype" : [ "bang", "bang", "" ],
									"patching_rect" : [ 33.0, 302.0, 46.0, 20.0 ],
									"fontsize" : 12.0
								}

							}
, 							{
								"box" : 								{
									"maxclass" : "newobj",
									"text" : ">=",
									"numinlets" : 2,
									"id" : "obj-11",
									"fontname" : "Arial",
									"numoutlets" : 1,
									"outlettype" : [ "int" ],
									"patching_rect" : [ 33.0, 275.0, 32.5, 20.0 ],
									"fontsize" : 12.0
								}

							}
, 							{
								"box" : 								{
									"maxclass" : "newobj",
									"text" : "+ 1",
									"numinlets" : 2,
									"id" : "obj-10",
									"fontname" : "Arial",
									"numoutlets" : 1,
									"outlettype" : [ "int" ],
									"patching_rect" : [ 33.0, 249.0, 32.5, 20.0 ],
									"fontsize" : 12.0
								}

							}
, 							{
								"box" : 								{
									"maxclass" : "newobj",
									"text" : "coll K",
									"numinlets" : 1,
									"id" : "obj-9",
									"fontname" : "Arial",
									"numoutlets" : 4,
									"outlettype" : [ "", "", "", "" ],
									"patching_rect" : [ 47.0, 407.0, 59.5, 20.0 ],
									"fontsize" : 12.0,
									"saved_object_attributes" : 									{
										"embed" : 0
									}

								}

							}
, 							{
								"box" : 								{
									"maxclass" : "newobj",
									"text" : "- 1",
									"numinlets" : 2,
									"id" : "obj-8",
									"fontname" : "Arial",
									"numoutlets" : 1,
									"outlettype" : [ "int" ],
									"patching_rect" : [ 33.0, 223.0, 32.5, 20.0 ],
									"fontsize" : 12.0
								}

							}
, 							{
								"box" : 								{
									"maxclass" : "newobj",
									"text" : "unpack",
									"numinlets" : 1,
									"id" : "obj-6",
									"fontname" : "Arial",
									"numoutlets" : 2,
									"outlettype" : [ "int", "int" ],
									"patching_rect" : [ 127.0, 181.0, 49.0, 20.0 ],
									"fontsize" : 12.0
								}

							}
, 							{
								"box" : 								{
									"maxclass" : "newobj",
									"text" : "i 0",
									"numinlets" : 2,
									"id" : "obj-5",
									"fontname" : "Arial",
									"numoutlets" : 1,
									"outlettype" : [ "int" ],
									"patching_rect" : [ 33.0, 191.0, 32.5, 20.0 ],
									"fontsize" : 12.0
								}

							}
, 							{
								"box" : 								{
									"maxclass" : "newobj",
									"text" : "t i i i",
									"numinlets" : 1,
									"id" : "obj-4",
									"fontname" : "Arial",
									"numoutlets" : 3,
									"outlettype" : [ "int", "int", "int" ],
									"patching_rect" : [ 47.0, 125.0, 84.0, 20.0 ],
									"fontsize" : 12.0
								}

							}
, 							{
								"box" : 								{
									"maxclass" : "inlet",
									"numinlets" : 0,
									"id" : "obj-2",
									"numoutlets" : 1,
									"outlettype" : [ "int" ],
									"patching_rect" : [ 47.0, 83.0, 25.0, 25.0 ],
									"comment" : ""
								}

							}
, 							{
								"box" : 								{
									"maxclass" : "newobj",
									"text" : "OMax.read raclette",
									"color" : [ 0.3, 1.0, 0.15, 1.0 ],
									"numinlets" : 1,
									"id" : "obj-1",
									"fontname" : "Arial",
									"numoutlets" : 5,
									"outlettype" : [ "bang", "list", "list", "list", "int" ],
									"patching_rect" : [ 80.0, 152.0, 113.0, 20.0 ],
									"fontsize" : 12.0
								}

							}
 ],
						"lines" : [ 							{
								"patchline" : 								{
									"source" : [ "obj-1", 2 ],
									"destination" : [ "obj-6", 0 ],
									"hidden" : 0,
									"midpoints" : [  ]
								}

							}
, 							{
								"patchline" : 								{
									"source" : [ "obj-4", 0 ],
									"destination" : [ "obj-5", 1 ],
									"hidden" : 0,
									"midpoints" : [  ]
								}

							}
, 							{
								"patchline" : 								{
									"source" : [ "obj-4", 1 ],
									"destination" : [ "obj-1", 0 ],
									"hidden" : 0,
									"midpoints" : [  ]
								}

							}
, 							{
								"patchline" : 								{
									"source" : [ "obj-2", 0 ],
									"destination" : [ "obj-4", 0 ],
									"hidden" : 0,
									"midpoints" : [  ]
								}

							}
, 							{
								"patchline" : 								{
									"source" : [ "obj-14", 0 ],
									"destination" : [ "obj-9", 0 ],
									"hidden" : 0,
									"midpoints" : [  ]
								}

							}
, 							{
								"patchline" : 								{
									"source" : [ "obj-13", 0 ],
									"destination" : [ "obj-14", 0 ],
									"hidden" : 0,
									"midpoints" : [  ]
								}

							}
, 							{
								"patchline" : 								{
									"source" : [ "obj-12", 1 ],
									"destination" : [ "obj-13", 0 ],
									"hidden" : 0,
									"midpoints" : [  ]
								}

							}
, 							{
								"patchline" : 								{
									"source" : [ "obj-4", 2 ],
									"destination" : [ "obj-13", 1 ],
									"hidden" : 0,
									"midpoints" : [  ]
								}

							}
, 							{
								"patchline" : 								{
									"source" : [ "obj-13", 0 ],
									"destination" : [ "obj-8", 1 ],
									"hidden" : 0,
									"midpoints" : [ 56.5, 368.0, 99.75, 368.0, 99.75, 217.0, 56.0, 217.0 ]
								}

							}
, 							{
								"patchline" : 								{
									"source" : [ "obj-8", 0 ],
									"destination" : [ "obj-10", 0 ],
									"hidden" : 0,
									"midpoints" : [  ]
								}

							}
, 							{
								"patchline" : 								{
									"source" : [ "obj-5", 0 ],
									"destination" : [ "obj-8", 0 ],
									"hidden" : 0,
									"midpoints" : [  ]
								}

							}
, 							{
								"patchline" : 								{
									"source" : [ "obj-17", 0 ],
									"destination" : [ "obj-4", 0 ],
									"hidden" : 0,
									"midpoints" : [  ]
								}

							}
, 							{
								"patchline" : 								{
									"source" : [ "obj-17", 0 ],
									"destination" : [ "obj-20", 0 ],
									"hidden" : 0,
									"midpoints" : [  ]
								}

							}
, 							{
								"patchline" : 								{
									"source" : [ "obj-20", 0 ],
									"destination" : [ "obj-21", 1 ],
									"hidden" : 0,
									"midpoints" : [ 126.5, 112.0, 173.75, 112.0, 173.75, 21.0, 140.0, 21.0 ]
								}

							}
, 							{
								"patchline" : 								{
									"source" : [ "obj-19", 0 ],
									"destination" : [ "obj-21", 0 ],
									"hidden" : 0,
									"midpoints" : [  ]
								}

							}
, 							{
								"patchline" : 								{
									"source" : [ "obj-21", 0 ],
									"destination" : [ "obj-17", 0 ],
									"hidden" : 0,
									"midpoints" : [  ]
								}

							}
, 							{
								"patchline" : 								{
									"source" : [ "obj-10", 0 ],
									"destination" : [ "obj-11", 0 ],
									"hidden" : 0,
									"midpoints" : [  ]
								}

							}
, 							{
								"patchline" : 								{
									"source" : [ "obj-6", 1 ],
									"destination" : [ "obj-11", 1 ],
									"hidden" : 0,
									"midpoints" : [  ]
								}

							}
, 							{
								"patchline" : 								{
									"source" : [ "obj-11", 0 ],
									"destination" : [ "obj-12", 0 ],
									"hidden" : 0,
									"midpoints" : [  ]
								}

							}
, 							{
								"patchline" : 								{
									"source" : [ "obj-29", 0 ],
									"destination" : [ "obj-21", 1 ],
									"hidden" : 0,
									"midpoints" : [  ]
								}

							}
, 							{
								"patchline" : 								{
									"source" : [ "obj-1", 0 ],
									"destination" : [ "obj-5", 0 ],
									"hidden" : 0,
									"midpoints" : [  ]
								}

							}
, 							{
								"patchline" : 								{
									"source" : [ "obj-29", 0 ],
									"destination" : [ "obj-5", 1 ],
									"hidden" : 0,
									"midpoints" : [  ]
								}

							}
, 							{
								"patchline" : 								{
									"source" : [ "obj-31", 0 ],
									"destination" : [ "obj-9", 0 ],
									"hidden" : 0,
									"midpoints" : [  ]
								}

							}
, 							{
								"patchline" : 								{
									"source" : [ "obj-32", 0 ],
									"destination" : [ "obj-8", 1 ],
									"hidden" : 0,
									"midpoints" : [  ]
								}

							}
, 							{
								"patchline" : 								{
									"source" : [ "obj-32", 0 ],
									"destination" : [ "obj-13", 1 ],
									"hidden" : 0,
									"midpoints" : [  ]
								}

							}
, 							{
								"patchline" : 								{
									"source" : [ "obj-13", 0 ],
									"destination" : [ "obj-34", 0 ],
									"hidden" : 0,
									"midpoints" : [  ]
								}

							}
, 							{
								"patchline" : 								{
									"source" : [ "obj-36", 0 ],
									"destination" : [ "obj-29", 0 ],
									"hidden" : 0,
									"midpoints" : [  ]
								}

							}
, 							{
								"patchline" : 								{
									"source" : [ "obj-36", 0 ],
									"destination" : [ "obj-32", 0 ],
									"hidden" : 0,
									"midpoints" : [  ]
								}

							}
, 							{
								"patchline" : 								{
									"source" : [ "obj-36", 0 ],
									"destination" : [ "obj-31", 0 ],
									"hidden" : 0,
									"midpoints" : [  ]
								}

							}
 ]
					}
,
					"saved_object_attributes" : 					{
						"default_fontface" : 0,
						"fontname" : "Arial",
						"default_fontname" : "Arial",
						"globalpatchername" : "",
						"default_fontsize" : 12.0,
						"fontface" : 0,
						"fontsize" : 12.0
					}

				}

			}
, 			{
				"box" : 				{
					"maxclass" : "bpatcher",
					"numinlets" : 3,
					"id" : "obj-51",
					"numoutlets" : 0,
					"patching_rect" : [ 36.0, 552.0, 182.0, 96.0 ],
					"args" : [ "raclette", "Viz" ],
					"bgmode" : 1,
					"name" : "Visu-Timeline.maxpat"
				}

			}
, 			{
				"box" : 				{
					"maxclass" : "newobj",
					"text" : "v raclette-size",
					"numinlets" : 1,
					"id" : "obj-49",
					"fontname" : "Arial",
					"numoutlets" : 1,
					"outlettype" : [ "" ],
					"patching_rect" : [ 307.0, 475.0, 85.0, 20.0 ],
					"fontsize" : 12.0
				}

			}
, 			{
				"box" : 				{
					"maxclass" : "bpatcher",
					"varname" : "0_Suffixes",
					"numinlets" : 3,
					"id" : "obj-47",
					"numoutlets" : 0,
					"patching_rect" : [ 36.0, 654.0, 200.0, 88.0 ],
					"args" : [ "raclette", "Viz" ],
					"bgmode" : 1,
					"name" : "Visu-Suffixes.maxpat"
				}

			}
, 			{
				"box" : 				{
					"maxclass" : "bpatcher",
					"numinlets" : 3,
					"id" : "obj-1",
					"numoutlets" : 4,
					"outlettype" : [ "", "bang", "", "bang" ],
					"patching_rect" : [ 36.0, 472.0, 137.0, 69.0 ],
					"args" : [ "Viz" ],
					"bgmode" : 1,
					"name" : "Visu-Display.maxpat"
				}

			}
, 			{
				"box" : 				{
					"maxclass" : "newobj",
					"text" : "sprintf %s %s.json",
					"numinlets" : 2,
					"id" : "obj-80",
					"fontname" : "Arial",
					"numoutlets" : 1,
					"outlettype" : [ "" ],
					"patching_rect" : [ 46.0, 203.0, 109.0, 20.0 ],
					"fontsize" : 12.0
				}

			}
, 			{
				"box" : 				{
					"maxclass" : "newobj",
					"text" : "r save",
					"numinlets" : 0,
					"id" : "obj-76",
					"fontname" : "Arial",
					"numoutlets" : 1,
					"outlettype" : [ "" ],
					"patching_rect" : [ 46.0, 171.0, 43.0, 20.0 ],
					"fontsize" : 12.0
				}

			}
, 			{
				"box" : 				{
					"maxclass" : "newobj",
					"text" : "print read",
					"numinlets" : 1,
					"id" : "obj-81",
					"fontname" : "Arial",
					"numoutlets" : 0,
					"patching_rect" : [ 662.0, 500.0, 61.0, 20.0 ],
					"fontsize" : 12.0
				}

			}
, 			{
				"box" : 				{
					"maxclass" : "newobj",
					"text" : "OMax.read raclette",
					"color" : [ 0.3, 1.0, 0.15, 1.0 ],
					"numinlets" : 1,
					"id" : "obj-83",
					"fontname" : "Arial",
					"numoutlets" : 5,
					"outlettype" : [ "bang", "list", "list", "list", "int" ],
					"patching_rect" : [ 662.0, 458.0, 113.0, 20.0 ],
					"fontsize" : 12.0
				}

			}
, 			{
				"box" : 				{
					"maxclass" : "number",
					"numinlets" : 1,
					"id" : "obj-84",
					"fontname" : "Arial",
					"numoutlets" : 2,
					"outlettype" : [ "int", "bang" ],
					"patching_rect" : [ 662.0, 427.0, 63.0, 20.0 ],
					"fontsize" : 12.0
				}

			}
, 			{
				"box" : 				{
					"maxclass" : "message",
					"text" : "read",
					"numinlets" : 2,
					"id" : "obj-77",
					"fontname" : "Arial",
					"numoutlets" : 1,
					"outlettype" : [ "" ],
					"patching_rect" : [ 120.0, 421.0, 35.0, 18.0 ],
					"fontsize" : 12.0
				}

			}
, 			{
				"box" : 				{
					"maxclass" : "message",
					"text" : "write OMaxTest.JSON",
					"numinlets" : 2,
					"id" : "obj-66",
					"fontname" : "Arial",
					"numoutlets" : 1,
					"outlettype" : [ "" ],
					"patching_rect" : [ 19.0, 327.0, 129.0, 18.0 ],
					"fontsize" : 12.0
				}

			}
, 			{
				"box" : 				{
					"maxclass" : "message",
					"text" : "write",
					"numinlets" : 2,
					"id" : "obj-71",
					"fontname" : "Arial",
					"numoutlets" : 1,
					"outlettype" : [ "" ],
					"patching_rect" : [ 60.0, 352.0, 36.0, 18.0 ],
					"fontsize" : 12.0
				}

			}
, 			{
				"box" : 				{
					"maxclass" : "button",
					"numinlets" : 1,
					"id" : "obj-62",
					"numoutlets" : 1,
					"outlettype" : [ "bang" ],
					"patching_rect" : [ 284.0, 398.0, 20.0, 20.0 ]
				}

			}
, 			{
				"box" : 				{
					"maxclass" : "newobj",
					"text" : "uzi",
					"numinlets" : 2,
					"id" : "obj-59",
					"fontname" : "Arial",
					"numoutlets" : 3,
					"outlettype" : [ "bang", "bang", "int" ],
					"patching_rect" : [ 261.0, 439.0, 46.0, 20.0 ],
					"fontsize" : 12.0
				}

			}
, 			{
				"box" : 				{
					"maxclass" : "message",
					"text" : "read OMaxTest.dot",
					"numinlets" : 2,
					"id" : "obj-56",
					"fontname" : "Arial",
					"numoutlets" : 1,
					"outlettype" : [ "" ],
					"patching_rect" : [ 231.0, 267.0, 112.0, 18.0 ],
					"fontsize" : 12.0
				}

			}
, 			{
				"box" : 				{
					"maxclass" : "button",
					"numinlets" : 1,
					"id" : "obj-60",
					"numoutlets" : 1,
					"outlettype" : [ "bang" ],
					"patching_rect" : [ 514.0, 510.0, 20.0, 20.0 ]
				}

			}
, 			{
				"box" : 				{
					"maxclass" : "newobj",
					"text" : "i 0",
					"numinlets" : 2,
					"id" : "obj-57",
					"fontname" : "Arial",
					"numoutlets" : 1,
					"outlettype" : [ "int" ],
					"patching_rect" : [ 514.0, 535.0, 32.5, 20.0 ],
					"fontsize" : 12.0
				}

			}
, 			{
				"box" : 				{
					"maxclass" : "newobj",
					"text" : "t b s",
					"numinlets" : 1,
					"id" : "obj-53",
					"fontname" : "Arial",
					"numoutlets" : 2,
					"outlettype" : [ "bang", "" ],
					"patching_rect" : [ 32.0, 302.0, 33.0, 20.0 ],
					"fontsize" : 12.0
				}

			}
, 			{
				"box" : 				{
					"maxclass" : "newobj",
					"text" : "print render",
					"numinlets" : 1,
					"id" : "obj-32",
					"fontname" : "Arial",
					"numoutlets" : 0,
					"patching_rect" : [ 658.0, 349.0, 72.0, 20.0 ],
					"fontsize" : 12.0
				}

			}
, 			{
				"box" : 				{
					"maxclass" : "number",
					"numinlets" : 1,
					"id" : "obj-38",
					"fontname" : "Arial",
					"numoutlets" : 2,
					"outlettype" : [ "int", "bang" ],
					"patching_rect" : [ 632.0, 282.0, 50.0, 20.0 ],
					"fontsize" : 12.0
				}

			}
, 			{
				"box" : 				{
					"maxclass" : "newobj",
					"text" : "OMax.render raclette",
					"color" : [ 0.3, 1.0, 0.15, 1.0 ],
					"numinlets" : 1,
					"id" : "obj-45",
					"fontname" : "Arial",
					"numoutlets" : 5,
					"outlettype" : [ "bang", "", "list", "list", "int" ],
					"patching_rect" : [ 632.0, 313.0, 123.0, 20.0 ],
					"fontsize" : 12.0
				}

			}
, 			{
				"box" : 				{
					"maxclass" : "newobj",
					"text" : "s raclette-ctxt-max",
					"numinlets" : 1,
					"id" : "obj-5",
					"fontname" : "Arial",
					"numoutlets" : 0,
					"patching_rect" : [ 514.0, 560.0, 109.0, 20.0 ],
					"fontsize" : 12.0
				}

			}
, 			{
				"box" : 				{
					"maxclass" : "newobj",
					"text" : "i 0",
					"numinlets" : 2,
					"id" : "obj-3",
					"fontname" : "Arial",
					"numoutlets" : 1,
					"outlettype" : [ "int" ],
					"patching_rect" : [ 338.0, 428.0, 32.5, 20.0 ],
					"fontsize" : 12.0
				}

			}
, 			{
				"box" : 				{
					"maxclass" : "button",
					"numinlets" : 1,
					"id" : "obj-4",
					"numoutlets" : 1,
					"outlettype" : [ "bang" ],
					"patching_rect" : [ 338.0, 398.0, 20.0, 20.0 ]
				}

			}
, 			{
				"box" : 				{
					"maxclass" : "newobj",
					"text" : "r raclette-query",
					"numinlets" : 0,
					"id" : "obj-2",
					"fontname" : "Arial",
					"numoutlets" : 1,
					"outlettype" : [ "" ],
					"patching_rect" : [ 338.0, 371.0, 91.0, 20.0 ],
					"fontsize" : 12.0
				}

			}
, 			{
				"box" : 				{
					"maxclass" : "newobj",
					"text" : "s raclette-reset",
					"numinlets" : 1,
					"id" : "obj-74",
					"fontname" : "Arial",
					"numoutlets" : 0,
					"patching_rect" : [ 120.0, 302.0, 90.0, 20.0 ],
					"fontsize" : 12.0
				}

			}
, 			{
				"box" : 				{
					"maxclass" : "newobj",
					"text" : "s raclette-size",
					"numinlets" : 1,
					"id" : "obj-12",
					"fontname" : "Arial",
					"numoutlets" : 0,
					"patching_rect" : [ 338.0, 453.0, 85.0, 20.0 ],
					"fontsize" : 12.0
				}

			}
, 			{
				"box" : 				{
					"maxclass" : "message",
					"text" : "0",
					"numinlets" : 2,
					"id" : "obj-91",
					"fontname" : "Arial",
					"numoutlets" : 1,
					"outlettype" : [ "" ],
					"patching_rect" : [ 391.0, 318.0, 18.0, 18.0 ],
					"fontsize" : 12.0
				}

			}
, 			{
				"box" : 				{
					"maxclass" : "comment",
					"text" : "Highest context",
					"presentation_linecount" : 2,
					"numinlets" : 1,
					"presentation_rect" : [ 415.0, 87.0, 53.0, 34.0 ],
					"id" : "obj-82",
					"fontname" : "Arial",
					"numoutlets" : 0,
					"patching_rect" : [ 431.0, 483.0, 95.0, 20.0 ],
					"presentation" : 1,
					"fontsize" : 12.0
				}

			}
, 			{
				"box" : 				{
					"maxclass" : "number",
					"numinlets" : 1,
					"presentation_rect" : [ 465.0, 93.0, 50.0, 20.0 ],
					"id" : "obj-75",
					"fontname" : "Arial",
					"numoutlets" : 2,
					"outlettype" : [ "int", "bang" ],
					"patching_rect" : [ 528.0, 483.0, 50.0, 20.0 ],
					"presentation" : 1,
					"fontsize" : 12.0
				}

			}
, 			{
				"box" : 				{
					"maxclass" : "newobj",
					"text" : "peak",
					"numinlets" : 2,
					"id" : "obj-73",
					"fontname" : "Arial",
					"numoutlets" : 3,
					"outlettype" : [ "int", "int", "int" ],
					"patching_rect" : [ 528.0, 457.0, 46.0, 20.0 ],
					"fontsize" : 12.0
				}

			}
, 			{
				"box" : 				{
					"maxclass" : "newobj",
					"text" : "unpack 0 0",
					"numinlets" : 1,
					"id" : "obj-72",
					"fontname" : "Arial",
					"numoutlets" : 2,
					"outlettype" : [ "int", "int" ],
					"patching_rect" : [ 478.0, 431.0, 69.0, 20.0 ],
					"fontsize" : 12.0
				}

			}
, 			{
				"box" : 				{
					"maxclass" : "newobj",
					"text" : "OMax.read raclette",
					"color" : [ 0.3, 1.0, 0.15, 1.0 ],
					"numinlets" : 1,
					"presentation_rect" : [ 551.0, 103.0, 113.0, 20.0 ],
					"id" : "obj-63",
					"fontname" : "Arial",
					"numoutlets" : 5,
					"outlettype" : [ "bang", "list", "list", "list", "int" ],
					"patching_rect" : [ 431.0, 402.0, 113.0, 20.0 ],
					"presentation" : 1,
					"fontsize" : 12.0
				}

			}
, 			{
				"box" : 				{
					"maxclass" : "comment",
					"text" : "length",
					"numinlets" : 1,
					"presentation_rect" : [ 417.0, 62.0, 48.0, 20.0 ],
					"id" : "obj-26",
					"fontname" : "Arial",
					"numoutlets" : 0,
					"patching_rect" : [ 496.0, 344.0, 50.0, 20.0 ],
					"presentation" : 1,
					"fontsize" : 12.0
				}

			}
, 			{
				"box" : 				{
					"maxclass" : "comment",
					"text" : "generation interval (ms)",
					"presentation_linecount" : 2,
					"numinlets" : 1,
					"presentation_rect" : [ 315.0, 12.0, 75.0, 34.0 ],
					"id" : "obj-98",
					"fontname" : "Arial",
					"numoutlets" : 0,
					"patching_rect" : [ 504.0, 44.0, 150.0, 20.0 ],
					"presentation" : 1,
					"fontsize" : 12.0
				}

			}
, 			{
				"box" : 				{
					"maxclass" : "newobj",
					"text" : "loadmess set 10",
					"numinlets" : 1,
					"id" : "obj-95",
					"fontname" : "Arial",
					"numoutlets" : 1,
					"outlettype" : [ "" ],
					"patching_rect" : [ 451.0, 17.0, 98.0, 20.0 ],
					"fontsize" : 12.0
				}

			}
, 			{
				"box" : 				{
					"maxclass" : "number",
					"numinlets" : 1,
					"presentation_rect" : [ 396.0, 19.0, 50.0, 20.0 ],
					"id" : "obj-92",
					"fontname" : "Arial",
					"numoutlets" : 2,
					"outlettype" : [ "int", "bang" ],
					"patching_rect" : [ 451.0, 44.0, 50.0, 20.0 ],
					"presentation" : 1,
					"fontsize" : 12.0
				}

			}
, 			{
				"box" : 				{
					"maxclass" : "comment",
					"text" : "      generate >>\n12 letters oracle",
					"linecount" : 2,
					"presentation_linecount" : 2,
					"numinlets" : 1,
					"presentation_rect" : [ 158.0, 12.0, 95.0, 34.0 ],
					"id" : "obj-69",
					"fontname" : "Arial",
					"numoutlets" : 0,
					"patching_rect" : [ 79.0, 62.0, 95.0, 34.0 ],
					"presentation" : 1,
					"fontsize" : 12.0
				}

			}
, 			{
				"box" : 				{
					"maxclass" : "comment",
					"text" : "   generate >>\n3 letters oracle",
					"linecount" : 2,
					"presentation_linecount" : 2,
					"numinlets" : 1,
					"presentation_rect" : [ 14.0, 12.0, 90.0, 34.0 ],
					"id" : "obj-68",
					"fontname" : "Arial",
					"numoutlets" : 0,
					"patching_rect" : [ 158.0, 14.0, 90.0, 34.0 ],
					"presentation" : 1,
					"fontsize" : 12.0
				}

			}
, 			{
				"box" : 				{
					"maxclass" : "newobj",
					"text" : "sel 0 1 2",
					"numinlets" : 1,
					"id" : "obj-52",
					"fontname" : "Arial",
					"numoutlets" : 4,
					"outlettype" : [ "bang", "bang", "bang", "" ],
					"patching_rect" : [ 252.0, 134.0, 59.5, 20.0 ],
					"fontsize" : 12.0
				}

			}
, 			{
				"box" : 				{
					"maxclass" : "newobj",
					"text" : "random 3",
					"numinlets" : 2,
					"id" : "obj-30",
					"fontname" : "Arial",
					"numoutlets" : 1,
					"outlettype" : [ "int" ],
					"patching_rect" : [ 252.0, 106.0, 61.0, 20.0 ],
					"fontsize" : 12.0
				}

			}
, 			{
				"box" : 				{
					"maxclass" : "toggle",
					"numinlets" : 1,
					"presentation_rect" : [ 108.0, 10.0, 37.0, 37.0 ],
					"id" : "obj-46",
					"numoutlets" : 1,
					"outlettype" : [ "int" ],
					"patching_rect" : [ 252.0, 12.0, 37.0, 37.0 ],
					"presentation" : 1
				}

			}
, 			{
				"box" : 				{
					"maxclass" : "newobj",
					"text" : "metro 10",
					"numinlets" : 2,
					"id" : "obj-50",
					"fontname" : "Arial",
					"numoutlets" : 1,
					"outlettype" : [ "bang" ],
					"patching_rect" : [ 252.0, 79.0, 58.0, 20.0 ],
					"fontsize" : 12.0
				}

			}
, 			{
				"box" : 				{
					"maxclass" : "number",
					"numinlets" : 1,
					"presentation_rect" : [ 465.0, 64.0, 50.0, 20.0 ],
					"id" : "obj-6",
					"fontname" : "Arial",
					"numoutlets" : 2,
					"outlettype" : [ "int", "bang" ],
					"patching_rect" : [ 431.0, 344.0, 63.0, 20.0 ],
					"presentation" : 1,
					"fontsize" : 12.0
				}

			}
, 			{
				"box" : 				{
					"maxclass" : "button",
					"numinlets" : 1,
					"id" : "obj-27",
					"numoutlets" : 1,
					"outlettype" : [ "bang" ],
					"patching_rect" : [ 557.0, 189.0, 20.0, 20.0 ]
				}

			}
, 			{
				"box" : 				{
					"maxclass" : "button",
					"numinlets" : 1,
					"id" : "obj-28",
					"numoutlets" : 1,
					"outlettype" : [ "bang" ],
					"patching_rect" : [ 600.0, 189.0, 20.0, 20.0 ]
				}

			}
, 			{
				"box" : 				{
					"maxclass" : "button",
					"numinlets" : 1,
					"id" : "obj-29",
					"numoutlets" : 1,
					"outlettype" : [ "bang" ],
					"patching_rect" : [ 642.0, 189.0, 20.0, 20.0 ]
				}

			}
, 			{
				"box" : 				{
					"maxclass" : "message",
					"text" : "add l",
					"numinlets" : 2,
					"id" : "obj-31",
					"fontname" : "Arial",
					"numoutlets" : 1,
					"outlettype" : [ "" ],
					"patching_rect" : [ 642.0, 218.0, 37.0, 18.0 ],
					"fontsize" : 12.0
				}

			}
, 			{
				"box" : 				{
					"maxclass" : "message",
					"text" : "add k",
					"numinlets" : 2,
					"id" : "obj-33",
					"fontname" : "Arial",
					"numoutlets" : 1,
					"outlettype" : [ "" ],
					"patching_rect" : [ 600.0, 218.0, 40.0, 18.0 ],
					"fontsize" : 12.0
				}

			}
, 			{
				"box" : 				{
					"maxclass" : "message",
					"text" : "add j",
					"numinlets" : 2,
					"id" : "obj-44",
					"fontname" : "Arial",
					"numoutlets" : 1,
					"outlettype" : [ "" ],
					"patching_rect" : [ 557.0, 218.0, 37.0, 18.0 ],
					"fontsize" : 12.0
				}

			}
, 			{
				"box" : 				{
					"maxclass" : "button",
					"numinlets" : 1,
					"id" : "obj-21",
					"numoutlets" : 1,
					"outlettype" : [ "bang" ],
					"patching_rect" : [ 431.0, 189.0, 20.0, 20.0 ]
				}

			}
, 			{
				"box" : 				{
					"maxclass" : "button",
					"numinlets" : 1,
					"id" : "obj-24",
					"numoutlets" : 1,
					"outlettype" : [ "bang" ],
					"patching_rect" : [ 473.0, 189.0, 20.0, 20.0 ]
				}

			}
, 			{
				"box" : 				{
					"maxclass" : "button",
					"numinlets" : 1,
					"id" : "obj-25",
					"numoutlets" : 1,
					"outlettype" : [ "bang" ],
					"patching_rect" : [ 515.0, 189.0, 20.0, 20.0 ]
				}

			}
, 			{
				"box" : 				{
					"maxclass" : "button",
					"numinlets" : 1,
					"id" : "obj-17",
					"numoutlets" : 1,
					"outlettype" : [ "bang" ],
					"patching_rect" : [ 304.0, 189.0, 20.0, 20.0 ]
				}

			}
, 			{
				"box" : 				{
					"maxclass" : "button",
					"numinlets" : 1,
					"id" : "obj-7",
					"numoutlets" : 1,
					"outlettype" : [ "bang" ],
					"patching_rect" : [ 346.0, 189.0, 20.0, 20.0 ]
				}

			}
, 			{
				"box" : 				{
					"maxclass" : "button",
					"numinlets" : 1,
					"id" : "obj-19",
					"numoutlets" : 1,
					"outlettype" : [ "bang" ],
					"patching_rect" : [ 388.0, 189.0, 20.0, 20.0 ]
				}

			}
, 			{
				"box" : 				{
					"maxclass" : "newobj",
					"text" : "sel 0 1 2 3 4 5 6 7 8 9 10 11",
					"numinlets" : 1,
					"id" : "obj-43",
					"fontname" : "Arial",
					"numoutlets" : 13,
					"outlettype" : [ "bang", "bang", "bang", "bang", "bang", "bang", "bang", "bang", "bang", "bang", "bang", "bang", "" ],
					"patching_rect" : [ 177.0, 161.0, 526.0, 20.0 ],
					"fontsize" : 12.0
				}

			}
, 			{
				"box" : 				{
					"maxclass" : "message",
					"text" : "add i",
					"numinlets" : 2,
					"id" : "obj-42",
					"fontname" : "Arial",
					"numoutlets" : 1,
					"outlettype" : [ "" ],
					"patching_rect" : [ 515.0, 218.0, 37.0, 18.0 ],
					"fontsize" : 12.0
				}

			}
, 			{
				"box" : 				{
					"maxclass" : "message",
					"text" : "add h",
					"numinlets" : 2,
					"id" : "obj-41",
					"fontname" : "Arial",
					"numoutlets" : 1,
					"outlettype" : [ "" ],
					"patching_rect" : [ 473.0, 218.0, 41.0, 18.0 ],
					"fontsize" : 12.0
				}

			}
, 			{
				"box" : 				{
					"maxclass" : "message",
					"text" : "add g",
					"numinlets" : 2,
					"id" : "obj-40",
					"fontname" : "Arial",
					"numoutlets" : 1,
					"outlettype" : [ "" ],
					"patching_rect" : [ 431.0, 218.0, 41.0, 18.0 ],
					"fontsize" : 12.0
				}

			}
, 			{
				"box" : 				{
					"maxclass" : "message",
					"text" : "add f",
					"numinlets" : 2,
					"id" : "obj-39",
					"fontname" : "Arial",
					"numoutlets" : 1,
					"outlettype" : [ "" ],
					"patching_rect" : [ 388.0, 218.0, 37.0, 18.0 ],
					"fontsize" : 12.0
				}

			}
, 			{
				"box" : 				{
					"maxclass" : "message",
					"text" : "add e",
					"numinlets" : 2,
					"id" : "obj-37",
					"fontname" : "Arial",
					"numoutlets" : 1,
					"outlettype" : [ "" ],
					"patching_rect" : [ 346.0, 218.0, 41.0, 18.0 ],
					"fontsize" : 12.0
				}

			}
, 			{
				"box" : 				{
					"maxclass" : "message",
					"text" : "add d",
					"numinlets" : 2,
					"id" : "obj-34",
					"fontname" : "Arial",
					"numoutlets" : 1,
					"outlettype" : [ "" ],
					"patching_rect" : [ 304.0, 218.0, 41.0, 18.0 ],
					"fontsize" : 12.0
				}

			}
, 			{
				"box" : 				{
					"maxclass" : "button",
					"numinlets" : 1,
					"id" : "obj-23",
					"numoutlets" : 1,
					"outlettype" : [ "bang" ],
					"patching_rect" : [ 177.0, 189.0, 20.0, 20.0 ]
				}

			}
, 			{
				"box" : 				{
					"maxclass" : "message",
					"text" : "add c",
					"numinlets" : 2,
					"id" : "obj-8",
					"fontname" : "Arial",
					"numoutlets" : 1,
					"outlettype" : [ "" ],
					"patching_rect" : [ 262.0, 218.0, 40.0, 18.0 ],
					"fontsize" : 12.0
				}

			}
, 			{
				"box" : 				{
					"maxclass" : "button",
					"numinlets" : 1,
					"id" : "obj-22",
					"numoutlets" : 1,
					"outlettype" : [ "bang" ],
					"patching_rect" : [ 219.0, 189.0, 20.0, 20.0 ]
				}

			}
, 			{
				"box" : 				{
					"maxclass" : "button",
					"numinlets" : 1,
					"id" : "obj-20",
					"numoutlets" : 1,
					"outlettype" : [ "bang" ],
					"patching_rect" : [ 262.0, 189.0, 20.0, 20.0 ]
				}

			}
, 			{
				"box" : 				{
					"maxclass" : "newobj",
					"text" : "random 12",
					"numinlets" : 2,
					"id" : "obj-9",
					"fontname" : "Arial",
					"numoutlets" : 1,
					"outlettype" : [ "int" ],
					"patching_rect" : [ 177.0, 134.0, 68.0, 20.0 ],
					"fontsize" : 12.0
				}

			}
, 			{
				"box" : 				{
					"maxclass" : "toggle",
					"numinlets" : 1,
					"presentation_rect" : [ 256.0, 10.0, 37.0, 37.0 ],
					"id" : "obj-15",
					"numoutlets" : 1,
					"outlettype" : [ "int" ],
					"patching_rect" : [ 177.0, 60.0, 37.0, 37.0 ],
					"presentation" : 1
				}

			}
, 			{
				"box" : 				{
					"maxclass" : "newobj",
					"text" : "metro 10",
					"numinlets" : 2,
					"id" : "obj-13",
					"fontname" : "Arial",
					"numoutlets" : 1,
					"outlettype" : [ "bang" ],
					"patching_rect" : [ 177.0, 107.0, 58.0, 20.0 ],
					"fontsize" : 12.0
				}

			}
, 			{
				"box" : 				{
					"maxclass" : "newobj",
					"text" : "t b s",
					"numinlets" : 1,
					"id" : "obj-11",
					"fontname" : "Arial",
					"numoutlets" : 2,
					"outlettype" : [ "bang", "" ],
					"patching_rect" : [ 417.0, 277.0, 33.0, 20.0 ],
					"fontsize" : 12.0
				}

			}
, 			{
				"box" : 				{
					"maxclass" : "message",
					"text" : "add b",
					"numinlets" : 2,
					"id" : "obj-10",
					"fontname" : "Arial",
					"numoutlets" : 1,
					"outlettype" : [ "" ],
					"patching_rect" : [ 219.0, 218.0, 41.0, 18.0 ],
					"fontsize" : 12.0
				}

			}
, 			{
				"box" : 				{
					"maxclass" : "message",
					"text" : "add a",
					"numinlets" : 2,
					"id" : "obj-35",
					"fontname" : "Arial",
					"numoutlets" : 1,
					"outlettype" : [ "" ],
					"patching_rect" : [ 177.0, 218.0, 41.0, 18.0 ],
					"fontsize" : 12.0
				}

			}
, 			{
				"box" : 				{
					"maxclass" : "newobj",
					"text" : "OMax.learn raclette",
					"color" : [ 0.3, 1.0, 0.15, 1.0 ],
					"numinlets" : 1,
					"presentation_rect" : [ 551.0, 79.0, 115.0, 20.0 ],
					"id" : "obj-36",
					"fontname" : "Arial",
					"numoutlets" : 1,
					"outlettype" : [ "int" ],
					"patching_rect" : [ 431.0, 308.0, 115.0, 20.0 ],
					"presentation" : 1,
					"fontsize" : 12.0,
					"saved_object_attributes" : 					{
						"modulo" : 0
					}

				}

			}
, 			{
				"box" : 				{
					"maxclass" : "message",
					"text" : "write",
					"numinlets" : 2,
					"presentation_rect" : [ 71.0, 62.0, 36.0, 18.0 ],
					"id" : "obj-18",
					"fontname" : "Arial",
					"numoutlets" : 1,
					"outlettype" : [ "" ],
					"patching_rect" : [ 165.0, 343.0, 36.0, 18.0 ],
					"presentation" : 1,
					"fontsize" : 12.0
				}

			}
, 			{
				"box" : 				{
					"maxclass" : "message",
					"text" : "reset",
					"numinlets" : 2,
					"presentation_rect" : [ 19.0, 62.0, 37.0, 18.0 ],
					"id" : "obj-16",
					"fontname" : "Arial",
					"numoutlets" : 1,
					"outlettype" : [ "" ],
					"patching_rect" : [ 120.0, 270.0, 37.0, 18.0 ],
					"presentation" : 1,
					"fontsize" : 12.0
				}

			}
, 			{
				"box" : 				{
					"maxclass" : "message",
					"text" : "write OMaxTest.dot",
					"numinlets" : 2,
					"id" : "obj-14",
					"fontname" : "Arial",
					"numoutlets" : 1,
					"outlettype" : [ "" ],
					"patching_rect" : [ 205.0, 343.0, 113.0, 18.0 ],
					"fontsize" : 12.0
				}

			}
, 			{
				"box" : 				{
					"maxclass" : "newobj",
					"text" : "print oracle",
					"numinlets" : 1,
					"id" : "obj-55",
					"fontname" : "Arial",
					"numoutlets" : 0,
					"patching_rect" : [ 165.0, 406.0, 70.0, 20.0 ],
					"fontsize" : 12.0
				}

			}
, 			{
				"box" : 				{
					"maxclass" : "message",
					"text" : "init",
					"numinlets" : 2,
					"id" : "obj-58",
					"fontname" : "Arial",
					"numoutlets" : 1,
					"outlettype" : [ "" ],
					"patching_rect" : [ 75.0, 270.0, 32.5, 18.0 ],
					"fontsize" : 12.0
				}

			}
, 			{
				"box" : 				{
					"maxclass" : "message",
					"text" : "size",
					"numinlets" : 2,
					"id" : "obj-61",
					"fontname" : "Arial",
					"numoutlets" : 1,
					"outlettype" : [ "" ],
					"patching_rect" : [ 32.0, 270.0, 32.5, 18.0 ],
					"fontsize" : 12.0
				}

			}
, 			{
				"box" : 				{
					"maxclass" : "newobj",
					"text" : "print data",
					"numinlets" : 1,
					"id" : "obj-65",
					"fontname" : "Arial",
					"numoutlets" : 0,
					"patching_rect" : [ 46.0, 406.0, 61.0, 20.0 ],
					"fontsize" : 12.0
				}

			}
, 			{
				"box" : 				{
					"maxclass" : "newobj",
					"text" : "OMax.oracle raclette",
					"color" : [ 0.3, 1.0, 0.15, 1.0 ],
					"numinlets" : 1,
					"presentation_rect" : [ 551.0, 30.0, 121.0, 20.0 ],
					"id" : "obj-67",
					"fontname" : "Arial",
					"numoutlets" : 1,
					"outlettype" : [ "" ],
					"patching_rect" : [ 165.0, 377.0, 121.0, 20.0 ],
					"presentation" : 1,
					"fontsize" : 12.0
				}

			}
, 			{
				"box" : 				{
					"maxclass" : "newobj",
					"text" : "OMax.data raclette",
					"color" : [ 0.3, 1.0, 0.15, 1.0 ],
					"numinlets" : 1,
					"presentation_rect" : [ 551.0, 54.0, 112.0, 20.0 ],
					"id" : "obj-70",
					"fontname" : "Arial",
					"numoutlets" : 1,
					"outlettype" : [ "" ],
					"patching_rect" : [ 46.0, 377.0, 112.0, 20.0 ],
					"presentation" : 1,
					"fontsize" : 12.0
				}

			}
, 			{
				"box" : 				{
					"maxclass" : "message",
					"text" : "read",
					"numinlets" : 2,
					"id" : "obj-54",
					"fontname" : "Arial",
					"numoutlets" : 1,
					"outlettype" : [ "" ],
					"patching_rect" : [ 269.0, 308.0, 35.0, 18.0 ],
					"fontsize" : 12.0
				}

			}
, 			{
				"box" : 				{
					"maxclass" : "message",
					"text" : "phrases",
					"numinlets" : 2,
					"id" : "obj-64",
					"fontname" : "Arial",
					"numoutlets" : 1,
					"outlettype" : [ "" ],
					"patching_rect" : [ 685.0, 283.0, 51.0, 18.0 ],
					"fontsize" : 12.0
				}

			}
 ],
		"lines" : [ 			{
				"patchline" : 				{
					"source" : [ "obj-2", 0 ],
					"destination" : [ "obj-60", 0 ],
					"hidden" : 0,
					"midpoints" : [  ]
				}

			}
, 			{
				"patchline" : 				{
					"source" : [ "obj-132", 0 ],
					"destination" : [ "obj-122", 1 ],
					"hidden" : 0,
					"midpoints" : [  ]
				}

			}
, 			{
				"patchline" : 				{
					"source" : [ "obj-128", 0 ],
					"destination" : [ "obj-122", 2 ],
					"hidden" : 0,
					"midpoints" : [  ]
				}

			}
, 			{
				"patchline" : 				{
					"source" : [ "obj-126", 0 ],
					"destination" : [ "obj-122", 2 ],
					"hidden" : 0,
					"midpoints" : [  ]
				}

			}
, 			{
				"patchline" : 				{
					"source" : [ "obj-87", 0 ],
					"destination" : [ "obj-122", 0 ],
					"hidden" : 0,
					"midpoints" : [  ]
				}

			}
, 			{
				"patchline" : 				{
					"source" : [ "obj-83", 2 ],
					"destination" : [ "obj-81", 0 ],
					"hidden" : 0,
					"midpoints" : [  ]
				}

			}
, 			{
				"patchline" : 				{
					"source" : [ "obj-83", 0 ],
					"destination" : [ "obj-81", 0 ],
					"hidden" : 0,
					"midpoints" : [  ]
				}

			}
, 			{
				"patchline" : 				{
					"source" : [ "obj-84", 0 ],
					"destination" : [ "obj-83", 0 ],
					"hidden" : 0,
					"midpoints" : [  ]
				}

			}
, 			{
				"patchline" : 				{
					"source" : [ "obj-77", 0 ],
					"destination" : [ "obj-70", 0 ],
					"hidden" : 0,
					"midpoints" : [  ]
				}

			}
, 			{
				"patchline" : 				{
					"source" : [ "obj-71", 0 ],
					"destination" : [ "obj-70", 0 ],
					"hidden" : 0,
					"midpoints" : [  ]
				}

			}
, 			{
				"patchline" : 				{
					"source" : [ "obj-59", 2 ],
					"destination" : [ "obj-6", 0 ],
					"hidden" : 0,
					"midpoints" : [  ]
				}

			}
, 			{
				"patchline" : 				{
					"source" : [ "obj-62", 0 ],
					"destination" : [ "obj-59", 0 ],
					"hidden" : 0,
					"midpoints" : [  ]
				}

			}
, 			{
				"patchline" : 				{
					"source" : [ "obj-67", 0 ],
					"destination" : [ "obj-59", 1 ],
					"hidden" : 0,
					"midpoints" : [  ]
				}

			}
, 			{
				"patchline" : 				{
					"source" : [ "obj-54", 0 ],
					"destination" : [ "obj-67", 0 ],
					"hidden" : 0,
					"midpoints" : [  ]
				}

			}
, 			{
				"patchline" : 				{
					"source" : [ "obj-45", 3 ],
					"destination" : [ "obj-32", 0 ],
					"hidden" : 0,
					"midpoints" : [  ]
				}

			}
, 			{
				"patchline" : 				{
					"source" : [ "obj-60", 0 ],
					"destination" : [ "obj-57", 0 ],
					"hidden" : 0,
					"midpoints" : [  ]
				}

			}
, 			{
				"patchline" : 				{
					"source" : [ "obj-57", 0 ],
					"destination" : [ "obj-5", 0 ],
					"hidden" : 0,
					"midpoints" : [  ]
				}

			}
, 			{
				"patchline" : 				{
					"source" : [ "obj-75", 0 ],
					"destination" : [ "obj-57", 1 ],
					"hidden" : 0,
					"midpoints" : [  ]
				}

			}
, 			{
				"patchline" : 				{
					"source" : [ "obj-16", 0 ],
					"destination" : [ "obj-74", 0 ],
					"hidden" : 0,
					"midpoints" : [  ]
				}

			}
, 			{
				"patchline" : 				{
					"source" : [ "obj-53", 1 ],
					"destination" : [ "obj-67", 0 ],
					"hidden" : 0,
					"midpoints" : [  ]
				}

			}
, 			{
				"patchline" : 				{
					"source" : [ "obj-53", 1 ],
					"destination" : [ "obj-70", 0 ],
					"hidden" : 0,
					"midpoints" : [  ]
				}

			}
, 			{
				"patchline" : 				{
					"source" : [ "obj-61", 0 ],
					"destination" : [ "obj-53", 0 ],
					"hidden" : 0,
					"midpoints" : [  ]
				}

			}
, 			{
				"patchline" : 				{
					"source" : [ "obj-58", 0 ],
					"destination" : [ "obj-53", 0 ],
					"hidden" : 0,
					"midpoints" : [  ]
				}

			}
, 			{
				"patchline" : 				{
					"source" : [ "obj-16", 0 ],
					"destination" : [ "obj-53", 0 ],
					"hidden" : 0,
					"midpoints" : [  ]
				}

			}
, 			{
				"patchline" : 				{
					"source" : [ "obj-45", 1 ],
					"destination" : [ "obj-32", 0 ],
					"hidden" : 0,
					"midpoints" : [  ]
				}

			}
, 			{
				"patchline" : 				{
					"source" : [ "obj-45", 4 ],
					"destination" : [ "obj-32", 0 ],
					"hidden" : 0,
					"midpoints" : [  ]
				}

			}
, 			{
				"patchline" : 				{
					"source" : [ "obj-38", 0 ],
					"destination" : [ "obj-45", 0 ],
					"hidden" : 0,
					"midpoints" : [  ]
				}

			}
, 			{
				"patchline" : 				{
					"source" : [ "obj-91", 0 ],
					"destination" : [ "obj-3", 0 ],
					"hidden" : 0,
					"midpoints" : [  ]
				}

			}
, 			{
				"patchline" : 				{
					"source" : [ "obj-6", 0 ],
					"destination" : [ "obj-63", 0 ],
					"hidden" : 0,
					"midpoints" : [  ]
				}

			}
, 			{
				"patchline" : 				{
					"source" : [ "obj-36", 0 ],
					"destination" : [ "obj-3", 0 ],
					"hidden" : 0,
					"midpoints" : [  ]
				}

			}
, 			{
				"patchline" : 				{
					"source" : [ "obj-4", 0 ],
					"destination" : [ "obj-3", 0 ],
					"hidden" : 0,
					"midpoints" : [  ]
				}

			}
, 			{
				"patchline" : 				{
					"source" : [ "obj-3", 0 ],
					"destination" : [ "obj-12", 0 ],
					"hidden" : 0,
					"midpoints" : [  ]
				}

			}
, 			{
				"patchline" : 				{
					"source" : [ "obj-63", 2 ],
					"destination" : [ "obj-72", 0 ],
					"hidden" : 0,
					"midpoints" : [  ]
				}

			}
, 			{
				"patchline" : 				{
					"source" : [ "obj-36", 0 ],
					"destination" : [ "obj-6", 0 ],
					"hidden" : 0,
					"midpoints" : [  ]
				}

			}
, 			{
				"patchline" : 				{
					"source" : [ "obj-18", 0 ],
					"destination" : [ "obj-67", 0 ],
					"hidden" : 0,
					"midpoints" : [  ]
				}

			}
, 			{
				"patchline" : 				{
					"source" : [ "obj-14", 0 ],
					"destination" : [ "obj-67", 0 ],
					"hidden" : 0,
					"midpoints" : [  ]
				}

			}
, 			{
				"patchline" : 				{
					"source" : [ "obj-67", 0 ],
					"destination" : [ "obj-55", 0 ],
					"hidden" : 0,
					"midpoints" : [  ]
				}

			}
, 			{
				"patchline" : 				{
					"source" : [ "obj-70", 0 ],
					"destination" : [ "obj-65", 0 ],
					"hidden" : 0,
					"midpoints" : [  ]
				}

			}
, 			{
				"patchline" : 				{
					"source" : [ "obj-42", 0 ],
					"destination" : [ "obj-11", 0 ],
					"hidden" : 0,
					"midpoints" : [  ]
				}

			}
, 			{
				"patchline" : 				{
					"source" : [ "obj-41", 0 ],
					"destination" : [ "obj-11", 0 ],
					"hidden" : 0,
					"midpoints" : [  ]
				}

			}
, 			{
				"patchline" : 				{
					"source" : [ "obj-40", 0 ],
					"destination" : [ "obj-11", 0 ],
					"hidden" : 0,
					"midpoints" : [  ]
				}

			}
, 			{
				"patchline" : 				{
					"source" : [ "obj-39", 0 ],
					"destination" : [ "obj-11", 0 ],
					"hidden" : 0,
					"midpoints" : [  ]
				}

			}
, 			{
				"patchline" : 				{
					"source" : [ "obj-37", 0 ],
					"destination" : [ "obj-11", 0 ],
					"hidden" : 0,
					"midpoints" : [  ]
				}

			}
, 			{
				"patchline" : 				{
					"source" : [ "obj-34", 0 ],
					"destination" : [ "obj-11", 0 ],
					"hidden" : 0,
					"midpoints" : [  ]
				}

			}
, 			{
				"patchline" : 				{
					"source" : [ "obj-20", 0 ],
					"destination" : [ "obj-8", 0 ],
					"hidden" : 0,
					"midpoints" : [  ]
				}

			}
, 			{
				"patchline" : 				{
					"source" : [ "obj-22", 0 ],
					"destination" : [ "obj-10", 0 ],
					"hidden" : 0,
					"midpoints" : [  ]
				}

			}
, 			{
				"patchline" : 				{
					"source" : [ "obj-23", 0 ],
					"destination" : [ "obj-35", 0 ],
					"hidden" : 0,
					"midpoints" : [  ]
				}

			}
, 			{
				"patchline" : 				{
					"source" : [ "obj-11", 1 ],
					"destination" : [ "obj-36", 0 ],
					"hidden" : 0,
					"midpoints" : [  ]
				}

			}
, 			{
				"patchline" : 				{
					"source" : [ "obj-8", 0 ],
					"destination" : [ "obj-11", 0 ],
					"hidden" : 0,
					"midpoints" : [  ]
				}

			}
, 			{
				"patchline" : 				{
					"source" : [ "obj-35", 0 ],
					"destination" : [ "obj-11", 0 ],
					"hidden" : 0,
					"midpoints" : [  ]
				}

			}
, 			{
				"patchline" : 				{
					"source" : [ "obj-10", 0 ],
					"destination" : [ "obj-11", 0 ],
					"hidden" : 0,
					"midpoints" : [  ]
				}

			}
, 			{
				"patchline" : 				{
					"source" : [ "obj-17", 0 ],
					"destination" : [ "obj-34", 0 ],
					"hidden" : 0,
					"midpoints" : [  ]
				}

			}
, 			{
				"patchline" : 				{
					"source" : [ "obj-7", 0 ],
					"destination" : [ "obj-37", 0 ],
					"hidden" : 0,
					"midpoints" : [  ]
				}

			}
, 			{
				"patchline" : 				{
					"source" : [ "obj-19", 0 ],
					"destination" : [ "obj-39", 0 ],
					"hidden" : 0,
					"midpoints" : [  ]
				}

			}
, 			{
				"patchline" : 				{
					"source" : [ "obj-21", 0 ],
					"destination" : [ "obj-40", 0 ],
					"hidden" : 0,
					"midpoints" : [  ]
				}

			}
, 			{
				"patchline" : 				{
					"source" : [ "obj-24", 0 ],
					"destination" : [ "obj-41", 0 ],
					"hidden" : 0,
					"midpoints" : [  ]
				}

			}
, 			{
				"patchline" : 				{
					"source" : [ "obj-25", 0 ],
					"destination" : [ "obj-42", 0 ],
					"hidden" : 0,
					"midpoints" : [  ]
				}

			}
, 			{
				"patchline" : 				{
					"source" : [ "obj-29", 0 ],
					"destination" : [ "obj-31", 0 ],
					"hidden" : 0,
					"midpoints" : [  ]
				}

			}
, 			{
				"patchline" : 				{
					"source" : [ "obj-28", 0 ],
					"destination" : [ "obj-33", 0 ],
					"hidden" : 0,
					"midpoints" : [  ]
				}

			}
, 			{
				"patchline" : 				{
					"source" : [ "obj-27", 0 ],
					"destination" : [ "obj-44", 0 ],
					"hidden" : 0,
					"midpoints" : [  ]
				}

			}
, 			{
				"patchline" : 				{
					"source" : [ "obj-44", 0 ],
					"destination" : [ "obj-11", 0 ],
					"hidden" : 0,
					"midpoints" : [  ]
				}

			}
, 			{
				"patchline" : 				{
					"source" : [ "obj-33", 0 ],
					"destination" : [ "obj-11", 0 ],
					"hidden" : 0,
					"midpoints" : [  ]
				}

			}
, 			{
				"patchline" : 				{
					"source" : [ "obj-31", 0 ],
					"destination" : [ "obj-11", 0 ],
					"hidden" : 0,
					"midpoints" : [  ]
				}

			}
, 			{
				"patchline" : 				{
					"source" : [ "obj-43", 11 ],
					"destination" : [ "obj-29", 0 ],
					"hidden" : 0,
					"midpoints" : [  ]
				}

			}
, 			{
				"patchline" : 				{
					"source" : [ "obj-43", 10 ],
					"destination" : [ "obj-28", 0 ],
					"hidden" : 0,
					"midpoints" : [  ]
				}

			}
, 			{
				"patchline" : 				{
					"source" : [ "obj-43", 9 ],
					"destination" : [ "obj-27", 0 ],
					"hidden" : 0,
					"midpoints" : [  ]
				}

			}
, 			{
				"patchline" : 				{
					"source" : [ "obj-43", 8 ],
					"destination" : [ "obj-25", 0 ],
					"hidden" : 0,
					"midpoints" : [  ]
				}

			}
, 			{
				"patchline" : 				{
					"source" : [ "obj-43", 7 ],
					"destination" : [ "obj-24", 0 ],
					"hidden" : 0,
					"midpoints" : [  ]
				}

			}
, 			{
				"patchline" : 				{
					"source" : [ "obj-43", 6 ],
					"destination" : [ "obj-21", 0 ],
					"hidden" : 0,
					"midpoints" : [  ]
				}

			}
, 			{
				"patchline" : 				{
					"source" : [ "obj-43", 5 ],
					"destination" : [ "obj-19", 0 ],
					"hidden" : 0,
					"midpoints" : [  ]
				}

			}
, 			{
				"patchline" : 				{
					"source" : [ "obj-43", 4 ],
					"destination" : [ "obj-7", 0 ],
					"hidden" : 0,
					"midpoints" : [  ]
				}

			}
, 			{
				"patchline" : 				{
					"source" : [ "obj-43", 3 ],
					"destination" : [ "obj-17", 0 ],
					"hidden" : 0,
					"midpoints" : [  ]
				}

			}
, 			{
				"patchline" : 				{
					"source" : [ "obj-43", 2 ],
					"destination" : [ "obj-20", 0 ],
					"hidden" : 0,
					"midpoints" : [  ]
				}

			}
, 			{
				"patchline" : 				{
					"source" : [ "obj-43", 1 ],
					"destination" : [ "obj-22", 0 ],
					"hidden" : 0,
					"midpoints" : [  ]
				}

			}
, 			{
				"patchline" : 				{
					"source" : [ "obj-43", 0 ],
					"destination" : [ "obj-23", 0 ],
					"hidden" : 0,
					"midpoints" : [  ]
				}

			}
, 			{
				"patchline" : 				{
					"source" : [ "obj-9", 0 ],
					"destination" : [ "obj-43", 0 ],
					"hidden" : 0,
					"midpoints" : [  ]
				}

			}
, 			{
				"patchline" : 				{
					"source" : [ "obj-30", 0 ],
					"destination" : [ "obj-52", 0 ],
					"hidden" : 0,
					"midpoints" : [  ]
				}

			}
, 			{
				"patchline" : 				{
					"source" : [ "obj-52", 0 ],
					"destination" : [ "obj-23", 0 ],
					"hidden" : 0,
					"midpoints" : [  ]
				}

			}
, 			{
				"patchline" : 				{
					"source" : [ "obj-52", 1 ],
					"destination" : [ "obj-22", 0 ],
					"hidden" : 0,
					"midpoints" : [  ]
				}

			}
, 			{
				"patchline" : 				{
					"source" : [ "obj-52", 2 ],
					"destination" : [ "obj-20", 0 ],
					"hidden" : 0,
					"midpoints" : [  ]
				}

			}
, 			{
				"patchline" : 				{
					"source" : [ "obj-95", 0 ],
					"destination" : [ "obj-92", 0 ],
					"hidden" : 0,
					"midpoints" : [  ]
				}

			}
, 			{
				"patchline" : 				{
					"source" : [ "obj-72", 1 ],
					"destination" : [ "obj-73", 0 ],
					"hidden" : 0,
					"midpoints" : [  ]
				}

			}
, 			{
				"patchline" : 				{
					"source" : [ "obj-73", 0 ],
					"destination" : [ "obj-75", 0 ],
					"hidden" : 0,
					"midpoints" : [  ]
				}

			}
, 			{
				"patchline" : 				{
					"source" : [ "obj-16", 0 ],
					"destination" : [ "obj-91", 0 ],
					"hidden" : 0,
					"midpoints" : [ 129.5, 294.0, 398.0, 294.0 ]
				}

			}
, 			{
				"patchline" : 				{
					"source" : [ "obj-91", 0 ],
					"destination" : [ "obj-6", 0 ],
					"hidden" : 0,
					"midpoints" : [ 400.5, 337.0, 440.5, 337.0 ]
				}

			}
, 			{
				"patchline" : 				{
					"source" : [ "obj-91", 0 ],
					"destination" : [ "obj-73", 1 ],
					"hidden" : 0,
					"midpoints" : [ 400.5, 337.0, 564.5, 337.0 ]
				}

			}
, 			{
				"patchline" : 				{
					"source" : [ "obj-2", 0 ],
					"destination" : [ "obj-4", 0 ],
					"hidden" : 0,
					"midpoints" : [  ]
				}

			}
, 			{
				"patchline" : 				{
					"source" : [ "obj-46", 0 ],
					"destination" : [ "obj-50", 0 ],
					"hidden" : 0,
					"midpoints" : [  ]
				}

			}
, 			{
				"patchline" : 				{
					"source" : [ "obj-50", 0 ],
					"destination" : [ "obj-30", 0 ],
					"hidden" : 0,
					"midpoints" : [  ]
				}

			}
, 			{
				"patchline" : 				{
					"source" : [ "obj-92", 0 ],
					"destination" : [ "obj-50", 1 ],
					"hidden" : 0,
					"midpoints" : [ 460.5, 71.5, 300.5, 71.5 ]
				}

			}
, 			{
				"patchline" : 				{
					"source" : [ "obj-13", 0 ],
					"destination" : [ "obj-9", 0 ],
					"hidden" : 0,
					"midpoints" : [  ]
				}

			}
, 			{
				"patchline" : 				{
					"source" : [ "obj-15", 0 ],
					"destination" : [ "obj-13", 0 ],
					"hidden" : 0,
					"midpoints" : [  ]
				}

			}
, 			{
				"patchline" : 				{
					"source" : [ "obj-92", 0 ],
					"destination" : [ "obj-13", 1 ],
					"hidden" : 0,
					"midpoints" : [ 460.5, 71.5, 225.5, 71.5 ]
				}

			}
, 			{
				"patchline" : 				{
					"source" : [ "obj-45", 2 ],
					"destination" : [ "obj-32", 0 ],
					"hidden" : 0,
					"midpoints" : [  ]
				}

			}
, 			{
				"patchline" : 				{
					"source" : [ "obj-45", 0 ],
					"destination" : [ "obj-32", 0 ],
					"hidden" : 0,
					"midpoints" : [  ]
				}

			}
, 			{
				"patchline" : 				{
					"source" : [ "obj-56", 0 ],
					"destination" : [ "obj-67", 0 ],
					"hidden" : 0,
					"midpoints" : [  ]
				}

			}
, 			{
				"patchline" : 				{
					"source" : [ "obj-64", 0 ],
					"destination" : [ "obj-45", 0 ],
					"hidden" : 0,
					"midpoints" : [  ]
				}

			}
, 			{
				"patchline" : 				{
					"source" : [ "obj-66", 0 ],
					"destination" : [ "obj-70", 0 ],
					"hidden" : 0,
					"midpoints" : [  ]
				}

			}
, 			{
				"patchline" : 				{
					"source" : [ "obj-80", 0 ],
					"destination" : [ "obj-70", 0 ],
					"hidden" : 0,
					"midpoints" : [  ]
				}

			}
, 			{
				"patchline" : 				{
					"source" : [ "obj-76", 0 ],
					"destination" : [ "obj-80", 0 ],
					"hidden" : 0,
					"midpoints" : [  ]
				}

			}
, 			{
				"patchline" : 				{
					"source" : [ "obj-3", 0 ],
					"destination" : [ "obj-49", 0 ],
					"hidden" : 0,
					"midpoints" : [  ]
				}

			}
, 			{
				"patchline" : 				{
					"source" : [ "obj-3", 0 ],
					"destination" : [ "obj-51", 0 ],
					"hidden" : 0,
					"midpoints" : [  ]
				}

			}
, 			{
				"patchline" : 				{
					"source" : [ "obj-3", 0 ],
					"destination" : [ "obj-47", 0 ],
					"hidden" : 0,
					"midpoints" : [  ]
				}

			}
, 			{
				"patchline" : 				{
					"source" : [ "obj-1", 2 ],
					"destination" : [ "obj-117", 0 ],
					"hidden" : 0,
					"midpoints" : [  ]
				}

			}
, 			{
				"patchline" : 				{
					"source" : [ "obj-117", 0 ],
					"destination" : [ "obj-119", 0 ],
					"hidden" : 0,
					"midpoints" : [  ]
				}

			}
, 			{
				"patchline" : 				{
					"source" : [ "obj-119", 0 ],
					"destination" : [ "obj-99", 0 ],
					"hidden" : 0,
					"midpoints" : [  ]
				}

			}
, 			{
				"patchline" : 				{
					"source" : [ "obj-83", 4 ],
					"destination" : [ "obj-81", 0 ],
					"hidden" : 0,
					"midpoints" : [  ]
				}

			}
, 			{
				"patchline" : 				{
					"source" : [ "obj-3", 0 ],
					"destination" : [ "obj-87", 0 ],
					"hidden" : 0,
					"midpoints" : [  ]
				}

			}
, 			{
				"patchline" : 				{
					"source" : [ "obj-16", 0 ],
					"destination" : [ "obj-124", 0 ],
					"hidden" : 0,
					"midpoints" : [  ]
				}

			}
, 			{
				"patchline" : 				{
					"source" : [ "obj-124", 0 ],
					"destination" : [ "obj-87", 1 ],
					"hidden" : 0,
					"midpoints" : [  ]
				}

			}
, 			{
				"patchline" : 				{
					"source" : [ "obj-117", 0 ],
					"destination" : [ "obj-130", 0 ],
					"hidden" : 0,
					"midpoints" : [  ]
				}

			}
, 			{
				"patchline" : 				{
					"source" : [ "obj-16", 0 ],
					"destination" : [ "obj-128", 0 ],
					"hidden" : 0,
					"midpoints" : [  ]
				}

			}
 ]
	}

}
