{
	"patcher" : 	{
		"fileversion" : 1,
		"rect" : [ 64.0, 80.0, 857.0, 606.0 ],
		"bglocked" : 0,
		"defrect" : [ 64.0, 80.0, 857.0, 606.0 ],
		"openrect" : [ 0.0, 0.0, 0.0, 0.0 ],
		"openinpresentation" : 0,
		"default_fontsize" : 12.0,
		"default_fontface" : 0,
		"default_fontname" : "Arial",
		"gridonopen" : 0,
		"gridsize" : [ 5.0, 5.0 ],
		"gridsnaponopen" : 0,
		"toolbarvisible" : 1,
		"boxanimatetime" : 200,
		"imprint" : 0,
		"enablehscroll" : 1,
		"enablevscroll" : 1,
		"devicewidth" : 0.0,
		"boxes" : [ 			{
				"box" : 				{
					"maxclass" : "newobj",
					"text" : "* 1.",
					"fontname" : "Arial",
					"fontsize" : 12.0,
					"numinlets" : 2,
					"numoutlets" : 1,
					"patching_rect" : [ 259.0, 269.0, 32.5, 20.0 ],
					"id" : "obj-10",
					"outlettype" : [ "float" ]
				}

			}
, 			{
				"box" : 				{
					"maxclass" : "newobj",
					"text" : "t -1.",
					"fontname" : "Arial",
					"fontsize" : 12.0,
					"numinlets" : 1,
					"numoutlets" : 1,
					"patching_rect" : [ 377.0, 151.0, 31.0, 20.0 ],
					"id" : "obj-27",
					"outlettype" : [ "float" ]
				}

			}
, 			{
				"box" : 				{
					"maxclass" : "newobj",
					"text" : "t 1.",
					"fontname" : "Arial",
					"fontsize" : 12.0,
					"numinlets" : 1,
					"numoutlets" : 1,
					"patching_rect" : [ 393.0, 127.0, 27.0, 20.0 ],
					"id" : "obj-24",
					"outlettype" : [ "float" ]
				}

			}
, 			{
				"box" : 				{
					"maxclass" : "newobj",
					"text" : "sel -1 1",
					"fontname" : "Arial",
					"fontsize" : 12.0,
					"numinlets" : 1,
					"numoutlets" : 3,
					"patching_rect" : [ 377.0, 101.0, 50.0, 20.0 ],
					"id" : "obj-17",
					"outlettype" : [ "bang", "bang", "" ]
				}

			}
, 			{
				"box" : 				{
					"maxclass" : "newobj",
					"text" : "loadmess #3",
					"fontname" : "Arial",
					"fontsize" : 12.0,
					"numinlets" : 1,
					"numoutlets" : 1,
					"patching_rect" : [ 377.0, 74.0, 79.0, 20.0 ],
					"id" : "obj-7",
					"outlettype" : [ "" ]
				}

			}
, 			{
				"box" : 				{
					"maxclass" : "newobj",
					"text" : "r #2-zoom",
					"fontname" : "Arial",
					"fontsize" : 12.0,
					"numinlets" : 0,
					"color" : [ 0.74902, 0.792157, 0.929412, 1.0 ],
					"numoutlets" : 1,
					"patching_rect" : [ 259.0, 156.0, 65.0, 20.0 ],
					"id" : "obj-22",
					"outlettype" : [ "" ]
				}

			}
, 			{
				"box" : 				{
					"maxclass" : "newobj",
					"text" : "maximum 1.5",
					"fontname" : "Arial",
					"fontsize" : 12.0,
					"numinlets" : 2,
					"numoutlets" : 2,
					"patching_rect" : [ 259.0, 236.0, 83.0, 20.0 ],
					"id" : "obj-23",
					"outlettype" : [ "float", "int" ]
				}

			}
, 			{
				"box" : 				{
					"maxclass" : "newobj",
					"text" : "* 0.05",
					"fontname" : "Arial",
					"fontsize" : 12.0,
					"numinlets" : 2,
					"numoutlets" : 1,
					"patching_rect" : [ 259.0, 205.0, 42.0, 20.0 ],
					"id" : "obj-28",
					"outlettype" : [ "float" ]
				}

			}
, 			{
				"box" : 				{
					"maxclass" : "button",
					"numinlets" : 1,
					"numoutlets" : 1,
					"patching_rect" : [ 318.0, 385.0, 20.0, 20.0 ],
					"id" : "obj-155",
					"outlettype" : [ "bang" ]
				}

			}
, 			{
				"box" : 				{
					"maxclass" : "newobj",
					"text" : "r #1-reset",
					"fontname" : "Arial",
					"fontsize" : 12.0,
					"numinlets" : 0,
					"color" : [ 0.0, 0.85098, 1.0, 1.0 ],
					"numoutlets" : 1,
					"patching_rect" : [ 318.0, 361.0, 62.0, 20.0 ],
					"id" : "obj-2",
					"outlettype" : [ "" ]
				}

			}
, 			{
				"box" : 				{
					"maxclass" : "inlet",
					"numinlets" : 0,
					"numoutlets" : 1,
					"patching_rect" : [ 400.0, 359.0, 25.0, 25.0 ],
					"id" : "obj-49",
					"outlettype" : [ "" ],
					"comment" : "Enable"
				}

			}
, 			{
				"box" : 				{
					"maxclass" : "inlet",
					"numinlets" : 0,
					"numoutlets" : 1,
					"patching_rect" : [ 288.0, 371.0, 25.0, 25.0 ],
					"id" : "obj-48",
					"outlettype" : [ "" ],
					"comment" : "Reset"
				}

			}
, 			{
				"box" : 				{
					"maxclass" : "newobj",
					"text" : "t l",
					"fontname" : "Arial",
					"fontsize" : 12.0,
					"numinlets" : 1,
					"numoutlets" : 1,
					"patching_rect" : [ 80.0, 435.0, 20.0, 20.0 ],
					"id" : "obj-42",
					"outlettype" : [ "" ]
				}

			}
, 			{
				"box" : 				{
					"maxclass" : "newobj",
					"text" : "gate 2",
					"fontname" : "Arial",
					"fontsize" : 12.0,
					"numinlets" : 2,
					"numoutlets" : 2,
					"patching_rect" : [ 80.0, 362.0, 44.0, 20.0 ],
					"id" : "obj-41",
					"outlettype" : [ "", "" ]
				}

			}
, 			{
				"box" : 				{
					"maxclass" : "message",
					"text" : "glcolor 0. 1. 0. 0.25",
					"fontname" : "Arial",
					"fontsize" : 12.0,
					"numinlets" : 2,
					"numoutlets" : 1,
					"patching_rect" : [ 80.0, 386.0, 113.0, 18.0 ],
					"id" : "obj-38",
					"outlettype" : [ "" ]
				}

			}
, 			{
				"box" : 				{
					"maxclass" : "newobj",
					"text" : "prepend glcolor",
					"fontname" : "Arial",
					"fontsize" : 12.0,
					"numinlets" : 1,
					"numoutlets" : 1,
					"patching_rect" : [ 53.0, 225.0, 93.0, 20.0 ],
					"id" : "obj-35",
					"outlettype" : [ "" ]
				}

			}
, 			{
				"box" : 				{
					"maxclass" : "inlet",
					"numinlets" : 0,
					"numoutlets" : 1,
					"patching_rect" : [ 53.0, 193.0, 25.0, 25.0 ],
					"id" : "obj-34",
					"outlettype" : [ "" ],
					"comment" : "Color (RVBA)"
				}

			}
, 			{
				"box" : 				{
					"maxclass" : "message",
					"fontname" : "Arial",
					"fontsize" : 12.0,
					"numinlets" : 2,
					"numoutlets" : 1,
					"patching_rect" : [ 105.0, 410.0, 50.0, 18.0 ],
					"id" : "obj-26",
					"outlettype" : [ "" ]
				}

			}
, 			{
				"box" : 				{
					"maxclass" : "newobj",
					"text" : "t b l 2",
					"fontname" : "Arial",
					"fontsize" : 12.0,
					"numinlets" : 1,
					"numoutlets" : 3,
					"patching_rect" : [ 53.0, 252.0, 46.0, 20.0 ],
					"id" : "obj-8",
					"outlettype" : [ "bang", "", "int" ]
				}

			}
, 			{
				"box" : 				{
					"maxclass" : "newobj",
					"text" : "loadmess 1",
					"fontname" : "Arial",
					"fontsize" : 12.0,
					"numinlets" : 1,
					"numoutlets" : 1,
					"patching_rect" : [ 380.0, 336.0, 72.0, 20.0 ],
					"id" : "obj-36",
					"outlettype" : [ "" ]
				}

			}
, 			{
				"box" : 				{
					"maxclass" : "message",
					"text" : "enable $1",
					"fontname" : "Arial",
					"fontsize" : 12.0,
					"numinlets" : 2,
					"numoutlets" : 1,
					"patching_rect" : [ 380.0, 421.0, 63.0, 18.0 ],
					"id" : "obj-33",
					"outlettype" : [ "" ]
				}

			}
, 			{
				"box" : 				{
					"maxclass" : "toggle",
					"numinlets" : 1,
					"numoutlets" : 1,
					"patching_rect" : [ 380.0, 393.0, 20.0, 20.0 ],
					"id" : "obj-31",
					"outlettype" : [ "int" ]
				}

			}
, 			{
				"box" : 				{
					"maxclass" : "inlet",
					"numinlets" : 0,
					"numoutlets" : 1,
					"patching_rect" : [ 20.0, 17.0, 25.0, 25.0 ],
					"id" : "obj-29",
					"outlettype" : [ "" ],
					"comment" : "First & Last State of Selection"
				}

			}
, 			{
				"box" : 				{
					"maxclass" : "newobj",
					"text" : "zl sort 1",
					"fontname" : "Arial",
					"fontsize" : 12.0,
					"numinlets" : 2,
					"numoutlets" : 2,
					"patching_rect" : [ 20.0, 52.0, 53.0, 20.0 ],
					"id" : "obj-87",
					"outlettype" : [ "", "" ]
				}

			}
, 			{
				"box" : 				{
					"maxclass" : "message",
					"text" : "reset",
					"fontname" : "Arial",
					"fontsize" : 12.0,
					"numinlets" : 2,
					"numoutlets" : 1,
					"patching_rect" : [ 309.0, 421.0, 37.0, 18.0 ],
					"id" : "obj-25",
					"outlettype" : [ "" ]
				}

			}
, 			{
				"box" : 				{
					"maxclass" : "message",
					"text" : "quad $1 $3 0. $2 $3 0. $2 $4 0. $1 $4 0.",
					"fontname" : "Arial",
					"fontsize" : 12.0,
					"numinlets" : 2,
					"numoutlets" : 1,
					"patching_rect" : [ 201.0, 513.0, 224.0, 18.0 ],
					"id" : "obj-21",
					"outlettype" : [ "" ]
				}

			}
, 			{
				"box" : 				{
					"maxclass" : "newobj",
					"text" : "t 1 glend l b b reset",
					"fontname" : "Arial",
					"fontsize" : 12.0,
					"numinlets" : 1,
					"numoutlets" : 6,
					"patching_rect" : [ 182.0, 324.0, 113.0, 20.0 ],
					"id" : "obj-19",
					"outlettype" : [ "int", "glend", "", "bang", "bang", "reset" ]
				}

			}
, 			{
				"box" : 				{
					"maxclass" : "message",
					"text" : "glpolygonemode fill, glbegin quads",
					"fontname" : "Arial",
					"fontsize" : 12.0,
					"numinlets" : 2,
					"numoutlets" : 1,
					"patching_rect" : [ 238.0, 486.0, 195.0, 18.0 ],
					"id" : "obj-18",
					"outlettype" : [ "" ]
				}

			}
, 			{
				"box" : 				{
					"maxclass" : "newobj",
					"text" : "s #2-query",
					"fontname" : "Arial",
					"fontsize" : 12.0,
					"numinlets" : 1,
					"numoutlets" : 0,
					"patching_rect" : [ 296.0, 72.0, 67.0, 20.0 ],
					"id" : "obj-15"
				}

			}
, 			{
				"box" : 				{
					"maxclass" : "newobj",
					"text" : "loadbang",
					"fontname" : "Arial",
					"fontsize" : 12.0,
					"numinlets" : 1,
					"numoutlets" : 1,
					"patching_rect" : [ 296.0, 45.0, 60.0, 20.0 ],
					"id" : "obj-14",
					"outlettype" : [ "bang" ]
				}

			}
, 			{
				"box" : 				{
					"maxclass" : "newobj",
					"text" : "pack 0. 0. 0. 1.5",
					"fontname" : "Arial",
					"fontsize" : 12.0,
					"numinlets" : 4,
					"numoutlets" : 1,
					"patching_rect" : [ 182.0, 298.0, 96.0, 20.0 ],
					"id" : "obj-11",
					"outlettype" : [ "" ]
				}

			}
, 			{
				"box" : 				{
					"maxclass" : "newobj",
					"text" : "jit.gl.sketch #2 @auto_material 0 @depth_enable 0 @two_sided 0 @pushstate 0 @displaylist 1 @blend_enable 1 @layer 1",
					"linecount" : 2,
					"fontname" : "Arial",
					"fontsize" : 11.595187,
					"numinlets" : 1,
					"color" : [ 0.698039, 0.698039, 0.698039, 1.0 ],
					"numoutlets" : 2,
					"patching_rect" : [ 201.0, 544.0, 598.0, 33.0 ],
					"id" : "obj-16",
					"outlettype" : [ "", "" ]
				}

			}
, 			{
				"box" : 				{
					"maxclass" : "newobj",
					"text" : "unpack 0 0",
					"fontname" : "Arial",
					"fontsize" : 12.0,
					"numinlets" : 1,
					"numoutlets" : 2,
					"patching_rect" : [ 20.0, 80.0, 69.0, 20.0 ],
					"id" : "obj-9",
					"outlettype" : [ "int", "int" ]
				}

			}
, 			{
				"box" : 				{
					"maxclass" : "newobj",
					"text" : "* 0.01",
					"fontname" : "Arial",
					"fontsize" : 12.0,
					"numinlets" : 2,
					"numoutlets" : 1,
					"patching_rect" : [ 208.0, 168.0, 42.0, 20.0 ],
					"id" : "obj-5",
					"outlettype" : [ "float" ]
				}

			}
, 			{
				"box" : 				{
					"maxclass" : "newobj",
					"text" : "OMax.state2date #1",
					"fontname" : "Arial",
					"fontsize" : 12.0,
					"numinlets" : 1,
					"color" : [ 0.3, 1.0, 0.15, 1.0 ],
					"numoutlets" : 2,
					"patching_rect" : [ 208.0, 118.0, 119.0, 20.0 ],
					"id" : "obj-6",
					"outlettype" : [ "int", "int" ]
				}

			}
, 			{
				"box" : 				{
					"maxclass" : "newobj",
					"text" : "* 0.01",
					"fontname" : "Arial",
					"fontsize" : 12.0,
					"numinlets" : 2,
					"numoutlets" : 1,
					"patching_rect" : [ 120.0, 168.0, 42.0, 20.0 ],
					"id" : "obj-4",
					"outlettype" : [ "float" ]
				}

			}
, 			{
				"box" : 				{
					"maxclass" : "newobj",
					"text" : "OMax.state2date #1",
					"fontname" : "Arial",
					"fontsize" : 12.0,
					"numinlets" : 1,
					"color" : [ 0.3, 1.0, 0.15, 1.0 ],
					"numoutlets" : 2,
					"patching_rect" : [ 20.0, 118.0, 119.0, 20.0 ],
					"id" : "obj-3",
					"outlettype" : [ "int", "int" ]
				}

			}
 ],
		"lines" : [ 			{
				"patchline" : 				{
					"source" : [ "obj-17", 2 ],
					"destination" : [ "obj-27", 0 ],
					"hidden" : 0,
					"midpoints" : [  ]
				}

			}
, 			{
				"patchline" : 				{
					"source" : [ "obj-33", 0 ],
					"destination" : [ "obj-16", 0 ],
					"hidden" : 0,
					"midpoints" : [  ]
				}

			}
, 			{
				"patchline" : 				{
					"source" : [ "obj-25", 0 ],
					"destination" : [ "obj-16", 0 ],
					"hidden" : 0,
					"midpoints" : [  ]
				}

			}
, 			{
				"patchline" : 				{
					"source" : [ "obj-21", 0 ],
					"destination" : [ "obj-16", 0 ],
					"hidden" : 0,
					"midpoints" : [  ]
				}

			}
, 			{
				"patchline" : 				{
					"source" : [ "obj-18", 0 ],
					"destination" : [ "obj-16", 0 ],
					"hidden" : 0,
					"midpoints" : [  ]
				}

			}
, 			{
				"patchline" : 				{
					"source" : [ "obj-42", 0 ],
					"destination" : [ "obj-16", 0 ],
					"hidden" : 0,
					"midpoints" : [  ]
				}

			}
, 			{
				"patchline" : 				{
					"source" : [ "obj-19", 1 ],
					"destination" : [ "obj-16", 0 ],
					"hidden" : 0,
					"midpoints" : [  ]
				}

			}
, 			{
				"patchline" : 				{
					"source" : [ "obj-19", 5 ],
					"destination" : [ "obj-16", 0 ],
					"hidden" : 0,
					"midpoints" : [  ]
				}

			}
, 			{
				"patchline" : 				{
					"source" : [ "obj-3", 1 ],
					"destination" : [ "obj-4", 0 ],
					"hidden" : 0,
					"midpoints" : [  ]
				}

			}
, 			{
				"patchline" : 				{
					"source" : [ "obj-6", 0 ],
					"destination" : [ "obj-5", 0 ],
					"hidden" : 0,
					"midpoints" : [  ]
				}

			}
, 			{
				"patchline" : 				{
					"source" : [ "obj-9", 0 ],
					"destination" : [ "obj-3", 0 ],
					"hidden" : 0,
					"midpoints" : [ 29.5, 117.0, 29.5, 117.0 ]
				}

			}
, 			{
				"patchline" : 				{
					"source" : [ "obj-9", 1 ],
					"destination" : [ "obj-6", 0 ],
					"hidden" : 0,
					"midpoints" : [ 79.5, 108.0, 217.5, 108.0 ]
				}

			}
, 			{
				"patchline" : 				{
					"source" : [ "obj-14", 0 ],
					"destination" : [ "obj-15", 0 ],
					"hidden" : 0,
					"midpoints" : [  ]
				}

			}
, 			{
				"patchline" : 				{
					"source" : [ "obj-87", 0 ],
					"destination" : [ "obj-9", 0 ],
					"hidden" : 0,
					"midpoints" : [  ]
				}

			}
, 			{
				"patchline" : 				{
					"source" : [ "obj-29", 0 ],
					"destination" : [ "obj-87", 0 ],
					"hidden" : 0,
					"midpoints" : [  ]
				}

			}
, 			{
				"patchline" : 				{
					"source" : [ "obj-31", 0 ],
					"destination" : [ "obj-33", 0 ],
					"hidden" : 0,
					"midpoints" : [  ]
				}

			}
, 			{
				"patchline" : 				{
					"source" : [ "obj-36", 0 ],
					"destination" : [ "obj-31", 0 ],
					"hidden" : 0,
					"midpoints" : [  ]
				}

			}
, 			{
				"patchline" : 				{
					"source" : [ "obj-34", 0 ],
					"destination" : [ "obj-35", 0 ],
					"hidden" : 0,
					"midpoints" : [  ]
				}

			}
, 			{
				"patchline" : 				{
					"source" : [ "obj-26", 0 ],
					"destination" : [ "obj-42", 0 ],
					"hidden" : 0,
					"midpoints" : [  ]
				}

			}
, 			{
				"patchline" : 				{
					"source" : [ "obj-41", 0 ],
					"destination" : [ "obj-38", 0 ],
					"hidden" : 0,
					"midpoints" : [  ]
				}

			}
, 			{
				"patchline" : 				{
					"source" : [ "obj-38", 0 ],
					"destination" : [ "obj-42", 0 ],
					"hidden" : 0,
					"midpoints" : [  ]
				}

			}
, 			{
				"patchline" : 				{
					"source" : [ "obj-41", 1 ],
					"destination" : [ "obj-26", 0 ],
					"hidden" : 0,
					"midpoints" : [  ]
				}

			}
, 			{
				"patchline" : 				{
					"source" : [ "obj-19", 2 ],
					"destination" : [ "obj-21", 0 ],
					"hidden" : 0,
					"midpoints" : [  ]
				}

			}
, 			{
				"patchline" : 				{
					"source" : [ "obj-19", 3 ],
					"destination" : [ "obj-41", 1 ],
					"hidden" : 0,
					"midpoints" : [ 247.899994, 356.5, 114.5, 356.5 ]
				}

			}
, 			{
				"patchline" : 				{
					"source" : [ "obj-19", 4 ],
					"destination" : [ "obj-18", 0 ],
					"hidden" : 0,
					"midpoints" : [  ]
				}

			}
, 			{
				"patchline" : 				{
					"source" : [ "obj-19", 0 ],
					"destination" : [ "obj-41", 0 ],
					"hidden" : 0,
					"midpoints" : [ 191.5, 350.0, 89.5, 350.0 ]
				}

			}
, 			{
				"patchline" : 				{
					"source" : [ "obj-35", 0 ],
					"destination" : [ "obj-8", 0 ],
					"hidden" : 0,
					"midpoints" : [  ]
				}

			}
, 			{
				"patchline" : 				{
					"source" : [ "obj-8", 1 ],
					"destination" : [ "obj-26", 1 ],
					"hidden" : 0,
					"midpoints" : [  ]
				}

			}
, 			{
				"patchline" : 				{
					"source" : [ "obj-8", 2 ],
					"destination" : [ "obj-41", 0 ],
					"hidden" : 0,
					"midpoints" : [  ]
				}

			}
, 			{
				"patchline" : 				{
					"source" : [ "obj-48", 0 ],
					"destination" : [ "obj-25", 0 ],
					"hidden" : 0,
					"midpoints" : [  ]
				}

			}
, 			{
				"patchline" : 				{
					"source" : [ "obj-49", 0 ],
					"destination" : [ "obj-31", 0 ],
					"hidden" : 0,
					"midpoints" : [  ]
				}

			}
, 			{
				"patchline" : 				{
					"source" : [ "obj-2", 0 ],
					"destination" : [ "obj-155", 0 ],
					"hidden" : 0,
					"midpoints" : [  ]
				}

			}
, 			{
				"patchline" : 				{
					"source" : [ "obj-155", 0 ],
					"destination" : [ "obj-25", 0 ],
					"hidden" : 0,
					"midpoints" : [  ]
				}

			}
, 			{
				"patchline" : 				{
					"source" : [ "obj-7", 0 ],
					"destination" : [ "obj-17", 0 ],
					"hidden" : 0,
					"midpoints" : [  ]
				}

			}
, 			{
				"patchline" : 				{
					"source" : [ "obj-17", 1 ],
					"destination" : [ "obj-24", 0 ],
					"hidden" : 0,
					"midpoints" : [  ]
				}

			}
, 			{
				"patchline" : 				{
					"source" : [ "obj-17", 0 ],
					"destination" : [ "obj-27", 0 ],
					"hidden" : 0,
					"midpoints" : [  ]
				}

			}
, 			{
				"patchline" : 				{
					"source" : [ "obj-23", 0 ],
					"destination" : [ "obj-10", 0 ],
					"hidden" : 0,
					"midpoints" : [  ]
				}

			}
, 			{
				"patchline" : 				{
					"source" : [ "obj-27", 0 ],
					"destination" : [ "obj-10", 1 ],
					"hidden" : 0,
					"midpoints" : [  ]
				}

			}
, 			{
				"patchline" : 				{
					"source" : [ "obj-24", 0 ],
					"destination" : [ "obj-10", 1 ],
					"hidden" : 0,
					"midpoints" : [  ]
				}

			}
, 			{
				"patchline" : 				{
					"source" : [ "obj-28", 0 ],
					"destination" : [ "obj-23", 0 ],
					"hidden" : 0,
					"midpoints" : [  ]
				}

			}
, 			{
				"patchline" : 				{
					"source" : [ "obj-22", 0 ],
					"destination" : [ "obj-28", 0 ],
					"hidden" : 0,
					"midpoints" : [  ]
				}

			}
, 			{
				"patchline" : 				{
					"source" : [ "obj-10", 0 ],
					"destination" : [ "obj-11", 3 ],
					"hidden" : 0,
					"midpoints" : [  ]
				}

			}
, 			{
				"patchline" : 				{
					"source" : [ "obj-8", 0 ],
					"destination" : [ "obj-11", 0 ],
					"hidden" : 0,
					"midpoints" : [  ]
				}

			}
, 			{
				"patchline" : 				{
					"source" : [ "obj-11", 0 ],
					"destination" : [ "obj-19", 0 ],
					"hidden" : 0,
					"midpoints" : [  ]
				}

			}
, 			{
				"patchline" : 				{
					"source" : [ "obj-4", 0 ],
					"destination" : [ "obj-11", 0 ],
					"hidden" : 0,
					"midpoints" : [  ]
				}

			}
, 			{
				"patchline" : 				{
					"source" : [ "obj-5", 0 ],
					"destination" : [ "obj-11", 1 ],
					"hidden" : 0,
					"midpoints" : [  ]
				}

			}
 ]
	}

}
