{
	"patcher" : 	{
		"fileversion" : 1,
		"rect" : [ 702.0, 75.0, 389.0, 244.0 ],
		"bglocked" : 0,
		"defrect" : [ 702.0, 75.0, 389.0, 244.0 ],
		"openrect" : [ 0.0, 0.0, 0.0, 0.0 ],
		"openinpresentation" : 1,
		"default_fontsize" : 12.0,
		"default_fontface" : 0,
		"default_fontname" : "Arial",
		"gridonopen" : 0,
		"gridsize" : [ 5.0, 5.0 ],
		"gridsnaponopen" : 0,
		"toolbarvisible" : 1,
		"boxanimatetime" : 200,
		"imprint" : 0,
		"boxes" : [ 			{
				"box" : 				{
					"maxclass" : "comment",
					"text" : "< equivalent to 'trigger b a b'\n   'a' meaning anything",
					"linecount" : 2,
					"numinlets" : 1,
					"frgb" : [ 0.0, 0.0, 0.0, 1.0 ],
					"numoutlets" : 0,
					"patching_rect" : [ 208.0, 90.0, 164.0, 34.0 ],
					"id" : "obj-8",
					"fontname" : "Arial",
					"fontsize" : 12.0
				}

			}
, 			{
				"box" : 				{
					"maxclass" : "newobj",
					"text" : "p b a b",
					"numinlets" : 1,
					"numoutlets" : 3,
					"patching_rect" : [ 48.0, 88.0, 57.0, 20.0 ],
					"id" : "obj-4",
					"fontname" : "Arial",
					"outlettype" : [ "bang", "", "bang" ],
					"fontsize" : 12.0,
					"patcher" : 					{
						"fileversion" : 1,
						"rect" : [ 340.0, 278.0, 196.0, 133.0 ],
						"bglocked" : 0,
						"defrect" : [ 340.0, 278.0, 196.0, 133.0 ],
						"openrect" : [ 0.0, 0.0, 0.0, 0.0 ],
						"openinpresentation" : 0,
						"default_fontsize" : 12.0,
						"default_fontface" : 0,
						"default_fontname" : "Arial",
						"gridonopen" : 0,
						"gridsize" : [ 5.0, 5.0 ],
						"gridsnaponopen" : 0,
						"toolbarvisible" : 1,
						"boxanimatetime" : 200,
						"imprint" : 0,
						"boxes" : [ 							{
								"box" : 								{
									"maxclass" : "comment",
									"text" : "Don't change the order !",
									"linecount" : 2,
									"numinlets" : 1,
									"frgb" : [ 0.0, 0.0, 0.0, 1.0 ],
									"numoutlets" : 0,
									"patching_rect" : [ 104.0, 10.0, 84.0, 34.0 ],
									"id" : "obj-9",
									"fontname" : "Arial",
									"fontsize" : 12.0
								}

							}
, 							{
								"box" : 								{
									"maxclass" : "button",
									"numinlets" : 1,
									"numoutlets" : 1,
									"patching_rect" : [ 88.0, 54.0, 20.0, 20.0 ],
									"id" : "obj-7",
									"outlettype" : [ "bang" ]
								}

							}
, 							{
								"box" : 								{
									"maxclass" : "button",
									"numinlets" : 1,
									"numoutlets" : 1,
									"patching_rect" : [ 14.0, 54.0, 20.0, 20.0 ],
									"id" : "obj-6",
									"outlettype" : [ "bang" ]
								}

							}
, 							{
								"box" : 								{
									"maxclass" : "outlet",
									"numinlets" : 1,
									"numoutlets" : 0,
									"patching_rect" : [ 88.0, 89.0, 25.0, 25.0 ],
									"id" : "obj-4",
									"comment" : ""
								}

							}
, 							{
								"box" : 								{
									"maxclass" : "outlet",
									"numinlets" : 1,
									"numoutlets" : 0,
									"patching_rect" : [ 51.0, 89.0, 25.0, 25.0 ],
									"id" : "obj-3",
									"comment" : ""
								}

							}
, 							{
								"box" : 								{
									"maxclass" : "outlet",
									"numinlets" : 1,
									"numoutlets" : 0,
									"patching_rect" : [ 14.0, 89.0, 25.0, 25.0 ],
									"id" : "obj-2",
									"comment" : ""
								}

							}
, 							{
								"box" : 								{
									"maxclass" : "inlet",
									"numinlets" : 0,
									"numoutlets" : 1,
									"patching_rect" : [ 51.0, 10.0, 25.0, 25.0 ],
									"id" : "obj-1",
									"outlettype" : [ "" ],
									"comment" : ""
								}

							}
 ],
						"lines" : [ 							{
								"patchline" : 								{
									"source" : [ "obj-1", 0 ],
									"destination" : [ "obj-7", 0 ],
									"hidden" : 0,
									"midpoints" : [  ]
								}

							}
, 							{
								"patchline" : 								{
									"source" : [ "obj-7", 0 ],
									"destination" : [ "obj-4", 0 ],
									"hidden" : 0,
									"midpoints" : [  ]
								}

							}
, 							{
								"patchline" : 								{
									"source" : [ "obj-1", 0 ],
									"destination" : [ "obj-3", 0 ],
									"hidden" : 0,
									"midpoints" : [  ]
								}

							}
, 							{
								"patchline" : 								{
									"source" : [ "obj-1", 0 ],
									"destination" : [ "obj-6", 0 ],
									"hidden" : 0,
									"midpoints" : [  ]
								}

							}
, 							{
								"patchline" : 								{
									"source" : [ "obj-6", 0 ],
									"destination" : [ "obj-2", 0 ],
									"hidden" : 0,
									"midpoints" : [  ]
								}

							}
 ]
					}
,
					"saved_object_attributes" : 					{
						"default_fontface" : 0,
						"fontname" : "Arial",
						"default_fontname" : "Arial",
						"globalpatchername" : "",
						"fontface" : 0,
						"default_fontsize" : 12.0,
						"fontsize" : 12.0
					}

				}

			}
, 			{
				"box" : 				{
					"maxclass" : "newobj",
					"text" : "p b a b",
					"numinlets" : 1,
					"numoutlets" : 3,
					"patching_rect" : [ 150.0, 88.0, 57.0, 20.0 ],
					"id" : "obj-2",
					"fontname" : "Arial",
					"outlettype" : [ "bang", "", "bang" ],
					"fontsize" : 12.0,
					"patcher" : 					{
						"fileversion" : 1,
						"rect" : [ 340.0, 278.0, 196.0, 133.0 ],
						"bglocked" : 0,
						"defrect" : [ 340.0, 278.0, 196.0, 133.0 ],
						"openrect" : [ 0.0, 0.0, 0.0, 0.0 ],
						"openinpresentation" : 0,
						"default_fontsize" : 12.0,
						"default_fontface" : 0,
						"default_fontname" : "Arial",
						"gridonopen" : 0,
						"gridsize" : [ 5.0, 5.0 ],
						"gridsnaponopen" : 0,
						"toolbarvisible" : 1,
						"boxanimatetime" : 200,
						"imprint" : 0,
						"boxes" : [ 							{
								"box" : 								{
									"maxclass" : "comment",
									"text" : "Don't change the order !",
									"linecount" : 2,
									"numinlets" : 1,
									"frgb" : [ 0.0, 0.0, 0.0, 1.0 ],
									"numoutlets" : 0,
									"patching_rect" : [ 104.0, 10.0, 84.0, 34.0 ],
									"id" : "obj-9",
									"fontname" : "Arial",
									"fontsize" : 12.0
								}

							}
, 							{
								"box" : 								{
									"maxclass" : "button",
									"numinlets" : 1,
									"numoutlets" : 1,
									"patching_rect" : [ 88.0, 54.0, 20.0, 20.0 ],
									"id" : "obj-7",
									"outlettype" : [ "bang" ]
								}

							}
, 							{
								"box" : 								{
									"maxclass" : "button",
									"numinlets" : 1,
									"numoutlets" : 1,
									"patching_rect" : [ 14.0, 54.0, 20.0, 20.0 ],
									"id" : "obj-6",
									"outlettype" : [ "bang" ]
								}

							}
, 							{
								"box" : 								{
									"maxclass" : "outlet",
									"numinlets" : 1,
									"numoutlets" : 0,
									"patching_rect" : [ 88.0, 89.0, 25.0, 25.0 ],
									"id" : "obj-4",
									"comment" : ""
								}

							}
, 							{
								"box" : 								{
									"maxclass" : "outlet",
									"numinlets" : 1,
									"numoutlets" : 0,
									"patching_rect" : [ 51.0, 89.0, 25.0, 25.0 ],
									"id" : "obj-3",
									"comment" : ""
								}

							}
, 							{
								"box" : 								{
									"maxclass" : "outlet",
									"numinlets" : 1,
									"numoutlets" : 0,
									"patching_rect" : [ 14.0, 89.0, 25.0, 25.0 ],
									"id" : "obj-2",
									"comment" : ""
								}

							}
, 							{
								"box" : 								{
									"maxclass" : "inlet",
									"numinlets" : 0,
									"numoutlets" : 1,
									"patching_rect" : [ 51.0, 10.0, 25.0, 25.0 ],
									"id" : "obj-1",
									"outlettype" : [ "" ],
									"comment" : ""
								}

							}
 ],
						"lines" : [ 							{
								"patchline" : 								{
									"source" : [ "obj-6", 0 ],
									"destination" : [ "obj-2", 0 ],
									"hidden" : 0,
									"midpoints" : [  ]
								}

							}
, 							{
								"patchline" : 								{
									"source" : [ "obj-1", 0 ],
									"destination" : [ "obj-6", 0 ],
									"hidden" : 0,
									"midpoints" : [  ]
								}

							}
, 							{
								"patchline" : 								{
									"source" : [ "obj-1", 0 ],
									"destination" : [ "obj-3", 0 ],
									"hidden" : 0,
									"midpoints" : [  ]
								}

							}
, 							{
								"patchline" : 								{
									"source" : [ "obj-7", 0 ],
									"destination" : [ "obj-4", 0 ],
									"hidden" : 0,
									"midpoints" : [  ]
								}

							}
, 							{
								"patchline" : 								{
									"source" : [ "obj-1", 0 ],
									"destination" : [ "obj-7", 0 ],
									"hidden" : 0,
									"midpoints" : [  ]
								}

							}
 ]
					}
,
					"saved_object_attributes" : 					{
						"default_fontface" : 0,
						"fontname" : "Arial",
						"default_fontname" : "Arial",
						"globalpatchername" : "",
						"fontface" : 0,
						"default_fontsize" : 12.0,
						"fontsize" : 12.0
					}

				}

			}
, 			{
				"box" : 				{
					"maxclass" : "newobj",
					"text" : "p BenCello",
					"presentation_rect" : [ 294.0, 202.0, 69.0, 20.0 ],
					"numinlets" : 0,
					"numoutlets" : 0,
					"patching_rect" : [ 280.0, 25.0, 69.0, 20.0 ],
					"presentation" : 1,
					"id" : "obj-46",
					"fontname" : "Arial",
					"color" : [ 0.776471, 1.0, 0.784314, 1.0 ],
					"fontsize" : 12.0,
					"patcher" : 					{
						"fileversion" : 1,
						"rect" : [ 1019.0, 290.0, 173.0, 90.0 ],
						"bgcolor" : [ 1.0, 1.0, 1.0, 0.0 ],
						"bglocked" : 0,
						"defrect" : [ 1019.0, 290.0, 173.0, 90.0 ],
						"openrect" : [ 0.0, 0.0, 0.0, 0.0 ],
						"openinpresentation" : 0,
						"default_fontsize" : 12.0,
						"default_fontface" : 0,
						"default_fontname" : "Arial",
						"gridonopen" : 0,
						"gridsize" : [ 5.0, 5.0 ],
						"gridsnaponopen" : 0,
						"toolbarvisible" : 0,
						"boxanimatetime" : 200,
						"imprint" : 0,
						"boxes" : [ 							{
								"box" : 								{
									"maxclass" : "newobj",
									"text" : "loadbang",
									"numinlets" : 1,
									"numoutlets" : 1,
									"patching_rect" : [ 143.0, 122.0, 60.0, 20.0 ],
									"id" : "obj-7",
									"fontname" : "Arial",
									"outlettype" : [ "bang" ],
									"fontsize" : 12.0
								}

							}
, 							{
								"box" : 								{
									"maxclass" : "newobj",
									"text" : "del 2000",
									"numinlets" : 2,
									"numoutlets" : 1,
									"patching_rect" : [ 58.0, 194.0, 57.0, 20.0 ],
									"id" : "obj-28",
									"fontname" : "Arial",
									"outlettype" : [ "bang" ],
									"fontsize" : 12.0
								}

							}
, 							{
								"box" : 								{
									"maxclass" : "newobj",
									"text" : "t b b",
									"numinlets" : 1,
									"numoutlets" : 2,
									"patching_rect" : [ 107.0, 150.0, 34.0, 20.0 ],
									"id" : "obj-27",
									"fontname" : "Arial",
									"outlettype" : [ "bang", "bang" ],
									"fontsize" : 12.0
								}

							}
, 							{
								"box" : 								{
									"maxclass" : "message",
									"text" : "1",
									"numinlets" : 2,
									"numoutlets" : 1,
									"patching_rect" : [ 17.0, 338.0, 18.0, 18.0 ],
									"id" : "obj-55",
									"fontname" : "Arial",
									"outlettype" : [ "" ],
									"fontsize" : 12.0
								}

							}
, 							{
								"box" : 								{
									"maxclass" : "newobj",
									"text" : "closebang",
									"numinlets" : 0,
									"numoutlets" : 1,
									"patching_rect" : [ 15.0, 311.0, 65.0, 20.0 ],
									"id" : "obj-53",
									"fontname" : "Arial",
									"outlettype" : [ "bang" ],
									"fontsize" : 12.0
								}

							}
, 							{
								"box" : 								{
									"maxclass" : "newobj",
									"text" : "t i i",
									"numinlets" : 1,
									"numoutlets" : 2,
									"patching_rect" : [ 362.0, 262.0, 32.5, 20.0 ],
									"id" : "obj-42",
									"fontname" : "Arial",
									"outlettype" : [ "int", "int" ],
									"fontsize" : 12.0
								}

							}
, 							{
								"box" : 								{
									"maxclass" : "newobj",
									"text" : "t i i",
									"numinlets" : 1,
									"numoutlets" : 2,
									"patching_rect" : [ 179.0, 264.0, 32.5, 20.0 ],
									"id" : "obj-41",
									"fontname" : "Arial",
									"outlettype" : [ "int", "int" ],
									"fontsize" : 12.0
								}

							}
, 							{
								"box" : 								{
									"maxclass" : "newobj",
									"text" : "prepend set",
									"numinlets" : 1,
									"numoutlets" : 1,
									"patching_rect" : [ 319.0, 289.0, 74.0, 20.0 ],
									"id" : "obj-39",
									"fontname" : "Arial",
									"outlettype" : [ "" ],
									"fontsize" : 12.0
								}

							}
, 							{
								"box" : 								{
									"maxclass" : "newobj",
									"text" : "+ 500",
									"numinlets" : 2,
									"numoutlets" : 1,
									"patching_rect" : [ 448.0, 289.0, 41.0, 20.0 ],
									"id" : "obj-32",
									"fontname" : "Arial",
									"outlettype" : [ "int" ],
									"fontsize" : 12.0
								}

							}
, 							{
								"box" : 								{
									"maxclass" : "newobj",
									"text" : "t i i",
									"numinlets" : 1,
									"numoutlets" : 2,
									"patching_rect" : [ 319.0, 264.0, 32.5, 20.0 ],
									"id" : "obj-33",
									"fontname" : "Arial",
									"outlettype" : [ "int", "int" ],
									"fontsize" : 12.0
								}

							}
, 							{
								"box" : 								{
									"maxclass" : "newobj",
									"text" : "+ 800",
									"numinlets" : 2,
									"numoutlets" : 1,
									"patching_rect" : [ 405.0, 289.0, 41.0, 20.0 ],
									"id" : "obj-34",
									"fontname" : "Arial",
									"outlettype" : [ "int" ],
									"fontsize" : 12.0
								}

							}
, 							{
								"box" : 								{
									"maxclass" : "newobj",
									"text" : "pack 0 0 0 0",
									"numinlets" : 4,
									"numoutlets" : 1,
									"patching_rect" : [ 319.0, 314.0, 148.0, 20.0 ],
									"id" : "obj-38",
									"fontname" : "Arial",
									"outlettype" : [ "" ],
									"fontsize" : 12.0
								}

							}
, 							{
								"box" : 								{
									"maxclass" : "newobj",
									"text" : "t b 0",
									"numinlets" : 1,
									"numoutlets" : 2,
									"patching_rect" : [ 259.0, 112.0, 34.0, 20.0 ],
									"id" : "obj-24",
									"fontname" : "Arial",
									"outlettype" : [ "bang", "int" ],
									"fontsize" : 12.0
								}

							}
, 							{
								"box" : 								{
									"maxclass" : "newobj",
									"text" : "loadmess 1",
									"numinlets" : 1,
									"numoutlets" : 1,
									"patching_rect" : [ 44.0, 336.0, 72.0, 20.0 ],
									"id" : "obj-19",
									"fontname" : "Arial",
									"outlettype" : [ "" ],
									"fontsize" : 12.0
								}

							}
, 							{
								"box" : 								{
									"maxclass" : "toggle",
									"numinlets" : 1,
									"numoutlets" : 1,
									"patching_rect" : [ 44.0, 364.0, 20.0, 20.0 ],
									"id" : "obj-10",
									"outlettype" : [ "int" ]
								}

							}
, 							{
								"box" : 								{
									"maxclass" : "newobj",
									"text" : "gate",
									"numinlets" : 2,
									"numoutlets" : 1,
									"patching_rect" : [ 44.0, 391.0, 34.0, 20.0 ],
									"id" : "obj-8",
									"fontname" : "Arial",
									"outlettype" : [ "" ],
									"fontsize" : 12.0
								}

							}
, 							{
								"box" : 								{
									"maxclass" : "newobj",
									"text" : "+ 90",
									"numinlets" : 2,
									"numoutlets" : 1,
									"patching_rect" : [ 265.0, 290.0, 34.0, 20.0 ],
									"id" : "obj-37",
									"fontname" : "Arial",
									"outlettype" : [ "int" ],
									"fontsize" : 12.0
								}

							}
, 							{
								"box" : 								{
									"maxclass" : "newobj",
									"text" : "t i i",
									"numinlets" : 1,
									"numoutlets" : 2,
									"patching_rect" : [ 136.0, 265.0, 32.5, 20.0 ],
									"id" : "obj-36",
									"fontname" : "Arial",
									"outlettype" : [ "int", "int" ],
									"fontsize" : 12.0
								}

							}
, 							{
								"box" : 								{
									"maxclass" : "newobj",
									"text" : "+ 173",
									"numinlets" : 2,
									"numoutlets" : 1,
									"patching_rect" : [ 222.0, 290.0, 41.0, 20.0 ],
									"id" : "obj-35",
									"fontname" : "Arial",
									"outlettype" : [ "int" ],
									"fontsize" : 12.0
								}

							}
, 							{
								"box" : 								{
									"maxclass" : "newobj",
									"text" : "pack 0 0 0 0",
									"numinlets" : 4,
									"numoutlets" : 1,
									"patching_rect" : [ 136.0, 315.0, 148.0, 20.0 ],
									"id" : "obj-25",
									"fontname" : "Arial",
									"outlettype" : [ "" ],
									"fontsize" : 12.0
								}

							}
, 							{
								"box" : 								{
									"maxclass" : "newobj",
									"text" : "mousestate",
									"numinlets" : 1,
									"numoutlets" : 5,
									"patching_rect" : [ 122.0, 210.0, 189.0, 20.0 ],
									"id" : "obj-13",
									"fontname" : "Arial",
									"outlettype" : [ "int", "int", "int", "int", "int" ],
									"fontsize" : 12.0
								}

							}
, 							{
								"box" : 								{
									"maxclass" : "comment",
									"text" : "bencello@bencello.net",
									"presentation_rect" : [ 38.0, 69.0, 134.0, 17.0 ],
									"numinlets" : 1,
									"frgb" : [ 0.0, 0.0, 0.0, 1.0 ],
									"numoutlets" : 0,
									"patching_rect" : [ 38.0, 69.0, 134.0, 17.0 ],
									"presentation" : 1,
									"id" : "obj-6",
									"fontname" : "Arial",
									"fontsize" : 9.0
								}

							}
, 							{
								"box" : 								{
									"maxclass" : "newobj",
									"text" : "sel 0 1",
									"numinlets" : 1,
									"numoutlets" : 3,
									"patching_rect" : [ 93.0, 122.0, 46.0, 20.0 ],
									"id" : "obj-23",
									"fontname" : "Arial",
									"outlettype" : [ "bang", "bang", "" ],
									"fontsize" : 12.0
								}

							}
, 							{
								"box" : 								{
									"maxclass" : "newobj",
									"text" : "active",
									"numinlets" : 0,
									"numoutlets" : 1,
									"patching_rect" : [ 93.0, 98.0, 42.0, 20.0 ],
									"id" : "obj-22",
									"fontname" : "Arial",
									"outlettype" : [ "int" ],
									"fontsize" : 12.0
								}

							}
, 							{
								"box" : 								{
									"maxclass" : "button",
									"numinlets" : 1,
									"numoutlets" : 1,
									"patching_rect" : [ 122.0, 174.0, 32.0, 32.0 ],
									"id" : "obj-21",
									"outlettype" : [ "bang" ]
								}

							}
, 							{
								"box" : 								{
									"maxclass" : "button",
									"numinlets" : 1,
									"numoutlets" : 1,
									"patching_rect" : [ 260.0, 87.0, 20.0, 20.0 ],
									"id" : "obj-18",
									"outlettype" : [ "bang" ]
								}

							}
, 							{
								"box" : 								{
									"maxclass" : "newobj",
									"text" : "match 98 101 110 99 101 108 108 111",
									"numinlets" : 1,
									"numoutlets" : 1,
									"patching_rect" : [ 260.0, 57.0, 217.0, 20.0 ],
									"id" : "obj-3",
									"fontname" : "Arial",
									"outlettype" : [ "" ],
									"fontsize" : 12.0
								}

							}
, 							{
								"box" : 								{
									"maxclass" : "newobj",
									"text" : "key",
									"numinlets" : 0,
									"numoutlets" : 4,
									"patching_rect" : [ 260.0, 27.0, 59.5, 20.0 ],
									"id" : "obj-2",
									"fontname" : "Arial",
									"outlettype" : [ "int", "int", "int", "int" ],
									"fontsize" : 12.0
								}

							}
, 							{
								"box" : 								{
									"maxclass" : "newobj",
									"text" : "bgcolor 1. 1. 1. 0.",
									"numinlets" : 4,
									"numoutlets" : 0,
									"patching_rect" : [ 330.0, 147.0, 103.0, 20.0 ],
									"id" : "obj-1",
									"fontname" : "Arial",
									"fontsize" : 12.0
								}

							}
, 							{
								"box" : 								{
									"maxclass" : "message",
									"text" : "wclose",
									"numinlets" : 2,
									"numoutlets" : 1,
									"patching_rect" : [ 1.0, 230.0, 47.0, 18.0 ],
									"id" : "obj-5",
									"fontname" : "Arial",
									"outlettype" : [ "" ],
									"fontsize" : 12.0
								}

							}
, 							{
								"box" : 								{
									"maxclass" : "message",
									"text" : "window title, window flags grow, window size $1 $2 $3 $4, window exec",
									"numinlets" : 2,
									"numoutlets" : 1,
									"patching_rect" : [ 319.0, 373.0, 390.0, 18.0 ],
									"id" : "obj-11",
									"fontname" : "Arial",
									"outlettype" : [ "" ],
									"fontsize" : 12.0
								}

							}
, 							{
								"box" : 								{
									"maxclass" : "message",
									"text" : "window notitle, window flags nogrow, window size $1 $2 $3 $4, window exec",
									"numinlets" : 2,
									"numoutlets" : 1,
									"patching_rect" : [ 136.0, 342.0, 417.0, 18.0 ],
									"id" : "obj-12",
									"fontname" : "Arial",
									"outlettype" : [ "" ],
									"fontsize" : 12.0
								}

							}
, 							{
								"box" : 								{
									"maxclass" : "newobj",
									"text" : "thispatcher",
									"numinlets" : 1,
									"numoutlets" : 2,
									"patching_rect" : [ 44.0, 427.0, 78.0, 20.0 ],
									"id" : "obj-14",
									"fontname" : "Arial",
									"outlettype" : [ "", "" ],
									"fontsize" : 12.0,
									"save" : [ "#N", "thispatcher", ";", "#Q", "window", "flags", "nogrow", "close", "zoom", "nofloat", "menu", "minimize", ";", "#Q", "window", "constrain", 2, 2, 32768, 32768, ";", "#Q", "window", "size", 1019, 290, 1192, 380, ";", "#Q", "window", "notitle", ";", "#Q", "window", "exec", ";", "#Q", "savewindow", 1, ";", "#Q", "end", ";" ]
								}

							}
, 							{
								"box" : 								{
									"maxclass" : "comment",
									"text" : "patch developed by",
									"presentation_rect" : [ 16.0, 11.0, 100.0, 17.0 ],
									"numinlets" : 1,
									"frgb" : [ 0.0, 0.0, 0.0, 1.0 ],
									"numoutlets" : 0,
									"patching_rect" : [ 16.0, 11.0, 100.0, 17.0 ],
									"presentation" : 1,
									"id" : "obj-15",
									"fontname" : "Arial",
									"fontsize" : 9.0
								}

							}
, 							{
								"box" : 								{
									"maxclass" : "comment",
									"text" : "BenCello",
									"presentation_rect" : [ 10.0, 22.0, 155.0, 48.0 ],
									"numinlets" : 1,
									"frgb" : [ 0.0, 0.0, 0.0, 1.0 ],
									"numoutlets" : 0,
									"patching_rect" : [ 10.0, 22.0, 155.0, 48.0 ],
									"presentation" : 1,
									"id" : "obj-16",
									"fontname" : "Arial",
									"fontsize" : 36.0
								}

							}
, 							{
								"box" : 								{
									"maxclass" : "panel",
									"shadow" : 4,
									"presentation_rect" : [ 1.0, 1.0, 172.0, 89.0 ],
									"numinlets" : 1,
									"bgcolor" : [ 0.784314, 1.0, 0.784314, 0.654902 ],
									"numoutlets" : 0,
									"border" : 1,
									"patching_rect" : [ 1.0, 1.0, 172.0, 89.0 ],
									"presentation" : 1,
									"id" : "obj-17",
									"rounded" : 60
								}

							}
, 							{
								"box" : 								{
									"maxclass" : "ubutton",
									"presentation_rect" : [ 1.0, 1.0, 172.0, 88.0 ],
									"numinlets" : 1,
									"handoff" : "",
									"numoutlets" : 4,
									"patching_rect" : [ 1.0, 1.0, 172.0, 88.0 ],
									"hilite" : 0,
									"presentation" : 1,
									"id" : "obj-4",
									"outlettype" : [ "bang", "bang", "", "int" ]
								}

							}
 ],
						"lines" : [ 							{
								"patchline" : 								{
									"source" : [ "obj-28", 0 ],
									"destination" : [ "obj-5", 0 ],
									"hidden" : 0,
									"midpoints" : [  ]
								}

							}
, 							{
								"patchline" : 								{
									"source" : [ "obj-27", 0 ],
									"destination" : [ "obj-28", 0 ],
									"hidden" : 0,
									"midpoints" : [  ]
								}

							}
, 							{
								"patchline" : 								{
									"source" : [ "obj-27", 1 ],
									"destination" : [ "obj-21", 0 ],
									"hidden" : 0,
									"midpoints" : [  ]
								}

							}
, 							{
								"patchline" : 								{
									"source" : [ "obj-23", 1 ],
									"destination" : [ "obj-27", 0 ],
									"hidden" : 0,
									"midpoints" : [  ]
								}

							}
, 							{
								"patchline" : 								{
									"source" : [ "obj-24", 1 ],
									"destination" : [ "obj-10", 0 ],
									"hidden" : 0,
									"midpoints" : [  ]
								}

							}
, 							{
								"patchline" : 								{
									"source" : [ "obj-24", 0 ],
									"destination" : [ "obj-38", 0 ],
									"hidden" : 0,
									"midpoints" : [  ]
								}

							}
, 							{
								"patchline" : 								{
									"source" : [ "obj-18", 0 ],
									"destination" : [ "obj-24", 0 ],
									"hidden" : 0,
									"midpoints" : [  ]
								}

							}
, 							{
								"patchline" : 								{
									"source" : [ "obj-22", 0 ],
									"destination" : [ "obj-23", 0 ],
									"hidden" : 0,
									"midpoints" : [  ]
								}

							}
, 							{
								"patchline" : 								{
									"source" : [ "obj-5", 0 ],
									"destination" : [ "obj-8", 1 ],
									"hidden" : 0,
									"midpoints" : [  ]
								}

							}
, 							{
								"patchline" : 								{
									"source" : [ "obj-21", 0 ],
									"destination" : [ "obj-13", 0 ],
									"hidden" : 0,
									"midpoints" : [  ]
								}

							}
, 							{
								"patchline" : 								{
									"source" : [ "obj-37", 0 ],
									"destination" : [ "obj-25", 3 ],
									"hidden" : 0,
									"midpoints" : [  ]
								}

							}
, 							{
								"patchline" : 								{
									"source" : [ "obj-36", 1 ],
									"destination" : [ "obj-35", 0 ],
									"hidden" : 0,
									"midpoints" : [  ]
								}

							}
, 							{
								"patchline" : 								{
									"source" : [ "obj-35", 0 ],
									"destination" : [ "obj-25", 2 ],
									"hidden" : 0,
									"midpoints" : [  ]
								}

							}
, 							{
								"patchline" : 								{
									"source" : [ "obj-36", 0 ],
									"destination" : [ "obj-25", 0 ],
									"hidden" : 0,
									"midpoints" : [  ]
								}

							}
, 							{
								"patchline" : 								{
									"source" : [ "obj-13", 1 ],
									"destination" : [ "obj-36", 0 ],
									"hidden" : 0,
									"midpoints" : [  ]
								}

							}
, 							{
								"patchline" : 								{
									"source" : [ "obj-25", 0 ],
									"destination" : [ "obj-12", 0 ],
									"hidden" : 0,
									"midpoints" : [  ]
								}

							}
, 							{
								"patchline" : 								{
									"source" : [ "obj-4", 0 ],
									"destination" : [ "obj-5", 0 ],
									"hidden" : 1,
									"midpoints" : [  ]
								}

							}
, 							{
								"patchline" : 								{
									"source" : [ "obj-11", 0 ],
									"destination" : [ "obj-14", 0 ],
									"hidden" : 0,
									"midpoints" : [  ]
								}

							}
, 							{
								"patchline" : 								{
									"source" : [ "obj-2", 0 ],
									"destination" : [ "obj-3", 0 ],
									"hidden" : 0,
									"midpoints" : [  ]
								}

							}
, 							{
								"patchline" : 								{
									"source" : [ "obj-10", 0 ],
									"destination" : [ "obj-8", 0 ],
									"hidden" : 0,
									"midpoints" : [  ]
								}

							}
, 							{
								"patchline" : 								{
									"source" : [ "obj-19", 0 ],
									"destination" : [ "obj-10", 0 ],
									"hidden" : 0,
									"midpoints" : [  ]
								}

							}
, 							{
								"patchline" : 								{
									"source" : [ "obj-12", 0 ],
									"destination" : [ "obj-8", 1 ],
									"hidden" : 0,
									"midpoints" : [  ]
								}

							}
, 							{
								"patchline" : 								{
									"source" : [ "obj-8", 0 ],
									"destination" : [ "obj-14", 0 ],
									"hidden" : 0,
									"midpoints" : [  ]
								}

							}
, 							{
								"patchline" : 								{
									"source" : [ "obj-3", 0 ],
									"destination" : [ "obj-18", 0 ],
									"hidden" : 0,
									"midpoints" : [  ]
								}

							}
, 							{
								"patchline" : 								{
									"source" : [ "obj-13", 1 ],
									"destination" : [ "obj-33", 0 ],
									"hidden" : 0,
									"midpoints" : [  ]
								}

							}
, 							{
								"patchline" : 								{
									"source" : [ "obj-33", 0 ],
									"destination" : [ "obj-39", 0 ],
									"hidden" : 0,
									"midpoints" : [  ]
								}

							}
, 							{
								"patchline" : 								{
									"source" : [ "obj-39", 0 ],
									"destination" : [ "obj-38", 0 ],
									"hidden" : 0,
									"midpoints" : [  ]
								}

							}
, 							{
								"patchline" : 								{
									"source" : [ "obj-38", 0 ],
									"destination" : [ "obj-11", 0 ],
									"hidden" : 0,
									"midpoints" : [  ]
								}

							}
, 							{
								"patchline" : 								{
									"source" : [ "obj-13", 2 ],
									"destination" : [ "obj-41", 0 ],
									"hidden" : 0,
									"midpoints" : [  ]
								}

							}
, 							{
								"patchline" : 								{
									"source" : [ "obj-41", 0 ],
									"destination" : [ "obj-25", 1 ],
									"hidden" : 0,
									"midpoints" : [  ]
								}

							}
, 							{
								"patchline" : 								{
									"source" : [ "obj-41", 1 ],
									"destination" : [ "obj-37", 0 ],
									"hidden" : 0,
									"midpoints" : [  ]
								}

							}
, 							{
								"patchline" : 								{
									"source" : [ "obj-42", 0 ],
									"destination" : [ "obj-38", 1 ],
									"hidden" : 0,
									"midpoints" : [  ]
								}

							}
, 							{
								"patchline" : 								{
									"source" : [ "obj-13", 2 ],
									"destination" : [ "obj-42", 0 ],
									"hidden" : 0,
									"midpoints" : [  ]
								}

							}
, 							{
								"patchline" : 								{
									"source" : [ "obj-34", 0 ],
									"destination" : [ "obj-38", 2 ],
									"hidden" : 0,
									"midpoints" : [  ]
								}

							}
, 							{
								"patchline" : 								{
									"source" : [ "obj-33", 1 ],
									"destination" : [ "obj-34", 0 ],
									"hidden" : 0,
									"midpoints" : [  ]
								}

							}
, 							{
								"patchline" : 								{
									"source" : [ "obj-42", 1 ],
									"destination" : [ "obj-32", 0 ],
									"hidden" : 0,
									"midpoints" : [  ]
								}

							}
, 							{
								"patchline" : 								{
									"source" : [ "obj-32", 0 ],
									"destination" : [ "obj-38", 3 ],
									"hidden" : 0,
									"midpoints" : [  ]
								}

							}
, 							{
								"patchline" : 								{
									"source" : [ "obj-53", 0 ],
									"destination" : [ "obj-55", 0 ],
									"hidden" : 0,
									"midpoints" : [  ]
								}

							}
, 							{
								"patchline" : 								{
									"source" : [ "obj-55", 0 ],
									"destination" : [ "obj-10", 0 ],
									"hidden" : 0,
									"midpoints" : [  ]
								}

							}
, 							{
								"patchline" : 								{
									"source" : [ "obj-7", 0 ],
									"destination" : [ "obj-27", 0 ],
									"hidden" : 0,
									"midpoints" : [  ]
								}

							}
 ]
					}
,
					"saved_object_attributes" : 					{
						"default_fontface" : 0,
						"fontname" : "Arial",
						"default_fontname" : "Arial",
						"globalpatchername" : "",
						"fontface" : 0,
						"default_fontsize" : 12.0,
						"fontsize" : 12.0
					}

				}

			}
, 			{
				"box" : 				{
					"maxclass" : "comment",
					"text" : "Inhibited Send/Receive pair",
					"presentation_linecount" : 2,
					"presentation_rect" : [ 62.0, 26.0, 110.0, 34.0 ],
					"numinlets" : 1,
					"frgb" : [ 0.0, 0.0, 0.0, 1.0 ],
					"numoutlets" : 0,
					"patching_rect" : [ 12.0, 11.0, 161.0, 20.0 ],
					"presentation" : 1,
					"id" : "obj-32",
					"fontname" : "Arial",
					"fontsize" : 12.0
				}

			}
, 			{
				"box" : 				{
					"maxclass" : "message",
					"text" : "0",
					"numinlets" : 2,
					"numoutlets" : 1,
					"patching_rect" : [ 88.0, 149.0, 18.0, 18.0 ],
					"id" : "obj-25",
					"fontname" : "Arial",
					"outlettype" : [ "" ],
					"fontsize" : 12.0
				}

			}
, 			{
				"box" : 				{
					"maxclass" : "message",
					"text" : "1",
					"numinlets" : 2,
					"numoutlets" : 1,
					"patching_rect" : [ 50.0, 149.0, 18.0, 18.0 ],
					"id" : "obj-26",
					"fontname" : "Arial",
					"outlettype" : [ "" ],
					"fontsize" : 12.0
				}

			}
, 			{
				"box" : 				{
					"maxclass" : "newobj",
					"text" : "gate",
					"numinlets" : 2,
					"numoutlets" : 1,
					"patching_rect" : [ 88.0, 178.0, 34.0, 20.0 ],
					"id" : "obj-27",
					"fontname" : "Arial",
					"outlettype" : [ "" ],
					"fontsize" : 12.0
				}

			}
, 			{
				"box" : 				{
					"maxclass" : "inlet",
					"presentation_rect" : [ 7.0, 29.0, 25.0, 25.0 ],
					"numinlets" : 0,
					"numoutlets" : 1,
					"patching_rect" : [ 103.0, 117.0, 25.0, 25.0 ],
					"presentation" : 1,
					"id" : "obj-23",
					"outlettype" : [ "" ],
					"comment" : ""
				}

			}
, 			{
				"box" : 				{
					"maxclass" : "outlet",
					"presentation_rect" : [ 35.0, 29.0, 25.0, 25.0 ],
					"numinlets" : 1,
					"numoutlets" : 0,
					"patching_rect" : [ 67.0, 117.0, 25.0, 25.0 ],
					"presentation" : 1,
					"id" : "obj-22",
					"comment" : ""
				}

			}
, 			{
				"box" : 				{
					"maxclass" : "newobj",
					"text" : "s #1",
					"presentation_rect" : [ 7.0, 58.0, 33.0, 20.0 ],
					"numinlets" : 1,
					"numoutlets" : 0,
					"patching_rect" : [ 169.0, 118.0, 33.0, 20.0 ],
					"presentation" : 1,
					"id" : "obj-11",
					"fontname" : "Arial",
					"fontsize" : 12.0
				}

			}
, 			{
				"box" : 				{
					"maxclass" : "newobj",
					"text" : "r #1",
					"presentation_rect" : [ 35.0, 5.0, 31.0, 20.0 ],
					"numinlets" : 0,
					"numoutlets" : 1,
					"patching_rect" : [ 214.0, 146.0, 31.0, 20.0 ],
					"presentation" : 1,
					"id" : "obj-10",
					"fontname" : "Arial",
					"outlettype" : [ "" ],
					"fontsize" : 12.0
				}

			}
, 			{
				"box" : 				{
					"maxclass" : "message",
					"text" : "0",
					"numinlets" : 2,
					"numoutlets" : 1,
					"patching_rect" : [ 190.0, 148.0, 18.0, 18.0 ],
					"id" : "obj-7",
					"fontname" : "Arial",
					"outlettype" : [ "" ],
					"fontsize" : 12.0
				}

			}
, 			{
				"box" : 				{
					"maxclass" : "message",
					"text" : "1",
					"numinlets" : 2,
					"numoutlets" : 1,
					"patching_rect" : [ 152.0, 148.0, 18.0, 18.0 ],
					"id" : "obj-5",
					"fontname" : "Arial",
					"outlettype" : [ "" ],
					"fontsize" : 12.0
				}

			}
, 			{
				"box" : 				{
					"maxclass" : "newobj",
					"text" : "loadbang",
					"numinlets" : 1,
					"numoutlets" : 1,
					"patching_rect" : [ 99.0, 45.0, 60.0, 20.0 ],
					"id" : "obj-3",
					"fontname" : "Arial",
					"outlettype" : [ "bang" ],
					"fontsize" : 12.0
				}

			}
, 			{
				"box" : 				{
					"maxclass" : "newobj",
					"text" : "gate",
					"numinlets" : 2,
					"numoutlets" : 1,
					"patching_rect" : [ 190.0, 177.0, 34.0, 20.0 ],
					"id" : "obj-1",
					"fontname" : "Arial",
					"outlettype" : [ "" ],
					"fontsize" : 12.0
				}

			}
 ],
		"lines" : [ 			{
				"patchline" : 				{
					"source" : [ "obj-3", 0 ],
					"destination" : [ "obj-5", 0 ],
					"hidden" : 0,
					"midpoints" : [  ]
				}

			}
, 			{
				"patchline" : 				{
					"source" : [ "obj-3", 0 ],
					"destination" : [ "obj-26", 0 ],
					"hidden" : 0,
					"midpoints" : [  ]
				}

			}
, 			{
				"patchline" : 				{
					"source" : [ "obj-10", 0 ],
					"destination" : [ "obj-1", 1 ],
					"hidden" : 0,
					"midpoints" : [  ]
				}

			}
, 			{
				"patchline" : 				{
					"source" : [ "obj-23", 0 ],
					"destination" : [ "obj-27", 1 ],
					"hidden" : 0,
					"midpoints" : [  ]
				}

			}
, 			{
				"patchline" : 				{
					"source" : [ "obj-25", 0 ],
					"destination" : [ "obj-27", 0 ],
					"hidden" : 0,
					"midpoints" : [  ]
				}

			}
, 			{
				"patchline" : 				{
					"source" : [ "obj-26", 0 ],
					"destination" : [ "obj-27", 0 ],
					"hidden" : 0,
					"midpoints" : [  ]
				}

			}
, 			{
				"patchline" : 				{
					"source" : [ "obj-5", 0 ],
					"destination" : [ "obj-1", 0 ],
					"hidden" : 0,
					"midpoints" : [  ]
				}

			}
, 			{
				"patchline" : 				{
					"source" : [ "obj-7", 0 ],
					"destination" : [ "obj-1", 0 ],
					"hidden" : 0,
					"midpoints" : [  ]
				}

			}
, 			{
				"patchline" : 				{
					"source" : [ "obj-27", 0 ],
					"destination" : [ "obj-2", 0 ],
					"hidden" : 0,
					"midpoints" : [ 97.5, 204.0, 146.0, 204.0, 146.0, 81.0, 159.5, 81.0 ]
				}

			}
, 			{
				"patchline" : 				{
					"source" : [ "obj-2", 0 ],
					"destination" : [ "obj-5", 0 ],
					"hidden" : 0,
					"midpoints" : [  ]
				}

			}
, 			{
				"patchline" : 				{
					"source" : [ "obj-2", 1 ],
					"destination" : [ "obj-11", 0 ],
					"hidden" : 0,
					"midpoints" : [  ]
				}

			}
, 			{
				"patchline" : 				{
					"source" : [ "obj-2", 2 ],
					"destination" : [ "obj-7", 0 ],
					"hidden" : 0,
					"midpoints" : [  ]
				}

			}
, 			{
				"patchline" : 				{
					"source" : [ "obj-1", 0 ],
					"destination" : [ "obj-4", 0 ],
					"hidden" : 0,
					"midpoints" : [ 199.5, 214.0, 36.0, 214.0, 36.0, 81.272293, 57.5, 81.272293 ]
				}

			}
, 			{
				"patchline" : 				{
					"source" : [ "obj-4", 0 ],
					"destination" : [ "obj-26", 0 ],
					"hidden" : 0,
					"midpoints" : [  ]
				}

			}
, 			{
				"patchline" : 				{
					"source" : [ "obj-4", 1 ],
					"destination" : [ "obj-22", 0 ],
					"hidden" : 0,
					"midpoints" : [  ]
				}

			}
, 			{
				"patchline" : 				{
					"source" : [ "obj-4", 2 ],
					"destination" : [ "obj-25", 0 ],
					"hidden" : 0,
					"midpoints" : [  ]
				}

			}
 ]
	}

}
