{
	"patcher" : 	{
		"fileversion" : 1,
		"rect" : [ 604.0, 151.0, 596.0, 819.0 ],
		"bgcolor" : [ 1.0, 1.0, 1.0, 0.0 ],
		"bglocked" : 0,
		"defrect" : [ 604.0, 151.0, 596.0, 819.0 ],
		"openrect" : [ 0.0, 0.0, 0.0, 0.0 ],
		"openinpresentation" : 1,
		"default_fontsize" : 12.0,
		"default_fontface" : 0,
		"default_fontname" : "Arial",
		"gridonopen" : 0,
		"gridsize" : [ 5.0, 5.0 ],
		"gridsnaponopen" : 0,
		"toolbarvisible" : 1,
		"boxanimatetime" : 200,
		"imprint" : 0,
		"enablehscroll" : 1,
		"enablevscroll" : 1,
		"devicewidth" : 0.0,
		"boxes" : [ 			{
				"box" : 				{
					"maxclass" : "button",
					"presentation" : 1,
					"numoutlets" : 1,
					"outlettype" : [ "bang" ],
					"outlinecolor" : [ 0.333333, 0.333333, 0.333333, 1.0 ],
					"presentation_rect" : [ 12.0, 199.0, 11.0, 11.0 ],
					"id" : "obj-37",
					"patching_rect" : [ 354.0, 490.0, 15.0, 15.0 ],
					"numinlets" : 1,
					"bgcolor" : [ 0.913725, 0.913725, 0.913725, 0.0 ]
				}

			}
, 			{
				"box" : 				{
					"maxclass" : "newobj",
					"text" : "scale 0 128 0. 1. 1.071519",
					"numoutlets" : 1,
					"outlettype" : [ "" ],
					"fontname" : "Arial",
					"id" : "obj-62",
					"patching_rect" : [ 86.0, 668.0, 128.0, 18.0 ],
					"fontsize" : 10.0,
					"numinlets" : 6
				}

			}
, 			{
				"box" : 				{
					"maxclass" : "newobj",
					"text" : "*~",
					"numoutlets" : 1,
					"outlettype" : [ "signal" ],
					"fontname" : "Arial",
					"id" : "obj-36",
					"patching_rect" : [ 299.0, 704.0, 32.5, 18.0 ],
					"fontsize" : 10.0,
					"numinlets" : 2
				}

			}
, 			{
				"box" : 				{
					"maxclass" : "newobj",
					"text" : "*~",
					"numoutlets" : 1,
					"outlettype" : [ "signal" ],
					"fontname" : "Arial",
					"id" : "obj-35",
					"patching_rect" : [ 433.0, 704.0, 32.5, 18.0 ],
					"fontsize" : 10.0,
					"numinlets" : 2
				}

			}
, 			{
				"box" : 				{
					"maxclass" : "newobj",
					"text" : "r Master_Vol",
					"numoutlets" : 1,
					"outlettype" : [ "" ],
					"fontname" : "Arial",
					"color" : [ 0.0, 0.0, 0.501961, 1.0 ],
					"id" : "obj-18",
					"patching_rect" : [ 86.0, 642.0, 67.0, 18.0 ],
					"fontsize" : 10.0,
					"numinlets" : 0
				}

			}
, 			{
				"box" : 				{
					"maxclass" : "newobj",
					"text" : "regexp Impro([1-4])",
					"numoutlets" : 5,
					"outlettype" : [ "", "", "", "", "" ],
					"fontname" : "Arial",
					"id" : "obj-33",
					"patching_rect" : [ 6.0, 375.0, 113.0, 20.0 ],
					"fontsize" : 12.0,
					"numinlets" : 1
				}

			}
, 			{
				"box" : 				{
					"maxclass" : "newobj",
					"text" : "t 0",
					"numoutlets" : 1,
					"outlettype" : [ "int" ],
					"fontname" : "Arial",
					"id" : "obj-34",
					"patching_rect" : [ 231.0, 94.0, 24.0, 20.0 ],
					"fontsize" : 12.0,
					"numinlets" : 1
				}

			}
, 			{
				"box" : 				{
					"maxclass" : "newobj",
					"text" : "route close",
					"numoutlets" : 2,
					"outlettype" : [ "", "" ],
					"fontname" : "Arial",
					"id" : "obj-5",
					"patching_rect" : [ 231.0, 69.0, 69.0, 20.0 ],
					"fontsize" : 12.0,
					"numinlets" : 1
				}

			}
, 			{
				"box" : 				{
					"maxclass" : "outlet",
					"numoutlets" : 0,
					"id" : "obj-31",
					"patching_rect" : [ 417.0, 750.0, 25.0, 25.0 ],
					"numinlets" : 1,
					"comment" : "signal: Player2"
				}

			}
, 			{
				"box" : 				{
					"maxclass" : "outlet",
					"numoutlets" : 0,
					"id" : "obj-7",
					"patching_rect" : [ 281.0, 750.0, 25.0, 25.0 ],
					"numinlets" : 1,
					"comment" : "signal: Player1"
				}

			}
, 			{
				"box" : 				{
					"maxclass" : "newobj",
					"text" : "gate~",
					"numoutlets" : 1,
					"outlettype" : [ "signal" ],
					"fontname" : "Arial",
					"id" : "obj-30",
					"patching_rect" : [ 433.399902, 500.422424, 36.0, 18.0 ],
					"fontsize" : 10.0,
					"numinlets" : 2
				}

			}
, 			{
				"box" : 				{
					"maxclass" : "gain~",
					"numoutlets" : 2,
					"outlettype" : [ "signal", "int" ],
					"interp" : 157.0,
					"id" : "obj-28",
					"patching_rect" : [ 438.399902, 563.0, 13.0, 86.0 ],
					"numinlets" : 2
				}

			}
, 			{
				"box" : 				{
					"maxclass" : "newobj",
					"text" : "p Channel",
					"numoutlets" : 2,
					"outlettype" : [ "signal", "" ],
					"fontname" : "Arial",
					"id" : "obj-3",
					"patching_rect" : [ 377.0, 633.0, 56.0, 18.0 ],
					"fontsize" : 10.0,
					"numinlets" : 1,
					"patcher" : 					{
						"fileversion" : 1,
						"rect" : [ 29.0, 69.0, 213.0, 356.0 ],
						"bglocked" : 0,
						"defrect" : [ 29.0, 69.0, 213.0, 356.0 ],
						"openrect" : [ 0.0, 0.0, 0.0, 0.0 ],
						"openinpresentation" : 0,
						"default_fontsize" : 12.0,
						"default_fontface" : 0,
						"default_fontname" : "Arial",
						"gridonopen" : 0,
						"gridsize" : [ 5.0, 5.0 ],
						"gridsnaponopen" : 0,
						"toolbarvisible" : 1,
						"boxanimatetime" : 200,
						"imprint" : 0,
						"enablehscroll" : 1,
						"enablevscroll" : 1,
						"devicewidth" : 0.0,
						"boxes" : [ 							{
								"box" : 								{
									"maxclass" : "newobj",
									"text" : "i 0",
									"numoutlets" : 1,
									"outlettype" : [ "int" ],
									"fontname" : "Arial",
									"id" : "obj-40",
									"patching_rect" : [ 80.0, 234.0, 32.5, 20.0 ],
									"fontsize" : 12.0,
									"numinlets" : 2
								}

							}
, 							{
								"box" : 								{
									"maxclass" : "message",
									"text" : "set $1",
									"numoutlets" : 1,
									"outlettype" : [ "" ],
									"fontname" : "Arial",
									"id" : "obj-39",
									"patching_rect" : [ 80.0, 258.0, 43.0, 18.0 ],
									"fontsize" : 12.0,
									"numinlets" : 2
								}

							}
, 							{
								"box" : 								{
									"maxclass" : "newobj",
									"text" : "t b i b",
									"numoutlets" : 3,
									"outlettype" : [ "bang", "int", "bang" ],
									"fontname" : "Arial",
									"id" : "obj-37",
									"patching_rect" : [ 34.0, 81.0, 46.0, 20.0 ],
									"fontsize" : 12.0,
									"numinlets" : 1
								}

							}
, 							{
								"box" : 								{
									"maxclass" : "newobj",
									"text" : "t b b",
									"numoutlets" : 2,
									"outlettype" : [ "bang", "bang" ],
									"fontname" : "Arial",
									"id" : "obj-34",
									"patching_rect" : [ 65.0, 204.0, 34.0, 20.0 ],
									"fontsize" : 12.0,
									"numinlets" : 1
								}

							}
, 							{
								"box" : 								{
									"maxclass" : "message",
									"text" : "0., 1. 100",
									"numoutlets" : 1,
									"outlettype" : [ "" ],
									"fontname" : "Arial",
									"id" : "obj-24",
									"patching_rect" : [ 102.0, 115.0, 61.0, 18.0 ],
									"fontsize" : 12.0,
									"numinlets" : 2
								}

							}
, 							{
								"box" : 								{
									"maxclass" : "newobj",
									"text" : "onebang",
									"numoutlets" : 2,
									"outlettype" : [ "bang", "bang" ],
									"fontname" : "Arial",
									"id" : "obj-18",
									"patching_rect" : [ 65.0, 180.0, 57.0, 20.0 ],
									"fontsize" : 12.0,
									"numinlets" : 2
								}

							}
, 							{
								"box" : 								{
									"maxclass" : "newobj",
									"text" : "change",
									"numoutlets" : 3,
									"outlettype" : [ "", "int", "int" ],
									"fontname" : "Arial",
									"id" : "obj-15",
									"patching_rect" : [ 34.0, 55.0, 50.0, 20.0 ],
									"fontsize" : 12.0,
									"numinlets" : 1
								}

							}
, 							{
								"box" : 								{
									"maxclass" : "message",
									"text" : "1., 0. 100",
									"numoutlets" : 1,
									"outlettype" : [ "" ],
									"fontname" : "Arial",
									"id" : "obj-14",
									"patching_rect" : [ 34.0, 115.0, 61.0, 18.0 ],
									"fontsize" : 12.0,
									"numinlets" : 2
								}

							}
, 							{
								"box" : 								{
									"maxclass" : "newobj",
									"text" : "line~ 1.",
									"numoutlets" : 2,
									"outlettype" : [ "signal", "bang" ],
									"fontname" : "Arial",
									"id" : "obj-12",
									"patching_rect" : [ 34.0, 146.0, 50.0, 20.0 ],
									"fontsize" : 12.0,
									"numinlets" : 2
								}

							}
, 							{
								"box" : 								{
									"maxclass" : "inlet",
									"numoutlets" : 1,
									"outlettype" : [ "int" ],
									"id" : "obj-42",
									"patching_rect" : [ 34.0, 19.0, 25.0, 25.0 ],
									"numinlets" : 0,
									"comment" : ""
								}

							}
, 							{
								"box" : 								{
									"maxclass" : "outlet",
									"numoutlets" : 0,
									"id" : "obj-43",
									"patching_rect" : [ 34.0, 287.0, 25.0, 25.0 ],
									"numinlets" : 1,
									"comment" : ""
								}

							}
, 							{
								"box" : 								{
									"maxclass" : "outlet",
									"numoutlets" : 0,
									"id" : "obj-44",
									"patching_rect" : [ 80.0, 287.0, 25.0, 25.0 ],
									"numinlets" : 1,
									"comment" : ""
								}

							}
 ],
						"lines" : [ 							{
								"patchline" : 								{
									"source" : [ "obj-18", 0 ],
									"destination" : [ "obj-34", 0 ],
									"hidden" : 0,
									"midpoints" : [  ]
								}

							}
, 							{
								"patchline" : 								{
									"source" : [ "obj-34", 0 ],
									"destination" : [ "obj-24", 0 ],
									"hidden" : 0,
									"midpoints" : [ 74.5, 228.0, 170.0, 228.0, 170.0, 111.0, 111.5, 111.0 ]
								}

							}
, 							{
								"patchline" : 								{
									"source" : [ "obj-40", 0 ],
									"destination" : [ "obj-39", 0 ],
									"hidden" : 0,
									"midpoints" : [  ]
								}

							}
, 							{
								"patchline" : 								{
									"source" : [ "obj-34", 1 ],
									"destination" : [ "obj-40", 0 ],
									"hidden" : 0,
									"midpoints" : [  ]
								}

							}
, 							{
								"patchline" : 								{
									"source" : [ "obj-37", 0 ],
									"destination" : [ "obj-14", 0 ],
									"hidden" : 0,
									"midpoints" : [  ]
								}

							}
, 							{
								"patchline" : 								{
									"source" : [ "obj-37", 1 ],
									"destination" : [ "obj-40", 1 ],
									"hidden" : 0,
									"midpoints" : [  ]
								}

							}
, 							{
								"patchline" : 								{
									"source" : [ "obj-15", 0 ],
									"destination" : [ "obj-37", 0 ],
									"hidden" : 0,
									"midpoints" : [  ]
								}

							}
, 							{
								"patchline" : 								{
									"source" : [ "obj-37", 2 ],
									"destination" : [ "obj-18", 1 ],
									"hidden" : 0,
									"midpoints" : [  ]
								}

							}
, 							{
								"patchline" : 								{
									"source" : [ "obj-42", 0 ],
									"destination" : [ "obj-15", 0 ],
									"hidden" : 0,
									"midpoints" : [  ]
								}

							}
, 							{
								"patchline" : 								{
									"source" : [ "obj-39", 0 ],
									"destination" : [ "obj-44", 0 ],
									"hidden" : 0,
									"midpoints" : [  ]
								}

							}
, 							{
								"patchline" : 								{
									"source" : [ "obj-12", 0 ],
									"destination" : [ "obj-43", 0 ],
									"hidden" : 0,
									"midpoints" : [  ]
								}

							}
, 							{
								"patchline" : 								{
									"source" : [ "obj-14", 0 ],
									"destination" : [ "obj-12", 0 ],
									"hidden" : 0,
									"midpoints" : [  ]
								}

							}
, 							{
								"patchline" : 								{
									"source" : [ "obj-12", 1 ],
									"destination" : [ "obj-18", 0 ],
									"hidden" : 0,
									"midpoints" : [  ]
								}

							}
, 							{
								"patchline" : 								{
									"source" : [ "obj-24", 0 ],
									"destination" : [ "obj-12", 0 ],
									"hidden" : 0,
									"midpoints" : [  ]
								}

							}
 ]
					}
,
					"saved_object_attributes" : 					{
						"default_fontface" : 0,
						"default_fontname" : "Arial",
						"fontname" : "Arial",
						"default_fontsize" : 12.0,
						"globalpatchername" : "",
						"fontface" : 0,
						"fontsize" : 12.0
					}

				}

			}
, 			{
				"box" : 				{
					"maxclass" : "newobj",
					"text" : "*~",
					"numoutlets" : 1,
					"outlettype" : [ "signal" ],
					"fontname" : "Arial",
					"id" : "obj-6",
					"patching_rect" : [ 433.0, 671.0, 32.5, 18.0 ],
					"fontsize" : 10.0,
					"numinlets" : 2
				}

			}
, 			{
				"box" : 				{
					"maxclass" : "comment",
					"text" : "ch",
					"numoutlets" : 0,
					"fontname" : "Arial",
					"id" : "obj-12",
					"patching_rect" : [ 410.0, 610.0, 20.0, 18.0 ],
					"fontsize" : 10.0,
					"numinlets" : 1
				}

			}
, 			{
				"box" : 				{
					"maxclass" : "number",
					"presentation" : 1,
					"numoutlets" : 2,
					"triangle" : 0,
					"outlettype" : [ "int", "bang" ],
					"fontname" : "Arial",
					"presentation_rect" : [ 42.393173, 250.0, 20.0, 18.0 ],
					"id" : "obj-15",
					"minimum" : 1,
					"patching_rect" : [ 377.0, 610.0, 30.0, 18.0 ],
					"fontsize" : 10.0,
					"numinlets" : 1,
					"maximum" : 28
				}

			}
, 			{
				"box" : 				{
					"maxclass" : "newobj",
					"text" : "dac~ 1",
					"numoutlets" : 0,
					"fontname" : "Arial",
					"id" : "obj-24",
					"patching_rect" : [ 450.140747, 750.0, 42.0, 18.0 ],
					"fontsize" : 10.0,
					"numinlets" : 1
				}

			}
, 			{
				"box" : 				{
					"maxclass" : "newobj",
					"text" : "p Channel",
					"numoutlets" : 2,
					"outlettype" : [ "signal", "" ],
					"fontname" : "Arial",
					"id" : "obj-46",
					"patching_rect" : [ 242.0, 634.0, 56.0, 18.0 ],
					"fontsize" : 10.0,
					"numinlets" : 1,
					"patcher" : 					{
						"fileversion" : 1,
						"rect" : [ 29.0, 69.0, 213.0, 356.0 ],
						"bglocked" : 0,
						"defrect" : [ 29.0, 69.0, 213.0, 356.0 ],
						"openrect" : [ 0.0, 0.0, 0.0, 0.0 ],
						"openinpresentation" : 0,
						"default_fontsize" : 12.0,
						"default_fontface" : 0,
						"default_fontname" : "Arial",
						"gridonopen" : 0,
						"gridsize" : [ 5.0, 5.0 ],
						"gridsnaponopen" : 0,
						"toolbarvisible" : 1,
						"boxanimatetime" : 200,
						"imprint" : 0,
						"enablehscroll" : 1,
						"enablevscroll" : 1,
						"devicewidth" : 0.0,
						"boxes" : [ 							{
								"box" : 								{
									"maxclass" : "newobj",
									"text" : "i 0",
									"numoutlets" : 1,
									"outlettype" : [ "int" ],
									"fontname" : "Arial",
									"id" : "obj-40",
									"patching_rect" : [ 80.0, 234.0, 32.5, 20.0 ],
									"fontsize" : 12.0,
									"numinlets" : 2
								}

							}
, 							{
								"box" : 								{
									"maxclass" : "message",
									"text" : "set $1",
									"numoutlets" : 1,
									"outlettype" : [ "" ],
									"fontname" : "Arial",
									"id" : "obj-39",
									"patching_rect" : [ 80.0, 258.0, 43.0, 18.0 ],
									"fontsize" : 12.0,
									"numinlets" : 2
								}

							}
, 							{
								"box" : 								{
									"maxclass" : "newobj",
									"text" : "t b i b",
									"numoutlets" : 3,
									"outlettype" : [ "bang", "int", "bang" ],
									"fontname" : "Arial",
									"id" : "obj-37",
									"patching_rect" : [ 34.0, 81.0, 46.0, 20.0 ],
									"fontsize" : 12.0,
									"numinlets" : 1
								}

							}
, 							{
								"box" : 								{
									"maxclass" : "newobj",
									"text" : "t b b",
									"numoutlets" : 2,
									"outlettype" : [ "bang", "bang" ],
									"fontname" : "Arial",
									"id" : "obj-34",
									"patching_rect" : [ 65.0, 204.0, 34.0, 20.0 ],
									"fontsize" : 12.0,
									"numinlets" : 1
								}

							}
, 							{
								"box" : 								{
									"maxclass" : "message",
									"text" : "0., 1. 100",
									"numoutlets" : 1,
									"outlettype" : [ "" ],
									"fontname" : "Arial",
									"id" : "obj-24",
									"patching_rect" : [ 102.0, 115.0, 61.0, 18.0 ],
									"fontsize" : 12.0,
									"numinlets" : 2
								}

							}
, 							{
								"box" : 								{
									"maxclass" : "newobj",
									"text" : "onebang",
									"numoutlets" : 2,
									"outlettype" : [ "bang", "bang" ],
									"fontname" : "Arial",
									"id" : "obj-18",
									"patching_rect" : [ 65.0, 180.0, 57.0, 20.0 ],
									"fontsize" : 12.0,
									"numinlets" : 2
								}

							}
, 							{
								"box" : 								{
									"maxclass" : "newobj",
									"text" : "change",
									"numoutlets" : 3,
									"outlettype" : [ "", "int", "int" ],
									"fontname" : "Arial",
									"id" : "obj-15",
									"patching_rect" : [ 34.0, 55.0, 50.0, 20.0 ],
									"fontsize" : 12.0,
									"numinlets" : 1
								}

							}
, 							{
								"box" : 								{
									"maxclass" : "message",
									"text" : "1., 0. 100",
									"numoutlets" : 1,
									"outlettype" : [ "" ],
									"fontname" : "Arial",
									"id" : "obj-14",
									"patching_rect" : [ 34.0, 115.0, 61.0, 18.0 ],
									"fontsize" : 12.0,
									"numinlets" : 2
								}

							}
, 							{
								"box" : 								{
									"maxclass" : "newobj",
									"text" : "line~ 1.",
									"numoutlets" : 2,
									"outlettype" : [ "signal", "bang" ],
									"fontname" : "Arial",
									"id" : "obj-12",
									"patching_rect" : [ 34.0, 146.0, 50.0, 20.0 ],
									"fontsize" : 12.0,
									"numinlets" : 2
								}

							}
, 							{
								"box" : 								{
									"maxclass" : "inlet",
									"numoutlets" : 1,
									"outlettype" : [ "int" ],
									"id" : "obj-42",
									"patching_rect" : [ 34.0, 19.0, 25.0, 25.0 ],
									"numinlets" : 0,
									"comment" : ""
								}

							}
, 							{
								"box" : 								{
									"maxclass" : "outlet",
									"numoutlets" : 0,
									"id" : "obj-43",
									"patching_rect" : [ 34.0, 287.0, 25.0, 25.0 ],
									"numinlets" : 1,
									"comment" : ""
								}

							}
, 							{
								"box" : 								{
									"maxclass" : "outlet",
									"numoutlets" : 0,
									"id" : "obj-44",
									"patching_rect" : [ 80.0, 287.0, 25.0, 25.0 ],
									"numinlets" : 1,
									"comment" : ""
								}

							}
 ],
						"lines" : [ 							{
								"patchline" : 								{
									"source" : [ "obj-24", 0 ],
									"destination" : [ "obj-12", 0 ],
									"hidden" : 0,
									"midpoints" : [  ]
								}

							}
, 							{
								"patchline" : 								{
									"source" : [ "obj-12", 1 ],
									"destination" : [ "obj-18", 0 ],
									"hidden" : 0,
									"midpoints" : [  ]
								}

							}
, 							{
								"patchline" : 								{
									"source" : [ "obj-14", 0 ],
									"destination" : [ "obj-12", 0 ],
									"hidden" : 0,
									"midpoints" : [  ]
								}

							}
, 							{
								"patchline" : 								{
									"source" : [ "obj-12", 0 ],
									"destination" : [ "obj-43", 0 ],
									"hidden" : 0,
									"midpoints" : [  ]
								}

							}
, 							{
								"patchline" : 								{
									"source" : [ "obj-39", 0 ],
									"destination" : [ "obj-44", 0 ],
									"hidden" : 0,
									"midpoints" : [  ]
								}

							}
, 							{
								"patchline" : 								{
									"source" : [ "obj-42", 0 ],
									"destination" : [ "obj-15", 0 ],
									"hidden" : 0,
									"midpoints" : [  ]
								}

							}
, 							{
								"patchline" : 								{
									"source" : [ "obj-37", 2 ],
									"destination" : [ "obj-18", 1 ],
									"hidden" : 0,
									"midpoints" : [  ]
								}

							}
, 							{
								"patchline" : 								{
									"source" : [ "obj-15", 0 ],
									"destination" : [ "obj-37", 0 ],
									"hidden" : 0,
									"midpoints" : [  ]
								}

							}
, 							{
								"patchline" : 								{
									"source" : [ "obj-37", 1 ],
									"destination" : [ "obj-40", 1 ],
									"hidden" : 0,
									"midpoints" : [  ]
								}

							}
, 							{
								"patchline" : 								{
									"source" : [ "obj-37", 0 ],
									"destination" : [ "obj-14", 0 ],
									"hidden" : 0,
									"midpoints" : [  ]
								}

							}
, 							{
								"patchline" : 								{
									"source" : [ "obj-34", 1 ],
									"destination" : [ "obj-40", 0 ],
									"hidden" : 0,
									"midpoints" : [  ]
								}

							}
, 							{
								"patchline" : 								{
									"source" : [ "obj-40", 0 ],
									"destination" : [ "obj-39", 0 ],
									"hidden" : 0,
									"midpoints" : [  ]
								}

							}
, 							{
								"patchline" : 								{
									"source" : [ "obj-34", 0 ],
									"destination" : [ "obj-24", 0 ],
									"hidden" : 0,
									"midpoints" : [ 74.5, 228.0, 170.0, 228.0, 170.0, 111.0, 111.5, 111.0 ]
								}

							}
, 							{
								"patchline" : 								{
									"source" : [ "obj-18", 0 ],
									"destination" : [ "obj-34", 0 ],
									"hidden" : 0,
									"midpoints" : [  ]
								}

							}
 ]
					}
,
					"saved_object_attributes" : 					{
						"default_fontface" : 0,
						"default_fontname" : "Arial",
						"fontname" : "Arial",
						"default_fontsize" : 12.0,
						"globalpatchername" : "",
						"fontface" : 0,
						"fontsize" : 12.0
					}

				}

			}
, 			{
				"box" : 				{
					"maxclass" : "newobj",
					"text" : "*~",
					"numoutlets" : 1,
					"outlettype" : [ "signal" ],
					"fontname" : "Arial",
					"id" : "obj-11",
					"patching_rect" : [ 298.0, 672.0, 32.5, 18.0 ],
					"fontsize" : 10.0,
					"numinlets" : 2
				}

			}
, 			{
				"box" : 				{
					"maxclass" : "newobj",
					"text" : "prepend bgcolor",
					"numoutlets" : 1,
					"outlettype" : [ "" ],
					"fontname" : "Arial",
					"id" : "obj-19",
					"patching_rect" : [ 66.0, 163.0, 97.0, 20.0 ],
					"fontsize" : 12.0,
					"numinlets" : 1
				}

			}
, 			{
				"box" : 				{
					"maxclass" : "message",
					"text" : "1. 0.7 1. 1.",
					"numoutlets" : 1,
					"outlettype" : [ "" ],
					"fontname" : "Arial",
					"id" : "obj-45",
					"patching_rect" : [ 151.0, 119.0, 67.0, 18.0 ],
					"fontsize" : 12.0,
					"numinlets" : 2
				}

			}
, 			{
				"box" : 				{
					"maxclass" : "message",
					"text" : "0.7 0.7 1. 1.",
					"numoutlets" : 1,
					"outlettype" : [ "" ],
					"fontname" : "Arial",
					"id" : "obj-23",
					"patching_rect" : [ 108.0, 96.0, 74.0, 18.0 ],
					"fontsize" : 12.0,
					"numinlets" : 2
				}

			}
, 			{
				"box" : 				{
					"maxclass" : "message",
					"text" : "0.7 1. 0.7 1.",
					"numoutlets" : 1,
					"outlettype" : [ "" ],
					"fontname" : "Arial",
					"id" : "obj-49",
					"patching_rect" : [ 66.0, 120.0, 74.0, 18.0 ],
					"fontsize" : 12.0,
					"numinlets" : 2
				}

			}
, 			{
				"box" : 				{
					"maxclass" : "message",
					"text" : "1. 0.7 0.7 1.",
					"numoutlets" : 1,
					"outlettype" : [ "" ],
					"fontname" : "Arial",
					"id" : "obj-50",
					"patching_rect" : [ 23.0, 96.0, 74.0, 18.0 ],
					"fontsize" : 12.0,
					"numinlets" : 2
				}

			}
, 			{
				"box" : 				{
					"maxclass" : "newobj",
					"text" : "sel Impro1 Impro2 Impro3 Impro4",
					"numoutlets" : 5,
					"outlettype" : [ "bang", "bang", "bang", "bang", "" ],
					"fontname" : "Arial",
					"id" : "obj-51",
					"patching_rect" : [ 23.0, 69.0, 189.0, 20.0 ],
					"fontsize" : 12.0,
					"numinlets" : 1
				}

			}
, 			{
				"box" : 				{
					"maxclass" : "newobj",
					"text" : "loadmess #1",
					"numoutlets" : 1,
					"outlettype" : [ "" ],
					"fontname" : "Arial",
					"id" : "obj-52",
					"patching_rect" : [ 6.0, 42.0, 79.0, 20.0 ],
					"fontsize" : 12.0,
					"numinlets" : 1
				}

			}
, 			{
				"box" : 				{
					"maxclass" : "comment",
					"text" : "Oracle",
					"numoutlets" : 0,
					"fontname" : "Arial",
					"id" : "obj-29",
					"fontface" : 1,
					"patching_rect" : [ 355.571228, 102.086243, 52.0, 20.0 ],
					"fontsize" : 12.0,
					"numinlets" : 1
				}

			}
, 			{
				"box" : 				{
					"maxclass" : "newobj",
					"text" : "loadmess set #2",
					"numoutlets" : 1,
					"outlettype" : [ "" ],
					"fontname" : "Arial",
					"id" : "obj-26",
					"patching_rect" : [ 316.0, 158.0, 76.0, 17.0 ],
					"fontsize" : 9.0,
					"numinlets" : 1
				}

			}
, 			{
				"box" : 				{
					"maxclass" : "comment",
					"text" : "#2",
					"presentation" : 1,
					"numoutlets" : 0,
					"fontname" : "Arial",
					"presentation_rect" : [ 2.571228, 24.208124, 75.0, 20.0 ],
					"id" : "obj-25",
					"patching_rect" : [ 303.0, 181.0, 101.0, 20.0 ],
					"fontsize" : 12.0,
					"numinlets" : 1
				}

			}
, 			{
				"box" : 				{
					"maxclass" : "newobj",
					"text" : "prepend set",
					"numoutlets" : 1,
					"outlettype" : [ "" ],
					"fontname" : "Arial",
					"id" : "obj-22",
					"patching_rect" : [ 303.0, 134.0, 74.0, 20.0 ],
					"fontsize" : 12.0,
					"numinlets" : 1
				}

			}
, 			{
				"box" : 				{
					"maxclass" : "inlet",
					"numoutlets" : 1,
					"outlettype" : [ "" ],
					"id" : "obj-21",
					"patching_rect" : [ 231.0, 22.0, 25.0, 25.0 ],
					"numinlets" : 0,
					"comment" : "Buffer to read"
				}

			}
, 			{
				"box" : 				{
					"maxclass" : "comment",
					"text" : "ch",
					"presentation" : 1,
					"numoutlets" : 0,
					"fontname" : "Arial",
					"presentation_rect" : [ 43.0, 215.0, 20.0, 18.0 ],
					"id" : "obj-20",
					"patching_rect" : [ 254.0, 580.0, 20.0, 18.0 ],
					"fontsize" : 10.0,
					"numinlets" : 1
				}

			}
, 			{
				"box" : 				{
					"maxclass" : "number",
					"presentation" : 1,
					"numoutlets" : 2,
					"triangle" : 0,
					"outlettype" : [ "int", "bang" ],
					"fontname" : "Arial",
					"presentation_rect" : [ 42.393173, 231.0, 20.0, 18.0 ],
					"id" : "obj-17",
					"minimum" : 1,
					"patching_rect" : [ 242.0, 611.0, 30.0, 18.0 ],
					"fontsize" : 10.0,
					"numinlets" : 1,
					"maximum" : 28
				}

			}
, 			{
				"box" : 				{
					"maxclass" : "number",
					"triscale" : 0.9,
					"numoutlets" : 2,
					"outlettype" : [ "int", "bang" ],
					"fontname" : "Arial",
					"id" : "obj-8",
					"htextcolor" : [ 0.870588, 0.870588, 0.870588, 1.0 ],
					"patching_rect" : [ 131.0, 475.0, 35.0, 17.0 ],
					"fontsize" : 9.0,
					"numinlets" : 1,
					"bgcolor" : [ 0.866667, 0.866667, 0.866667, 1.0 ]
				}

			}
, 			{
				"box" : 				{
					"maxclass" : "newobj",
					"text" : "s #1-Xfade",
					"numoutlets" : 0,
					"fontname" : "Arial",
					"color" : [ 0.0, 0.0, 0.501961, 1.0 ],
					"id" : "obj-9",
					"patching_rect" : [ 131.0, 495.0, 54.0, 17.0 ],
					"fontsize" : 9.0,
					"numinlets" : 1
				}

			}
, 			{
				"box" : 				{
					"maxclass" : "newobj",
					"text" : "loadmess 20",
					"numoutlets" : 1,
					"outlettype" : [ "" ],
					"fontname" : "Arial",
					"id" : "obj-10",
					"patching_rect" : [ 131.0, 456.0, 62.0, 17.0 ],
					"fontsize" : 9.0,
					"numinlets" : 1
				}

			}
, 			{
				"box" : 				{
					"maxclass" : "inlet",
					"numoutlets" : 1,
					"outlettype" : [ "" ],
					"id" : "obj-4",
					"patching_rect" : [ 191.0, 364.0, 25.0, 25.0 ],
					"numinlets" : 0,
					"comment" : ""
				}

			}
, 			{
				"box" : 				{
					"maxclass" : "newobj",
					"text" : "loadmess set #1",
					"numoutlets" : 1,
					"outlettype" : [ "" ],
					"fontname" : "Arial",
					"id" : "obj-2",
					"patching_rect" : [ 346.0, 14.0, 120.0, 20.0 ],
					"fontsize" : 12.0,
					"numinlets" : 1
				}

			}
, 			{
				"box" : 				{
					"maxclass" : "comment",
					"text" : "#1",
					"presentation" : 1,
					"numoutlets" : 0,
					"fontname" : "Arial",
					"presentation_rect" : [ 11.571228, 5.086243, 69.484207, 20.0 ],
					"id" : "obj-1",
					"fontface" : 1,
					"patching_rect" : [ 345.571228, 43.086243, 95.0, 20.0 ],
					"fontsize" : 12.0,
					"numinlets" : 1
				}

			}
, 			{
				"box" : 				{
					"maxclass" : "newobj",
					"text" : "r #1_AudioOutEn",
					"numoutlets" : 1,
					"outlettype" : [ "" ],
					"fontname" : "Arial",
					"color" : [ 0.0, 0.0, 0.501961, 1.0 ],
					"id" : "obj-273",
					"patching_rect" : [ 246.71051, 412.430267, 87.0, 18.0 ],
					"fontsize" : 10.0,
					"numinlets" : 0
				}

			}
, 			{
				"box" : 				{
					"maxclass" : "newobj",
					"text" : "gate~",
					"numoutlets" : 1,
					"outlettype" : [ "signal" ],
					"fontname" : "Arial",
					"id" : "obj-271",
					"patching_rect" : [ 314.399902, 500.422424, 36.0, 18.0 ],
					"fontsize" : 10.0,
					"numinlets" : 2
				}

			}
, 			{
				"box" : 				{
					"maxclass" : "newobj",
					"text" : "sr #1_Vol",
					"numoutlets" : 1,
					"outlettype" : [ "" ],
					"fontname" : "Arial",
					"color" : [ 0.0, 0.0, 0.501961, 1.0 ],
					"id" : "obj-185",
					"patching_rect" : [ 246.71051, 443.839478, 52.0, 18.0 ],
					"fontsize" : 10.0,
					"numinlets" : 1
				}

			}
, 			{
				"box" : 				{
					"maxclass" : "newobj",
					"text" : "loadmess 1",
					"numoutlets" : 1,
					"outlettype" : [ "" ],
					"fontname" : "Arial",
					"id" : "obj-236",
					"hidden" : 1,
					"patching_rect" : [ 313.509216, 392.418427, 63.0, 18.0 ],
					"fontsize" : 10.0,
					"numinlets" : 1
				}

			}
, 			{
				"box" : 				{
					"maxclass" : "toggle",
					"presentation" : 1,
					"numoutlets" : 1,
					"outlettype" : [ "int" ],
					"presentation_rect" : [ 11.393173, 179.681458, 14.0, 14.0 ],
					"id" : "obj-226",
					"patching_rect" : [ 315.399902, 438.0, 14.0, 14.0 ],
					"numinlets" : 1
				}

			}
, 			{
				"box" : 				{
					"maxclass" : "comment",
					"text" : "Output",
					"presentation" : 1,
					"numoutlets" : 0,
					"fontname" : "Arial",
					"presentation_rect" : [ 26.411072, 177.396759, 48.0, 20.0 ],
					"id" : "obj-141",
					"fontface" : 1,
					"patching_rect" : [ 235.571228, 373.086243, 50.0, 20.0 ],
					"fontsize" : 12.0,
					"numinlets" : 1
				}

			}
, 			{
				"box" : 				{
					"maxclass" : "newobj",
					"text" : "loadmess 127",
					"numoutlets" : 1,
					"outlettype" : [ "" ],
					"fontname" : "Arial",
					"id" : "obj-216",
					"hidden" : 1,
					"patching_rect" : [ 353.531494, 508.710571, 74.0, 18.0 ],
					"fontsize" : 10.0,
					"numinlets" : 1
				}

			}
, 			{
				"box" : 				{
					"maxclass" : "meter~",
					"presentation" : 1,
					"numoutlets" : 1,
					"coldcolor" : [ 0.0, 0.658824, 0.0, 1.0 ],
					"outlettype" : [ "float" ],
					"warmcolor" : [ 0.85098, 0.85098, 0.0, 1.0 ],
					"presentation_rect" : [ 26.727615, 209.797485, 12.0, 58.0 ],
					"id" : "obj-168",
					"interval" : 250,
					"tepidcolor" : [ 0.6, 0.729412, 0.0, 1.0 ],
					"patching_rect" : [ 317.127197, 597.363647, 12.0, 58.0 ],
					"numinlets" : 1,
					"bgcolor" : [ 0.403922, 0.403922, 0.403922, 1.0 ]
				}

			}
, 			{
				"box" : 				{
					"maxclass" : "newobj",
					"text" : "send~ #1-AudioOut",
					"numoutlets" : 0,
					"fontname" : "Arial",
					"color" : [ 0.0, 0.0, 0.501961, 1.0 ],
					"id" : "obj-128",
					"patching_rect" : [ 60.0, 530.0, 88.0, 17.0 ],
					"fontsize" : 9.0,
					"numinlets" : 1
				}

			}
, 			{
				"box" : 				{
					"maxclass" : "comment",
					"text" : "pitch, vel, chan",
					"numoutlets" : 0,
					"fontname" : "Arial",
					"id" : "obj-124",
					"patching_rect" : [ 62.417358, 567.832275, 69.0, 17.0 ],
					"fontsize" : 9.0,
					"numinlets" : 1
				}

			}
, 			{
				"box" : 				{
					"maxclass" : "newobj",
					"text" : "s #1-MIDIdata",
					"numoutlets" : 0,
					"fontname" : "Arial",
					"color" : [ 0.0, 0.0, 0.501961, 1.0 ],
					"id" : "obj-117",
					"patching_rect" : [ 61.238037, 549.0, 67.0, 17.0 ],
					"fontsize" : 9.0,
					"numinlets" : 1
				}

			}
, 			{
				"box" : 				{
					"maxclass" : "gain~",
					"presentation" : 1,
					"numoutlets" : 2,
					"outlettype" : [ "signal", "int" ],
					"interp" : 100.0,
					"presentation_rect" : [ 11.393173, 209.681458, 13.0, 58.0 ],
					"id" : "obj-48",
					"patching_rect" : [ 303.399902, 568.0, 13.0, 86.0 ],
					"numinlets" : 2
				}

			}
, 			{
				"box" : 				{
					"maxclass" : "newobj",
					"text" : "dac~ 1",
					"numoutlets" : 0,
					"fontname" : "Arial",
					"id" : "obj-47",
					"patching_rect" : [ 314.140747, 750.0, 42.0, 18.0 ],
					"fontsize" : 10.0,
					"numinlets" : 1
				}

			}
, 			{
				"box" : 				{
					"maxclass" : "panel",
					"presentation" : 1,
					"border" : 1,
					"numoutlets" : 0,
					"presentation_rect" : [ 7.45459, 176.730179, 67.912277, 93.025017 ],
					"id" : "obj-123",
					"patching_rect" : [ 230.346863, 366.730164, 254.039185, 335.163788 ],
					"numinlets" : 1,
					"bgcolor" : [ 1.0, 1.0, 1.0, 1.0 ]
				}

			}
, 			{
				"box" : 				{
					"maxclass" : "panel",
					"border" : 1,
					"numoutlets" : 0,
					"id" : "obj-27",
					"patching_rect" : [ 270.45459, 98.636353, 142.272736, 112.545471 ],
					"numinlets" : 1,
					"bgcolor" : [ 1.0, 1.0, 1.0, 1.0 ]
				}

			}
, 			{
				"box" : 				{
					"maxclass" : "bpatcher",
					"presentation" : 1,
					"numoutlets" : 2,
					"outlettype" : [ "", "signal" ],
					"presentation_rect" : [ 6.0, 44.0, 69.0, 40.771088 ],
					"args" : [ "#1", "#2" ],
					"id" : "obj-32",
					"name" : "ImproPlayer1.maxpat",
					"patching_rect" : [ 263.0, 242.0, 86.0, 63.0 ],
					"numinlets" : 1,
					"frozen_box_attributes" : [ "args" ]
				}

			}
, 			{
				"box" : 				{
					"maxclass" : "bpatcher",
					"presentation" : 1,
					"numoutlets" : 2,
					"outlettype" : [ "", "signal" ],
					"presentation_rect" : [ 6.0, 85.0, 69.0, 90.0 ],
					"args" : [ "#1", "#2" ],
					"id" : "obj-13",
					"name" : "ImproPlayer2.maxpat",
					"patching_rect" : [ 395.0, 242.0, 74.0, 97.0 ],
					"numinlets" : 1,
					"frozen_box_attributes" : [ "args" ]
				}

			}
 ],
		"lines" : [ 			{
				"patchline" : 				{
					"source" : [ "obj-5", 1 ],
					"destination" : [ "obj-13", 0 ],
					"hidden" : 0,
					"midpoints" : [ 290.5, 231.0, 404.5, 231.0 ]
				}

			}
, 			{
				"patchline" : 				{
					"source" : [ "obj-13", 1 ],
					"destination" : [ "obj-30", 1 ],
					"hidden" : 0,
					"midpoints" : [  ]
				}

			}
, 			{
				"patchline" : 				{
					"source" : [ "obj-32", 1 ],
					"destination" : [ "obj-271", 1 ],
					"hidden" : 0,
					"midpoints" : [  ]
				}

			}
, 			{
				"patchline" : 				{
					"source" : [ "obj-5", 1 ],
					"destination" : [ "obj-32", 0 ],
					"hidden" : 0,
					"midpoints" : [ 290.5, 231.0, 272.5, 231.0 ]
				}

			}
, 			{
				"patchline" : 				{
					"source" : [ "obj-18", 0 ],
					"destination" : [ "obj-62", 0 ],
					"hidden" : 0,
					"midpoints" : [  ]
				}

			}
, 			{
				"patchline" : 				{
					"source" : [ "obj-62", 0 ],
					"destination" : [ "obj-36", 1 ],
					"hidden" : 0,
					"midpoints" : [ 95.5, 694.5, 322.0, 694.5 ]
				}

			}
, 			{
				"patchline" : 				{
					"source" : [ "obj-62", 0 ],
					"destination" : [ "obj-35", 1 ],
					"hidden" : 0,
					"midpoints" : [ 95.5, 694.5, 456.0, 694.5 ]
				}

			}
, 			{
				"patchline" : 				{
					"source" : [ "obj-33", 1 ],
					"destination" : [ "obj-15", 0 ],
					"hidden" : 0,
					"midpoints" : [ 39.0, 605.0, 386.5, 605.0 ]
				}

			}
, 			{
				"patchline" : 				{
					"source" : [ "obj-33", 1 ],
					"destination" : [ "obj-17", 0 ],
					"hidden" : 0,
					"midpoints" : [ 39.0, 605.5, 251.5, 605.5 ]
				}

			}
, 			{
				"patchline" : 				{
					"source" : [ "obj-52", 0 ],
					"destination" : [ "obj-33", 0 ],
					"hidden" : 0,
					"midpoints" : [  ]
				}

			}
, 			{
				"patchline" : 				{
					"source" : [ "obj-48", 1 ],
					"destination" : [ "obj-28", 0 ],
					"hidden" : 0,
					"midpoints" : [  ]
				}

			}
, 			{
				"patchline" : 				{
					"source" : [ "obj-34", 0 ],
					"destination" : [ "obj-22", 0 ],
					"hidden" : 0,
					"midpoints" : [  ]
				}

			}
, 			{
				"patchline" : 				{
					"source" : [ "obj-28", 0 ],
					"destination" : [ "obj-6", 0 ],
					"hidden" : 0,
					"midpoints" : [  ]
				}

			}
, 			{
				"patchline" : 				{
					"source" : [ "obj-15", 0 ],
					"destination" : [ "obj-3", 0 ],
					"hidden" : 0,
					"midpoints" : [  ]
				}

			}
, 			{
				"patchline" : 				{
					"source" : [ "obj-3", 0 ],
					"destination" : [ "obj-6", 1 ],
					"hidden" : 0,
					"midpoints" : [ 386.5, 662.5, 456.0, 662.5 ]
				}

			}
, 			{
				"patchline" : 				{
					"source" : [ "obj-3", 1 ],
					"destination" : [ "obj-24", 0 ],
					"hidden" : 0,
					"midpoints" : [ 423.5, 732.994751, 459.640747, 732.994751 ]
				}

			}
, 			{
				"patchline" : 				{
					"source" : [ "obj-185", 0 ],
					"destination" : [ "obj-48", 0 ],
					"hidden" : 0,
					"midpoints" : [  ]
				}

			}
, 			{
				"patchline" : 				{
					"source" : [ "obj-48", 1 ],
					"destination" : [ "obj-185", 0 ],
					"hidden" : 0,
					"midpoints" : [ 311.899902, 661.0, 238.055206, 661.0, 238.055206, 440.839478, 256.21051, 440.839478 ]
				}

			}
, 			{
				"patchline" : 				{
					"source" : [ "obj-273", 0 ],
					"destination" : [ "obj-226", 0 ],
					"hidden" : 0,
					"midpoints" : [ 256.21051, 433.715149, 323.399902, 433.715149 ]
				}

			}
, 			{
				"patchline" : 				{
					"source" : [ "obj-51", 3 ],
					"destination" : [ "obj-45", 0 ],
					"hidden" : 0,
					"midpoints" : [  ]
				}

			}
, 			{
				"patchline" : 				{
					"source" : [ "obj-51", 2 ],
					"destination" : [ "obj-23", 0 ],
					"hidden" : 0,
					"midpoints" : [  ]
				}

			}
, 			{
				"patchline" : 				{
					"source" : [ "obj-51", 1 ],
					"destination" : [ "obj-49", 0 ],
					"hidden" : 0,
					"midpoints" : [  ]
				}

			}
, 			{
				"patchline" : 				{
					"source" : [ "obj-51", 0 ],
					"destination" : [ "obj-50", 0 ],
					"hidden" : 0,
					"midpoints" : [  ]
				}

			}
, 			{
				"patchline" : 				{
					"source" : [ "obj-52", 0 ],
					"destination" : [ "obj-51", 0 ],
					"hidden" : 0,
					"midpoints" : [  ]
				}

			}
, 			{
				"patchline" : 				{
					"source" : [ "obj-2", 0 ],
					"destination" : [ "obj-1", 0 ],
					"hidden" : 0,
					"midpoints" : [  ]
				}

			}
, 			{
				"patchline" : 				{
					"source" : [ "obj-236", 0 ],
					"destination" : [ "obj-226", 0 ],
					"hidden" : 1,
					"midpoints" : [  ]
				}

			}
, 			{
				"patchline" : 				{
					"source" : [ "obj-4", 0 ],
					"destination" : [ "obj-226", 0 ],
					"hidden" : 0,
					"midpoints" : [ 200.5, 433.5, 323.399902, 433.5 ]
				}

			}
, 			{
				"patchline" : 				{
					"source" : [ "obj-216", 0 ],
					"destination" : [ "obj-48", 0 ],
					"hidden" : 1,
					"midpoints" : [  ]
				}

			}
, 			{
				"patchline" : 				{
					"source" : [ "obj-22", 0 ],
					"destination" : [ "obj-25", 0 ],
					"hidden" : 0,
					"midpoints" : [  ]
				}

			}
, 			{
				"patchline" : 				{
					"source" : [ "obj-26", 0 ],
					"destination" : [ "obj-25", 0 ],
					"hidden" : 0,
					"midpoints" : [  ]
				}

			}
, 			{
				"patchline" : 				{
					"source" : [ "obj-50", 0 ],
					"destination" : [ "obj-19", 0 ],
					"hidden" : 0,
					"midpoints" : [  ]
				}

			}
, 			{
				"patchline" : 				{
					"source" : [ "obj-49", 0 ],
					"destination" : [ "obj-19", 0 ],
					"hidden" : 0,
					"midpoints" : [  ]
				}

			}
, 			{
				"patchline" : 				{
					"source" : [ "obj-45", 0 ],
					"destination" : [ "obj-19", 0 ],
					"hidden" : 0,
					"midpoints" : [  ]
				}

			}
, 			{
				"patchline" : 				{
					"source" : [ "obj-23", 0 ],
					"destination" : [ "obj-19", 0 ],
					"hidden" : 0,
					"midpoints" : [  ]
				}

			}
, 			{
				"patchline" : 				{
					"source" : [ "obj-19", 0 ],
					"destination" : [ "obj-123", 0 ],
					"hidden" : 0,
					"midpoints" : [ 75.5, 357.865082, 239.846863, 357.865082 ]
				}

			}
, 			{
				"patchline" : 				{
					"source" : [ "obj-8", 0 ],
					"destination" : [ "obj-9", 0 ],
					"hidden" : 0,
					"midpoints" : [  ]
				}

			}
, 			{
				"patchline" : 				{
					"source" : [ "obj-48", 0 ],
					"destination" : [ "obj-11", 0 ],
					"hidden" : 0,
					"midpoints" : [  ]
				}

			}
, 			{
				"patchline" : 				{
					"source" : [ "obj-46", 1 ],
					"destination" : [ "obj-47", 0 ],
					"hidden" : 0,
					"midpoints" : [ 288.5, 735.994751, 323.640747, 735.994751 ]
				}

			}
, 			{
				"patchline" : 				{
					"source" : [ "obj-46", 0 ],
					"destination" : [ "obj-11", 1 ],
					"hidden" : 0,
					"midpoints" : [ 251.5, 667.5, 321.0, 667.5 ]
				}

			}
, 			{
				"patchline" : 				{
					"source" : [ "obj-17", 0 ],
					"destination" : [ "obj-46", 0 ],
					"hidden" : 0,
					"midpoints" : [  ]
				}

			}
, 			{
				"patchline" : 				{
					"source" : [ "obj-5", 1 ],
					"destination" : [ "obj-22", 0 ],
					"hidden" : 0,
					"midpoints" : [  ]
				}

			}
, 			{
				"patchline" : 				{
					"source" : [ "obj-21", 0 ],
					"destination" : [ "obj-5", 0 ],
					"hidden" : 0,
					"midpoints" : [  ]
				}

			}
, 			{
				"patchline" : 				{
					"source" : [ "obj-5", 0 ],
					"destination" : [ "obj-34", 0 ],
					"hidden" : 0,
					"midpoints" : [  ]
				}

			}
, 			{
				"patchline" : 				{
					"source" : [ "obj-10", 0 ],
					"destination" : [ "obj-8", 0 ],
					"hidden" : 0,
					"midpoints" : [  ]
				}

			}
, 			{
				"patchline" : 				{
					"source" : [ "obj-271", 0 ],
					"destination" : [ "obj-48", 0 ],
					"hidden" : 0,
					"midpoints" : [  ]
				}

			}
, 			{
				"patchline" : 				{
					"source" : [ "obj-271", 0 ],
					"destination" : [ "obj-168", 0 ],
					"hidden" : 0,
					"midpoints" : [  ]
				}

			}
, 			{
				"patchline" : 				{
					"source" : [ "obj-30", 0 ],
					"destination" : [ "obj-28", 0 ],
					"hidden" : 0,
					"midpoints" : [  ]
				}

			}
, 			{
				"patchline" : 				{
					"source" : [ "obj-30", 0 ],
					"destination" : [ "obj-168", 0 ],
					"hidden" : 0,
					"midpoints" : [  ]
				}

			}
, 			{
				"patchline" : 				{
					"source" : [ "obj-226", 0 ],
					"destination" : [ "obj-271", 0 ],
					"hidden" : 0,
					"midpoints" : [  ]
				}

			}
, 			{
				"patchline" : 				{
					"source" : [ "obj-226", 0 ],
					"destination" : [ "obj-30", 0 ],
					"hidden" : 0,
					"midpoints" : [  ]
				}

			}
, 			{
				"patchline" : 				{
					"source" : [ "obj-6", 0 ],
					"destination" : [ "obj-35", 0 ],
					"hidden" : 0,
					"midpoints" : [  ]
				}

			}
, 			{
				"patchline" : 				{
					"source" : [ "obj-35", 0 ],
					"destination" : [ "obj-31", 0 ],
					"hidden" : 0,
					"midpoints" : [  ]
				}

			}
, 			{
				"patchline" : 				{
					"source" : [ "obj-35", 0 ],
					"destination" : [ "obj-24", 0 ],
					"hidden" : 0,
					"midpoints" : [  ]
				}

			}
, 			{
				"patchline" : 				{
					"source" : [ "obj-11", 0 ],
					"destination" : [ "obj-36", 0 ],
					"hidden" : 0,
					"midpoints" : [  ]
				}

			}
, 			{
				"patchline" : 				{
					"source" : [ "obj-36", 0 ],
					"destination" : [ "obj-7", 0 ],
					"hidden" : 0,
					"midpoints" : [  ]
				}

			}
, 			{
				"patchline" : 				{
					"source" : [ "obj-36", 0 ],
					"destination" : [ "obj-47", 0 ],
					"hidden" : 0,
					"midpoints" : [  ]
				}

			}
, 			{
				"patchline" : 				{
					"source" : [ "obj-37", 0 ],
					"destination" : [ "obj-216", 0 ],
					"hidden" : 1,
					"midpoints" : [  ]
				}

			}
, 			{
				"patchline" : 				{
					"source" : [ "obj-216", 0 ],
					"destination" : [ "obj-28", 0 ],
					"hidden" : 1,
					"midpoints" : [  ]
				}

			}
 ]
	}

}
