{
	"patcher" : 	{
		"fileversion" : 1,
		"rect" : [ 303.0, 68.0, 993.0, 705.0 ],
		"bgcolor" : [ 0.898039, 0.898039, 1.0, 1.0 ],
		"bglocked" : 0,
		"defrect" : [ 303.0, 68.0, 993.0, 705.0 ],
		"openrect" : [ 0.0, 0.0, 0.0, 0.0 ],
		"openinpresentation" : 1,
		"default_fontsize" : 12.0,
		"default_fontface" : 0,
		"default_fontname" : "Arial",
		"gridonopen" : 0,
		"gridsize" : [ 5.0, 5.0 ],
		"gridsnaponopen" : 0,
		"toolbarvisible" : 1,
		"boxanimatetime" : 200,
		"imprint" : 0,
		"enablehscroll" : 1,
		"enablevscroll" : 1,
		"devicewidth" : 0.0,
		"boxes" : [ 			{
				"box" : 				{
					"maxclass" : "newobj",
					"text" : "loadmess -1",
					"fontname" : "Arial",
					"patching_rect" : [ 149.0, 83.0, 76.0, 20.0 ],
					"numinlets" : 1,
					"id" : "obj-3",
					"numoutlets" : 1,
					"fontsize" : 12.0,
					"outlettype" : [ "" ]
				}

			}
, 			{
				"box" : 				{
					"maxclass" : "newobj",
					"text" : "p MIDI?SP",
					"fontname" : "Arial",
					"patching_rect" : [ 221.0, 49.0, 69.0, 20.0 ],
					"numinlets" : 1,
					"id" : "obj-22",
					"numoutlets" : 1,
					"fontsize" : 12.0,
					"outlettype" : [ "int" ],
					"patcher" : 					{
						"fileversion" : 1,
						"rect" : [ 601.0, 227.0, 140.0, 254.0 ],
						"bglocked" : 0,
						"defrect" : [ 601.0, 227.0, 140.0, 254.0 ],
						"openrect" : [ 0.0, 0.0, 0.0, 0.0 ],
						"openinpresentation" : 0,
						"default_fontsize" : 12.0,
						"default_fontface" : 0,
						"default_fontname" : "Arial",
						"gridonopen" : 0,
						"gridsize" : [ 5.0, 5.0 ],
						"gridsnaponopen" : 0,
						"toolbarvisible" : 1,
						"boxanimatetime" : 200,
						"imprint" : 0,
						"enablehscroll" : 1,
						"enablevscroll" : 1,
						"devicewidth" : 0.0,
						"boxes" : [ 							{
								"box" : 								{
									"maxclass" : "inlet",
									"patching_rect" : [ 7.0, 6.0, 25.0, 25.0 ],
									"numinlets" : 0,
									"id" : "obj-2",
									"numoutlets" : 1,
									"outlettype" : [ "" ],
									"comment" : ""
								}

							}
, 							{
								"box" : 								{
									"maxclass" : "outlet",
									"patching_rect" : [ 72.0, 216.0, 25.0, 25.0 ],
									"numinlets" : 1,
									"id" : "obj-1",
									"numoutlets" : 0,
									"comment" : ""
								}

							}
, 							{
								"box" : 								{
									"maxclass" : "newobj",
									"text" : "+ 0",
									"fontname" : "Arial",
									"patching_rect" : [ 72.0, 186.0, 32.5, 20.0 ],
									"numinlets" : 2,
									"id" : "obj-12",
									"numoutlets" : 1,
									"fontsize" : 12.0,
									"outlettype" : [ "int" ]
								}

							}
, 							{
								"box" : 								{
									"maxclass" : "newobj",
									"text" : "unpack Oracle 0",
									"fontname" : "Arial",
									"patching_rect" : [ 7.0, 43.0, 98.0, 20.0 ],
									"numinlets" : 1,
									"id" : "obj-11",
									"numoutlets" : 2,
									"fontsize" : 12.0,
									"outlettype" : [ "", "int" ]
								}

							}
, 							{
								"box" : 								{
									"maxclass" : "newobj",
									"text" : "t 4",
									"fontname" : "Arial",
									"patching_rect" : [ 49.0, 123.0, 24.0, 20.0 ],
									"numinlets" : 1,
									"id" : "obj-7",
									"numoutlets" : 1,
									"fontsize" : 12.0,
									"outlettype" : [ "int" ]
								}

							}
, 							{
								"box" : 								{
									"maxclass" : "newobj",
									"text" : "t 0",
									"fontname" : "Arial",
									"patching_rect" : [ 21.0, 123.0, 24.0, 20.0 ],
									"numinlets" : 1,
									"id" : "obj-6",
									"numoutlets" : 1,
									"fontsize" : 12.0,
									"outlettype" : [ "int" ]
								}

							}
, 							{
								"box" : 								{
									"maxclass" : "newobj",
									"text" : "sel MIDI SP",
									"fontname" : "Arial",
									"patching_rect" : [ 21.0, 97.0, 74.0, 20.0 ],
									"numinlets" : 1,
									"id" : "obj-66",
									"numoutlets" : 3,
									"fontsize" : 12.0,
									"outlettype" : [ "bang", "bang", "" ]
								}

							}
, 							{
								"box" : 								{
									"maxclass" : "newobj",
									"text" : "regexp _(.+)",
									"fontname" : "Arial",
									"patching_rect" : [ 7.0, 72.0, 76.0, 20.0 ],
									"numinlets" : 1,
									"id" : "obj-369",
									"numoutlets" : 5,
									"fontsize" : 12.0,
									"outlettype" : [ "", "", "", "", "" ]
								}

							}
 ],
						"lines" : [ 							{
								"patchline" : 								{
									"source" : [ "obj-11", 1 ],
									"destination" : [ "obj-12", 1 ],
									"hidden" : 0,
									"midpoints" : [  ]
								}

							}
, 							{
								"patchline" : 								{
									"source" : [ "obj-2", 0 ],
									"destination" : [ "obj-11", 0 ],
									"hidden" : 0,
									"midpoints" : [  ]
								}

							}
, 							{
								"patchline" : 								{
									"source" : [ "obj-12", 0 ],
									"destination" : [ "obj-1", 0 ],
									"hidden" : 0,
									"midpoints" : [  ]
								}

							}
, 							{
								"patchline" : 								{
									"source" : [ "obj-6", 0 ],
									"destination" : [ "obj-12", 0 ],
									"hidden" : 0,
									"midpoints" : [  ]
								}

							}
, 							{
								"patchline" : 								{
									"source" : [ "obj-7", 0 ],
									"destination" : [ "obj-12", 0 ],
									"hidden" : 0,
									"midpoints" : [  ]
								}

							}
, 							{
								"patchline" : 								{
									"source" : [ "obj-11", 0 ],
									"destination" : [ "obj-369", 0 ],
									"hidden" : 0,
									"midpoints" : [  ]
								}

							}
, 							{
								"patchline" : 								{
									"source" : [ "obj-66", 1 ],
									"destination" : [ "obj-7", 0 ],
									"hidden" : 0,
									"midpoints" : [  ]
								}

							}
, 							{
								"patchline" : 								{
									"source" : [ "obj-66", 0 ],
									"destination" : [ "obj-6", 0 ],
									"hidden" : 0,
									"midpoints" : [  ]
								}

							}
, 							{
								"patchline" : 								{
									"source" : [ "obj-369", 1 ],
									"destination" : [ "obj-66", 0 ],
									"hidden" : 0,
									"midpoints" : [  ]
								}

							}
 ]
					}
,
					"saved_object_attributes" : 					{
						"default_fontname" : "Arial",
						"fontname" : "Arial",
						"default_fontsize" : 12.0,
						"fontface" : 0,
						"fontsize" : 12.0,
						"globalpatchername" : "",
						"default_fontface" : 0
					}

				}

			}
, 			{
				"box" : 				{
					"maxclass" : "message",
					"text" : "window getsize",
					"fontname" : "Arial",
					"patching_rect" : [ 651.0, 8.0, 92.0, 18.0 ],
					"numinlets" : 2,
					"id" : "obj-26",
					"numoutlets" : 1,
					"fontsize" : 12.0,
					"outlettype" : [ "" ]
				}

			}
, 			{
				"box" : 				{
					"maxclass" : "newobj",
					"text" : "print window",
					"fontname" : "Arial",
					"patching_rect" : [ 586.0, 106.0, 77.0, 20.0 ],
					"numinlets" : 1,
					"id" : "obj-24",
					"numoutlets" : 0,
					"fontsize" : 12.0
				}

			}
, 			{
				"box" : 				{
					"maxclass" : "newobj",
					"text" : "route window",
					"fontname" : "Arial",
					"patching_rect" : [ 586.0, 81.0, 81.0, 20.0 ],
					"numinlets" : 1,
					"id" : "obj-23",
					"numoutlets" : 2,
					"fontsize" : 12.0,
					"outlettype" : [ "", "" ]
				}

			}
, 			{
				"box" : 				{
					"maxclass" : "newobj",
					"text" : "loadbang",
					"fontname" : "Arial",
					"patching_rect" : [ 586.0, 8.0, 60.0, 20.0 ],
					"numinlets" : 1,
					"id" : "obj-21",
					"numoutlets" : 1,
					"fontsize" : 12.0,
					"outlettype" : [ "bang" ]
				}

			}
, 			{
				"box" : 				{
					"maxclass" : "message",
					"text" : "window size 1184 559 1438 863, window exec",
					"fontname" : "Arial",
					"patching_rect" : [ 586.0, 34.0, 256.0, 18.0 ],
					"numinlets" : 2,
					"id" : "obj-17",
					"numoutlets" : 1,
					"fontsize" : 12.0,
					"outlettype" : [ "" ]
				}

			}
, 			{
				"box" : 				{
					"maxclass" : "newobj",
					"text" : "thispatcher",
					"fontname" : "Arial",
					"patching_rect" : [ 586.0, 57.0, 69.0, 20.0 ],
					"numinlets" : 1,
					"id" : "obj-11",
					"numoutlets" : 2,
					"fontsize" : 12.0,
					"outlettype" : [ "", "" ],
					"save" : [ "#N", "thispatcher", ";", "#Q", "end", ";" ]
				}

			}
, 			{
				"box" : 				{
					"maxclass" : "message",
					"text" : "dispose",
					"fontname" : "Arial",
					"patching_rect" : [ 222.0, 621.0, 52.0, 18.0 ],
					"numinlets" : 2,
					"id" : "obj-15",
					"numoutlets" : 1,
					"fontsize" : 12.0,
					"outlettype" : [ "" ]
				}

			}
, 			{
				"box" : 				{
					"maxclass" : "newobj",
					"text" : "r WoMaxVisu-close",
					"fontname" : "Arial",
					"patching_rect" : [ 222.0, 592.0, 113.0, 20.0 ],
					"numinlets" : 0,
					"id" : "obj-9",
					"numoutlets" : 1,
					"color" : [ 1.0, 0.0, 0.0, 1.0 ],
					"fontsize" : 12.0,
					"outlettype" : [ "" ]
				}

			}
, 			{
				"box" : 				{
					"maxclass" : "newobj",
					"text" : "+ 1",
					"fontname" : "Arial",
					"patching_rect" : [ 221.0, 259.0, 32.5, 20.0 ],
					"numinlets" : 2,
					"id" : "obj-10",
					"numoutlets" : 1,
					"fontsize" : 12.0,
					"outlettype" : [ "int" ]
				}

			}
, 			{
				"box" : 				{
					"maxclass" : "newobj",
					"text" : "unpack Oracle 0",
					"fontname" : "Arial",
					"patching_rect" : [ 298.0, 27.0, 98.0, 20.0 ],
					"numinlets" : 1,
					"id" : "obj-1",
					"numoutlets" : 2,
					"fontsize" : 12.0,
					"outlettype" : [ "", "int" ]
				}

			}
, 			{
				"box" : 				{
					"maxclass" : "message",
					"text" : "Test",
					"fontname" : "Arial",
					"patching_rect" : [ 480.0, 11.0, 33.0, 18.0 ],
					"numinlets" : 2,
					"id" : "obj-13",
					"numoutlets" : 1,
					"fontsize" : 12.0,
					"outlettype" : [ "" ]
				}

			}
, 			{
				"box" : 				{
					"maxclass" : "message",
					"text" : "Test 0",
					"fontname" : "Arial",
					"patching_rect" : [ 40.0, 592.0, 43.0, 18.0 ],
					"numinlets" : 2,
					"id" : "obj-7",
					"numoutlets" : 1,
					"fontsize" : 12.0,
					"outlettype" : [ "" ]
				}

			}
, 			{
				"box" : 				{
					"maxclass" : "comment",
					"text" : "WoMax Visu",
					"fontname" : "Arial",
					"patching_rect" : [ 33.0, 34.0, 159.0, 34.0 ],
					"numinlets" : 1,
					"presentation" : 1,
					"id" : "obj-356",
					"numoutlets" : 0,
					"fontsize" : 24.0,
					"presentation_rect" : [ 3.0, 3.0, 200.0, 34.0 ]
				}

			}
, 			{
				"box" : 				{
					"maxclass" : "newobj",
					"varname" : "enable",
					"text" : "append 1",
					"fontname" : "Arial",
					"patching_rect" : [ 421.0, 80.0, 61.0, 20.0 ],
					"numinlets" : 1,
					"id" : "obj-70",
					"numoutlets" : 1,
					"fontsize" : 12.0,
					"outlettype" : [ "" ]
				}

			}
, 			{
				"box" : 				{
					"maxclass" : "newobj",
					"text" : "thispatcher",
					"fontname" : "Arial",
					"patching_rect" : [ 298.0, 107.0, 69.0, 20.0 ],
					"numinlets" : 1,
					"id" : "obj-56",
					"numoutlets" : 2,
					"fontsize" : 12.0,
					"outlettype" : [ "", "" ],
					"save" : [ "#N", "thispatcher", ";", "#Q", "end", ";" ]
				}

			}
, 			{
				"box" : 				{
					"maxclass" : "newobj",
					"text" : "t s s",
					"fontname" : "Arial",
					"patching_rect" : [ 298.0, 52.0, 33.0, 20.0 ],
					"numinlets" : 1,
					"id" : "obj-55",
					"numoutlets" : 2,
					"fontsize" : 12.0,
					"outlettype" : [ "", "" ]
				}

			}
, 			{
				"box" : 				{
					"maxclass" : "newobj",
					"text" : "p script presentation",
					"fontname" : "Arial",
					"patching_rect" : [ 298.0, 80.0, 119.0, 20.0 ],
					"numinlets" : 1,
					"id" : "obj-54",
					"numoutlets" : 1,
					"fontsize" : 12.0,
					"outlettype" : [ "" ],
					"patcher" : 					{
						"fileversion" : 1,
						"rect" : [ 421.0, 205.0, 437.0, 331.0 ],
						"bglocked" : 0,
						"defrect" : [ 421.0, 205.0, 437.0, 331.0 ],
						"openrect" : [ 0.0, 0.0, 0.0, 0.0 ],
						"openinpresentation" : 0,
						"default_fontsize" : 12.0,
						"default_fontface" : 0,
						"default_fontname" : "Arial",
						"gridonopen" : 0,
						"gridsize" : [ 5.0, 5.0 ],
						"gridsnaponopen" : 0,
						"toolbarvisible" : 1,
						"boxanimatetime" : 200,
						"imprint" : 0,
						"enablehscroll" : 1,
						"enablevscroll" : 1,
						"devicewidth" : 0.0,
						"boxes" : [ 							{
								"box" : 								{
									"maxclass" : "outlet",
									"patching_rect" : [ 128.0, 214.0, 25.0, 25.0 ],
									"numinlets" : 1,
									"id" : "obj-12",
									"numoutlets" : 0,
									"comment" : ""
								}

							}
, 							{
								"box" : 								{
									"maxclass" : "message",
									"text" : "script sendbox $1 presentation 0",
									"fontname" : "Arial",
									"patching_rect" : [ 34.0, 175.0, 184.0, 18.0 ],
									"numinlets" : 2,
									"id" : "obj-11",
									"numoutlets" : 1,
									"fontsize" : 12.0,
									"outlettype" : [ "" ]
								}

							}
, 							{
								"box" : 								{
									"maxclass" : "message",
									"fontname" : "Arial",
									"patching_rect" : [ 34.0, 150.0, 86.0, 18.0 ],
									"numinlets" : 2,
									"id" : "obj-10",
									"numoutlets" : 1,
									"fontsize" : 12.0,
									"outlettype" : [ "" ]
								}

							}
, 							{
								"box" : 								{
									"maxclass" : "message",
									"text" : "script sendbox $1 presentation_rect 2. 35. 250. 267.",
									"fontname" : "Arial",
									"patching_rect" : [ 115.0, 122.0, 287.0, 18.0 ],
									"numinlets" : 2,
									"id" : "obj-7",
									"numoutlets" : 1,
									"fontsize" : 12.0,
									"outlettype" : [ "" ]
								}

							}
, 							{
								"box" : 								{
									"maxclass" : "newobj",
									"text" : "t s s s b",
									"fontname" : "Arial",
									"patching_rect" : [ 101.0, 62.0, 59.5, 20.0 ],
									"numinlets" : 1,
									"id" : "obj-4",
									"numoutlets" : 4,
									"fontsize" : 12.0,
									"outlettype" : [ "", "", "", "bang" ]
								}

							}
, 							{
								"box" : 								{
									"maxclass" : "inlet",
									"patching_rect" : [ 101.0, 28.0, 25.0, 25.0 ],
									"numinlets" : 0,
									"id" : "obj-3",
									"numoutlets" : 1,
									"outlettype" : [ "" ],
									"comment" : ""
								}

							}
, 							{
								"box" : 								{
									"maxclass" : "message",
									"text" : "script sendbox $1 presentation 1",
									"fontname" : "Arial",
									"patching_rect" : [ 128.0, 98.0, 184.0, 18.0 ],
									"numinlets" : 2,
									"id" : "obj-2",
									"numoutlets" : 1,
									"fontsize" : 12.0,
									"outlettype" : [ "" ]
								}

							}
 ],
						"lines" : [ 							{
								"patchline" : 								{
									"source" : [ "obj-7", 0 ],
									"destination" : [ "obj-12", 0 ],
									"hidden" : 0,
									"midpoints" : [  ]
								}

							}
, 							{
								"patchline" : 								{
									"source" : [ "obj-4", 1 ],
									"destination" : [ "obj-7", 0 ],
									"hidden" : 0,
									"midpoints" : [  ]
								}

							}
, 							{
								"patchline" : 								{
									"source" : [ "obj-11", 0 ],
									"destination" : [ "obj-12", 0 ],
									"hidden" : 0,
									"midpoints" : [  ]
								}

							}
, 							{
								"patchline" : 								{
									"source" : [ "obj-2", 0 ],
									"destination" : [ "obj-12", 0 ],
									"hidden" : 0,
									"midpoints" : [  ]
								}

							}
, 							{
								"patchline" : 								{
									"source" : [ "obj-10", 0 ],
									"destination" : [ "obj-11", 0 ],
									"hidden" : 0,
									"midpoints" : [  ]
								}

							}
, 							{
								"patchline" : 								{
									"source" : [ "obj-4", 3 ],
									"destination" : [ "obj-10", 0 ],
									"hidden" : 0,
									"midpoints" : [  ]
								}

							}
, 							{
								"patchline" : 								{
									"source" : [ "obj-4", 2 ],
									"destination" : [ "obj-2", 0 ],
									"hidden" : 0,
									"midpoints" : [  ]
								}

							}
, 							{
								"patchline" : 								{
									"source" : [ "obj-4", 0 ],
									"destination" : [ "obj-10", 1 ],
									"hidden" : 0,
									"midpoints" : [  ]
								}

							}
, 							{
								"patchline" : 								{
									"source" : [ "obj-3", 0 ],
									"destination" : [ "obj-4", 0 ],
									"hidden" : 0,
									"midpoints" : [  ]
								}

							}
 ]
					}
,
					"saved_object_attributes" : 					{
						"default_fontname" : "Arial",
						"fontname" : "Arial",
						"default_fontsize" : 12.0,
						"fontface" : 0,
						"fontsize" : 12.0,
						"globalpatchername" : "",
						"default_fontface" : 0
					}

				}

			}
, 			{
				"box" : 				{
					"maxclass" : "newobj",
					"text" : "r WoMaxVisu-display",
					"fontname" : "Arial",
					"patching_rect" : [ 298.0, 4.0, 123.0, 20.0 ],
					"numinlets" : 0,
					"id" : "obj-53",
					"numoutlets" : 1,
					"color" : [ 1.0, 0.0, 0.0, 1.0 ],
					"fontsize" : 12.0,
					"outlettype" : [ "" ]
				}

			}
, 			{
				"box" : 				{
					"maxclass" : "newobj",
					"text" : "r WoMaxVisu-oracles",
					"fontname" : "Arial",
					"patching_rect" : [ 89.0, 592.0, 124.0, 20.0 ],
					"numinlets" : 0,
					"id" : "obj-52",
					"numoutlets" : 1,
					"color" : [ 1.0, 0.0, 0.0, 1.0 ],
					"fontsize" : 12.0,
					"outlettype" : [ "" ]
				}

			}
, 			{
				"box" : 				{
					"maxclass" : "newobj",
					"text" : "thispatcher",
					"fontname" : "Arial",
					"patching_rect" : [ 89.0, 648.0, 69.0, 20.0 ],
					"numinlets" : 1,
					"id" : "obj-14",
					"numoutlets" : 2,
					"fontsize" : 12.0,
					"outlettype" : [ "", "" ],
					"save" : [ "#N", "thispatcher", ";", "#Q", "end", ";" ]
				}

			}
, 			{
				"box" : 				{
					"maxclass" : "newobj",
					"text" : "p script creation",
					"fontname" : "Arial",
					"patching_rect" : [ 89.0, 621.0, 95.0, 20.0 ],
					"numinlets" : 1,
					"id" : "obj-12",
					"numoutlets" : 1,
					"fontsize" : 12.0,
					"outlettype" : [ "" ],
					"patcher" : 					{
						"fileversion" : 1,
						"rect" : [ 432.0, 44.0, 637.0, 782.0 ],
						"bglocked" : 0,
						"defrect" : [ 432.0, 44.0, 637.0, 782.0 ],
						"openrect" : [ 0.0, 0.0, 0.0, 0.0 ],
						"openinpresentation" : 0,
						"default_fontsize" : 12.0,
						"default_fontface" : 0,
						"default_fontname" : "Arial",
						"gridonopen" : 0,
						"gridsize" : [ 5.0, 5.0 ],
						"gridsnaponopen" : 0,
						"toolbarvisible" : 1,
						"boxanimatetime" : 200,
						"imprint" : 0,
						"enablehscroll" : 1,
						"enablevscroll" : 1,
						"devicewidth" : 0.0,
						"boxes" : [ 							{
								"box" : 								{
									"maxclass" : "newobj",
									"text" : "t l l",
									"fontname" : "Arial",
									"patching_rect" : [ 139.0, 440.0, 32.5, 20.0 ],
									"numinlets" : 1,
									"id" : "obj-21",
									"numoutlets" : 2,
									"fontsize" : 12.0,
									"outlettype" : [ "", "" ]
								}

							}
, 							{
								"box" : 								{
									"maxclass" : "newobj",
									"text" : "pack Oracle 0",
									"fontname" : "Arial",
									"patching_rect" : [ 139.0, 413.0, 85.0, 20.0 ],
									"numinlets" : 2,
									"id" : "obj-13",
									"numoutlets" : 1,
									"fontsize" : 12.0,
									"outlettype" : [ "" ]
								}

							}
, 							{
								"box" : 								{
									"maxclass" : "newobj",
									"text" : "+ 0",
									"fontname" : "Arial",
									"patching_rect" : [ 218.0, 389.0, 32.5, 20.0 ],
									"numinlets" : 2,
									"id" : "obj-12",
									"numoutlets" : 1,
									"fontsize" : 12.0,
									"outlettype" : [ "int" ]
								}

							}
, 							{
								"box" : 								{
									"maxclass" : "newobj",
									"text" : "unpack Oracle 0",
									"fontname" : "Arial",
									"patching_rect" : [ 139.0, 365.0, 98.0, 20.0 ],
									"numinlets" : 1,
									"id" : "obj-11",
									"numoutlets" : 2,
									"fontsize" : 12.0,
									"outlettype" : [ "", "int" ]
								}

							}
, 							{
								"box" : 								{
									"maxclass" : "newobj",
									"text" : "t 4 354",
									"fontname" : "Arial",
									"patching_rect" : [ 263.0, 217.0, 47.0, 20.0 ],
									"numinlets" : 1,
									"id" : "obj-7",
									"numoutlets" : 2,
									"fontsize" : 12.0,
									"outlettype" : [ "int", "int" ]
								}

							}
, 							{
								"box" : 								{
									"maxclass" : "newobj",
									"text" : "t 0 204",
									"fontname" : "Arial",
									"patching_rect" : [ 207.0, 217.0, 47.0, 20.0 ],
									"numinlets" : 1,
									"id" : "obj-6",
									"numoutlets" : 2,
									"fontsize" : 12.0,
									"outlettype" : [ "int", "int" ]
								}

							}
, 							{
								"box" : 								{
									"maxclass" : "newobj",
									"text" : "sel MIDI SP",
									"fontname" : "Arial",
									"patching_rect" : [ 207.0, 191.0, 74.0, 20.0 ],
									"numinlets" : 1,
									"id" : "obj-66",
									"numoutlets" : 3,
									"fontsize" : 12.0,
									"outlettype" : [ "bang", "bang", "" ]
								}

							}
, 							{
								"box" : 								{
									"maxclass" : "newobj",
									"text" : "regexp _(.+)",
									"fontname" : "Arial",
									"patching_rect" : [ 193.0, 166.0, 76.0, 20.0 ],
									"numinlets" : 1,
									"id" : "obj-369",
									"numoutlets" : 5,
									"fontsize" : 12.0,
									"outlettype" : [ "", "", "", "", "" ]
								}

							}
, 							{
								"box" : 								{
									"maxclass" : "message",
									"text" : "script delete $1",
									"fontname" : "Arial",
									"patching_rect" : [ 179.0, 277.0, 92.0, 18.0 ],
									"numinlets" : 2,
									"id" : "obj-5",
									"numoutlets" : 1,
									"fontsize" : 12.0,
									"outlettype" : [ "" ]
								}

							}
, 							{
								"box" : 								{
									"maxclass" : "newobj",
									"text" : "route del",
									"fontname" : "Arial",
									"patching_rect" : [ 87.0, 41.0, 57.0, 20.0 ],
									"numinlets" : 1,
									"id" : "obj-20",
									"numoutlets" : 2,
									"fontsize" : 12.0,
									"outlettype" : [ "", "" ]
								}

							}
, 							{
								"box" : 								{
									"maxclass" : "newobj",
									"text" : "pack Oracle 1",
									"fontname" : "Arial",
									"patching_rect" : [ 139.0, 558.0, 85.0, 20.0 ],
									"numinlets" : 2,
									"id" : "obj-19",
									"numoutlets" : 1,
									"fontsize" : 12.0,
									"outlettype" : [ "" ]
								}

							}
, 							{
								"box" : 								{
									"maxclass" : "newobj",
									"text" : "+ 1",
									"fontname" : "Arial",
									"patching_rect" : [ 218.0, 531.0, 32.5, 20.0 ],
									"numinlets" : 2,
									"id" : "obj-18",
									"numoutlets" : 1,
									"fontsize" : 12.0,
									"outlettype" : [ "int" ]
								}

							}
, 							{
								"box" : 								{
									"maxclass" : "newobj",
									"text" : "unpack Oracle 0",
									"fontname" : "Arial",
									"patching_rect" : [ 139.0, 507.0, 98.0, 20.0 ],
									"numinlets" : 1,
									"id" : "obj-17",
									"numoutlets" : 2,
									"fontsize" : 12.0,
									"outlettype" : [ "", "int" ]
								}

							}
, 							{
								"box" : 								{
									"maxclass" : "message",
									"text" : "script connect $1 0 LastDate-switch $2, script connect $1 1 LastDur-gate $2",
									"linecount" : 2,
									"fontname" : "Arial",
									"patching_rect" : [ 139.0, 584.0, 225.0, 32.0 ],
									"numinlets" : 2,
									"id" : "obj-16",
									"numoutlets" : 1,
									"fontsize" : 12.0,
									"outlettype" : [ "" ]
								}

							}
, 							{
								"box" : 								{
									"maxclass" : "newobj",
									"text" : "t s s s s",
									"fontname" : "Arial",
									"patching_rect" : [ 152.0, 125.0, 59.5, 20.0 ],
									"numinlets" : 1,
									"id" : "obj-15",
									"numoutlets" : 4,
									"fontsize" : 12.0,
									"outlettype" : [ "", "", "", "" ]
								}

							}
, 							{
								"box" : 								{
									"maxclass" : "message",
									"text" : "script connect CurrentMouse-gate $2 $1 0, script connect Zoom-gate $2 $1 1, script connect enable 0 $1 2",
									"linecount" : 2,
									"fontname" : "Arial",
									"patching_rect" : [ 153.0, 466.0, 459.0, 32.0 ],
									"numinlets" : 2,
									"id" : "obj-14",
									"numoutlets" : 1,
									"fontsize" : 12.0,
									"outlettype" : [ "" ]
								}

							}
, 							{
								"box" : 								{
									"maxclass" : "newobj",
									"text" : "unpack Oracle 0",
									"fontname" : "Arial",
									"patching_rect" : [ 152.0, 93.0, 98.0, 20.0 ],
									"numinlets" : 1,
									"id" : "obj-10",
									"numoutlets" : 2,
									"fontsize" : 12.0,
									"outlettype" : [ "", "int" ]
								}

							}
, 							{
								"box" : 								{
									"maxclass" : "newobj",
									"text" : "+ 44",
									"fontname" : "Arial",
									"patching_rect" : [ 231.0, 141.0, 34.0, 20.0 ],
									"numinlets" : 2,
									"id" : "obj-9",
									"numoutlets" : 1,
									"fontsize" : 12.0,
									"outlettype" : [ "int" ]
								}

							}
, 							{
								"box" : 								{
									"maxclass" : "newobj",
									"text" : "* 265",
									"fontname" : "Arial",
									"patching_rect" : [ 231.0, 118.0, 39.0, 20.0 ],
									"numinlets" : 2,
									"id" : "obj-8",
									"numoutlets" : 1,
									"fontsize" : 12.0,
									"outlettype" : [ "int" ]
								}

							}
, 							{
								"box" : 								{
									"maxclass" : "newobj",
									"text" : "t l l l",
									"fontname" : "Arial",
									"patching_rect" : [ 125.0, 66.0, 46.0, 20.0 ],
									"numinlets" : 1,
									"id" : "obj-4",
									"numoutlets" : 3,
									"fontsize" : 12.0,
									"outlettype" : [ "", "", "" ]
								}

							}
, 							{
								"box" : 								{
									"maxclass" : "newobj",
									"text" : "pack s #1 44 204",
									"fontname" : "Arial",
									"patching_rect" : [ 166.0, 250.0, 102.0, 20.0 ],
									"numinlets" : 4,
									"id" : "obj-3",
									"numoutlets" : 1,
									"fontsize" : 12.0,
									"outlettype" : [ "" ]
								}

							}
, 							{
								"box" : 								{
									"maxclass" : "inlet",
									"patching_rect" : [ 87.0, 6.0, 25.0, 25.0 ],
									"numinlets" : 0,
									"id" : "obj-2",
									"numoutlets" : 1,
									"outlettype" : [ "" ],
									"comment" : ""
								}

							}
, 							{
								"box" : 								{
									"maxclass" : "message",
									"text" : "script delete $1",
									"fontname" : "Arial",
									"patching_rect" : [ 25.0, 115.0, 92.0, 18.0 ],
									"numinlets" : 2,
									"id" : "obj-208",
									"numoutlets" : 1,
									"fontsize" : 12.0,
									"outlettype" : [ "" ]
								}

							}
, 							{
								"box" : 								{
									"maxclass" : "message",
									"text" : "script send $1 replace Visu-Graph",
									"fontname" : "Arial",
									"patching_rect" : [ 152.0, 329.0, 192.0, 18.0 ],
									"numinlets" : 2,
									"id" : "obj-96",
									"numoutlets" : 1,
									"fontsize" : 12.0,
									"outlettype" : [ "" ]
								}

							}
, 							{
								"box" : 								{
									"maxclass" : "message",
									"text" : "script newobject bpatcher @varname $1 @args $1 $2 @patching_position $3 $4",
									"fontname" : "Arial",
									"patching_rect" : [ 166.0, 301.0, 440.0, 18.0 ],
									"numinlets" : 2,
									"id" : "obj-38",
									"numoutlets" : 1,
									"fontsize" : 12.0,
									"outlettype" : [ "" ]
								}

							}
, 							{
								"box" : 								{
									"maxclass" : "outlet",
									"patching_rect" : [ 25.0, 295.0, 25.0, 25.0 ],
									"numinlets" : 1,
									"id" : "obj-31",
									"numoutlets" : 0,
									"comment" : ""
								}

							}
 ],
						"lines" : [ 							{
								"patchline" : 								{
									"source" : [ "obj-2", 0 ],
									"destination" : [ "obj-20", 0 ],
									"hidden" : 0,
									"midpoints" : [  ]
								}

							}
, 							{
								"patchline" : 								{
									"source" : [ "obj-20", 1 ],
									"destination" : [ "obj-4", 0 ],
									"hidden" : 0,
									"midpoints" : [  ]
								}

							}
, 							{
								"patchline" : 								{
									"source" : [ "obj-20", 0 ],
									"destination" : [ "obj-208", 0 ],
									"hidden" : 0,
									"midpoints" : [  ]
								}

							}
, 							{
								"patchline" : 								{
									"source" : [ "obj-16", 0 ],
									"destination" : [ "obj-31", 0 ],
									"hidden" : 0,
									"midpoints" : [  ]
								}

							}
, 							{
								"patchline" : 								{
									"source" : [ "obj-19", 0 ],
									"destination" : [ "obj-16", 0 ],
									"hidden" : 0,
									"midpoints" : [  ]
								}

							}
, 							{
								"patchline" : 								{
									"source" : [ "obj-17", 0 ],
									"destination" : [ "obj-19", 0 ],
									"hidden" : 0,
									"midpoints" : [  ]
								}

							}
, 							{
								"patchline" : 								{
									"source" : [ "obj-18", 0 ],
									"destination" : [ "obj-19", 1 ],
									"hidden" : 0,
									"midpoints" : [  ]
								}

							}
, 							{
								"patchline" : 								{
									"source" : [ "obj-17", 1 ],
									"destination" : [ "obj-18", 0 ],
									"hidden" : 0,
									"midpoints" : [  ]
								}

							}
, 							{
								"patchline" : 								{
									"source" : [ "obj-14", 0 ],
									"destination" : [ "obj-31", 0 ],
									"hidden" : 0,
									"midpoints" : [  ]
								}

							}
, 							{
								"patchline" : 								{
									"source" : [ "obj-4", 2 ],
									"destination" : [ "obj-10", 0 ],
									"hidden" : 0,
									"midpoints" : [  ]
								}

							}
, 							{
								"patchline" : 								{
									"source" : [ "obj-10", 1 ],
									"destination" : [ "obj-8", 0 ],
									"hidden" : 0,
									"midpoints" : [  ]
								}

							}
, 							{
								"patchline" : 								{
									"source" : [ "obj-8", 0 ],
									"destination" : [ "obj-9", 0 ],
									"hidden" : 0,
									"midpoints" : [  ]
								}

							}
, 							{
								"patchline" : 								{
									"source" : [ "obj-38", 0 ],
									"destination" : [ "obj-31", 0 ],
									"hidden" : 0,
									"midpoints" : [  ]
								}

							}
, 							{
								"patchline" : 								{
									"source" : [ "obj-96", 0 ],
									"destination" : [ "obj-31", 0 ],
									"hidden" : 0,
									"midpoints" : [  ]
								}

							}
, 							{
								"patchline" : 								{
									"source" : [ "obj-208", 0 ],
									"destination" : [ "obj-31", 0 ],
									"hidden" : 0,
									"midpoints" : [  ]
								}

							}
, 							{
								"patchline" : 								{
									"source" : [ "obj-5", 0 ],
									"destination" : [ "obj-31", 0 ],
									"hidden" : 0,
									"midpoints" : [  ]
								}

							}
, 							{
								"patchline" : 								{
									"source" : [ "obj-369", 1 ],
									"destination" : [ "obj-66", 0 ],
									"hidden" : 0,
									"midpoints" : [  ]
								}

							}
, 							{
								"patchline" : 								{
									"source" : [ "obj-15", 2 ],
									"destination" : [ "obj-5", 0 ],
									"hidden" : 0,
									"midpoints" : [  ]
								}

							}
, 							{
								"patchline" : 								{
									"source" : [ "obj-15", 0 ],
									"destination" : [ "obj-96", 0 ],
									"hidden" : 0,
									"midpoints" : [  ]
								}

							}
, 							{
								"patchline" : 								{
									"source" : [ "obj-10", 0 ],
									"destination" : [ "obj-15", 0 ],
									"hidden" : 0,
									"midpoints" : [  ]
								}

							}
, 							{
								"patchline" : 								{
									"source" : [ "obj-15", 3 ],
									"destination" : [ "obj-369", 0 ],
									"hidden" : 0,
									"midpoints" : [  ]
								}

							}
, 							{
								"patchline" : 								{
									"source" : [ "obj-66", 0 ],
									"destination" : [ "obj-6", 0 ],
									"hidden" : 0,
									"midpoints" : [  ]
								}

							}
, 							{
								"patchline" : 								{
									"source" : [ "obj-66", 1 ],
									"destination" : [ "obj-7", 0 ],
									"hidden" : 0,
									"midpoints" : [  ]
								}

							}
, 							{
								"patchline" : 								{
									"source" : [ "obj-4", 1 ],
									"destination" : [ "obj-11", 0 ],
									"hidden" : 0,
									"midpoints" : [  ]
								}

							}
, 							{
								"patchline" : 								{
									"source" : [ "obj-11", 1 ],
									"destination" : [ "obj-12", 0 ],
									"hidden" : 0,
									"midpoints" : [  ]
								}

							}
, 							{
								"patchline" : 								{
									"source" : [ "obj-6", 0 ],
									"destination" : [ "obj-12", 1 ],
									"hidden" : 0,
									"midpoints" : [  ]
								}

							}
, 							{
								"patchline" : 								{
									"source" : [ "obj-7", 0 ],
									"destination" : [ "obj-12", 1 ],
									"hidden" : 0,
									"midpoints" : [  ]
								}

							}
, 							{
								"patchline" : 								{
									"source" : [ "obj-12", 0 ],
									"destination" : [ "obj-13", 1 ],
									"hidden" : 0,
									"midpoints" : [  ]
								}

							}
, 							{
								"patchline" : 								{
									"source" : [ "obj-11", 0 ],
									"destination" : [ "obj-13", 0 ],
									"hidden" : 0,
									"midpoints" : [  ]
								}

							}
, 							{
								"patchline" : 								{
									"source" : [ "obj-13", 0 ],
									"destination" : [ "obj-21", 0 ],
									"hidden" : 0,
									"midpoints" : [  ]
								}

							}
, 							{
								"patchline" : 								{
									"source" : [ "obj-21", 1 ],
									"destination" : [ "obj-14", 0 ],
									"hidden" : 0,
									"midpoints" : [  ]
								}

							}
, 							{
								"patchline" : 								{
									"source" : [ "obj-21", 0 ],
									"destination" : [ "obj-17", 0 ],
									"hidden" : 0,
									"midpoints" : [  ]
								}

							}
, 							{
								"patchline" : 								{
									"source" : [ "obj-7", 1 ],
									"destination" : [ "obj-3", 3 ],
									"hidden" : 0,
									"midpoints" : [  ]
								}

							}
, 							{
								"patchline" : 								{
									"source" : [ "obj-6", 1 ],
									"destination" : [ "obj-3", 3 ],
									"hidden" : 0,
									"midpoints" : [  ]
								}

							}
, 							{
								"patchline" : 								{
									"source" : [ "obj-3", 0 ],
									"destination" : [ "obj-38", 0 ],
									"hidden" : 0,
									"midpoints" : [  ]
								}

							}
, 							{
								"patchline" : 								{
									"source" : [ "obj-15", 1 ],
									"destination" : [ "obj-3", 0 ],
									"hidden" : 0,
									"midpoints" : [  ]
								}

							}
, 							{
								"patchline" : 								{
									"source" : [ "obj-9", 0 ],
									"destination" : [ "obj-3", 2 ],
									"hidden" : 0,
									"midpoints" : [  ]
								}

							}
 ]
					}
,
					"saved_object_attributes" : 					{
						"default_fontname" : "Arial",
						"fontname" : "Arial",
						"default_fontsize" : 12.0,
						"fontface" : 0,
						"fontsize" : 12.0,
						"globalpatchername" : "",
						"default_fontface" : 0
					}

				}

			}
, 			{
				"box" : 				{
					"maxclass" : "newobj",
					"varname" : "LastDur-gate",
					"text" : "switch 8",
					"fontname" : "Arial",
					"patching_rect" : [ 796.0, 526.0, 127.0, 20.0 ],
					"numinlets" : 9,
					"id" : "obj-8",
					"numoutlets" : 1,
					"fontsize" : 12.0,
					"outlettype" : [ "" ]
				}

			}
, 			{
				"box" : 				{
					"maxclass" : "newobj",
					"varname" : "LastDate-switch",
					"text" : "switch 8",
					"fontname" : "Arial",
					"patching_rect" : [ 44.0, 526.0, 127.0, 20.0 ],
					"numinlets" : 9,
					"id" : "obj-6",
					"numoutlets" : 1,
					"fontsize" : 12.0,
					"outlettype" : [ "" ]
				}

			}
, 			{
				"box" : 				{
					"maxclass" : "newobj",
					"varname" : "CurrentMouse-gate",
					"text" : "gate 8",
					"fontname" : "Arial",
					"patching_rect" : [ 37.0, 167.0, 113.5, 20.0 ],
					"numinlets" : 2,
					"id" : "obj-4",
					"numoutlets" : 8,
					"fontsize" : 12.0,
					"outlettype" : [ "", "", "", "", "", "", "", "" ]
				}

			}
, 			{
				"box" : 				{
					"maxclass" : "bpatcher",
					"patching_rect" : [ 85.0, 133.0, 771.0, 27.0 ],
					"numinlets" : 2,
					"presentation" : 1,
					"id" : "obj-2",
					"name" : "Visu-Display.maxpat",
					"numoutlets" : 4,
					"args" : [ "#1" ],
					"outlettype" : [ "int", "bang", "bang", "float" ],
					"presentation_rect" : [ 172.0, 7.0, 82.0, 26.0 ],
					"frozen_box_attributes" : [ "args" ]
				}

			}
 ],
		"lines" : [ 			{
				"patchline" : 				{
					"source" : [ "obj-2", 0 ],
					"destination" : [ "obj-4", 1 ],
					"hidden" : 0,
					"midpoints" : [  ]
				}

			}
, 			{
				"patchline" : 				{
					"source" : [ "obj-6", 0 ],
					"destination" : [ "obj-2", 0 ],
					"hidden" : 0,
					"midpoints" : [ 53.5, 554.0, 30.5, 554.0, 30.5, 115.0, 94.5, 115.0 ]
				}

			}
, 			{
				"patchline" : 				{
					"source" : [ "obj-8", 0 ],
					"destination" : [ "obj-2", 1 ],
					"hidden" : 0,
					"midpoints" : [ 805.5, 553.0, 935.0, 553.0, 935.0, 117.0, 846.5, 117.0 ]
				}

			}
, 			{
				"patchline" : 				{
					"source" : [ "obj-53", 0 ],
					"destination" : [ "obj-22", 0 ],
					"hidden" : 0,
					"midpoints" : [  ]
				}

			}
, 			{
				"patchline" : 				{
					"source" : [ "obj-26", 0 ],
					"destination" : [ "obj-11", 0 ],
					"hidden" : 0,
					"midpoints" : [  ]
				}

			}
, 			{
				"patchline" : 				{
					"source" : [ "obj-23", 0 ],
					"destination" : [ "obj-24", 0 ],
					"hidden" : 0,
					"midpoints" : [  ]
				}

			}
, 			{
				"patchline" : 				{
					"source" : [ "obj-11", 0 ],
					"destination" : [ "obj-23", 0 ],
					"hidden" : 0,
					"midpoints" : [  ]
				}

			}
, 			{
				"patchline" : 				{
					"source" : [ "obj-15", 0 ],
					"destination" : [ "obj-14", 0 ],
					"hidden" : 0,
					"midpoints" : [  ]
				}

			}
, 			{
				"patchline" : 				{
					"source" : [ "obj-9", 0 ],
					"destination" : [ "obj-15", 0 ],
					"hidden" : 0,
					"midpoints" : [  ]
				}

			}
, 			{
				"patchline" : 				{
					"source" : [ "obj-13", 0 ],
					"destination" : [ "obj-55", 0 ],
					"hidden" : 0,
					"midpoints" : [  ]
				}

			}
, 			{
				"patchline" : 				{
					"source" : [ "obj-7", 0 ],
					"destination" : [ "obj-12", 0 ],
					"hidden" : 0,
					"midpoints" : [  ]
				}

			}
, 			{
				"patchline" : 				{
					"source" : [ "obj-55", 1 ],
					"destination" : [ "obj-70", 0 ],
					"hidden" : 0,
					"midpoints" : [ 321.5, 75.0, 430.5, 75.0 ]
				}

			}
, 			{
				"patchline" : 				{
					"source" : [ "obj-55", 0 ],
					"destination" : [ "obj-54", 0 ],
					"hidden" : 0,
					"midpoints" : [  ]
				}

			}
, 			{
				"patchline" : 				{
					"source" : [ "obj-54", 0 ],
					"destination" : [ "obj-56", 0 ],
					"hidden" : 0,
					"midpoints" : [  ]
				}

			}
, 			{
				"patchline" : 				{
					"source" : [ "obj-52", 0 ],
					"destination" : [ "obj-12", 0 ],
					"hidden" : 0,
					"midpoints" : [  ]
				}

			}
, 			{
				"patchline" : 				{
					"source" : [ "obj-12", 0 ],
					"destination" : [ "obj-14", 0 ],
					"hidden" : 0,
					"midpoints" : [  ]
				}

			}
, 			{
				"patchline" : 				{
					"source" : [ "obj-53", 0 ],
					"destination" : [ "obj-1", 0 ],
					"hidden" : 0,
					"midpoints" : [  ]
				}

			}
, 			{
				"patchline" : 				{
					"source" : [ "obj-1", 0 ],
					"destination" : [ "obj-55", 0 ],
					"hidden" : 0,
					"midpoints" : [  ]
				}

			}
, 			{
				"patchline" : 				{
					"source" : [ "obj-17", 0 ],
					"destination" : [ "obj-11", 0 ],
					"hidden" : 0,
					"midpoints" : [  ]
				}

			}
, 			{
				"patchline" : 				{
					"source" : [ "obj-21", 0 ],
					"destination" : [ "obj-17", 0 ],
					"hidden" : 0,
					"midpoints" : [  ]
				}

			}
, 			{
				"patchline" : 				{
					"source" : [ "obj-3", 0 ],
					"destination" : [ "obj-10", 0 ],
					"hidden" : 0,
					"midpoints" : [  ]
				}

			}
, 			{
				"patchline" : 				{
					"source" : [ "obj-10", 0 ],
					"destination" : [ "obj-8", 0 ],
					"hidden" : 0,
					"midpoints" : [  ]
				}

			}
, 			{
				"patchline" : 				{
					"source" : [ "obj-10", 0 ],
					"destination" : [ "obj-6", 0 ],
					"hidden" : 0,
					"midpoints" : [  ]
				}

			}
, 			{
				"patchline" : 				{
					"source" : [ "obj-10", 0 ],
					"destination" : [ "obj-4", 0 ],
					"hidden" : 0,
					"midpoints" : [  ]
				}

			}
, 			{
				"patchline" : 				{
					"source" : [ "obj-22", 0 ],
					"destination" : [ "obj-10", 0 ],
					"hidden" : 0,
					"midpoints" : [  ]
				}

			}
 ]
	}

}
