{
	"patcher" : 	{
		"fileversion" : 1,
		"rect" : [ 214.0, 86.0, 667.0, 559.0 ],
		"bglocked" : 0,
		"defrect" : [ 214.0, 86.0, 667.0, 559.0 ],
		"openrect" : [ 0.0, 0.0, 0.0, 0.0 ],
		"openinpresentation" : 0,
		"default_fontsize" : 12.0,
		"default_fontface" : 0,
		"default_fontname" : "Arial",
		"gridonopen" : 0,
		"gridsize" : [ 5.0, 5.0 ],
		"gridsnaponopen" : 0,
		"toolbarvisible" : 1,
		"boxanimatetime" : 200,
		"imprint" : 0,
		"enablehscroll" : 1,
		"enablevscroll" : 1,
		"devicewidth" : 0.0,
		"boxes" : [ 			{
				"box" : 				{
					"maxclass" : "newobj",
					"text" : "t b b",
					"outlettype" : [ "bang", "bang" ],
					"fontsize" : 12.0,
					"numinlets" : 1,
					"patching_rect" : [ 277.0, 287.0, 34.0, 20.0 ],
					"id" : "obj-12",
					"fontname" : "Arial",
					"numoutlets" : 2
				}

			}
, 			{
				"box" : 				{
					"maxclass" : "newobj",
					"text" : "t 1",
					"outlettype" : [ "int" ],
					"fontsize" : 12.0,
					"numinlets" : 1,
					"patching_rect" : [ 219.0, 283.0, 24.0, 20.0 ],
					"id" : "obj-10",
					"fontname" : "Arial",
					"numoutlets" : 1
				}

			}
, 			{
				"box" : 				{
					"maxclass" : "newobj",
					"text" : "i 0",
					"outlettype" : [ "int" ],
					"fontsize" : 12.0,
					"numinlets" : 2,
					"patching_rect" : [ 219.0, 342.0, 32.5, 20.0 ],
					"id" : "obj-8",
					"fontname" : "Arial",
					"numoutlets" : 1
				}

			}
, 			{
				"box" : 				{
					"maxclass" : "newobj",
					"text" : "trough",
					"outlettype" : [ "int", "int", "int" ],
					"fontsize" : 12.0,
					"numinlets" : 2,
					"patching_rect" : [ 230.0, 385.0, 46.0, 20.0 ],
					"id" : "obj-4",
					"fontname" : "Arial",
					"numoutlets" : 3
				}

			}
, 			{
				"box" : 				{
					"maxclass" : "newobj",
					"text" : "del 0",
					"outlettype" : [ "bang" ],
					"fontsize" : 12.0,
					"numinlets" : 2,
					"patching_rect" : [ 219.0, 256.0, 37.0, 20.0 ],
					"id" : "obj-3",
					"fontname" : "Arial",
					"numoutlets" : 1
				}

			}
, 			{
				"box" : 				{
					"maxclass" : "newobj",
					"text" : "+ 1",
					"outlettype" : [ "int" ],
					"fontsize" : 12.0,
					"numinlets" : 2,
					"patching_rect" : [ 219.0, 317.0, 32.5, 20.0 ],
					"id" : "obj-1",
					"fontname" : "Arial",
					"numoutlets" : 1
				}

			}
, 			{
				"box" : 				{
					"maxclass" : "button",
					"outlettype" : [ "bang" ],
					"numinlets" : 1,
					"patching_rect" : [ 78.0, 35.0, 39.0, 39.0 ],
					"id" : "obj-21",
					"numoutlets" : 1
				}

			}
, 			{
				"box" : 				{
					"maxclass" : "comment",
					"text" : "< custom data structure",
					"fontsize" : 12.0,
					"numinlets" : 1,
					"patching_rect" : [ 419.0, 238.0, 150.0, 20.0 ],
					"id" : "obj-19",
					"fontname" : "Arial",
					"numoutlets" : 0
				}

			}
, 			{
				"box" : 				{
					"maxclass" : "comment",
					"text" : "< number of events",
					"fontsize" : 12.0,
					"numinlets" : 1,
					"patching_rect" : [ 363.0, 164.0, 150.0, 20.0 ],
					"id" : "obj-14",
					"fontname" : "Arial",
					"numoutlets" : 0
				}

			}
, 			{
				"box" : 				{
					"maxclass" : "comment",
					"text" : "< get all the events as fast as possible",
					"linecount" : 2,
					"fontsize" : 12.0,
					"numinlets" : 1,
					"patching_rect" : [ 303.0, 191.0, 113.0, 34.0 ],
					"id" : "obj-11",
					"fontname" : "Arial",
					"numoutlets" : 0
				}

			}
, 			{
				"box" : 				{
					"maxclass" : "comment",
					"text" : "< get delta instead of dates",
					"linecount" : 2,
					"fontsize" : 12.0,
					"numinlets" : 1,
					"patching_rect" : [ 415.0, 319.0, 96.0, 34.0 ],
					"id" : "obj-9",
					"fontname" : "Arial",
					"numoutlets" : 0
				}

			}
, 			{
				"box" : 				{
					"maxclass" : "newobj",
					"text" : "t i i",
					"outlettype" : [ "int", "int" ],
					"fontsize" : 12.0,
					"numinlets" : 1,
					"patching_rect" : [ 366.0, 296.0, 32.5, 20.0 ],
					"id" : "obj-5",
					"fontname" : "Arial",
					"numoutlets" : 2
				}

			}
, 			{
				"box" : 				{
					"maxclass" : "newobj",
					"text" : "- 0",
					"outlettype" : [ "int" ],
					"fontsize" : 12.0,
					"numinlets" : 2,
					"patching_rect" : [ 352.0, 333.0, 32.5, 20.0 ],
					"id" : "obj-2",
					"fontname" : "Arial",
					"numoutlets" : 1
				}

			}
, 			{
				"box" : 				{
					"maxclass" : "newobj",
					"text" : "t b stop b b record clear",
					"outlettype" : [ "bang", "stop", "bang", "bang", "record", "clear" ],
					"fontsize" : 12.0,
					"numinlets" : 1,
					"patching_rect" : [ 78.0, 88.0, 207.0, 20.0 ],
					"id" : "obj-28",
					"fontname" : "Arial",
					"numoutlets" : 6
				}

			}
, 			{
				"box" : 				{
					"maxclass" : "newobj",
					"text" : "unpack",
					"outlettype" : [ "int", "int" ],
					"fontsize" : 12.0,
					"numinlets" : 1,
					"patching_rect" : [ 307.0, 265.0, 49.0, 20.0 ],
					"id" : "obj-26",
					"fontname" : "Arial",
					"numoutlets" : 2
				}

			}
, 			{
				"box" : 				{
					"maxclass" : "newobj",
					"text" : "prepend set",
					"outlettype" : [ "" ],
					"fontsize" : 12.0,
					"numinlets" : 1,
					"patching_rect" : [ 352.0, 361.0, 74.0, 20.0 ],
					"id" : "obj-25",
					"fontname" : "Arial",
					"numoutlets" : 1
				}

			}
, 			{
				"box" : 				{
					"maxclass" : "newobj",
					"text" : "unpack",
					"outlettype" : [ "int", "int" ],
					"fontsize" : 12.0,
					"numinlets" : 1,
					"patching_rect" : [ 366.0, 265.0, 49.0, 20.0 ],
					"id" : "obj-24",
					"fontname" : "Arial",
					"numoutlets" : 2
				}

			}
, 			{
				"box" : 				{
					"maxclass" : "newobj",
					"text" : "pack 0 0 0 0",
					"outlettype" : [ "" ],
					"fontsize" : 12.0,
					"numinlets" : 4,
					"patching_rect" : [ 277.0, 410.0, 109.0, 20.0 ],
					"id" : "obj-23",
					"fontname" : "Arial",
					"numoutlets" : 1
				}

			}
, 			{
				"box" : 				{
					"maxclass" : "newobj",
					"text" : "v Write_MIDI-size",
					"outlettype" : [ "" ],
					"fontsize" : 12.0,
					"numinlets" : 1,
					"patching_rect" : [ 257.0, 164.0, 105.0, 20.0 ],
					"id" : "obj-15",
					"fontname" : "Arial",
					"numoutlets" : 1
				}

			}
, 			{
				"box" : 				{
					"maxclass" : "newobj",
					"text" : "OMax.render Write_MIDI",
					"outlettype" : [ "bang", "", "list", "list", "int" ],
					"fontsize" : 12.0,
					"numinlets" : 1,
					"patching_rect" : [ 277.0, 238.0, 144.0, 20.0 ],
					"color" : [ 0.3, 1.0, 0.15, 1.0 ],
					"id" : "obj-13",
					"fontname" : "Arial",
					"numoutlets" : 5
				}

			}
, 			{
				"box" : 				{
					"maxclass" : "newobj",
					"text" : "detonate",
					"outlettype" : [ "int", "int", "int", "int", "int", "int", "int", "int" ],
					"fontsize" : 12.0,
					"numinlets" : 8,
					"patching_rect" : [ 116.0, 517.0, 113.5, 20.0 ],
					"id" : "obj-6",
					"fontname" : "Arial",
					"numoutlets" : 8,
					"save" : [ "#N", "detonate", "", ";", "#X", "setparam", 0, "Time", 0, 0, 999999, 0, 1000, 200, 0, ";", "#X", "setparam", 1, "Pitch", 2, 0, 127, 60, 12, 4, 0, ";", "#X", "setparam", 2, "Vel", 0, 0, 127, 64, 12, 4, 0, ";", "#X", "setparam", 3, "Dur", 1, 1, 99999, 200, 800, 200, 0, ";", "#X", "setparam", 4, "Chan", 0, 1, 16, 1, 8, 1, 0, ";", "#X", "setparam", 5, "Track", 0, 1, 32, 1, 8, 1, 0, ";", "#X", "setparam", 6, "X1", 0, 0, 999, 0, 80, 20, 0, ";", "#X", "setparam", 7, "X2", 0, 0, 999, 0, 80, 20, 0, ";", "#X", "restore", ";", "#X", 0, 66, 56, 413, 1, 1, 0, 0, ";", "#X", "stop", ";" ]
				}

			}
, 			{
				"box" : 				{
					"maxclass" : "message",
					"text" : "write 1",
					"outlettype" : [ "" ],
					"fontsize" : 12.0,
					"numinlets" : 2,
					"patching_rect" : [ 78.0, 349.0, 46.0, 18.0 ],
					"id" : "obj-7",
					"fontname" : "Arial",
					"numoutlets" : 1
				}

			}
 ],
		"lines" : [ 			{
				"patchline" : 				{
					"source" : [ "obj-21", 0 ],
					"destination" : [ "obj-28", 0 ],
					"hidden" : 0,
					"midpoints" : [  ]
				}

			}
, 			{
				"patchline" : 				{
					"source" : [ "obj-28", 1 ],
					"destination" : [ "obj-6", 0 ],
					"hidden" : 0,
					"midpoints" : [  ]
				}

			}
, 			{
				"patchline" : 				{
					"source" : [ "obj-28", 4 ],
					"destination" : [ "obj-6", 0 ],
					"hidden" : 0,
					"midpoints" : [  ]
				}

			}
, 			{
				"patchline" : 				{
					"source" : [ "obj-28", 0 ],
					"destination" : [ "obj-7", 0 ],
					"hidden" : 0,
					"midpoints" : [  ]
				}

			}
, 			{
				"patchline" : 				{
					"source" : [ "obj-28", 5 ],
					"destination" : [ "obj-6", 0 ],
					"hidden" : 0,
					"midpoints" : [  ]
				}

			}
, 			{
				"patchline" : 				{
					"source" : [ "obj-5", 1 ],
					"destination" : [ "obj-2", 0 ],
					"hidden" : 0,
					"midpoints" : [  ]
				}

			}
, 			{
				"patchline" : 				{
					"source" : [ "obj-5", 0 ],
					"destination" : [ "obj-2", 1 ],
					"hidden" : 0,
					"midpoints" : [  ]
				}

			}
, 			{
				"patchline" : 				{
					"source" : [ "obj-2", 0 ],
					"destination" : [ "obj-25", 0 ],
					"hidden" : 0,
					"midpoints" : [  ]
				}

			}
, 			{
				"patchline" : 				{
					"source" : [ "obj-24", 0 ],
					"destination" : [ "obj-5", 0 ],
					"hidden" : 0,
					"midpoints" : [  ]
				}

			}
, 			{
				"patchline" : 				{
					"source" : [ "obj-7", 0 ],
					"destination" : [ "obj-6", 0 ],
					"hidden" : 0,
					"midpoints" : [  ]
				}

			}
, 			{
				"patchline" : 				{
					"source" : [ "obj-25", 0 ],
					"destination" : [ "obj-23", 0 ],
					"hidden" : 0,
					"midpoints" : [  ]
				}

			}
, 			{
				"patchline" : 				{
					"source" : [ "obj-26", 1 ],
					"destination" : [ "obj-23", 2 ],
					"hidden" : 0,
					"midpoints" : [  ]
				}

			}
, 			{
				"patchline" : 				{
					"source" : [ "obj-26", 0 ],
					"destination" : [ "obj-23", 1 ],
					"hidden" : 0,
					"midpoints" : [  ]
				}

			}
, 			{
				"patchline" : 				{
					"source" : [ "obj-23", 0 ],
					"destination" : [ "obj-6", 0 ],
					"hidden" : 0,
					"midpoints" : [  ]
				}

			}
, 			{
				"patchline" : 				{
					"source" : [ "obj-24", 1 ],
					"destination" : [ "obj-23", 3 ],
					"hidden" : 0,
					"midpoints" : [ 405.5, 400.0, 376.5, 400.0 ]
				}

			}
, 			{
				"patchline" : 				{
					"source" : [ "obj-28", 3 ],
					"destination" : [ "obj-15", 0 ],
					"hidden" : 0,
					"midpoints" : [  ]
				}

			}
, 			{
				"patchline" : 				{
					"source" : [ "obj-13", 1 ],
					"destination" : [ "obj-26", 0 ],
					"hidden" : 0,
					"midpoints" : [  ]
				}

			}
, 			{
				"patchline" : 				{
					"source" : [ "obj-13", 3 ],
					"destination" : [ "obj-24", 0 ],
					"hidden" : 0,
					"midpoints" : [  ]
				}

			}
, 			{
				"patchline" : 				{
					"source" : [ "obj-1", 0 ],
					"destination" : [ "obj-8", 0 ],
					"hidden" : 0,
					"midpoints" : [  ]
				}

			}
, 			{
				"patchline" : 				{
					"source" : [ "obj-8", 0 ],
					"destination" : [ "obj-1", 1 ],
					"hidden" : 0,
					"midpoints" : [ 228.5, 371.0, 259.25, 371.0, 259.25, 307.0, 242.0, 307.0 ]
				}

			}
, 			{
				"patchline" : 				{
					"source" : [ "obj-3", 0 ],
					"destination" : [ "obj-10", 0 ],
					"hidden" : 0,
					"midpoints" : [  ]
				}

			}
, 			{
				"patchline" : 				{
					"source" : [ "obj-10", 0 ],
					"destination" : [ "obj-1", 0 ],
					"hidden" : 0,
					"midpoints" : [  ]
				}

			}
, 			{
				"patchline" : 				{
					"source" : [ "obj-13", 0 ],
					"destination" : [ "obj-12", 0 ],
					"hidden" : 0,
					"midpoints" : [  ]
				}

			}
, 			{
				"patchline" : 				{
					"source" : [ "obj-12", 1 ],
					"destination" : [ "obj-23", 0 ],
					"hidden" : 0,
					"midpoints" : [  ]
				}

			}
, 			{
				"patchline" : 				{
					"source" : [ "obj-12", 0 ],
					"destination" : [ "obj-3", 0 ],
					"hidden" : 0,
					"midpoints" : [  ]
				}

			}
, 			{
				"patchline" : 				{
					"source" : [ "obj-8", 0 ],
					"destination" : [ "obj-4", 0 ],
					"hidden" : 0,
					"midpoints" : [  ]
				}

			}
, 			{
				"patchline" : 				{
					"source" : [ "obj-15", 0 ],
					"destination" : [ "obj-4", 1 ],
					"hidden" : 0,
					"midpoints" : [  ]
				}

			}
, 			{
				"patchline" : 				{
					"source" : [ "obj-4", 0 ],
					"destination" : [ "obj-13", 0 ],
					"hidden" : 0,
					"midpoints" : [ 239.5, 414.0, 213.0, 414.0, 213.0, 228.0, 286.5, 228.0 ]
				}

			}
, 			{
				"patchline" : 				{
					"source" : [ "obj-28", 2 ],
					"destination" : [ "obj-8", 0 ],
					"hidden" : 0,
					"midpoints" : [  ]
				}

			}
 ]
	}

}
