{
	"patcher" : 	{
		"fileversion" : 1,
		"rect" : [ 66.0, 44.0, 359.0, 307.0 ],
		"bglocked" : 0,
		"defrect" : [ 66.0, 44.0, 359.0, 307.0 ],
		"openrect" : [ 0.0, 0.0, 0.0, 0.0 ],
		"openinpresentation" : 0,
		"default_fontsize" : 12.0,
		"default_fontface" : 0,
		"default_fontname" : "Arial",
		"gridonopen" : 0,
		"gridsize" : [ 5.0, 5.0 ],
		"gridsnaponopen" : 0,
		"toolbarvisible" : 1,
		"boxanimatetime" : 200,
		"imprint" : 0,
		"enablehscroll" : 1,
		"enablevscroll" : 1,
		"devicewidth" : 0.0,
		"boxes" : [ 			{
				"box" : 				{
					"maxclass" : "outlet",
					"numinlets" : 1,
					"patching_rect" : [ 241.0, 226.0, 25.0, 25.0 ],
					"numoutlets" : 0,
					"id" : "obj-5",
					"comment" : "Window size"
				}

			}
, 			{
				"box" : 				{
					"maxclass" : "newobj",
					"text" : "loadmess #1",
					"fontsize" : 12.0,
					"numinlets" : 1,
					"patching_rect" : [ 241.0, 153.0, 79.0, 20.0 ],
					"numoutlets" : 1,
					"id" : "obj-4",
					"outlettype" : [ "" ],
					"fontname" : "Arial"
				}

			}
, 			{
				"box" : 				{
					"maxclass" : "newobj",
					"text" : "round 0.01 @nearest 0.1",
					"fontsize" : 12.0,
					"numinlets" : 2,
					"patching_rect" : [ 39.0, 180.0, 143.0, 20.0 ],
					"numoutlets" : 1,
					"id" : "obj-1",
					"outlettype" : [ "" ],
					"fontname" : "Arial"
				}

			}
, 			{
				"box" : 				{
					"maxclass" : "newobj",
					"text" : "vexpr log($f1+0.00001)",
					"fontsize" : 12.0,
					"numinlets" : 1,
					"patching_rect" : [ 39.0, 116.0, 134.0, 20.0 ],
					"numoutlets" : 1,
					"id" : "obj-25",
					"outlettype" : [ "" ],
					"fontname" : "Arial"
				}

			}
, 			{
				"box" : 				{
					"maxclass" : "newobj",
					"text" : "loadmess #3",
					"fontsize" : 12.0,
					"numinlets" : 1,
					"patching_rect" : [ 176.0, 54.0, 79.0, 20.0 ],
					"numoutlets" : 1,
					"id" : "obj-24",
					"outlettype" : [ "" ],
					"fontname" : "Arial"
				}

			}
, 			{
				"box" : 				{
					"maxclass" : "newobj",
					"text" : "pfft~ zsa.mel-core #1 #2 #4",
					"fontsize" : 12.0,
					"numinlets" : 2,
					"patching_rect" : [ 39.0, 82.0, 156.0, 20.0 ],
					"numoutlets" : 1,
					"id" : "obj-16",
					"outlettype" : [ "" ],
					"fontname" : "Arial"
				}

			}
, 			{
				"box" : 				{
					"maxclass" : "newobj",
					"text" : "zsa.dct",
					"fontsize" : 12.0,
					"numinlets" : 1,
					"patching_rect" : [ 39.0, 150.0, 49.0, 20.0 ],
					"numoutlets" : 1,
					"id" : "obj-15",
					"outlettype" : [ "" ],
					"fontname" : "Arial"
				}

			}
, 			{
				"box" : 				{
					"maxclass" : "outlet",
					"numinlets" : 1,
					"patching_rect" : [ 39.0, 226.0, 25.0, 25.0 ],
					"numoutlets" : 0,
					"id" : "obj-22",
					"comment" : "list: Quantized vectors"
				}

			}
, 			{
				"box" : 				{
					"maxclass" : "inlet",
					"numinlets" : 0,
					"patching_rect" : [ 279.0, 60.0, 25.0, 25.0 ],
					"numoutlets" : 1,
					"id" : "obj-12",
					"outlettype" : [ "" ],
					"comment" : "(float) Quantization"
				}

			}
, 			{
				"box" : 				{
					"maxclass" : "inlet",
					"numinlets" : 0,
					"patching_rect" : [ 39.0, 15.0, 25.0, 25.0 ],
					"numoutlets" : 1,
					"id" : "obj-7",
					"outlettype" : [ "" ],
					"comment" : ""
				}

			}
 ],
		"lines" : [ 			{
				"patchline" : 				{
					"source" : [ "obj-7", 0 ],
					"destination" : [ "obj-16", 0 ],
					"hidden" : 0,
					"midpoints" : [  ]
				}

			}
, 			{
				"patchline" : 				{
					"source" : [ "obj-24", 0 ],
					"destination" : [ "obj-16", 1 ],
					"hidden" : 0,
					"midpoints" : [  ]
				}

			}
, 			{
				"patchline" : 				{
					"source" : [ "obj-16", 0 ],
					"destination" : [ "obj-25", 0 ],
					"hidden" : 0,
					"midpoints" : [  ]
				}

			}
, 			{
				"patchline" : 				{
					"source" : [ "obj-4", 0 ],
					"destination" : [ "obj-5", 0 ],
					"hidden" : 0,
					"midpoints" : [  ]
				}

			}
, 			{
				"patchline" : 				{
					"source" : [ "obj-15", 0 ],
					"destination" : [ "obj-1", 0 ],
					"hidden" : 0,
					"midpoints" : [  ]
				}

			}
, 			{
				"patchline" : 				{
					"source" : [ "obj-25", 0 ],
					"destination" : [ "obj-15", 0 ],
					"hidden" : 0,
					"midpoints" : [  ]
				}

			}
, 			{
				"patchline" : 				{
					"source" : [ "obj-12", 0 ],
					"destination" : [ "obj-1", 1 ],
					"hidden" : 0,
					"midpoints" : [  ]
				}

			}
, 			{
				"patchline" : 				{
					"source" : [ "obj-1", 0 ],
					"destination" : [ "obj-22", 0 ],
					"hidden" : 0,
					"midpoints" : [  ]
				}

			}
 ]
	}

}
