{
	"patcher" : 	{
		"fileversion" : 1,
		"rect" : [ 81.0, 69.0, 669.0, 675.0 ],
		"bglocked" : 0,
		"defrect" : [ 81.0, 69.0, 669.0, 675.0 ],
		"openrect" : [ 0.0, 0.0, 0.0, 0.0 ],
		"openinpresentation" : 0,
		"default_fontsize" : 12.0,
		"default_fontface" : 0,
		"default_fontname" : "Arial",
		"gridonopen" : 0,
		"gridsize" : [ 5.0, 5.0 ],
		"gridsnaponopen" : 0,
		"toolbarvisible" : 1,
		"boxanimatetime" : 200,
		"imprint" : 0,
		"boxes" : [ 			{
				"box" : 				{
					"maxclass" : "message",
					"text" : "glvertex $1 $2",
					"patching_rect" : [ 122.0, 692.0, 86.0, 18.0 ],
					"id" : "obj-28",
					"fontname" : "Arial",
					"numinlets" : 2,
					"numoutlets" : 1,
					"fontsize" : 12.0,
					"outlettype" : [ "" ]
				}

			}
, 			{
				"box" : 				{
					"maxclass" : "comment",
					"text" : "y axis offset",
					"patching_rect" : [ 531.0, 601.0, 78.0, 20.0 ],
					"frgb" : [ 0.0, 0.0, 0.0, 1.0 ],
					"id" : "obj-23",
					"fontname" : "Arial",
					"numinlets" : 1,
					"numoutlets" : 0,
					"fontsize" : 12.0
				}

			}
, 			{
				"box" : 				{
					"maxclass" : "inlet",
					"patching_rect" : [ 607.0, 562.0, 25.0, 25.0 ],
					"id" : "obj-24",
					"numinlets" : 0,
					"numoutlets" : 1,
					"outlettype" : [ "" ],
					"comment" : "Y offset"
				}

			}
, 			{
				"box" : 				{
					"maxclass" : "newobj",
					"text" : "+ 0.",
					"patching_rect" : [ 179.0, 639.0, 32.5, 20.0 ],
					"id" : "obj-21",
					"fontname" : "Arial",
					"numinlets" : 2,
					"numoutlets" : 1,
					"fontsize" : 12.0,
					"outlettype" : [ "float" ]
				}

			}
, 			{
				"box" : 				{
					"maxclass" : "newobj",
					"text" : "pack 0. 0.",
					"patching_rect" : [ 122.0, 665.0, 63.0, 20.0 ],
					"id" : "obj-20",
					"fontname" : "Arial",
					"numinlets" : 2,
					"numoutlets" : 1,
					"fontsize" : 12.0,
					"outlettype" : [ "" ]
				}

			}
, 			{
				"box" : 				{
					"maxclass" : "newobj",
					"text" : "unpack 0. 0.",
					"patching_rect" : [ 122.0, 613.0, 76.0, 20.0 ],
					"id" : "obj-19",
					"fontname" : "Arial",
					"numinlets" : 1,
					"numoutlets" : 2,
					"fontsize" : 12.0,
					"outlettype" : [ "float", "float" ]
				}

			}
, 			{
				"box" : 				{
					"maxclass" : "newobj",
					"text" : "route glvertex",
					"patching_rect" : [ 122.0, 587.0, 83.0, 20.0 ],
					"id" : "obj-18",
					"fontname" : "Arial",
					"numinlets" : 1,
					"numoutlets" : 2,
					"fontsize" : 12.0,
					"outlettype" : [ "", "" ]
				}

			}
, 			{
				"box" : 				{
					"maxclass" : "comment",
					"text" : "bottom/top -1/1\ndefault : top",
					"linecount" : 3,
					"patching_rect" : [ 562.0, 399.0, 74.0, 48.0 ],
					"frgb" : [ 0.0, 0.0, 0.0, 1.0 ],
					"id" : "obj-15",
					"fontname" : "Arial",
					"numinlets" : 1,
					"numoutlets" : 0,
					"fontsize" : 12.0
				}

			}
, 			{
				"box" : 				{
					"maxclass" : "inlet",
					"patching_rect" : [ 543.0, 366.0, 25.0, 25.0 ],
					"id" : "obj-17",
					"numinlets" : 0,
					"numoutlets" : 1,
					"outlettype" : [ "" ],
					"comment" : ""
				}

			}
, 			{
				"box" : 				{
					"maxclass" : "inlet",
					"patching_rect" : [ 28.0, 22.0, 25.0, 25.0 ],
					"id" : "obj-11",
					"numinlets" : 0,
					"numoutlets" : 1,
					"outlettype" : [ "" ],
					"comment" : ""
				}

			}
, 			{
				"box" : 				{
					"maxclass" : "newobj",
					"text" : "t i b",
					"patching_rect" : [ 28.0, 165.0, 32.5, 20.0 ],
					"id" : "obj-83",
					"fontname" : "Arial",
					"numinlets" : 1,
					"numoutlets" : 2,
					"fontsize" : 12.0,
					"outlettype" : [ "int", "bang" ]
				}

			}
, 			{
				"box" : 				{
					"maxclass" : "newobj",
					"text" : "append 0.5",
					"patching_rect" : [ 365.0, 141.0, 71.0, 20.0 ],
					"id" : "obj-6",
					"fontname" : "Arial",
					"numinlets" : 1,
					"numoutlets" : 1,
					"fontsize" : 12.0,
					"outlettype" : [ "" ]
				}

			}
, 			{
				"box" : 				{
					"maxclass" : "newobj",
					"text" : "unpack 0 0",
					"patching_rect" : [ 104.0, 224.0, 69.0, 20.0 ],
					"id" : "obj-22",
					"fontname" : "Arial",
					"numinlets" : 1,
					"numoutlets" : 2,
					"fontsize" : 12.0,
					"outlettype" : [ "int", "int" ]
				}

			}
, 			{
				"box" : 				{
					"maxclass" : "newobj",
					"text" : "* 0.01",
					"patching_rect" : [ 104.0, 422.0, 42.0, 20.0 ],
					"id" : "obj-9",
					"fontname" : "Arial",
					"numinlets" : 2,
					"numoutlets" : 1,
					"fontsize" : 12.0,
					"outlettype" : [ "float" ]
				}

			}
, 			{
				"box" : 				{
					"maxclass" : "newobj",
					"text" : "* 0.01",
					"patching_rect" : [ 248.0, 422.0, 42.0, 20.0 ],
					"id" : "obj-10",
					"fontname" : "Arial",
					"numinlets" : 2,
					"numoutlets" : 1,
					"fontsize" : 12.0,
					"outlettype" : [ "float" ]
				}

			}
, 			{
				"box" : 				{
					"maxclass" : "newobj",
					"text" : "r #2-scale",
					"patching_rect" : [ 161.0, 391.0, 63.0, 20.0 ],
					"id" : "obj-14",
					"fontname" : "Arial",
					"numinlets" : 0,
					"numoutlets" : 1,
					"fontsize" : 12.0,
					"outlettype" : [ "" ]
				}

			}
, 			{
				"box" : 				{
					"maxclass" : "newobj",
					"text" : "* 0.01",
					"patching_rect" : [ 150.0, 422.0, 42.0, 20.0 ],
					"id" : "obj-7",
					"fontname" : "Arial",
					"numinlets" : 2,
					"numoutlets" : 1,
					"fontsize" : 12.0,
					"outlettype" : [ "float" ]
				}

			}
, 			{
				"box" : 				{
					"maxclass" : "newobj",
					"text" : "* 0.01",
					"patching_rect" : [ 196.0, 422.0, 42.0, 20.0 ],
					"id" : "obj-8",
					"fontname" : "Arial",
					"numinlets" : 2,
					"numoutlets" : 1,
					"fontsize" : 12.0,
					"outlettype" : [ "float" ]
				}

			}
, 			{
				"box" : 				{
					"maxclass" : "newobj",
					"text" : "t b l",
					"patching_rect" : [ 28.0, 113.0, 355.5, 20.0 ],
					"id" : "obj-13",
					"fontname" : "Arial",
					"numinlets" : 1,
					"numoutlets" : 2,
					"fontsize" : 12.0,
					"outlettype" : [ "bang", "" ]
				}

			}
, 			{
				"box" : 				{
					"maxclass" : "newobj",
					"text" : "t i i",
					"patching_rect" : [ 28.0, 55.0, 32.5, 20.0 ],
					"id" : "obj-12",
					"fontname" : "Arial",
					"numinlets" : 1,
					"numoutlets" : 2,
					"fontsize" : 12.0,
					"outlettype" : [ "int", "int" ]
				}

			}
, 			{
				"box" : 				{
					"maxclass" : "newobj",
					"text" : "i 0",
					"patching_rect" : [ 28.0, 139.0, 32.5, 20.0 ],
					"id" : "obj-5",
					"fontname" : "Arial",
					"numinlets" : 2,
					"numoutlets" : 1,
					"fontsize" : 12.0,
					"outlettype" : [ "int" ]
				}

			}
, 			{
				"box" : 				{
					"maxclass" : "newobj",
					"text" : "coll #1-color",
					"patching_rect" : [ 28.0, 85.0, 75.0, 20.0 ],
					"id" : "obj-3",
					"fontname" : "Arial",
					"numinlets" : 1,
					"numoutlets" : 4,
					"fontsize" : 12.0,
					"outlettype" : [ "", "", "", "" ],
					"saved_object_attributes" : 					{
						"embed" : 0
					}

				}

			}
, 			{
				"box" : 				{
					"maxclass" : "inlet",
					"patching_rect" : [ 255.0, 498.0, 25.0, 25.0 ],
					"id" : "obj-79",
					"numinlets" : 0,
					"numoutlets" : 1,
					"outlettype" : [ "" ],
					"comment" : ""
				}

			}
, 			{
				"box" : 				{
					"maxclass" : "inlet",
					"patching_rect" : [ 480.0, 477.0, 25.0, 25.0 ],
					"id" : "obj-34",
					"numinlets" : 0,
					"numoutlets" : 1,
					"outlettype" : [ "" ],
					"comment" : ""
				}

			}
, 			{
				"box" : 				{
					"maxclass" : "comment",
					"text" : "enable",
					"patching_rect" : [ 507.0, 518.0, 47.0, 20.0 ],
					"presentation" : 1,
					"frgb" : [ 0.0, 0.0, 0.0, 1.0 ],
					"id" : "obj-36",
					"fontname" : "Arial",
					"numinlets" : 1,
					"numoutlets" : 0,
					"presentation_rect" : [ 125.0, 124.0, 48.0, 20.0 ],
					"fontsize" : 12.0
				}

			}
, 			{
				"box" : 				{
					"maxclass" : "newobj",
					"text" : "loadmess 0",
					"patching_rect" : [ 512.0, 484.0, 72.0, 20.0 ],
					"id" : "obj-35",
					"fontname" : "Arial",
					"numinlets" : 1,
					"numoutlets" : 1,
					"fontsize" : 12.0,
					"outlettype" : [ "" ]
				}

			}
, 			{
				"box" : 				{
					"maxclass" : "toggle",
					"patching_rect" : [ 480.0, 518.0, 20.0, 20.0 ],
					"presentation" : 1,
					"id" : "obj-62",
					"numinlets" : 1,
					"numoutlets" : 1,
					"presentation_rect" : [ 100.0, 124.0, 20.0, 20.0 ],
					"outlettype" : [ "int" ]
				}

			}
, 			{
				"box" : 				{
					"maxclass" : "message",
					"text" : "enable $1",
					"patching_rect" : [ 480.0, 556.0, 63.0, 18.0 ],
					"id" : "obj-54",
					"fontname" : "Arial",
					"numinlets" : 2,
					"numoutlets" : 1,
					"fontsize" : 12.0,
					"outlettype" : [ "" ]
				}

			}
, 			{
				"box" : 				{
					"maxclass" : "message",
					"text" : "reset",
					"patching_rect" : [ 255.0, 556.0, 37.0, 18.0 ],
					"id" : "obj-59",
					"fontname" : "Arial",
					"numinlets" : 2,
					"numoutlets" : 1,
					"fontsize" : 12.0,
					"outlettype" : [ "" ]
				}

			}
, 			{
				"box" : 				{
					"maxclass" : "newobj",
					"text" : "prepend set",
					"patching_rect" : [ 122.0, 451.0, 74.0, 20.0 ],
					"id" : "obj-49",
					"fontname" : "Arial",
					"numinlets" : 1,
					"numoutlets" : 1,
					"fontsize" : 12.0,
					"outlettype" : [ "" ]
				}

			}
, 			{
				"box" : 				{
					"maxclass" : "newobj",
					"text" : "OMax.state2date #1",
					"patching_rect" : [ 118.0, 363.0, 119.0, 20.0 ],
					"id" : "obj-42",
					"fontname" : "Arial",
					"numinlets" : 1,
					"numoutlets" : 2,
					"color" : [ 0.3, 1.0, 0.15, 1.0 ],
					"fontsize" : 12.0,
					"outlettype" : [ "int", "int" ]
				}

			}
, 			{
				"box" : 				{
					"maxclass" : "newobj",
					"text" : "- 0",
					"patching_rect" : [ 118.0, 337.0, 32.5, 20.0 ],
					"id" : "obj-43",
					"fontname" : "Arial",
					"numinlets" : 2,
					"numoutlets" : 1,
					"fontsize" : 12.0,
					"outlettype" : [ "int" ]
				}

			}
, 			{
				"box" : 				{
					"maxclass" : "newobj",
					"text" : "t i i",
					"patching_rect" : [ 104.0, 254.0, 32.5, 20.0 ],
					"id" : "obj-45",
					"fontname" : "Arial",
					"numinlets" : 1,
					"numoutlets" : 2,
					"fontsize" : 12.0,
					"outlettype" : [ "int", "int" ]
				}

			}
, 			{
				"box" : 				{
					"maxclass" : "newobj",
					"text" : "OMax.state2date #1",
					"patching_rect" : [ 104.0, 281.0, 119.0, 20.0 ],
					"id" : "obj-47",
					"fontname" : "Arial",
					"numinlets" : 1,
					"numoutlets" : 2,
					"color" : [ 0.3, 1.0, 0.15, 1.0 ],
					"fontsize" : 12.0,
					"outlettype" : [ "int", "int" ]
				}

			}
, 			{
				"box" : 				{
					"maxclass" : "newobj",
					"text" : "OMax.state2date #1",
					"patching_rect" : [ 248.0, 362.0, 119.0, 20.0 ],
					"id" : "obj-41",
					"fontname" : "Arial",
					"numinlets" : 1,
					"numoutlets" : 2,
					"color" : [ 0.3, 1.0, 0.15, 1.0 ],
					"fontsize" : 12.0,
					"outlettype" : [ "int", "int" ]
				}

			}
, 			{
				"box" : 				{
					"maxclass" : "newobj",
					"text" : "!- 0",
					"patching_rect" : [ 248.0, 336.0, 32.5, 20.0 ],
					"id" : "obj-38",
					"fontname" : "Arial",
					"numinlets" : 2,
					"numoutlets" : 1,
					"fontsize" : 12.0,
					"outlettype" : [ "int" ]
				}

			}
, 			{
				"box" : 				{
					"maxclass" : "newobj",
					"text" : "t i i",
					"patching_rect" : [ 234.0, 254.0, 32.5, 20.0 ],
					"id" : "obj-37",
					"fontname" : "Arial",
					"numinlets" : 1,
					"numoutlets" : 2,
					"fontsize" : 12.0,
					"outlettype" : [ "int", "int" ]
				}

			}
, 			{
				"box" : 				{
					"maxclass" : "newobj",
					"text" : "r #2-reset",
					"patching_rect" : [ 272.0, 525.0, 62.0, 20.0 ],
					"id" : "obj-4",
					"fontname" : "Arial",
					"numinlets" : 0,
					"numoutlets" : 1,
					"fontsize" : 12.0,
					"outlettype" : [ "" ]
				}

			}
, 			{
				"box" : 				{
					"maxclass" : "newobj",
					"text" : "OMax.read #1",
					"patching_rect" : [ 28.0, 196.0, 171.0, 20.0 ],
					"id" : "obj-26",
					"fontname" : "Arial",
					"numinlets" : 1,
					"numoutlets" : 5,
					"color" : [ 0.3, 1.0, 0.15, 1.0 ],
					"fontsize" : 12.0,
					"outlettype" : [ "bang", "list", "list", "list", "int" ]
				}

			}
, 			{
				"box" : 				{
					"maxclass" : "message",
					"text" : "glcolor $1 $2 $3 $4",
					"patching_rect" : [ 365.0, 556.0, 113.0, 18.0 ],
					"id" : "obj-29",
					"fontname" : "Arial",
					"numinlets" : 2,
					"numoutlets" : 1,
					"fontsize" : 12.0,
					"outlettype" : [ "" ]
				}

			}
, 			{
				"box" : 				{
					"maxclass" : "newobj",
					"text" : "jit.gl.sketch #2 @auto_material 0 @depth_enable 0 @two_sided 0 @pushstate 0 @blend_enable 1",
					"patching_rect" : [ 122.0, 736.0, 520.0, 20.0 ],
					"id" : "obj-16",
					"fontname" : "Arial",
					"numinlets" : 1,
					"numoutlets" : 2,
					"color" : [ 0.698039, 0.698039, 0.698039, 1.0 ],
					"fontsize" : 11.595187,
					"outlettype" : [ "", "" ]
				}

			}
, 			{
				"box" : 				{
					"maxclass" : "newobj",
					"text" : "pack 0. 0. 0. 0.",
					"patching_rect" : [ 122.0, 527.0, 89.0, 20.0 ],
					"id" : "obj-2",
					"fontname" : "Arial",
					"numinlets" : 4,
					"numoutlets" : 1,
					"fontsize" : 12.0,
					"outlettype" : [ "" ]
				}

			}
, 			{
				"box" : 				{
					"maxclass" : "newobj",
					"text" : "OMax-tri",
					"patching_rect" : [ 122.0, 556.0, 56.0, 20.0 ],
					"id" : "obj-1",
					"fontname" : "Arial",
					"numinlets" : 2,
					"numoutlets" : 1,
					"color" : [ 0.278431, 0.921569, 0.639216, 1.0 ],
					"fontsize" : 12.0,
					"outlettype" : [ "" ]
				}

			}
, 			{
				"box" : 				{
					"maxclass" : "newobj",
					"text" : "OMax.state2date #1",
					"patching_rect" : [ 234.0, 281.0, 119.0, 20.0 ],
					"id" : "obj-32",
					"fontname" : "Arial",
					"numinlets" : 1,
					"numoutlets" : 2,
					"color" : [ 0.3, 1.0, 0.15, 1.0 ],
					"fontsize" : 12.0,
					"outlettype" : [ "int", "int" ]
				}

			}
 ],
		"lines" : [ 			{
				"patchline" : 				{
					"source" : [ "obj-18", 1 ],
					"destination" : [ "obj-16", 0 ],
					"hidden" : 0,
					"midpoints" : [  ]
				}

			}
, 			{
				"patchline" : 				{
					"source" : [ "obj-28", 0 ],
					"destination" : [ "obj-16", 0 ],
					"hidden" : 0,
					"midpoints" : [  ]
				}

			}
, 			{
				"patchline" : 				{
					"source" : [ "obj-1", 0 ],
					"destination" : [ "obj-18", 0 ],
					"hidden" : 0,
					"midpoints" : [  ]
				}

			}
, 			{
				"patchline" : 				{
					"source" : [ "obj-20", 0 ],
					"destination" : [ "obj-28", 0 ],
					"hidden" : 0,
					"midpoints" : [  ]
				}

			}
, 			{
				"patchline" : 				{
					"source" : [ "obj-19", 0 ],
					"destination" : [ "obj-20", 0 ],
					"hidden" : 0,
					"midpoints" : [  ]
				}

			}
, 			{
				"patchline" : 				{
					"source" : [ "obj-21", 0 ],
					"destination" : [ "obj-20", 1 ],
					"hidden" : 0,
					"midpoints" : [  ]
				}

			}
, 			{
				"patchline" : 				{
					"source" : [ "obj-19", 1 ],
					"destination" : [ "obj-21", 0 ],
					"hidden" : 0,
					"midpoints" : [  ]
				}

			}
, 			{
				"patchline" : 				{
					"source" : [ "obj-18", 0 ],
					"destination" : [ "obj-19", 0 ],
					"hidden" : 0,
					"midpoints" : [  ]
				}

			}
, 			{
				"patchline" : 				{
					"source" : [ "obj-24", 0 ],
					"destination" : [ "obj-21", 1 ],
					"hidden" : 0,
					"midpoints" : [ 616.5, 627.0, 202.0, 627.0 ]
				}

			}
, 			{
				"patchline" : 				{
					"source" : [ "obj-59", 0 ],
					"destination" : [ "obj-16", 0 ],
					"hidden" : 0,
					"midpoints" : [ 264.5, 725.0, 131.5, 725.0 ]
				}

			}
, 			{
				"patchline" : 				{
					"source" : [ "obj-29", 0 ],
					"destination" : [ "obj-16", 0 ],
					"hidden" : 0,
					"midpoints" : [  ]
				}

			}
, 			{
				"patchline" : 				{
					"source" : [ "obj-54", 0 ],
					"destination" : [ "obj-16", 0 ],
					"hidden" : 0,
					"midpoints" : [  ]
				}

			}
, 			{
				"patchline" : 				{
					"source" : [ "obj-10", 0 ],
					"destination" : [ "obj-2", 2 ],
					"hidden" : 0,
					"midpoints" : [  ]
				}

			}
, 			{
				"patchline" : 				{
					"source" : [ "obj-9", 0 ],
					"destination" : [ "obj-2", 1 ],
					"hidden" : 0,
					"midpoints" : [  ]
				}

			}
, 			{
				"patchline" : 				{
					"source" : [ "obj-22", 1 ],
					"destination" : [ "obj-38", 0 ],
					"hidden" : 0,
					"midpoints" : [  ]
				}

			}
, 			{
				"patchline" : 				{
					"source" : [ "obj-37", 1 ],
					"destination" : [ "obj-38", 1 ],
					"hidden" : 0,
					"midpoints" : [  ]
				}

			}
, 			{
				"patchline" : 				{
					"source" : [ "obj-38", 0 ],
					"destination" : [ "obj-41", 0 ],
					"hidden" : 0,
					"midpoints" : [  ]
				}

			}
, 			{
				"patchline" : 				{
					"source" : [ "obj-6", 0 ],
					"destination" : [ "obj-29", 0 ],
					"hidden" : 0,
					"midpoints" : [  ]
				}

			}
, 			{
				"patchline" : 				{
					"source" : [ "obj-13", 1 ],
					"destination" : [ "obj-6", 0 ],
					"hidden" : 0,
					"midpoints" : [  ]
				}

			}
, 			{
				"patchline" : 				{
					"source" : [ "obj-43", 0 ],
					"destination" : [ "obj-42", 0 ],
					"hidden" : 0,
					"midpoints" : [  ]
				}

			}
, 			{
				"patchline" : 				{
					"source" : [ "obj-3", 0 ],
					"destination" : [ "obj-13", 0 ],
					"hidden" : 0,
					"midpoints" : [  ]
				}

			}
, 			{
				"patchline" : 				{
					"source" : [ "obj-12", 0 ],
					"destination" : [ "obj-3", 0 ],
					"hidden" : 0,
					"midpoints" : [  ]
				}

			}
, 			{
				"patchline" : 				{
					"source" : [ "obj-4", 0 ],
					"destination" : [ "obj-59", 0 ],
					"hidden" : 0,
					"midpoints" : [  ]
				}

			}
, 			{
				"patchline" : 				{
					"source" : [ "obj-79", 0 ],
					"destination" : [ "obj-59", 0 ],
					"hidden" : 0,
					"midpoints" : [  ]
				}

			}
, 			{
				"patchline" : 				{
					"source" : [ "obj-13", 0 ],
					"destination" : [ "obj-5", 0 ],
					"hidden" : 0,
					"midpoints" : [  ]
				}

			}
, 			{
				"patchline" : 				{
					"source" : [ "obj-12", 1 ],
					"destination" : [ "obj-5", 1 ],
					"hidden" : 0,
					"midpoints" : [  ]
				}

			}
, 			{
				"patchline" : 				{
					"source" : [ "obj-49", 0 ],
					"destination" : [ "obj-2", 0 ],
					"hidden" : 0,
					"midpoints" : [  ]
				}

			}
, 			{
				"patchline" : 				{
					"source" : [ "obj-45", 1 ],
					"destination" : [ "obj-43", 0 ],
					"hidden" : 0,
					"midpoints" : [  ]
				}

			}
, 			{
				"patchline" : 				{
					"source" : [ "obj-45", 0 ],
					"destination" : [ "obj-47", 0 ],
					"hidden" : 0,
					"midpoints" : [  ]
				}

			}
, 			{
				"patchline" : 				{
					"source" : [ "obj-37", 0 ],
					"destination" : [ "obj-32", 0 ],
					"hidden" : 0,
					"midpoints" : [  ]
				}

			}
, 			{
				"patchline" : 				{
					"source" : [ "obj-34", 0 ],
					"destination" : [ "obj-62", 0 ],
					"hidden" : 0,
					"midpoints" : [  ]
				}

			}
, 			{
				"patchline" : 				{
					"source" : [ "obj-35", 0 ],
					"destination" : [ "obj-62", 0 ],
					"hidden" : 0,
					"midpoints" : [  ]
				}

			}
, 			{
				"patchline" : 				{
					"source" : [ "obj-62", 0 ],
					"destination" : [ "obj-54", 0 ],
					"hidden" : 0,
					"midpoints" : [  ]
				}

			}
, 			{
				"patchline" : 				{
					"source" : [ "obj-47", 0 ],
					"destination" : [ "obj-9", 0 ],
					"hidden" : 0,
					"midpoints" : [  ]
				}

			}
, 			{
				"patchline" : 				{
					"source" : [ "obj-41", 0 ],
					"destination" : [ "obj-10", 0 ],
					"hidden" : 0,
					"midpoints" : [  ]
				}

			}
, 			{
				"patchline" : 				{
					"source" : [ "obj-42", 0 ],
					"destination" : [ "obj-7", 0 ],
					"hidden" : 0,
					"midpoints" : [  ]
				}

			}
, 			{
				"patchline" : 				{
					"source" : [ "obj-7", 0 ],
					"destination" : [ "obj-2", 3 ],
					"hidden" : 0,
					"midpoints" : [  ]
				}

			}
, 			{
				"patchline" : 				{
					"source" : [ "obj-32", 0 ],
					"destination" : [ "obj-8", 0 ],
					"hidden" : 0,
					"midpoints" : [  ]
				}

			}
, 			{
				"patchline" : 				{
					"source" : [ "obj-8", 0 ],
					"destination" : [ "obj-49", 0 ],
					"hidden" : 0,
					"midpoints" : [  ]
				}

			}
, 			{
				"patchline" : 				{
					"source" : [ "obj-14", 0 ],
					"destination" : [ "obj-9", 1 ],
					"hidden" : 0,
					"midpoints" : [  ]
				}

			}
, 			{
				"patchline" : 				{
					"source" : [ "obj-14", 0 ],
					"destination" : [ "obj-7", 1 ],
					"hidden" : 0,
					"midpoints" : [  ]
				}

			}
, 			{
				"patchline" : 				{
					"source" : [ "obj-14", 0 ],
					"destination" : [ "obj-8", 1 ],
					"hidden" : 0,
					"midpoints" : [  ]
				}

			}
, 			{
				"patchline" : 				{
					"source" : [ "obj-14", 0 ],
					"destination" : [ "obj-10", 1 ],
					"hidden" : 0,
					"midpoints" : [  ]
				}

			}
, 			{
				"patchline" : 				{
					"source" : [ "obj-26", 0 ],
					"destination" : [ "obj-2", 0 ],
					"hidden" : 0,
					"midpoints" : [ 37.5, 508.0, 131.5, 508.0 ]
				}

			}
, 			{
				"patchline" : 				{
					"source" : [ "obj-26", 2 ],
					"destination" : [ "obj-22", 0 ],
					"hidden" : 0,
					"midpoints" : [  ]
				}

			}
, 			{
				"patchline" : 				{
					"source" : [ "obj-22", 0 ],
					"destination" : [ "obj-45", 0 ],
					"hidden" : 0,
					"midpoints" : [  ]
				}

			}
, 			{
				"patchline" : 				{
					"source" : [ "obj-22", 1 ],
					"destination" : [ "obj-43", 1 ],
					"hidden" : 0,
					"midpoints" : [  ]
				}

			}
, 			{
				"patchline" : 				{
					"source" : [ "obj-26", 4 ],
					"destination" : [ "obj-37", 0 ],
					"hidden" : 0,
					"midpoints" : [  ]
				}

			}
, 			{
				"patchline" : 				{
					"source" : [ "obj-83", 0 ],
					"destination" : [ "obj-26", 0 ],
					"hidden" : 0,
					"midpoints" : [  ]
				}

			}
, 			{
				"patchline" : 				{
					"source" : [ "obj-5", 0 ],
					"destination" : [ "obj-83", 0 ],
					"hidden" : 0,
					"midpoints" : [  ]
				}

			}
, 			{
				"patchline" : 				{
					"source" : [ "obj-11", 0 ],
					"destination" : [ "obj-12", 0 ],
					"hidden" : 0,
					"midpoints" : [  ]
				}

			}
, 			{
				"patchline" : 				{
					"source" : [ "obj-2", 0 ],
					"destination" : [ "obj-1", 0 ],
					"hidden" : 0,
					"midpoints" : [  ]
				}

			}
, 			{
				"patchline" : 				{
					"source" : [ "obj-17", 0 ],
					"destination" : [ "obj-1", 1 ],
					"hidden" : 0,
					"midpoints" : [ 552.5, 468.0, 242.0, 468.0, 242.0, 552.0, 168.5, 552.0 ]
				}

			}
 ]
	}

}
